<?xml version="1.0" encoding="utf-8" standalone="no"?>
<!DOCTYPE svg PUBLIC "-//W3C//DTD SVG 1.1//EN"
  "http://www.w3.org/Graphics/SVG/1.1/DTD/svg11.dtd">
<!-- Created with matplotlib (http://matplotlib.org/) -->
<svg height="720pt" version="1.1" viewBox="0 0 1440 720" width="1440pt" xmlns="http://www.w3.org/2000/svg" xmlns:xlink="http://www.w3.org/1999/xlink">
 <defs>
  <style type="text/css">
*{stroke-linecap:butt;stroke-linejoin:round;stroke-miterlimit:100000;}
  </style>
 </defs>
 <g id="figure_1">
  <g id="patch_1">
   <path d="M 0 720 
L 1440 720 
L 1440 0 
L 0 0 
z
" style="fill:#ffffff;"/>
  </g>
  <g id="axes_1">
   <g id="patch_2">
    <path d="M 180 648 
L 1296 648 
L 1296 72 
L 180 72 
z
" style="fill:#ffffff;"/>
   </g>
   <g id="line2d_1">
    <path clip-path="url(#pd88d4bb667)" d="M 180 493.560003 
L 180.475501 492.775204 
L 180.951001 493.0344 
L 181.426502 495.359996 
L 181.902003 495.359996 
L 183.328504 494.639999 
L 183.804005 496.965604 
L 184.279506 496.130404 
L 184.755006 496.468802 
L 185.230507 495.648002 
L 187.13251 493.063201 
L 187.60801 492.804004 
L 188.083511 494.416803 
L 188.559012 498.600003 
L 189.985513 500.616001 
L 190.461014 494.128796 
L 190.936515 496.3824 
L 191.412015 500.039997 
L 191.887516 502.416004 
L 193.314018 506.88 
L 193.789519 506.649604 
L 194.265019 503.855998 
L 194.74052 505.173599 
L 195.21602 506.88 
L 196.642522 505.526398 
L 197.118023 505.800004 
L 197.593524 506.448 
L 198.069024 504.179996 
L 198.544525 502.819203 
L 200.922028 500.896798 
L 201.397529 501.199204 
L 201.873029 501.695996 
L 203.299531 502.199999 
L 203.775032 503.042399 
L 204.250533 502.963197 
L 204.726033 501.940802 
L 205.201534 500.277603 
L 207.103536 496.202396 
L 207.579037 496.893602 
L 208.054538 496.137604 
L 208.530038 489.816004 
L 209.95654 489.535197 
L 210.432041 486.000003 
L 210.907542 485.654395 
L 211.383042 485.639994 
L 211.858543 484.034406 
L 213.760545 486.014403 
L 214.236046 484.956008 
L 214.711547 486.000003 
L 216.613549 485.280006 
L 217.08905 483.278398 
L 217.56455 482.255994 
L 219.942054 479.613601 
L 220.417554 477.014409 
L 220.893055 477.640794 
L 221.368556 476.114398 
L 223.270558 476.272801 
L 224.221559 473.817593 
L 224.69706 474.091199 
L 226.599063 472.989603 
L 227.074563 473.183998 
L 228.501065 467.179195 
L 229.927567 469.519201 
L 230.403068 468.539997 
L 230.878568 460.620008 
L 231.82957 452.030394 
L 233.256072 451.828809 
L 234.207073 457.919994 
L 234.682573 453.599992 
L 235.158074 453.189592 
L 236.584576 455.126407 
L 237.535577 462.139195 
L 238.011078 462.060003 
L 238.486579 470.469603 
L 239.913081 464.652004 
L 240.388581 460.879195 
L 240.864082 458.546399 
L 241.339582 457.199997 
L 241.815083 463.334403 
L 243.241585 463.550408 
L 243.717086 461.843998 
L 244.192586 465.897604 
L 244.668087 472.428009 
L 245.143588 471.960008 
L 246.570089 467.351999 
L 247.04559 470.332809 
L 247.521091 466.466407 
L 247.996591 465.199198 
L 248.472092 461.231994 
L 250.374095 456.523201 
L 250.849595 457.344001 
L 251.325096 456.803998 
L 251.800597 459.431991 
L 253.227098 461.412007 
L 253.702599 465.264009 
L 254.1781 466.632001 
L 254.6536 467.294398 
L 255.129101 465.220808 
L 256.555603 461.412007 
L 257.031104 460.907996 
L 257.506604 455.22 
L 257.982105 451.512001 
L 258.457605 450.000006 
L 259.884107 447.112806 
L 260.359608 449.301599 
L 261.310609 451.295996 
L 261.78611 453.405597 
L 263.212612 453.780006 
L 264.639114 464.543992 
L 265.114614 467.330408 
L 267.016617 465.984006 
L 267.492118 461.685594 
L 267.967618 458.711994 
L 268.443119 460.872004 
L 269.869621 459.468001 
L 270.345121 463.392004 
L 270.820622 463.823995 
L 271.296123 462.981604 
L 271.771623 464.421599 
L 273.198125 468.086396 
L 273.673626 465.912004 
L 274.149127 457.092004 
L 274.624627 460.800003 
L 275.100128 460.526396 
L 276.52663 460.728001 
L 277.00213 457.344001 
L 277.477631 456.487191 
L 278.428632 461.016008 
L 279.855134 458.935208 
L 280.330635 458.452806 
L 280.806135 457.718409 
L 281.281636 458.510408 
L 281.757137 459.727207 
L 283.183639 459.251996 
L 283.659139 460.476005 
L 284.13464 463.903206 
L 284.610141 465.768001 
L 285.085641 466.646402 
L 286.512143 467.992804 
L 286.987644 464.666405 
L 287.463144 464.637604 
L 287.938645 465.494395 
L 288.414146 465.177606 
L 289.840648 466.56 
L 290.316148 473.039994 
L 290.791649 472.327207 
L 291.26715 471.059997 
L 291.74265 473.320791 
L 293.169152 471.059997 
L 293.644653 471.916807 
L 294.120153 466.948809 
L 294.595654 466.437606 
L 295.071155 461.678404 
L 296.973157 461.138401 
L 297.448658 457.639198 
L 297.924159 456.105591 
L 298.399659 457.560006 
L 299.826161 454.838401 
L 300.301662 454.197596 
L 300.777162 453.326405 
L 301.252663 448.797606 
L 301.728164 447.868795 
L 303.154666 443.678396 
L 303.630166 441.108004 
L 304.105667 440.654403 
L 304.581167 437.212801 
L 305.056668 436.658398 
L 306.48317 435.794398 
L 306.958671 437.925608 
L 307.434171 439.336801 
L 307.909672 439.200008 
L 308.385173 441.662407 
L 309.811674 444.311991 
L 310.287175 439.596008 
L 310.762676 437.767204 
L 311.238176 438.8544 
L 311.713677 435.959992 
L 313.140179 433.987204 
L 314.09118 430.588804 
L 314.566681 430.221604 
L 315.042182 421.2 
L 316.468683 418.319992 
L 316.944184 422.085591 
L 317.895185 421.387204 
L 318.370686 424.771205 
L 319.797188 423.647999 
L 320.272689 424.987191 
L 320.748189 424.872007 
L 321.69919 427.766396 
L 323.125692 427.968001 
L 323.601193 424.663193 
L 324.076694 422.726396 
L 324.552194 417.470391 
L 325.027695 417.909592 
L 326.454197 417.765608 
L 326.929697 416.663992 
L 327.405198 418.485605 
L 327.880699 418.752001 
L 329.782701 424.411196 
L 330.733703 429.127199 
L 331.209203 425.037601 
L 331.684704 425.951994 
L 333.111206 422.380808 
L 333.586706 423.540006 
L 334.062207 420.911994 
L 335.013208 419.255994 
L 336.43971 419.414398 
L 336.915211 421.660791 
L 337.390712 419.220003 
L 337.866212 418.319992 
L 338.341713 418.572007 
L 339.768215 415.922404 
L 340.243715 414.727196 
L 340.719216 416.865597 
L 341.194717 415.799992 
L 341.670217 416.844006 
L 343.096719 413.956807 
L 343.57222 415.771191 
L 344.04772 415.440003 
L 344.523221 415.720799 
L 344.998722 416.311194 
L 346.425224 415.260008 
L 347.376225 413.481596 
L 347.851726 413.891996 
L 349.753728 413.683201 
L 350.229229 412.8048 
L 350.704729 412.955994 
L 351.18023 413.632809 
L 351.655731 415.094395 
L 354.033234 407.275208 
L 354.984235 405.828004 
L 356.410737 400.874406 
L 356.886238 399.628806 
L 357.361738 400.010405 
L 358.31274 397.094406 
L 360.214742 399.772809 
L 360.690243 397.008004 
L 361.165744 404.424001 
L 361.641244 406.886399 
L 363.067746 405.036005 
L 364.018747 399.167996 
L 364.494248 399.823201 
L 364.969749 400.031996 
L 366.396251 403.171191 
L 366.871751 399.132004 
L 367.347252 399.419992 
L 367.822752 400.147199 
L 368.298253 398.375996 
L 370.200256 392.025605 
L 370.675756 389.520006 
L 371.151257 388.800008 
L 371.626758 390.384006 
L 373.52876 388.821599 
L 374.004261 385.272004 
L 374.479761 388.605594 
L 374.955262 389.159997 
L 376.857265 399.311999 
L 377.332765 399.859192 
L 377.808266 399.491994 
L 378.283767 397.130397 
L 379.710268 392.364004 
L 380.185769 391.881602 
L 380.66127 392.867996 
L 381.13677 388.951202 
L 383.038773 387.597609 
L 383.514274 390.671994 
L 383.989774 392.572799 
L 384.465275 396.165594 
L 384.940775 394.3296 
L 386.367277 391.334409 
L 386.842778 397.555197 
L 387.318279 401.04 
L 387.793779 403.480808 
L 388.26928 404.496002 
L 389.695782 403.387196 
L 390.171282 401.313606 
L 390.646783 403.041607 
L 391.597784 394.516804 
L 393.024286 392.889606 
L 393.499787 395.308804 
L 393.975288 395.366405 
L 394.450788 396.144004 
L 394.926289 394.855203 
L 396.828291 401.580003 
L 397.303792 400.392004 
L 397.779293 402.890394 
L 398.254793 403.091999 
L 399.681295 406.317596 
L 400.156796 407.714409 
L 400.632297 405.979198 
L 401.107797 406.08 
L 401.583298 407.779201 
L 403.0098 408.794395 
L 403.4853 404.654406 
L 404.436302 392.306402 
L 406.338304 393.300006 
L 406.813805 392.407204 
L 407.764806 396.179994 
L 408.240307 393.156002 
L 409.666809 395.661602 
L 410.142309 396.079192 
L 410.61781 394.682399 
L 411.568811 396 
L 412.995313 396.575994 
L 413.946314 396 
L 414.421815 398.073609 
L 414.897316 398.699994 
L 416.323818 402.321591 
L 416.799318 405.979198 
L 417.274819 402.444004 
L 417.75032 401.4648 
L 418.22582 402.516005 
L 419.652322 406.0944 
L 420.127823 406.152001 
L 420.603323 404.236796 
L 421.078824 405.439195 
L 421.554325 404.906402 
L 423.456327 397.562407 
L 423.931828 394.466394 
L 424.407329 397.454395 
L 424.882829 399.362391 
L 426.309331 398.124001 
L 426.784832 404.481602 
L 427.260332 406.944001 
L 427.735833 407.757609 
L 428.211334 409.204795 
L 429.637836 411.616801 
L 430.113336 408.059997 
L 430.588837 410.183998 
L 431.064337 411.350405 
L 431.539838 410.940006 
L 432.96634 419.255994 
L 433.441841 413.423995 
L 434.392842 409.183204 
L 434.868343 408.131999 
L 436.294844 407.591996 
L 436.770345 405.576008 
L 437.721346 405.986407 
L 438.196847 400.679992 
L 440.09885 396.122394 
L 441.049851 390.240003 
L 441.525352 388.800008 
L 442.951853 388.965602 
L 443.427354 390.470408 
L 443.902855 388.800008 
L 444.378355 387.640791 
L 446.755859 375.371999 
L 447.231359 362.685597 
L 447.70686 367.156794 
L 448.18236 363.563998 
L 449.608862 360.000003 
L 450.084363 356.760006 
L 450.559864 358.099198 
L 451.035364 362.167204 
L 451.510865 363.491996 
L 452.937367 360.359992 
L 453.412867 361.511999 
L 453.888368 364.644004 
L 454.363869 366.249592 
L 454.839369 371.880006 
L 456.265871 383.205605 
L 456.741372 378.280808 
L 457.216873 378.252007 
L 457.692373 377.675994 
L 458.167874 374.659192 
L 459.594376 370.821591 
L 460.069876 371.973598 
L 460.545377 371.145608 
L 461.020878 379.692001 
L 461.496378 383.760008 
L 462.92288 385.286405 
L 463.398381 378.979195 
L 463.873882 375.148804 
L 464.349382 377.675994 
L 464.824883 371.664001 
L 466.251385 366.120008 
L 467.202386 365.702399 
L 467.677887 369.1152 
L 468.153387 375.84 
L 470.05539 374.162391 
L 470.53089 370.368009 
L 471.006391 368.200808 
L 471.481892 370.080003 
L 472.908394 373.766391 
L 473.859395 365.608806 
L 474.334896 364.564792 
L 474.810396 359.639994 
L 476.236898 350.474406 
L 476.712399 343.540791 
L 477.187899 344.455203 
L 477.6634 352.929595 
L 478.138901 355.147207 
L 479.565403 357.134395 
L 480.040903 353.339994 
L 480.516404 357.307199 
L 480.991905 358.408795 
L 481.467405 367.999203 
L 482.893907 372.499201 
L 483.369408 373.103995 
L 483.844908 374.529609 
L 484.320409 370.958404 
L 484.79591 376.027204 
L 486.222412 368.056804 
L 486.697912 357.710408 
L 487.173413 353.339994 
L 487.648914 353.930408 
L 488.124414 344.160006 
L 489.550916 340.776005 
L 490.026417 342.136807 
L 490.501917 353.937599 
L 490.977418 359.748006 
L 491.452919 360.619198 
L 492.879421 355.319992 
L 493.354921 355.284001 
L 493.830422 358.164009 
L 494.305922 353.520008 
L 494.781423 355.428004 
L 496.207925 353.282394 
L 496.683426 360.359992 
L 497.158926 359.683196 
L 497.634427 357.552004 
L 498.109928 357.523204 
L 499.536429 360.000003 
L 500.01193 354.240006 
L 500.487431 359.359198 
L 500.962931 362.008801 
L 501.438432 368.135996 
L 502.864934 370.620006 
L 503.340435 367.560003 
L 503.815935 366.379195 
L 504.291436 371.102407 
L 504.766937 374.407196 
L 506.193438 380.390408 
L 506.668939 375.890391 
L 508.095441 380.772007 
L 509.997444 375.242396 
L 510.472944 372.758406 
L 510.948445 367.919992 
L 511.423945 364.586402 
L 512.850447 362.584795 
L 513.325948 363.866405 
L 513.801449 366.523199 
L 514.276949 363.24 
L 514.75245 364.291205 
L 516.178952 364.392007 
L 516.654452 363.312001 
L 517.129953 369.086399 
L 517.605454 371.707201 
L 518.080954 371.412004 
L 519.507456 370.907993 
L 519.982957 362.808009 
L 520.458458 361.944009 
L 520.933958 360.626407 
L 521.409459 357.415191 
L 523.311461 353.455197 
L 523.786962 354.059992 
L 524.262463 355.931996 
L 524.737963 355.478396 
L 526.639966 351.000008 
L 527.115467 349.430391 
L 528.066468 343.620003 
L 529.49297 340.019997 
L 529.96847 341.279997 
L 530.443971 343.548001 
L 530.919472 343.511991 
L 531.394972 345.276002 
L 533.296975 341.287207 
L 533.772476 338.781607 
L 534.247976 337.413595 
L 534.723477 340.199992 
L 536.149979 339.516005 
L 536.625479 341.927993 
L 537.10098 320.796019 
L 537.576481 324.871216 
L 538.051981 325.094392 
L 539.478483 321.191999 
L 539.953984 318.067185 
L 540.429484 317.527201 
L 540.904985 318.837612 
L 541.380486 316.799994 
L 542.806988 313.214409 
L 543.282488 309.780017 
L 543.757989 304.711216 
L 544.23349 290.339994 
L 544.70899 289.713609 
L 546.135492 285.242394 
L 546.610993 281.116786 
L 547.086493 269.071188 
L 547.561994 284.479195 
L 548.037495 282.405586 
L 549.939497 277.307985 
L 550.414998 276.847212 
L 550.890499 275.162394 
L 551.365999 271.512015 
L 552.792501 267.48 
L 553.268002 262.504792 
L 553.743502 253.720783 
L 554.219003 253.288812 
L 554.694504 254.303987 
L 556.121006 253.814414 
L 556.596506 263.743182 
L 557.072007 260.798401 
L 558.023008 253.627191 
L 559.44951 250.560017 
L 559.925011 238.9104 
L 560.400511 219.801604 
L 560.876012 215.992804 
L 561.351513 223.776019 
L 563.729016 209.051999 
L 564.204516 212.760017 
L 564.680017 214.704004 
L 566.106519 210.851983 
L 566.58202 204.278396 
L 567.05752 200.555996 
L 568.008522 208.396813 
L 569.435023 202.485602 
L 569.910524 192.808812 
L 570.386025 197.380811 
L 570.861525 191.044781 
L 572.763528 187.315191 
L 573.239029 184.32 
L 574.19003 193.442388 
L 574.66553 198.215991 
L 576.092032 208.598417 
L 576.567533 208.799983 
L 577.043034 201.420017 
L 577.518534 212.594403 
L 577.994035 219.873587 
L 579.420537 232.797585 
L 579.896037 239.263199 
L 580.371538 203.040006 
L 580.847039 205.423193 
L 581.322539 211.550388 
L 582.749041 217.151983 
L 583.224542 218.332809 
L 583.700043 225.07201 
L 584.175543 222.191983 
L 584.651044 231.580805 
L 586.077546 235.605591 
L 586.553046 236.519983 
L 587.504048 233.366407 
L 587.979548 234.381583 
L 589.40605 239.392782 
L 589.881551 242.481604 
L 590.357052 247.039184 
L 590.832552 253.799994 
L 591.308053 256.744814 
L 592.734555 243.691194 
L 593.210055 234.806402 
L 593.685556 235.583981 
L 594.161057 232.920017 
L 594.636557 240.58799 
L 596.53856 234.72 
L 597.014061 230.407207 
L 597.489561 229.320011 
L 597.965062 235.691994 
L 599.391564 239.400011 
L 599.867064 240.141599 
L 600.342565 234.828012 
L 601.293566 229.982388 
L 602.720068 224.280011 
L 603.195569 232.833614 
L 603.671069 231.494403 
L 604.14657 235.079989 
L 604.622071 234.273609 
L 606.048573 224.719212 
L 606.524073 223.200006 
L 606.999574 223.739989 
L 607.475075 224.481616 
L 607.950575 228.823209 
L 609.377077 230.543981 
L 609.852578 234.367201 
L 610.328078 232.747212 
L 610.803579 234.72 
L 611.27908 227.519989 
L 612.705582 220.701616 
L 614.132084 205.675208 
L 614.607584 209.923209 
L 616.034086 205.992015 
L 616.509587 201.693604 
L 616.985087 210.484803 
L 617.460588 213.501604 
L 617.936089 210.823182 
L 619.362591 207.633614 
L 619.838091 207.720017 
L 620.313592 209.995191 
L 620.789092 204.948001 
L 621.264593 205.603187 
L 622.691095 211.751994 
L 623.166596 209.030388 
L 623.642096 229.824004 
L 624.117597 230.11201 
L 624.593098 226.202388 
L 626.019599 216.403204 
L 626.4951 207.576013 
L 626.970601 204.191994 
L 627.446101 208.303182 
L 627.921602 203.054386 
L 629.348104 198.093598 
L 629.823605 198.000006 
L 630.299105 198.806386 
L 630.774606 200.354392 
L 631.250107 200.332782 
L 632.676608 194.4 
L 633.152109 188.200783 
L 633.62761 191.520011 
L 634.10311 189.532804 
L 634.578611 181.303199 
L 636.005113 169.091988 
L 636.480614 162.086391 
L 636.956114 166.320011 
L 637.431615 165.672015 
L 637.907115 165.974403 
L 639.333617 157.773598 
L 639.809118 161.20799 
L 640.284619 160.077612 
L 640.760119 164.483998 
L 641.23562 166.608017 
L 643.137622 161.899206 
L 643.613123 161.027996 
L 644.088624 159.631183 
L 644.564124 156.614381 
L 645.990626 156.031216 
L 646.466127 165.528012 
L 646.941628 165.672015 
L 647.417128 154.439989 
L 647.892629 146.174392 
L 649.319131 144.144004 
L 649.794631 142.322409 
L 650.270132 141.127201 
L 650.745633 143.956818 
L 651.221133 140.349583 
L 652.647635 147.513604 
L 653.123136 149.198384 
L 653.598637 163.663199 
L 654.074137 156.837596 
L 654.549638 157.600794 
L 655.97614 160.739989 
L 656.45164 168.228006 
L 656.927141 164.260783 
L 657.402642 162.540011 
L 657.878142 168.479983 
L 659.780145 186.847191 
L 660.255646 183.614403 
L 660.731146 182.015986 
L 661.206647 190.526407 
L 662.633149 190.706402 
L 663.108649 179.783992 
L 663.58415 177.991199 
L 664.535151 193.125619 
L 665.961653 190.526407 
L 666.437154 191.591994 
L 666.912654 196.884009 
L 667.388155 200.160017 
L 667.863656 205.919994 
L 670.241159 214.588801 
L 670.71666 213.839983 
L 671.19216 218.195996 
L 672.618662 224.805614 
L 673.094163 222.667212 
L 673.569663 234.33121 
L 674.045164 243.194392 
L 674.520665 248.486407 
L 675.947167 248.759994 
L 676.422667 251.654403 
L 676.898168 253.835986 
L 677.849169 266.399994 
L 679.275671 239.400011 
L 679.751172 236.195986 
L 680.226672 239.493604 
L 681.177674 236.159994 
L 682.604176 223.200006 
L 683.079676 222.897618 
L 683.555177 226.223998 
L 684.030677 220.139983 
L 684.506178 224.351994 
L 685.93268 219.895197 
L 687.359182 249.616786 
L 687.834683 248.256002 
L 689.261184 260.272799 
L 689.736685 252.316818 
L 690.212186 253.440006 
L 690.687686 260.899184 
L 691.163187 274.946407 
L 692.589689 273.600006 
L 693.06519 262.87201 
L 693.54069 263.735991 
L 694.016191 266.255991 
L 694.491692 273.837601 
L 695.918193 270.539983 
L 696.869195 273.988795 
L 697.344695 276.3 
L 697.820196 277.574381 
L 699.246698 262.511983 
L 700.197699 248.400006 
L 700.6732 252.237606 
L 701.1487 260.186396 
L 702.575202 266.903987 
L 703.050703 265.039212 
L 703.526204 269.992809 
L 704.001704 267.321616 
L 704.477205 269.769595 
L 705.903707 282.6 
L 706.379207 288.727196 
L 706.854708 281.203187 
L 707.330209 280.259994 
L 707.805709 286.40161 
L 709.707712 282.326413 
L 710.183213 277.207201 
L 710.658713 312.674386 
L 711.134214 319.514409 
L 712.560716 321.688801 
L 713.036216 316.655991 
L 713.511717 314.92799 
L 713.987218 317.318406 
L 714.462718 317.174403 
L 715.88922 319.723204 
L 716.364721 316.987218 
L 716.840222 312.119983 
L 717.315722 309.599983 
L 717.791223 303.256801 
L 719.217725 298.843187 
L 719.693225 300.686391 
L 720.168726 306.979201 
L 720.644227 308.419195 
L 721.119727 309.484781 
L 723.02173 314.834398 
L 723.497231 318.463204 
L 723.972731 324.597591 
L 724.448232 322.848017 
L 725.874734 320.313598 
L 726.350234 322.891199 
L 726.825735 322.243204 
L 727.301236 325.533593 
L 727.776736 332.510408 
L 729.203238 339.695999 
L 729.678739 334.663209 
L 730.154239 334.620008 
L 730.62974 336.952804 
L 731.105241 334.490405 
L 732.531743 331.912804 
L 733.007243 332.006396 
L 733.482744 335.159992 
L 733.958245 335.059209 
L 734.433745 328.154395 
L 736.335748 316.101588 
L 736.811248 318.506386 
L 737.286749 318.254409 
L 737.76225 315.288017 
L 739.188752 309.636013 
L 739.664252 312.595214 
L 740.139753 319.104009 
L 740.615254 322.689595 
L 742.517256 328.535994 
L 742.992757 332.539209 
L 743.468257 333.158404 
L 743.943758 334.800003 
L 744.419259 342.036005 
L 746.321261 339.479994 
L 746.796762 333.316807 
L 747.272262 332.647201 
L 747.747763 335.412007 
L 749.174265 339.919195 
L 749.649766 340.840797 
L 750.125266 345.168009 
L 750.600767 355.831194 
L 751.076268 360.288009 
L 752.502769 358.416005 
L 753.453771 349.019992 
L 753.929271 349.963204 
L 755.831274 335.793606 
L 756.306775 327.419997 
L 756.782275 327.650403 
L 757.257776 325.015219 
L 757.733277 321.674381 
L 759.635279 312.660006 
L 760.11078 312.933593 
L 760.58628 314.639983 
L 761.061781 317.00879 
L 762.488283 318.31201 
L 762.963784 320.255996 
L 763.439284 330.48 
L 763.914785 332.748004 
L 764.390285 331.135205 
L 765.816787 327.023998 
L 766.292288 327.254403 
L 766.767789 325.187985 
L 767.243289 326.764792 
L 767.71879 327.1248 
L 769.620793 323.200816 
L 770.096293 325.800008 
L 770.571794 320.759989 
L 771.047294 318.887985 
L 772.473796 322.300805 
L 772.949297 320.8104 
L 774.375799 328.867201 
L 775.802301 324.662382 
L 776.277801 329.212809 
L 776.753302 330.300006 
L 777.228803 333.259206 
L 777.704303 333.871191 
L 779.130805 334.295991 
L 779.606306 334.872004 
L 780.081807 337.2048 
L 781.032808 345.6 
L 782.45931 353.764795 
L 782.93481 354.391199 
L 783.885812 358.999209 
L 784.361312 359.805608 
L 785.787814 351.165602 
L 786.263315 344.426402 
L 786.738816 343.454409 
L 787.689817 343.231194 
L 789.116319 344.880003 
L 789.591819 343.08 
L 790.06732 342.143998 
L 790.542821 339.660008 
L 791.018321 338.551202 
L 792.444823 337.348804 
L 792.920324 337.888806 
L 793.395824 336.801591 
L 793.871325 334.893595 
L 794.346826 335.5344 
L 795.773328 338.580003 
L 796.248828 340.588801 
L 796.724329 327.895208 
L 797.19983 330.191994 
L 797.67533 330.451199 
L 799.101832 324.007196 
L 799.577333 318.851994 
L 800.052833 318.715219 
L 800.528334 319.104009 
L 801.003835 314.747996 
L 802.430337 309.117601 
L 802.905837 308.239201 
L 803.381338 311.759994 
L 803.856839 313.847985 
L 804.332339 316.468806 
L 805.758841 310.572015 
L 806.234342 291.844781 
L 806.709842 284.940006 
L 807.185343 286.271988 
L 807.660844 285.883199 
L 809.087346 278.107212 
L 810.038347 282.852015 
L 810.513847 283.975203 
L 810.989348 285.588001 
L 812.41585 280.656013 
L 813.366851 291.023981 
L 813.842352 290.519989 
L 814.317853 293.076019 
L 816.695356 286.387191 
L 817.646357 288.446419 
L 819.072859 282.297612 
L 819.54836 282.635991 
L 820.02386 306.943209 
L 820.499361 305.71201 
L 822.401363 315.640816 
L 822.876864 317.00879 
L 823.352365 312.227996 
L 823.827865 305.402394 
L 824.303366 303.443987 
L 825.729868 290.224792 
L 826.205369 291.261616 
L 826.680869 295.459206 
L 827.15637 296.236786 
L 827.63187 299.037601 
L 829.058372 301.204803 
L 829.533873 295.819195 
L 830.009374 293.904009 
L 830.484874 293.50799 
L 830.960375 299.088012 
L 832.386877 293.292004 
L 832.862378 294.739189 
L 833.337878 296.791188 
L 833.813379 293.486419 
L 834.288879 292.435214 
L 835.715381 289.742409 
L 836.190882 286.559994 
L 836.666383 286.178396 
L 837.141883 284.558406 
L 837.617384 281.332809 
L 839.519386 267.515991 
L 839.994887 269.517618 
L 840.470388 264.621583 
L 840.945888 264.074409 
L 842.37239 265.680017 
L 842.847891 259.740006 
L 843.323392 268.185597 
L 843.798892 268.207207 
L 844.274393 270.144004 
L 845.700895 268.689589 
L 846.176395 267.199184 
L 846.651896 270.100783 
L 847.602897 272.786396 
L 849.029399 272.397606 
L 849.5049 270.777618 
L 849.980401 271.980017 
L 850.455901 266.918406 
L 850.931402 267.055219 
L 852.357904 268.423193 
L 853.308905 273.297618 
L 854.259906 272.044809 
L 855.686408 269.373614 
L 856.637409 254.88 
L 857.588411 246.002399 
L 859.490413 240.206391 
L 859.965914 238.183193 
L 860.441415 233.899201 
L 860.916915 239.939994 
L 862.343417 237.902415 
L 862.818918 239.126386 
L 863.294418 236.901583 
L 863.769919 240.955208 
L 864.24542 242.726391 
L 865.671922 242.899195 
L 866.147422 245.203209 
L 866.622923 250.955996 
L 867.098424 252.000011 
L 867.573924 250.840794 
L 869.000426 237.081616 
L 869.475927 236.246396 
L 870.426928 237.960017 
L 870.902429 241.624814 
L 872.328931 244.735208 
L 872.804431 243.878417 
L 873.755432 246.938401 
L 874.230933 249.336008 
L 875.657435 254.303987 
L 876.132936 254.908801 
L 876.608436 255.196807 
L 877.083937 254.260805 
L 877.559438 258.624009 
L 878.985939 257.4 
L 879.46144 254.354398 
L 879.936941 244.655996 
L 880.412441 247.067985 
L 880.887942 250.509606 
L 882.789945 251.9496 
L 883.265445 246.751216 
L 884.216447 247.953614 
L 885.642948 248.544009 
L 886.118449 277.200011 
L 886.59395 282.693593 
L 887.06945 283.320017 
L 887.544951 286.898412 
L 889.446954 281.188806 
L 889.922454 276.998406 
L 890.397955 278.280017 
L 890.873455 271.490405 
L 892.299957 264.967191 
L 892.775458 260.820011 
L 893.250959 259.516791 
L 893.726459 255.70799 
L 894.20196 254.894381 
L 896.103963 251.143182 
L 896.579463 254.239195 
L 897.054964 261.359994 
L 897.530464 263.109606 
L 898.956966 266.457596 
L 899.432467 266.709612 
L 899.907968 270 
L 900.858969 264.420017 
L 902.285471 265.931994 
L 903.236472 262.979983 
L 903.711973 263.203199 
L 904.187473 264.974381 
L 905.613975 264.002388 
L 906.089476 260.107185 
L 906.564977 261.108017 
L 907.040477 259.444809 
L 907.515978 265.759189 
L 908.94248 266.421604 
L 909.41798 264.98161 
L 909.893481 261.907207 
L 910.368982 264.477618 
L 910.844482 263.7 
L 912.270984 258.839994 
L 912.746485 255.059994 
L 913.221986 252.719989 
L 913.697486 258.120017 
L 914.172987 259.963182 
L 915.599489 258.616818 
L 916.074989 257.853581 
L 916.55049 256.694403 
L 917.025991 257.4 
L 917.501491 259.199983 
L 918.927993 265.751999 
L 919.403494 269.193581 
L 919.878994 266.047196 
L 920.354495 264.787196 
L 920.829996 271.562388 
L 922.256498 272.044809 
L 923.207499 272.815197 
L 923.683 268.012793 
L 925.585002 264.859217 
L 926.060503 265.082394 
L 926.536003 265.586386 
L 927.011504 237.599989 
L 927.487005 236.167185 
L 928.913507 219.060017 
L 929.389007 218.894403 
L 929.864508 216.410394 
L 930.340009 219.744004 
L 930.815509 220.176013 
L 932.242011 215.280017 
L 932.717512 212.824809 
L 933.193012 217.95121 
L 933.668513 220.024781 
L 934.144014 225.9 
L 935.570516 220.564803 
L 936.046016 219.931188 
L 936.521517 217.871999 
L 936.997017 218.448012 
L 937.472518 217.778406 
L 938.89902 210.722399 
L 939.374521 211.392004 
L 939.850021 211.176019 
L 940.325522 208.907996 
L 940.801023 205.394392 
L 942.703025 197.380811 
L 943.178526 194.522394 
L 944.129527 184.197606 
L 945.556029 190.922388 
L 946.03153 188.107191 
L 946.50703 181.519184 
L 946.982531 180.453598 
L 947.458032 179.092815 
L 948.884533 580.406402 
L 949.360034 579.563998 
L 949.835535 579.772799 
L 950.311035 580.233598 
L 950.786536 581.443199 
L 952.688539 581.256002 
L 953.164039 581.551199 
L 953.63954 581.543998 
L 954.11504 581.363998 
L 955.541542 582.033598 
L 956.017043 581.947201 
L 956.492544 582.696002 
L 956.968044 582.443998 
L 957.443545 581.76 
L 958.870047 580.514398 
L 959.345548 580.2696 
L 960.296549 580.248001 
L 962.198551 578.887201 
L 962.674052 578.303998 
L 963.149553 578.916002 
L 963.625053 579.203998 
L 965.527056 578.239201 
L 966.002556 578.268001 
L 966.478057 578.088001 
L 966.953558 579.398401 
L 967.429058 579.787201 
L 968.85556 579.6 
L 969.331061 579.679201 
L 969.806562 577.526402 
L 970.282062 577.9296 
L 972.184065 576.547201 
L 972.659565 576.403199 
L 973.135066 576.936002 
L 973.610567 577.836002 
L 974.086067 578.433598 
L 975.512569 578.462399 
L 975.98807 579.1104 
L 976.463571 579.254398 
L 976.939071 578.916002 
L 977.414572 579.7296 
L 978.841074 578.822399 
L 979.316574 578.246402 
L 980.267576 577.7496 
L 980.743076 577.303199 
L 982.169578 576.453598 
L 982.645079 575.5104 
L 983.120579 575.215203 
L 983.59608 575.323199 
L 984.071581 574.941599 
L 985.498083 574.437601 
L 985.973583 574.92 
L 986.449084 574.1496 
L 989.302088 573.307201 
L 989.777588 573.696002 
L 990.253089 575.935203 
L 990.72859 576.439201 
L 992.155092 576.496801 
L 992.630592 573.782399 
L 993.106093 575.200799 
L 993.581594 574.963199 
L 994.057094 574.423199 
L 995.483596 573.803998 
L 995.959097 575.092799 
L 996.910098 574.308001 
L 997.385599 574.308001 
L 998.812101 574.459201 
L 999.287601 573.883199 
L 999.763102 573.948001 
L 1000.238602 575.488801 
L 1000.714103 575.46 
L 1002.140605 575.683199 
L 1002.616106 574.891199 
L 1003.091606 575.503199 
L 1003.567107 575.841599 
L 1004.042608 575.848801 
L 1005.46911 575.531999 
L 1005.94461 575.913598 
L 1006.420111 575.200799 
L 1006.895611 574.286402 
L 1007.371112 574.538401 
L 1008.797614 574.718401 
L 1010.224116 577.641599 
L 1010.699617 576.72 
L 1012.126118 576.028801 
L 1012.601619 573.825602 
L 1013.55262 572.363998 
L 1014.028121 572.047201 
L 1015.454623 572.054398 
L 1015.930124 571.147201 
L 1016.405624 570.693598 
L 1016.881125 570.708001 
L 1018.783127 568.583998 
L 1019.258628 569.167201 
L 1019.734129 569.303998 
L 1020.209629 569.671199 
L 1020.68513 569.2896 
L 1022.111632 569.282399 
L 1022.587133 568.98 
L 1023.538134 566.316002 
L 1024.013634 565.783199 
L 1025.440136 563.558401 
L 1025.915637 564.703199 
L 1026.391138 564.667201 
L 1026.866638 563.860799 
L 1027.342139 563.3496 
L 1028.768641 562.485602 
L 1029.244141 561.78 
L 1029.719642 562.248001 
L 1030.670643 562.031999 
L 1032.097145 562.14 
L 1032.572646 564.66 
L 1033.048147 564.228001 
L 1033.523647 563.616002 
L 1033.999148 564.422399 
L 1035.90115 565.703998 
L 1036.376651 565.308001 
L 1036.852152 566.063998 
L 1037.327652 567.453598 
L 1038.754154 567.648001 
L 1039.229655 568.684797 
L 1039.705156 568.915203 
L 1040.180656 566.891999 
L 1040.656157 566.467201 
L 1042.082659 566.287201 
L 1042.558159 566.402399 
L 1043.03366 566.848801 
L 1043.984661 565.545602 
L 1045.411163 565.365602 
L 1048.739668 569.771999 
L 1049.215168 570.6504 
L 1049.690669 570.096002 
L 1050.16617 567.251999 
L 1050.64167 566.46 
L 1052.068172 566.906402 
L 1052.543673 566.783998 
L 1053.019173 568.447201 
L 1053.494674 568.756801 
L 1053.970175 570.542399 
L 1055.872177 569.541599 
L 1056.347678 568.036801 
L 1057.298679 566.1 
L 1058.725181 565.660799 
L 1059.200682 567.014398 
L 1059.676182 562.953598 
L 1060.627184 561.6 
L 1062.053686 562.197601 
L 1062.529186 562.255203 
L 1063.004687 561.232799 
L 1063.480187 561.434398 
L 1063.955688 561.42 
L 1065.38219 561.715203 
L 1066.333191 558.057601 
L 1066.808692 556.214398 
L 1067.284193 556.358401 
L 1069.186195 555.206396 
L 1069.661696 555.278401 
L 1070.137196 555.098401 
L 1070.612697 554.76 
L 1072.039199 552.24 
L 1072.5147 551.807996 
L 1072.9902 553.247996 
L 1073.465701 553.773604 
L 1073.941202 553.989595 
L 1075.367703 554.198401 
L 1075.843204 554.745597 
L 1076.318705 554.716801 
L 1076.794205 555.3 
L 1077.269706 554.853604 
L 1078.696208 554.709595 
L 1079.647209 558.165602 
L 1080.12271 558.071999 
L 1080.59821 557.711999 
L 1082.024712 558.036002 
L 1082.975714 555.004797 
L 1083.451214 554.94 
L 1083.926715 555.552004 
L 1085.353217 555.948001 
L 1085.828718 555.811205 
L 1086.304218 556.6896 
L 1086.779719 558.086402 
L 1087.255219 558.216002 
L 1088.681721 556.991999 
L 1089.157222 556.927201 
L 1089.632723 557.913598 
L 1090.108223 557.596801 
L 1092.485726 555.753604 
L 1092.961227 556.991999 
L 1093.436728 556.862399 
L 1093.912228 556.408801 
L 1095.33873 555.429595 
L 1095.814231 556.351199 
L 1096.765232 556.488001 
L 1097.240733 557.179201 
L 1098.667235 555.753604 
L 1099.142735 555.696002 
L 1099.618236 555.213604 
L 1100.093737 554.097601 
L 1100.569237 553.946396 
L 1101.995739 552.146396 
L 1102.47124 551.131205 
L 1103.422241 555.379201 
L 1103.897742 554.306396 
L 1105.324244 553.989595 
L 1106.275245 556.74 
L 1106.750746 557.222399 
L 1107.226246 556.113598 
L 1108.652748 556.156801 
L 1109.128249 556.646402 
L 1109.603749 556.423199 
L 1110.07925 555.156002 
L 1110.554751 554.767196 
L 1111.981253 553.881599 
L 1112.932254 553.694403 
L 1113.407755 553.226396 
L 1113.883255 552.261599 
L 1115.785258 552.304797 
L 1116.260758 552.772804 
L 1116.736259 552.996002 
L 1117.21176 553.356002 
L 1118.638262 553.399201 
L 1119.113762 553.924797 
L 1119.589263 553.723199 
L 1120.064764 553.982399 
L 1120.540264 554.623199 
L 1121.966766 554.968795 
L 1122.442267 555.782399 
L 1122.917767 554.875203 
L 1123.393268 554.270405 
L 1123.868769 555.602399 
L 1125.295271 556.387201 
L 1125.770771 555.948001 
L 1126.246272 555.926402 
L 1126.721772 555.616801 
L 1127.197273 555.9696 
L 1128.623775 555.796801 
L 1129.099276 556.120799 
L 1129.574776 554.543998 
L 1130.050277 554.976002 
L 1130.525778 555.847201 
L 1132.42778 557.193598 
L 1132.903281 556.603199 
L 1133.378781 556.783199 
L 1135.756285 557.171999 
L 1136.231785 558.259201 
L 1136.707286 558.676801 
L 1137.182787 558.828001 
L 1139.56029 556.451999 
L 1140.03579 555.429595 
L 1141.937793 552.261599 
L 1142.413294 552.297601 
L 1142.888794 557.64 
L 1143.364295 556.495203 
L 1143.839795 557.467201 
L 1145.266297 559.000799 
L 1145.741798 558.784797 
L 1146.217299 559.08 
L 1146.692799 559.7496 
L 1147.1683 559.699201 
L 1148.594802 559.7496 
L 1149.070303 563.256002 
L 1149.545803 563.443199 
L 1150.021304 564.12 
L 1150.496804 564.3 
L 1151.923306 561.607201 
L 1152.398807 562.9104 
L 1152.874308 564.897601 
L 1153.349808 564.191999 
L 1153.825309 564.256801 
L 1155.251811 563.291999 
L 1155.727311 563.443199 
L 1156.202812 564.105602 
L 1157.153813 567.431999 
L 1158.580315 569.663998 
L 1159.055816 568.000799 
L 1159.531317 568.879201 
L 1160.006817 566.467201 
L 1160.482318 566.416801 
L 1161.90882 565.538401 
L 1162.38432 567.446402 
L 1163.335322 566.798401 
L 1163.810822 568.476002 
L 1165.712825 566.956801 
L 1166.188326 565.905602 
L 1166.663826 566.438401 
L 1168.565829 563.839201 
L 1169.041329 564.098401 
L 1169.992331 564.127201 
L 1170.467831 565.703998 
L 1171.894333 564.933598 
L 1172.369834 565.7904 
L 1172.845334 565.401599 
L 1173.320835 564.84 
L 1173.796336 563.983199 
L 1175.222838 565.5096 
L 1175.698338 566.272799 
L 1176.64934 569.073598 
L 1177.12484 568.072799 
L 1178.551342 567.813598 
L 1179.026843 567.547201 
L 1179.502343 567.525602 
L 1179.977844 568.663199 
L 1180.453345 567.158401 
L 1181.879847 566.82 
L 1182.355347 567.036002 
L 1182.830848 567.705602 
L 1183.306349 567.288001 
L 1185.208351 567.54 
L 1185.683852 565.797601 
L 1186.159352 564.782399 
L 1186.634853 564.84 
L 1187.110354 562.154398 
L 1188.536856 562.946402 
L 1189.012356 564.091199 
L 1189.487857 562.103998 
L 1189.963357 561.103199 
L 1190.438858 560.721599 
L 1191.86536 560.620799 
L 1192.340861 559.087201 
L 1192.816361 558.8496 
L 1193.767363 560.296801 
L 1195.193865 560.296801 
L 1195.669365 562.9896 
L 1196.620366 563.8896 
L 1197.095867 564.7896 
L 1198.522369 565.747201 
L 1198.99787 565.163998 
L 1199.948871 561.78 
L 1200.424372 561.657601 
L 1201.850873 561.794398 
L 1202.326374 562.068001 
L 1202.801875 562.154398 
L 1203.752876 562.744797 
L 1205.179378 562.024797 
L 1206.130379 562.960799 
L 1206.60588 563.911199 
L 1207.08138 562.14 
L 1208.507882 561.700799 
L 1208.983383 562.608001 
L 1209.934384 563.803199 
L 1210.409885 564.919201 
L 1211.836387 566.8704 
L 1212.311888 566.783998 
L 1212.787388 567.367201 
L 1213.262889 567.18 
L 1213.738389 569.145602 
L 1215.164891 570.693598 
L 1215.640392 570.441599 
L 1216.115893 569.628001 
L 1216.591393 569.52 
L 1218.493396 570.463199 
L 1218.968896 569.2104 
L 1219.444397 569.736002 
L 1219.919898 570.938401 
L 1221.8219 572.133598 
L 1222.297401 571.788001 
L 1222.772902 574.293598 
L 1223.248402 575.906402 
L 1223.723903 576.640799 
L 1225.150405 576.676801 
L 1225.625905 575.503199 
L 1226.101406 575.143199 
L 1226.576907 575.654398 
L 1227.052407 577.648801 
L 1228.95441 576.971999 
L 1229.905411 577.526402 
L 1230.380912 574.948801 
L 1231.807414 574.898401 
L 1232.282914 575.366402 
L 1232.758415 578.426402 
L 1233.233916 579.945602 
L 1233.709416 577.915203 
L 1235.135918 578.368801 
L 1235.611419 578.851199 
L 1236.086919 578.275203 
L 1236.56242 577.922399 
L 1238.464423 579.096002 
L 1238.939923 578.923199 
L 1239.415424 578.628001 
L 1239.890925 579.801599 
L 1240.366425 579.96 
L 1242.268428 578.268001 
L 1242.743928 577.288801 
L 1243.219429 576.799201 
L 1243.69493 578.332799 
L 1245.121432 578.231999 
L 1245.596932 578.52 
L 1246.072433 578.606402 
L 1246.547934 578.332799 
L 1247.023434 577.425602 
L 1248.449936 577.274398 
L 1248.925437 575.445602 
L 1249.400937 575.359201 
L 1249.876438 574.768801 
L 1250.351939 573.3 
L 1251.778441 573.962399 
L 1252.253941 574.732799 
L 1252.729442 574.862399 
L 1253.204942 574.387201 
L 1253.680443 574.358401 
L 1255.106945 573.904797 
L 1255.582446 572.2704 
L 1256.057946 571.456801 
L 1257.008948 571.32 
L 1258.43545 570.491999 
L 1259.386451 570.9096 
L 1259.861951 571.5 
L 1261.763954 571.543199 
L 1262.239455 570.391199 
L 1262.714955 568.497601 
L 1263.190456 568.871999 
L 1263.665957 568.8 
L 1265.092458 567.223199 
L 1265.567959 568.274398 
L 1266.04346 568.094398 
L 1266.994461 568.965602 
L 1268.420963 568.360799 
L 1268.896464 568.44 
L 1269.371964 567.115203 
L 1270.322965 567.143998 
L 1272.224968 570.24 
L 1272.700469 570.175203 
L 1273.175969 571.0104 
L 1273.65147 571.334398 
L 1275.553473 572.183998 
L 1276.028973 576.928801 
L 1276.504474 577.526402 
L 1276.979974 579.801599 
L 1278.406476 580.262399 
L 1278.881977 579.067201 
L 1279.357478 578.951999 
L 1279.832978 580.2696 
L 1280.308479 580.716002 
L 1281.734981 580.485602 
L 1282.210481 580.6296 
L 1282.685982 580.6296 
L 1283.161483 581.198401 
L 1283.636983 581.997601 
L 1285.063485 580.039201 
L 1285.538986 579.816002 
L 1286.014487 579.448801 
L 1286.489987 579.859201 
L 1286.965488 579.2904 
L 1288.39199 578.023199 
L 1288.86749 577.375203 
L 1289.342991 576.187201 
L 1289.818492 575.474398 
L 1290.293992 575.661599 
L 1292.195995 575.711999 
L 1292.671496 576.331199 
L 1293.146996 577.555203 
L 1293.622497 577.245602 
L 1295.048999 574.639201 
L 1295.524499 576.093598 
L 1296 576.316801 
L 1296 576.316801 
" style="fill:none;stroke:#0000ff;stroke-linecap:square;"/>
   </g>
   <g id="line2d_2">
    <path clip-path="url(#pd88d4bb667)" d="M 180 495.086399 
L 180.475501 494.460004 
L 180.951001 496.259997 
L 181.426502 497.483996 
L 181.902003 497.476796 
L 183.328504 497.915996 
L 184.279506 501.048001 
L 184.755006 497.505597 
L 185.230507 499.773601 
L 187.13251 498.787197 
L 187.60801 497.159999 
L 188.083511 498.808798 
L 188.559012 506.0448 
L 189.985513 503.863199 
L 190.461014 502.142397 
L 190.936515 504.338399 
L 191.412015 504.936004 
L 191.887516 511.019999 
L 193.314018 510.264001 
L 193.789519 508.766405 
L 194.265019 508.017597 
L 194.74052 510.069596 
L 195.21602 510.587999 
L 196.642522 508.320004 
L 197.118023 507.780001 
L 197.593524 508.1328 
L 198.069024 508.276803 
L 200.446527 502.905596 
L 200.922028 503.380797 
L 201.873029 503.200802 
L 203.299531 504.583196 
L 203.775032 507.088805 
L 204.250533 505.555199 
L 204.726033 506.239204 
L 205.201534 502.559997 
L 206.628036 500.075998 
L 207.103536 498.427199 
L 207.579037 498.283196 
L 208.054538 497.786404 
L 208.530038 493.466401 
L 209.95654 490.859999 
L 210.432041 491.119204 
L 210.907542 487.296004 
L 211.383042 487.209601 
L 211.858543 485.46 
L 213.285045 489.420004 
L 213.760545 487.792796 
L 214.236046 487.245602 
L 214.711547 487.720804 
L 215.187047 488.714398 
L 216.613549 489.491996 
L 217.56455 484.192809 
L 218.040051 485.099992 
L 218.515552 483.443992 
L 219.942054 481.233609 
L 220.417554 479.339994 
L 220.893055 479.188801 
L 221.368556 480.42 
L 223.270558 478.965605 
L 223.746059 477.359997 
L 224.221559 476.164809 
L 224.69706 476.611199 
L 225.172561 474.868798 
L 226.599063 473.896804 
L 227.074563 474.400797 
L 227.550064 472.269606 
L 228.025565 471.232801 
L 229.927567 473.925605 
L 230.403068 473.068795 
L 230.878568 463.874406 
L 231.354069 463.536008 
L 231.82957 455.760003 
L 233.256072 454.903193 
L 233.731572 460.425594 
L 234.207073 463.384795 
L 234.682573 459.352799 
L 235.158074 460.080006 
L 236.584576 458.726394 
L 237.060077 463.140008 
L 237.535577 468.914406 
L 238.011078 504.540004 
L 238.486579 485.848809 
L 239.913081 469.058409 
L 240.388581 467.640006 
L 240.864082 461.736005 
L 241.339582 463.392004 
L 241.815083 468.360003 
L 243.241585 469.648804 
L 243.717086 467.812809 
L 244.192586 471.707993 
L 244.668087 477.928801 
L 245.143588 481.428004 
L 246.570089 470.692799 
L 247.04559 477.244795 
L 247.996591 468.640799 
L 248.472092 465.588006 
L 250.849595 460.562407 
L 251.325096 460.504806 
L 251.800597 464.666405 
L 253.227098 467.603995 
L 253.702599 471.131999 
L 254.1781 473.407194 
L 254.6536 473.616008 
L 255.129101 469.893609 
L 256.555603 465.112796 
L 257.031104 464.04 
L 257.506604 460.346402 
L 257.982105 453.96 
L 258.457605 452.577606 
L 259.884107 454.514403 
L 260.359608 452.520006 
L 260.835109 455.112007 
L 261.310609 454.968004 
L 261.78611 456.616794 
L 263.212612 457.545605 
L 263.688112 464.904001 
L 264.163613 467.992804 
L 264.639114 472.881591 
L 265.114614 472.895991 
L 267.016617 470.7648 
L 267.492118 468.180008 
L 267.967618 464.479201 
L 268.443119 464.284806 
L 269.869621 464.500791 
L 270.345121 470.570405 
L 270.820622 468.719992 
L 271.296123 469.944001 
L 271.771623 469.144792 
L 273.198125 475.487993 
L 273.673626 475.192796 
L 274.149127 465.120006 
L 275.100128 463.478406 
L 276.52663 462.448792 
L 277.00213 460.583998 
L 277.477631 460.620008 
L 277.953132 463.608009 
L 278.428632 464.471991 
L 279.855134 461.073609 
L 280.330635 461.217593 
L 280.806135 460.576807 
L 281.281636 460.404004 
L 281.757137 462.506394 
L 283.183639 461.1096 
L 283.659139 462.563995 
L 284.13464 468.136807 
L 284.610141 470.793601 
L 285.085641 468.6552 
L 286.512143 470.433593 
L 287.463144 466.862407 
L 287.938645 468.950397 
L 288.414146 468.719992 
L 289.840648 471.420006 
L 290.316148 476.171999 
L 290.791649 477.215994 
L 291.26715 474.998401 
L 291.74265 478.396801 
L 293.169152 474.710394 
L 293.644653 474.948009 
L 294.120153 470.678398 
L 294.595654 469.029609 
L 295.071155 464.759997 
L 296.973157 463.499997 
L 297.448658 461.447999 
L 297.924159 458.697593 
L 298.399659 459.791999 
L 299.826161 456.652804 
L 300.301662 456.825608 
L 300.777162 455.155208 
L 301.252663 453.96 
L 301.728164 450.950408 
L 303.154666 449.388001 
L 303.630166 444.391202 
L 304.105667 444.664809 
L 304.581167 442.079997 
L 305.056668 438.804009 
L 306.48317 438.472801 
L 306.958671 450.000006 
L 307.434171 442.079997 
L 307.909672 445.500008 
L 308.385173 445.428006 
L 309.811674 448.005608 
L 310.762676 442.612809 
L 311.238176 441.424792 
L 311.713677 439.200008 
L 313.140179 435.888009 
L 313.61568 437.407196 
L 314.09118 432.144001 
L 314.566681 431.711991 
L 315.042182 428.464803 
L 316.468683 421.711202 
L 316.944184 431.985597 
L 317.419685 427.053609 
L 317.895185 427.104001 
L 318.370686 427.464009 
L 319.797188 425.923193 
L 320.272689 427.931991 
L 320.748189 427.968001 
L 321.22369 431.352001 
L 321.69919 431.373593 
L 323.125692 430.415999 
L 323.601193 426.959997 
L 324.076694 425.858401 
L 324.552194 421.178409 
L 325.027695 419.94 
L 326.454197 419.932809 
L 326.929697 421.560008 
L 327.405198 422.243995 
L 327.880699 421.740003 
L 328.356199 429.386405 
L 329.782701 427.4856 
L 330.258202 432.489609 
L 330.733703 433.612796 
L 331.209203 428.623206 
L 331.684704 428.227207 
L 333.111206 427.773606 
L 333.586706 427.276804 
L 334.062207 423.540006 
L 335.013208 422.683196 
L 336.915211 424.173601 
L 337.390712 421.2 
L 337.866212 421.279192 
L 338.341713 420.235197 
L 339.768215 418.737601 
L 340.243715 418.953606 
L 340.719216 419.680794 
L 341.194717 418.305591 
L 341.670217 418.607999 
L 343.096719 416.879997 
L 343.57222 418.319992 
L 344.04772 418.183199 
L 344.523221 417.527993 
L 344.998722 417.4344 
L 346.425224 418.874395 
L 346.900724 416.124009 
L 347.376225 415.044004 
L 349.753728 416.505608 
L 350.229229 413.956807 
L 350.704729 413.928006 
L 351.655731 416.656801 
L 353.082233 414.115191 
L 353.557733 411.732004 
L 354.033234 410.759992 
L 354.508735 408.311994 
L 354.984235 409.031991 
L 356.410737 405.237609 
L 357.837239 400.427996 
L 358.31274 400.003196 
L 360.214742 413.279992 
L 360.690243 405.446405 
L 361.165744 410.313601 
L 361.641244 412.826391 
L 363.067746 412.761599 
L 364.018747 402.120006 
L 364.494248 401.162394 
L 364.969749 407.858393 
L 366.396251 407.304009 
L 366.871751 402.494395 
L 367.347252 400.644001 
L 367.822752 404.244006 
L 368.298253 400.672801 
L 369.724755 397.699201 
L 370.200256 394.451994 
L 370.675756 392.493606 
L 371.151257 397.439994 
L 371.626758 393.451199 
L 373.52876 390.564001 
L 374.004261 388.44 
L 374.479761 391.305608 
L 374.955262 396.345608 
L 376.857265 404.841591 
L 377.332765 404.200805 
L 377.808266 404.373609 
L 378.283767 399.744009 
L 379.710268 395.193601 
L 380.185769 397.6704 
L 380.66127 397.152007 
L 381.13677 391.737599 
L 381.612271 390.419997 
L 383.038773 395.056807 
L 383.514274 394.379992 
L 383.989774 395.568009 
L 384.465275 399.672007 
L 384.940775 399.600006 
L 386.367277 395.056807 
L 386.842778 403.128009 
L 387.318279 413.092806 
L 387.793779 409.924792 
L 388.26928 410.400003 
L 389.695782 406.612793 
L 390.171282 403.819206 
L 390.646783 406.115991 
L 391.122284 404.020791 
L 391.597784 398.145591 
L 393.024286 395.683193 
L 393.499787 398.836807 
L 393.975288 397.843204 
L 394.450788 398.836807 
L 394.926289 400.823995 
L 396.352791 404.351999 
L 396.828291 406.08 
L 397.303792 405.259201 
L 397.779293 406.058409 
L 398.254793 407.556005 
L 399.681295 410.385602 
L 400.156796 410.255999 
L 400.632297 408.5856 
L 401.107797 408.916807 
L 401.583298 412.703998 
L 403.0098 417.484792 
L 403.960801 402.120006 
L 404.436302 397.065605 
L 406.338304 395.783995 
L 406.813805 396.468001 
L 407.289305 398.088009 
L 407.764806 399.225597 
L 408.240307 398.397606 
L 409.666809 399.239997 
L 410.142309 399.153595 
L 410.61781 398.246394 
L 411.093311 398.843998 
L 411.568811 398.728795 
L 413.470814 398.404797 
L 413.946314 399.427201 
L 414.421815 401.565602 
L 414.897316 402.947996 
L 416.323818 408.527999 
L 416.799318 409.8744 
L 417.274819 406.08 
L 417.75032 404.157604 
L 418.22582 406.785597 
L 419.652322 410.817593 
L 420.603323 408.348004 
L 421.078824 407.210397 
L 421.554325 407.296799 
L 423.456327 402.479994 
L 423.931828 399.852001 
L 424.407329 400.103998 
L 424.882829 401.752806 
L 426.309331 404.776799 
L 426.784832 409.031991 
L 427.260332 409.932001 
L 427.735833 409.86 
L 428.211334 413.632809 
L 429.637836 413.949597 
L 430.113336 410.896804 
L 430.588837 414.086391 
L 431.064337 418.802394 
L 431.539838 418.060805 
L 432.96634 424.439997 
L 433.441841 421.055996 
L 433.917341 415.886394 
L 434.392842 418.953606 
L 434.868343 413.935197 
L 436.294844 412.38 
L 436.770345 407.923204 
L 437.245846 409.046391 
L 437.721346 408.355194 
L 438.196847 407.375991 
L 440.09885 401.400008 
L 440.57435 398.368806 
L 441.049851 393.119992 
L 441.525352 394.416002 
L 442.951853 393.969592 
L 443.427354 396.993604 
L 443.902855 391.406391 
L 444.378355 391.435191 
L 444.853856 389.397593 
L 446.280358 384.998398 
L 446.755859 379.2096 
L 447.231359 370.080003 
L 447.70686 371.591999 
L 448.18236 368.820003 
L 449.608862 367.473601 
L 450.084363 360.230408 
L 450.559864 365.652007 
L 451.510865 371.519997 
L 452.937367 365.493604 
L 453.412867 368.387993 
L 454.363869 376.308001 
L 454.839369 386.949595 
L 456.265871 393.825608 
L 456.741372 392.399994 
L 457.216873 387.000006 
L 457.692373 385.401607 
L 458.167874 378.554395 
L 459.594376 375.775208 
L 460.069876 377.236794 
L 460.545377 375.84 
L 461.020878 387.813595 
L 461.496378 391.679997 
L 462.92288 392.335203 
L 463.398381 390.96 
L 463.873882 381.168006 
L 464.349382 385.200003 
L 466.251385 368.640008 
L 466.726885 369.928809 
L 467.202386 373.060794 
L 467.677887 373.881594 
L 468.153387 380.282396 
L 470.05539 384.134398 
L 470.53089 372.959992 
L 471.006391 372.736796 
L 471.481892 377.985591 
L 472.908394 380.232004 
L 473.383894 374.219992 
L 473.859395 370.252806 
L 474.334896 367.271996 
L 474.810396 363.578398 
L 476.236898 363.456005 
L 476.712399 351.943201 
L 477.187899 351.359997 
L 477.6634 362.375999 
L 478.138901 360.107996 
L 479.565403 366.263992 
L 480.040903 361.396796 
L 480.516404 362.512793 
L 480.991905 369.928809 
L 481.467405 373.550405 
L 482.893907 379.317593 
L 483.369408 392.947207 
L 483.844908 388.584004 
L 484.320409 380.304006 
L 484.79591 382.687194 
L 486.222412 375.688806 
L 486.697912 366.120008 
L 487.173413 359.899201 
L 487.648914 357.948004 
L 488.124414 349.005591 
L 489.550916 348.523209 
L 490.026417 348.487199 
L 490.501917 361.584001 
L 491.452919 366.659992 
L 492.879421 363.312001 
L 493.354921 361.886407 
L 493.830422 364.931991 
L 494.305922 358.639201 
L 494.781423 358.192809 
L 496.207925 359.243995 
L 496.683426 364.881599 
L 497.158926 363.520797 
L 497.634427 363.340802 
L 498.109928 360.604797 
L 499.536429 362.786399 
L 500.01193 358.876796 
L 500.487431 364.154392 
L 500.962931 372.851999 
L 501.438432 374.212801 
L 502.864934 375.695996 
L 503.340435 374.796005 
L 503.815935 371.289592 
L 504.291436 377.640003 
L 504.766937 378.086394 
L 506.193438 384.544797 
L 506.668939 380.923201 
L 507.14444 383.846391 
L 508.095441 386.409592 
L 509.521943 381.362401 
L 509.997444 381.455994 
L 510.472944 375.623995 
L 510.948445 373.860003 
L 511.423945 368.222399 
L 512.850447 366.919198 
L 513.325948 367.646405 
L 513.801449 369.532809 
L 514.276949 367.0344 
L 514.75245 366.458406 
L 516.178952 367.595994 
L 516.654452 369.288004 
L 517.129953 376.070405 
L 517.605454 375.616804 
L 518.080954 374.709603 
L 519.507456 374.054398 
L 519.982957 369.172801 
L 520.933958 362.808009 
L 521.409459 360.367201 
L 523.311461 357.825591 
L 523.786962 359.0352 
L 524.262463 359.632804 
L 524.737963 357.487194 
L 526.639966 353.520008 
L 527.115467 353.318404 
L 527.590967 350.877596 
L 528.066468 346.161594 
L 529.49297 344.628006 
L 529.96847 344.519994 
L 530.443971 346.096801 
L 530.919472 346.499992 
L 531.394972 346.564803 
L 533.296975 343.468809 
L 533.772476 341.063992 
L 534.247976 340.912799 
L 534.723477 345.779994 
L 536.149979 343.944001 
L 536.625479 345.923998 
L 537.10098 328.514403 
L 537.576481 328.939203 
L 538.051981 328.485602 
L 539.478483 327.319195 
L 539.953984 321.789583 
L 540.429484 320.003981 
L 540.904985 321.134398 
L 541.380486 319.996791 
L 542.806988 318.095986 
L 543.757989 309.816008 
L 544.23349 301.996801 
L 544.70899 296.244014 
L 546.135492 290.095208 
L 546.610993 286.559994 
L 547.086493 290.239212 
L 547.561994 297.626407 
L 548.037495 287.784004 
L 549.939497 285.033598 
L 550.414998 281.469583 
L 550.890499 281.160006 
L 551.365999 274.579189 
L 552.792501 276.27839 
L 553.743502 262.295996 
L 554.694504 257.385619 
L 556.121006 269.279983 
L 556.596506 276.32161 
L 557.072007 271.224009 
L 557.547507 264.873598 
L 558.023008 256.960799 
L 559.44951 254.159983 
L 559.925011 247.859983 
L 560.400511 233.712015 
L 560.876012 231.443992 
L 561.351513 231.840011 
L 562.778014 223.883992 
L 563.253515 222.134381 
L 563.729016 214.984781 
L 564.204516 219.218401 
L 564.680017 220.03201 
L 566.106519 219.412815 
L 566.58202 211.636791 
L 567.05752 208.576807 
L 567.533021 210.794381 
L 568.008522 217.483209 
L 569.435023 215.726407 
L 569.910524 199.792799 
L 570.386025 203.759983 
L 570.861525 199.151994 
L 572.763528 197.783981 
L 573.239029 197.279989 
L 574.19003 201.239983 
L 574.66553 213.472804 
L 576.092032 231.660017 
L 576.567533 236.224786 
L 577.043034 214.048817 
L 577.994035 237.297601 
L 579.420537 247.233598 
L 579.896037 248.400006 
L 580.371538 211.680011 
L 580.847039 214.466407 
L 581.322539 215.640006 
L 582.749041 228.240006 
L 583.224542 229.514386 
L 583.700043 231.220816 
L 584.175543 230.183992 
L 584.651044 241.077601 
L 586.077546 243.914409 
L 586.553046 245.714392 
L 587.028547 244.187996 
L 587.504048 238.723214 
L 587.979548 241.667996 
L 589.40605 246.528001 
L 589.881551 250.740011 
L 590.832552 266.313593 
L 591.308053 272.030388 
L 592.734555 263.484014 
L 593.210055 250.142388 
L 593.685556 249.674386 
L 594.161057 243.914409 
L 594.636557 245.901616 
L 596.53856 240.976818 
L 597.014061 240.076807 
L 597.489561 236.548784 
L 597.965062 244.425591 
L 599.391564 253.080017 
L 599.867064 246.002399 
L 600.342565 240.840006 
L 600.818066 237.24 
L 601.293566 238.320006 
L 602.720068 237.146407 
L 603.195569 239.975986 
L 603.671069 237.326402 
L 604.14657 239.572815 
L 604.622071 237.923987 
L 606.048573 237.333593 
L 606.524073 228.167985 
L 606.999574 229.824004 
L 607.475075 232.243182 
L 607.950575 233.697596 
L 609.377077 237.333593 
L 609.852578 239.522404 
L 610.328078 236.217596 
L 610.803579 240.760794 
L 611.27908 234.540006 
L 612.705582 227.807996 
L 613.181082 220.320017 
L 614.132084 216.25201 
L 614.607584 214.862388 
L 616.034086 213.040794 
L 616.509587 212.176813 
L 616.985087 218.001583 
L 617.460588 221.2704 
L 617.936089 215.999994 
L 619.362591 212.385608 
L 619.838091 213.73201 
L 620.313592 213.436813 
L 620.789092 211.680011 
L 621.264593 213.335991 
L 622.691095 224.848795 
L 623.166596 217.072809 
L 623.642096 237.599989 
L 624.117597 237.340783 
L 624.593098 236.455191 
L 626.019599 224.769583 
L 626.4951 214.041588 
L 626.970601 213.839983 
L 627.446101 215.82 
L 627.921602 207.676796 
L 629.348104 205.012793 
L 629.823605 203.011205 
L 630.299105 203.688001 
L 631.250107 202.536013 
L 632.676608 199.260006 
L 633.152109 194.248806 
L 633.62761 196.019989 
L 634.10311 194.040011 
L 634.578611 188.056818 
L 636.005113 180.071999 
L 636.480614 179.762382 
L 636.956114 181.360799 
L 637.431615 171.972015 
L 637.907115 176.003992 
L 639.333617 163.051194 
L 639.809118 165.117612 
L 640.284619 163.72799 
L 640.760119 170.748006 
L 641.23562 174.779983 
L 643.137622 169.559989 
L 643.613123 165.888001 
L 644.088624 165.023981 
L 644.564124 161.445586 
L 646.466127 175.320006 
L 646.941628 175.679994 
L 647.417128 162.165602 
L 647.892629 152.719217 
L 650.270132 144.309617 
L 650.745633 148.593609 
L 651.221133 144.460811 
L 652.647635 156.240011 
L 653.598637 171.935986 
L 654.074137 172.54799 
L 654.549638 167.94 
L 655.97614 175.320006 
L 656.45164 179.532015 
L 656.927141 170.906391 
L 657.402642 168.803981 
L 657.878142 179.078396 
L 659.304644 190.000805 
L 659.780145 199.043981 
L 660.255646 189.36 
L 660.731146 195.768012 
L 661.206647 197.783981 
L 662.633149 198.827996 
L 663.108649 193.679983 
L 663.58415 184.32 
L 664.059651 194.4 
L 664.535151 209.073609 
L 665.961653 208.252809 
L 666.437154 207.576013 
L 666.912654 208.339212 
L 667.388155 212.004009 
L 667.863656 222.479989 
L 670.241159 224.855986 
L 670.71666 220.197585 
L 671.19216 234.180017 
L 672.618662 232.128017 
L 673.094163 230.335186 
L 674.045164 262.591194 
L 674.520665 263.72161 
L 675.947167 260.172015 
L 676.422667 261.820805 
L 676.898168 261.950388 
L 677.373669 271.713581 
L 677.849169 283.86 
L 679.275671 259.286386 
L 679.751172 248.702394 
L 680.226672 247.248017 
L 681.177674 242.927996 
L 682.604176 234.928795 
L 683.079676 230.327996 
L 683.555177 235.972809 
L 684.030677 226.620017 
L 684.506178 228.470411 
L 685.93268 226.439983 
L 686.408181 236.066402 
L 686.883681 260.085614 
L 687.359182 274.586419 
L 687.834683 266.399994 
L 689.261184 272.462399 
L 689.736685 261.093598 
L 690.212186 261.885597 
L 690.687686 269.423987 
L 691.163187 283.982394 
L 692.589689 287.114398 
L 693.06519 273.420011 
L 693.54069 269.640011 
L 694.016191 274.406386 
L 694.491692 280.627212 
L 695.918193 274.528817 
L 696.869195 279.993598 
L 697.344695 284.644809 
L 697.820196 282.153609 
L 699.246698 281.519994 
L 700.197699 258.026386 
L 700.6732 258.480006 
L 701.1487 269.402415 
L 702.575202 277.056008 
L 703.050703 272.699994 
L 703.526204 276.487185 
L 704.001704 276.825602 
L 704.477205 274.305602 
L 705.903707 289.072804 
L 706.379207 299.966413 
L 707.330209 286.538384 
L 707.805709 290.59201 
L 709.707712 290.426396 
L 710.183213 284.565597 
L 710.658713 323.820011 
L 711.134214 334.800003 
L 712.560716 334.180808 
L 713.036216 322.473609 
L 713.511717 320.759989 
L 713.987218 320.414381 
L 714.462718 325.187985 
L 715.88922 329.760003 
L 716.364721 329.601599 
L 716.840222 322.142382 
L 717.315722 321.033614 
L 717.791223 310.859983 
L 719.217725 307.260017 
L 720.168726 314.481599 
L 720.644227 313.905586 
L 721.119727 316.857596 
L 723.02173 321.22799 
L 723.972731 329.169609 
L 724.448232 326.448004 
L 725.874734 329.349603 
L 726.350234 332.884797 
L 726.825735 330.731996 
L 727.301236 330.191994 
L 727.776736 338.414409 
L 729.203238 346.319997 
L 729.678739 345.059997 
L 730.154239 342.410394 
L 730.62974 344.836801 
L 731.105241 339.400802 
L 732.531743 341.899192 
L 733.007243 340.1496 
L 733.482744 341.740808 
L 733.958245 338.075991 
L 734.433745 333.179994 
L 735.860247 330.335996 
L 736.335748 325.080011 
L 736.811248 324.295203 
L 737.286749 323.927985 
L 739.188752 315.518384 
L 739.664252 316.418396 
L 740.615254 330.033609 
L 742.517256 340.027207 
L 742.992757 340.991991 
L 743.468257 338.176794 
L 744.419259 345.830405 
L 745.845761 343.807207 
L 746.321261 343.620003 
L 746.796762 341.272806 
L 747.272262 337.536008 
L 747.747763 339.055194 
L 749.174265 345.923998 
L 749.649766 345.1896 
L 750.125266 361.360805 
L 750.600767 367.387199 
L 751.076268 370.727999 
L 752.502769 366.285602 
L 752.97827 360.856794 
L 753.453771 365.399992 
L 753.929271 354.960003 
L 754.404772 354.059992 
L 755.831274 345.6 
L 756.306775 336.909603 
L 756.782275 335.239203 
L 757.257776 330.746396 
L 757.733277 324.61201 
L 759.159778 320.896801 
L 759.635279 321.336002 
L 760.11078 319.816796 
L 760.58628 319.982409 
L 761.061781 323.654398 
L 762.488283 322.92 
L 762.963784 329.651991 
L 763.439284 343.900799 
L 763.914785 346.391999 
L 764.390285 337.672801 
L 765.816787 338.328006 
L 766.767789 332.481607 
L 767.243289 334.231199 
L 767.71879 330.940791 
L 769.620793 330.587993 
L 770.096293 331.632007 
L 771.047294 324.359994 
L 772.473796 329.414395 
L 772.949297 325.879201 
L 773.424798 328.528804 
L 773.900298 335.484009 
L 774.375799 336.405591 
L 775.802301 333.503992 
L 776.277801 336.009592 
L 776.753302 337.320003 
L 777.228803 339.3 
L 777.704303 339.479994 
L 779.130805 338.140802 
L 779.606306 338.248795 
L 781.032808 354.168004 
L 782.45931 361.404006 
L 782.93481 360.842394 
L 783.410311 363.124797 
L 783.885812 364.651194 
L 784.361312 368.013604 
L 785.787814 359.121602 
L 786.738816 347.435994 
L 787.689817 348.948009 
L 789.116319 352.331991 
L 789.591819 352.526405 
L 790.06732 346.86 
L 791.018321 343.144792 
L 792.444823 342.143998 
L 792.920324 342.597599 
L 793.395824 339.681599 
L 793.871325 337.960808 
L 794.346826 342.467996 
L 795.773328 341.661596 
L 796.248828 346.528792 
L 796.724329 334.612799 
L 797.19983 334.216799 
L 797.67533 335.275194 
L 799.101832 331.055994 
L 799.577333 324.554409 
L 800.052833 324.410405 
L 801.003835 319.204792 
L 802.430337 315.251988 
L 802.905837 315.237606 
L 803.381338 315.525614 
L 804.332339 321.371994 
L 805.758841 319.226402 
L 806.234342 311.003987 
L 806.709842 292.751983 
L 807.185343 295.862415 
L 807.660844 288.820788 
L 809.087346 285.12 
L 809.562846 287.409595 
L 810.038347 287.136008 
L 810.513847 289.296019 
L 810.989348 288.46799 
L 812.41585 287.64 
L 812.891351 297.864004 
L 813.366851 298.079989 
L 813.842352 294.386391 
L 814.317853 297.72 
L 816.219855 297.107996 
L 816.695356 290.678412 
L 817.170856 292.579217 
L 817.646357 295.235991 
L 819.072859 285.494409 
L 819.54836 295.559989 
L 820.02386 313.336801 
L 820.499361 312.472782 
L 820.974862 313.416013 
L 822.401363 326.001594 
L 822.876864 325.800008 
L 823.352365 316.324803 
L 823.827865 310.140006 
L 824.303366 312.480011 
L 826.205369 296.769617 
L 826.680869 301.370417 
L 827.15637 299.592004 
L 827.63187 301.881599 
L 829.058372 306.424797 
L 829.533873 303.566419 
L 830.009374 299.700017 
L 830.484874 301.867218 
L 830.960375 303.407996 
L 832.386877 298.54799 
L 832.862378 302.011183 
L 833.337878 303.638401 
L 833.813379 297.33121 
L 834.288879 298.684803 
L 835.715381 295.668001 
L 836.190882 291.225586 
L 836.666383 288.554392 
L 837.141883 288.230394 
L 837.617384 283.888801 
L 839.043886 279.705591 
L 839.519386 282.218401 
L 839.994887 274.319983 
L 840.945888 269.920788 
L 842.37239 271.288801 
L 842.847891 277.531199 
L 843.323392 275.745597 
L 843.798892 272.685614 
L 844.274393 276.595197 
L 845.700895 274.456796 
L 846.176395 271.439994 
L 847.127397 279.086396 
L 847.602897 278.935203 
L 849.029399 277.624792 
L 849.5049 275.760017 
L 849.980401 275.788817 
L 850.455901 272.253604 
L 850.931402 270.367218 
L 852.357904 274.895996 
L 852.833404 275.06161 
L 853.308905 277.682394 
L 853.784406 278.157585 
L 854.259906 274.658401 
L 855.686408 272.879989 
L 856.161909 270.720017 
L 856.637409 263.952015 
L 857.588411 253.576818 
L 859.014913 251.409617 
L 859.490413 246.4704 
L 859.965914 244.209606 
L 860.441415 240.184781 
L 860.916915 245.109617 
L 862.818918 243.936019 
L 863.294418 245.023214 
L 863.769919 244.77839 
L 864.24542 249.357618 
L 865.671922 248.392815 
L 866.147422 249.566413 
L 866.622923 260.064004 
L 867.098424 256.514409 
L 867.573924 255.7296 
L 869.000426 242.812793 
L 869.475927 240.458406 
L 870.426928 242.366402 
L 870.902429 245.159989 
L 872.328931 250.329612 
L 872.804431 249.119983 
L 873.755432 250.545597 
L 874.230933 258.890405 
L 875.657435 263.808012 
L 876.132936 260.697618 
L 876.608436 260.143214 
L 877.083937 262.548012 
L 877.559438 265.600805 
L 878.985939 266.486396 
L 879.46144 260.884803 
L 879.936941 250.804803 
L 880.412441 250.790383 
L 880.887942 259.272004 
L 882.789945 258.897596 
L 883.265445 253.576818 
L 883.740946 255.736791 
L 884.216447 255.780011 
L 885.642948 255.059994 
L 886.118449 286.509583 
L 886.59395 288.993593 
L 887.06945 290.375986 
L 887.544951 292.644009 
L 888.971453 288.503981 
L 889.922454 283.500011 
L 890.397955 282.376786 
L 890.873455 275.486391 
L 892.299957 275.04 
L 892.775458 266.759983 
L 893.250959 264.067218 
L 893.726459 263.376002 
L 894.20196 258.328812 
L 896.103963 255.160816 
L 896.579463 263.26799 
L 897.530464 270.288006 
L 898.956966 271.857585 
L 899.432467 272.879989 
L 899.907968 276.768001 
L 900.383468 276.444004 
L 900.858969 272.073609 
L 902.285471 271.576807 
L 902.760971 268.005602 
L 903.236472 267.026419 
L 903.711973 267.768006 
L 904.187473 269.243992 
L 905.613975 267.595203 
L 906.089476 264.535219 
L 906.564977 264.96 
L 907.040477 267.004809 
L 907.515978 271.439994 
L 908.94248 269.387996 
L 909.41798 269.855996 
L 909.893481 267.120011 
L 910.368982 268.30799 
L 910.844482 269.042388 
L 912.270984 262.756807 
L 912.746485 259.495219 
L 913.221986 260.020783 
L 913.697486 262.713587 
L 914.172987 263.340011 
L 915.599489 262.130383 
L 916.074989 261.525608 
L 916.55049 259.012799 
L 917.025991 260.899184 
L 917.501491 265.982404 
L 919.403494 274.536008 
L 919.878994 272.145591 
L 920.354495 271.317601 
L 920.829996 275.659195 
L 922.256498 275.608784 
L 922.731998 279.842404 
L 923.207499 277.819206 
L 923.683 274.176019 
L 925.585002 270.748817 
L 926.060503 268.919994 
L 926.536003 270.396019 
L 927.011504 244.274398 
L 927.487005 241.948812 
L 928.913507 235.764014 
L 929.389007 223.552804 
L 929.864508 223.344009 
L 930.340009 225.820788 
L 930.815509 223.408801 
L 932.242011 223.200006 
L 932.717512 220.024781 
L 933.193012 224.834414 
L 933.668513 225.791988 
L 934.144014 230.162382 
L 935.570516 225.07201 
L 936.046016 222.696013 
L 936.521517 221.947196 
L 936.997017 224.611199 
L 937.472518 226.512004 
L 939.374521 215.474392 
L 939.850021 214.516818 
L 940.801023 211.341594 
L 942.703025 204.746396 
L 943.178526 198.878406 
L 943.654026 196.005608 
L 944.129527 195.191999 
L 945.556029 199.799989 
L 946.03153 195.66 
L 946.982531 185.320794 
L 947.458032 183.981583 
L 948.884533 581.94 
L 949.360034 580.6296 
L 949.835535 580.701599 
L 950.311035 581.831999 
L 950.786536 582.566402 
L 952.688539 581.903998 
L 953.164039 582.228001 
L 953.63954 582.235203 
L 954.11504 582.551999 
L 955.541542 582.768001 
L 956.492544 583.451999 
L 956.968044 583.343998 
L 957.443545 582.645602 
L 958.870047 581.695203 
L 959.345548 580.946402 
L 960.296549 580.896002 
L 962.198551 580.248001 
L 962.674052 580.377601 
L 963.149553 579.772799 
L 963.625053 580.665602 
L 964.100554 579.700799 
L 965.527056 579.131999 
L 966.002556 579.578401 
L 966.478057 579.787201 
L 966.953558 581.3496 
L 967.429058 581.025602 
L 968.85556 580.521599 
L 969.331061 580.233598 
L 970.282062 578.577601 
L 970.757563 578.419201 
L 972.184065 577.763998 
L 972.659565 577.26 
L 973.135066 577.677601 
L 973.610567 579.362399 
L 974.086067 579.736801 
L 975.512569 579.477601 
L 975.98807 580.060799 
L 976.463571 579.808801 
L 977.414572 580.838401 
L 978.841074 579.715203 
L 979.316574 579.160799 
L 979.792075 578.851199 
L 980.267576 578.303998 
L 980.743076 578.260799 
L 982.169578 577.454398 
L 982.645079 576.4896 
L 983.120579 576.036002 
L 984.071581 575.863199 
L 985.498083 575.078401 
L 985.973583 575.380799 
L 986.449084 575.496002 
L 987.400085 574.416002 
L 989.302088 574.041599 
L 989.777588 577.022399 
L 990.253089 577.591199 
L 990.72859 577.216801 
L 992.155092 577.403998 
L 992.630592 578.779201 
L 994.057094 575.222399 
L 995.483596 574.963199 
L 995.959097 576.799201 
L 996.434597 575.575203 
L 996.910098 574.876801 
L 997.385599 575.64 
L 999.287601 575.611199 
L 999.763102 575.136002 
L 1000.238602 577.641599 
L 1000.714103 577.151999 
L 1002.140605 576.986402 
L 1002.616106 575.618401 
L 1003.091606 576.936002 
L 1003.567107 577.411199 
L 1004.042608 576.691199 
L 1005.46911 576.417601 
L 1005.94461 576.914398 
L 1006.420111 577.216801 
L 1006.895611 575.560799 
L 1007.371112 575.783998 
L 1008.797614 576.136801 
L 1009.273115 577.0296 
L 1009.748615 579.4704 
L 1010.224116 579.304797 
L 1010.699617 578.296801 
L 1012.126118 577.281599 
L 1012.601619 575.085602 
L 1013.55262 573.386402 
L 1014.028121 572.738401 
L 1015.454623 572.616002 
L 1015.930124 572.148001 
L 1016.405624 571.420799 
L 1016.881125 571.751999 
L 1017.356625 570.808801 
L 1018.783127 570.232799 
L 1019.258628 570.441599 
L 1019.734129 570.146402 
L 1020.209629 570.383998 
L 1020.68513 569.843998 
L 1022.111632 569.757601 
L 1022.587133 569.951999 
L 1023.062633 569.253598 
L 1023.538134 567.648001 
L 1024.013634 567.928801 
L 1025.915637 565.999201 
L 1026.391138 566.063998 
L 1027.342139 564.458401 
L 1028.768641 564.033598 
L 1029.244141 563.436002 
L 1029.719642 563.162399 
L 1030.670643 563.003998 
L 1032.097145 567.885602 
L 1032.572646 566.82 
L 1033.048147 565.120799 
L 1033.523647 564.991199 
L 1033.999148 565.459201 
L 1035.42565 567.633598 
L 1035.90115 569.268001 
L 1036.376651 567.691199 
L 1036.852152 567.835203 
L 1037.327652 569.102399 
L 1038.754154 571.428001 
L 1039.229655 571.492799 
L 1039.705156 571.0896 
L 1040.180656 568.324797 
L 1040.656157 567.604797 
L 1042.082659 567.381599 
L 1042.558159 567.028801 
L 1043.03366 567.352799 
L 1043.984661 567.352799 
L 1045.411163 566.136002 
L 1047.313166 570.708001 
L 1049.215168 572.666402 
L 1050.16617 569.736002 
L 1050.64167 568.648801 
L 1052.068172 569.663998 
L 1052.543673 569.584797 
L 1053.019173 569.88 
L 1053.970175 572.256002 
L 1055.872177 571.32 
L 1057.298679 567.698401 
L 1058.725181 566.783998 
L 1059.200682 569.498401 
L 1059.676182 564.976801 
L 1060.151683 564.796801 
L 1060.627184 563.868001 
L 1062.053686 564.422399 
L 1062.529186 563.320799 
L 1063.004687 562.816801 
L 1063.480187 562.14 
L 1063.955688 562.716002 
L 1065.38219 562.7304 
L 1065.857691 561.484797 
L 1066.333191 559.8 
L 1066.808692 557.5896 
L 1067.284193 557.531999 
L 1069.186195 556.617601 
L 1069.661696 556.236002 
L 1070.137196 555.602399 
L 1070.612697 555.803998 
L 1072.039199 554.644797 
L 1072.5147 553.557601 
L 1072.9902 555.732004 
L 1073.465701 556.840799 
L 1073.941202 555.667196 
L 1075.367703 555.623998 
L 1075.843204 555.775203 
L 1076.318705 555.609595 
L 1076.794205 557.452799 
L 1077.269706 557.092799 
L 1078.696208 557.956801 
L 1079.171709 558.863998 
L 1079.647209 560.080799 
L 1080.12271 560.426402 
L 1080.59821 559.742399 
L 1082.024712 559.533598 
L 1082.500213 557.531999 
L 1082.975714 557.013598 
L 1083.451214 556.271999 
L 1083.926715 557.884797 
L 1085.353217 556.905602 
L 1085.828718 556.876801 
L 1086.304218 559.166402 
L 1086.779719 559.728001 
L 1088.681721 558.72 
L 1089.157222 558.460799 
L 1089.632723 559.368001 
L 1090.108223 558.583199 
L 1092.010226 558.482399 
L 1092.485726 557.294398 
L 1092.961227 558.021599 
L 1093.436728 558.244797 
L 1093.912228 557.812799 
L 1095.33873 556.840799 
L 1095.814231 557.344797 
L 1096.765232 557.200799 
L 1097.240733 558.388801 
L 1098.667235 557.877601 
L 1099.142735 556.797601 
L 1099.618236 557.0496 
L 1100.093737 555.739201 
L 1100.569237 554.954403 
L 1101.995739 553.572004 
L 1102.946741 555.623998 
L 1103.422241 558.302399 
L 1103.897742 557.783998 
L 1105.324244 555.652804 
L 1106.275245 559.180799 
L 1106.750746 558.705602 
L 1107.226246 557.200799 
L 1108.652748 557.546402 
L 1109.128249 558.1296 
L 1110.554751 555.688795 
L 1111.981253 555.580799 
L 1112.456753 554.659201 
L 1112.932254 554.875203 
L 1113.407755 554.522399 
L 1113.883255 553.392004 
L 1115.785258 555.033604 
L 1116.736259 553.607996 
L 1117.21176 554.472004 
L 1118.638262 554.363998 
L 1119.113762 554.889595 
L 1119.589263 554.472004 
L 1120.064764 555.184797 
L 1121.966766 556.682399 
L 1122.442267 557.553598 
L 1122.917767 555.948001 
L 1123.393268 555.494403 
L 1123.868769 556.480799 
L 1125.295271 557.488801 
L 1125.770771 557.013598 
L 1126.721772 556.401599 
L 1127.197273 556.991999 
L 1128.623775 556.502399 
L 1129.099276 556.646402 
L 1130.050277 556.2 
L 1130.525778 556.912799 
L 1131.95228 558.374398 
L 1132.42778 558.100799 
L 1132.903281 557.287201 
L 1135.280784 558.108001 
L 1136.231785 559.771199 
L 1136.707286 562.161599 
L 1137.182787 560.728801 
L 1138.609288 558.4896 
L 1139.56029 557.582399 
L 1140.03579 556.308001 
L 1140.511291 555.616801 
L 1141.937793 553.896002 
L 1142.413294 554.169595 
L 1142.888794 560.167201 
L 1143.364295 557.956801 
L 1143.839795 558.791999 
L 1145.266297 560.073598 
L 1145.741798 559.763998 
L 1146.217299 559.965602 
L 1146.692799 560.368801 
L 1147.1683 560.944797 
L 1148.594802 563.385602 
L 1149.070303 566.46 
L 1149.545803 567.288001 
L 1150.021304 565.833598 
L 1150.496804 565.56 
L 1151.923306 564.098401 
L 1152.874308 569.066402 
L 1153.349808 565.531199 
L 1153.825309 565.912799 
L 1155.727311 564.472799 
L 1156.202812 565.4304 
L 1156.678313 567.626402 
L 1157.153813 571.931999 
L 1158.580315 581.76 
L 1159.055816 573.48 
L 1159.531317 572.363998 
L 1160.006817 568.785602 
L 1160.482318 567.691199 
L 1161.90882 567.36 
L 1162.38432 570.700799 
L 1162.859821 569.426402 
L 1163.335322 568.771199 
L 1163.810822 569.872799 
L 1165.712825 568.5696 
L 1166.188326 568.965602 
L 1166.663826 568.871999 
L 1167.139327 567.532799 
L 1168.565829 565.300799 
L 1169.041329 565.617601 
L 1169.51683 564.883199 
L 1170.467831 567.453598 
L 1171.894333 566.164797 
L 1172.369834 566.985602 
L 1172.845334 566.423998 
L 1173.320835 567.093598 
L 1173.796336 565.905602 
L 1175.222838 567.043199 
L 1175.698338 570.340799 
L 1176.173839 569.714398 
L 1176.64934 570.736801 
L 1177.12484 570.563998 
L 1179.026843 568.965602 
L 1179.502343 569.224797 
L 1179.977844 570.088801 
L 1180.453345 569.167201 
L 1181.879847 567.763199 
L 1182.355347 568.3104 
L 1182.830848 569.116801 
L 1183.306349 568.447201 
L 1183.781849 568.418401 
L 1185.208351 568.720799 
L 1185.683852 568.2096 
L 1186.159352 566.136002 
L 1186.634853 565.848001 
L 1187.110354 564.242399 
L 1188.536856 565.257601 
L 1189.012356 565.927201 
L 1189.963357 562.845602 
L 1190.438858 561.996002 
L 1191.86536 561.880799 
L 1192.816361 560.433598 
L 1193.291862 561.4704 
L 1193.767363 561.153598 
L 1195.193865 561.563998 
L 1195.669365 564.436801 
L 1196.144866 565.048801 
L 1196.620366 564.731999 
L 1197.095867 567.165602 
L 1198.522369 568.08 
L 1199.47337 564.84 
L 1199.948871 563.932799 
L 1200.424372 562.428001 
L 1201.850873 563.515203 
L 1202.326374 563.673598 
L 1202.801875 563.097601 
L 1203.752876 563.328001 
L 1205.179378 563.22 
L 1206.130379 564.422399 
L 1206.60588 565.761599 
L 1208.507882 563.176801 
L 1208.983383 563.860799 
L 1209.458884 565.142399 
L 1209.934384 564.832799 
L 1210.409885 566.748001 
L 1211.836387 568.951199 
L 1212.311888 568.548001 
L 1212.787388 569.663998 
L 1213.262889 569.534398 
L 1213.738389 571.816801 
L 1215.164891 571.9896 
L 1216.115893 570.816002 
L 1216.591393 570.276002 
L 1218.493396 571.5504 
L 1218.968896 571.060799 
L 1219.444397 570.8304 
L 1219.919898 572.5296 
L 1221.8219 574.56 
L 1222.297401 574.264797 
L 1222.772902 576.093598 
L 1223.248402 578.5704 
L 1223.723903 578.332799 
L 1225.150405 577.915203 
L 1225.625905 576.835203 
L 1226.576907 579.067201 
L 1227.052407 579.340799 
L 1228.95441 579.24 
L 1229.429911 580.737601 
L 1229.905411 579.643199 
L 1230.380912 577.173598 
L 1231.807414 576.568801 
L 1232.282914 577.3896 
L 1232.758415 580.795203 
L 1233.233916 581.479201 
L 1233.709416 580.068001 
L 1235.135918 579.311999 
L 1235.611419 580.118401 
L 1236.086919 580.262399 
L 1236.56242 579.463199 
L 1237.037921 580.543199 
L 1238.464423 581.011199 
L 1238.939923 580.3704 
L 1239.415424 580.248001 
L 1239.890925 581.335203 
L 1242.268428 579.880799 
L 1242.743928 578.771999 
L 1243.219429 578.815203 
L 1243.69493 579.023998 
L 1245.121432 578.937601 
L 1246.072433 580.8096 
L 1246.547934 579.42 
L 1247.023434 578.462399 
L 1248.449936 578.411999 
L 1248.925437 577.857601 
L 1249.400937 576.259201 
L 1250.351939 575.013598 
L 1251.778441 575.308801 
L 1252.253941 575.711999 
L 1253.204942 575.891999 
L 1253.680443 574.92 
L 1255.106945 574.718401 
L 1255.582446 573.228001 
L 1256.057946 572.695203 
L 1257.008948 572.263199 
L 1258.91095 572.248801 
L 1259.386451 571.751999 
L 1259.861951 572.479201 
L 1261.763954 572.356801 
L 1262.239455 572.486402 
L 1262.714955 569.808001 
L 1263.190456 569.606402 
L 1263.665957 570.096002 
L 1265.092458 568.605602 
L 1265.567959 569.217601 
L 1266.04346 569.376002 
L 1266.51896 570.153598 
L 1266.994461 570.117601 
L 1268.420963 569.642399 
L 1268.896464 569.764797 
L 1269.371964 568.223998 
L 1269.847465 567.842399 
L 1270.322965 568.994398 
L 1272.224968 571.514398 
L 1272.700469 571.636801 
L 1273.175969 572.025602 
L 1273.65147 572.673598 
L 1275.077972 572.752799 
L 1275.553473 573.184797 
L 1276.028973 579.1104 
L 1276.979974 581.392799 
L 1278.406476 581.471999 
L 1278.881977 580.5504 
L 1279.357478 580.4496 
L 1279.832978 581.2704 
L 1280.308479 581.868001 
L 1281.734981 581.335203 
L 1282.210481 581.680799 
L 1282.685982 581.428801 
L 1283.161483 583.581599 
L 1285.063485 582.011999 
L 1285.538986 581.032799 
L 1286.014487 580.399201 
L 1286.489987 580.6296 
L 1286.965488 579.945602 
L 1288.39199 579.117601 
L 1289.342991 577.360799 
L 1290.293992 576.54 
L 1292.195995 576.8496 
L 1292.671496 577.202399 
L 1293.146996 578.426402 
L 1293.622497 577.836002 
L 1295.048999 577.763998 
L 1295.524499 576.748801 
L 1296 576.9504 
L 1296 576.9504 
" style="fill:none;stroke:#ff0000;stroke-linecap:square;"/>
   </g>
   <g id="patch_3">
    <path d="M 180 648 
L 180 72 
" style="fill:none;stroke:#000000;stroke-linecap:square;stroke-linejoin:miter;"/>
   </g>
   <g id="patch_4">
    <path d="M 180 648 
L 1296 648 
" style="fill:none;stroke:#000000;stroke-linecap:square;stroke-linejoin:miter;"/>
   </g>
   <g id="patch_5">
    <path d="M 180 72 
L 1296 72 
" style="fill:none;stroke:#000000;stroke-linecap:square;stroke-linejoin:miter;"/>
   </g>
   <g id="patch_6">
    <path d="M 1296 648 
L 1296 72 
" style="fill:none;stroke:#000000;stroke-linecap:square;stroke-linejoin:miter;"/>
   </g>
   <g id="matplotlib.axis_1">
    <g id="xtick_1">
     <g id="line2d_3">
      <defs>
       <path d="M 0 0 
L 0 -4 
" id="m8d13ad2cd3" style="stroke:#000000;stroke-width:0.5;"/>
      </defs>
      <g>
       <use style="stroke:#000000;stroke-width:0.5;" x="352.131231359" xlink:href="#m8d13ad2cd3" y="648.0"/>
      </g>
     </g>
     <g id="line2d_4">
      <defs>
       <path d="M 0 0 
L 0 4 
" id="m0bb7a0328b" style="stroke:#000000;stroke-width:0.5;"/>
      </defs>
      <g>
       <use style="stroke:#000000;stroke-width:0.5;" x="352.131231359" xlink:href="#m0bb7a0328b" y="72.0"/>
      </g>
     </g>
     <g id="text_1">
      <!-- 2011 -->
      <defs>
       <path d="M 31.78125 66.40625 
Q 24.171875 66.40625 20.328125 58.90625 
Q 16.5 51.421875 16.5 36.375 
Q 16.5 21.390625 20.328125 13.890625 
Q 24.171875 6.390625 31.78125 6.390625 
Q 39.453125 6.390625 43.28125 13.890625 
Q 47.125 21.390625 47.125 36.375 
Q 47.125 51.421875 43.28125 58.90625 
Q 39.453125 66.40625 31.78125 66.40625 
M 31.78125 74.21875 
Q 44.046875 74.21875 50.515625 64.515625 
Q 56.984375 54.828125 56.984375 36.375 
Q 56.984375 17.96875 50.515625 8.265625 
Q 44.046875 -1.421875 31.78125 -1.421875 
Q 19.53125 -1.421875 13.0625 8.265625 
Q 6.59375 17.96875 6.59375 36.375 
Q 6.59375 54.828125 13.0625 64.515625 
Q 19.53125 74.21875 31.78125 74.21875 
" id="BitstreamVeraSans-Roman-30"/>
       <path d="M 12.40625 8.296875 
L 28.515625 8.296875 
L 28.515625 63.921875 
L 10.984375 60.40625 
L 10.984375 69.390625 
L 28.421875 72.90625 
L 38.28125 72.90625 
L 38.28125 8.296875 
L 54.390625 8.296875 
L 54.390625 0 
L 12.40625 0 
z
" id="BitstreamVeraSans-Roman-31"/>
       <path d="M 19.1875 8.296875 
L 53.609375 8.296875 
L 53.609375 0 
L 7.328125 0 
L 7.328125 8.296875 
Q 12.9375 14.109375 22.625 23.890625 
Q 32.328125 33.6875 34.8125 36.53125 
Q 39.546875 41.84375 41.421875 45.53125 
Q 43.3125 49.21875 43.3125 52.78125 
Q 43.3125 58.59375 39.234375 62.25 
Q 35.15625 65.921875 28.609375 65.921875 
Q 23.96875 65.921875 18.8125 64.3125 
Q 13.671875 62.703125 7.8125 59.421875 
L 7.8125 69.390625 
Q 13.765625 71.78125 18.9375 73 
Q 24.125 74.21875 28.421875 74.21875 
Q 39.75 74.21875 46.484375 68.546875 
Q 53.21875 62.890625 53.21875 53.421875 
Q 53.21875 48.921875 51.53125 44.890625 
Q 49.859375 40.875 45.40625 35.40625 
Q 44.1875 33.984375 37.640625 27.21875 
Q 31.109375 20.453125 19.1875 8.296875 
" id="BitstreamVeraSans-Roman-32"/>
      </defs>
      <g transform="translate(343.67511814 680.042529117)rotate(-45.0)scale(0.12 -0.12)">
       <use xlink:href="#BitstreamVeraSans-Roman-32"/>
       <use x="63.623046875" xlink:href="#BitstreamVeraSans-Roman-30"/>
       <use x="127.24609375" xlink:href="#BitstreamVeraSans-Roman-31"/>
       <use x="190.869140625" xlink:href="#BitstreamVeraSans-Roman-31"/>
      </g>
     </g>
    </g>
    <g id="xtick_2">
     <g id="line2d_5">
      <g>
       <use style="stroke:#000000;stroke-width:0.5;" x="525.688964636" xlink:href="#m8d13ad2cd3" y="648.0"/>
      </g>
     </g>
     <g id="line2d_6">
      <g>
       <use style="stroke:#000000;stroke-width:0.5;" x="525.688964636" xlink:href="#m0bb7a0328b" y="72.0"/>
      </g>
     </g>
     <g id="text_2">
      <!-- 2012 -->
      <g transform="translate(517.232851416 680.042529117)rotate(-45.0)scale(0.12 -0.12)">
       <use xlink:href="#BitstreamVeraSans-Roman-32"/>
       <use x="63.623046875" xlink:href="#BitstreamVeraSans-Roman-30"/>
       <use x="127.24609375" xlink:href="#BitstreamVeraSans-Roman-31"/>
       <use x="190.869140625" xlink:href="#BitstreamVeraSans-Roman-32"/>
      </g>
     </g>
    </g>
    <g id="xtick_3">
     <g id="line2d_7">
      <g>
       <use style="stroke:#000000;stroke-width:0.5;" x="699.722198551" xlink:href="#m8d13ad2cd3" y="648.0"/>
      </g>
     </g>
     <g id="line2d_8">
      <g>
       <use style="stroke:#000000;stroke-width:0.5;" x="699.722198551" xlink:href="#m0bb7a0328b" y="72.0"/>
      </g>
     </g>
     <g id="text_3">
      <!-- 2013 -->
      <defs>
       <path d="M 40.578125 39.3125 
Q 47.65625 37.796875 51.625 33 
Q 55.609375 28.21875 55.609375 21.1875 
Q 55.609375 10.40625 48.1875 4.484375 
Q 40.765625 -1.421875 27.09375 -1.421875 
Q 22.515625 -1.421875 17.65625 -0.515625 
Q 12.796875 0.390625 7.625 2.203125 
L 7.625 11.71875 
Q 11.71875 9.328125 16.59375 8.109375 
Q 21.484375 6.890625 26.8125 6.890625 
Q 36.078125 6.890625 40.9375 10.546875 
Q 45.796875 14.203125 45.796875 21.1875 
Q 45.796875 27.640625 41.28125 31.265625 
Q 36.765625 34.90625 28.71875 34.90625 
L 20.21875 34.90625 
L 20.21875 43.015625 
L 29.109375 43.015625 
Q 36.375 43.015625 40.234375 45.921875 
Q 44.09375 48.828125 44.09375 54.296875 
Q 44.09375 59.90625 40.109375 62.90625 
Q 36.140625 65.921875 28.71875 65.921875 
Q 24.65625 65.921875 20.015625 65.03125 
Q 15.375 64.15625 9.8125 62.3125 
L 9.8125 71.09375 
Q 15.4375 72.65625 20.34375 73.4375 
Q 25.25 74.21875 29.59375 74.21875 
Q 40.828125 74.21875 47.359375 69.109375 
Q 53.90625 64.015625 53.90625 55.328125 
Q 53.90625 49.265625 50.4375 45.09375 
Q 46.96875 40.921875 40.578125 39.3125 
" id="BitstreamVeraSans-Roman-33"/>
      </defs>
      <g transform="translate(691.266085332 680.042529117)rotate(-45.0)scale(0.12 -0.12)">
       <use xlink:href="#BitstreamVeraSans-Roman-32"/>
       <use x="63.623046875" xlink:href="#BitstreamVeraSans-Roman-30"/>
       <use x="127.24609375" xlink:href="#BitstreamVeraSans-Roman-31"/>
       <use x="190.869140625" xlink:href="#BitstreamVeraSans-Roman-33"/>
      </g>
     </g>
    </g>
    <g id="xtick_4">
     <g id="line2d_9">
      <g>
       <use style="stroke:#000000;stroke-width:0.5;" x="873.279931828" xlink:href="#m8d13ad2cd3" y="648.0"/>
      </g>
     </g>
     <g id="line2d_10">
      <g>
       <use style="stroke:#000000;stroke-width:0.5;" x="873.279931828" xlink:href="#m0bb7a0328b" y="72.0"/>
      </g>
     </g>
     <g id="text_4">
      <!-- 2014 -->
      <defs>
       <path d="M 37.796875 64.3125 
L 12.890625 25.390625 
L 37.796875 25.390625 
z
M 35.203125 72.90625 
L 47.609375 72.90625 
L 47.609375 25.390625 
L 58.015625 25.390625 
L 58.015625 17.1875 
L 47.609375 17.1875 
L 47.609375 0 
L 37.796875 0 
L 37.796875 17.1875 
L 4.890625 17.1875 
L 4.890625 26.703125 
z
" id="BitstreamVeraSans-Roman-34"/>
      </defs>
      <g transform="translate(864.823818608 680.042529117)rotate(-45.0)scale(0.12 -0.12)">
       <use xlink:href="#BitstreamVeraSans-Roman-32"/>
       <use x="63.623046875" xlink:href="#BitstreamVeraSans-Roman-30"/>
       <use x="127.24609375" xlink:href="#BitstreamVeraSans-Roman-31"/>
       <use x="190.869140625" xlink:href="#BitstreamVeraSans-Roman-34"/>
      </g>
     </g>
    </g>
    <g id="xtick_5">
     <g id="line2d_11">
      <g>
       <use style="stroke:#000000;stroke-width:0.5;" x="1046.8376651" xlink:href="#m8d13ad2cd3" y="648.0"/>
      </g>
     </g>
     <g id="line2d_12">
      <g>
       <use style="stroke:#000000;stroke-width:0.5;" x="1046.8376651" xlink:href="#m0bb7a0328b" y="72.0"/>
      </g>
     </g>
     <g id="text_5">
      <!-- 2015 -->
      <defs>
       <path d="M 10.796875 72.90625 
L 49.515625 72.90625 
L 49.515625 64.59375 
L 19.828125 64.59375 
L 19.828125 46.734375 
Q 21.96875 47.46875 24.109375 47.828125 
Q 26.265625 48.1875 28.421875 48.1875 
Q 40.625 48.1875 47.75 41.5 
Q 54.890625 34.8125 54.890625 23.390625 
Q 54.890625 11.625 47.5625 5.09375 
Q 40.234375 -1.421875 26.90625 -1.421875 
Q 22.3125 -1.421875 17.546875 -0.640625 
Q 12.796875 0.140625 7.71875 1.703125 
L 7.71875 11.625 
Q 12.109375 9.234375 16.796875 8.0625 
Q 21.484375 6.890625 26.703125 6.890625 
Q 35.15625 6.890625 40.078125 11.328125 
Q 45.015625 15.765625 45.015625 23.390625 
Q 45.015625 31 40.078125 35.4375 
Q 35.15625 39.890625 26.703125 39.890625 
Q 22.75 39.890625 18.8125 39.015625 
Q 14.890625 38.140625 10.796875 36.28125 
z
" id="BitstreamVeraSans-Roman-35"/>
      </defs>
      <g transform="translate(1038.38155188 680.042529117)rotate(-45.0)scale(0.12 -0.12)">
       <use xlink:href="#BitstreamVeraSans-Roman-32"/>
       <use x="63.623046875" xlink:href="#BitstreamVeraSans-Roman-30"/>
       <use x="127.24609375" xlink:href="#BitstreamVeraSans-Roman-31"/>
       <use x="190.869140625" xlink:href="#BitstreamVeraSans-Roman-35"/>
      </g>
     </g>
    </g>
    <g id="xtick_6">
     <g id="line2d_13">
      <g>
       <use style="stroke:#000000;stroke-width:0.5;" x="1220.39539838" xlink:href="#m8d13ad2cd3" y="648.0"/>
      </g>
     </g>
     <g id="line2d_14">
      <g>
       <use style="stroke:#000000;stroke-width:0.5;" x="1220.39539838" xlink:href="#m0bb7a0328b" y="72.0"/>
      </g>
     </g>
     <g id="text_6">
      <!-- 2016 -->
      <defs>
       <path d="M 33.015625 40.375 
Q 26.375 40.375 22.484375 35.828125 
Q 18.609375 31.296875 18.609375 23.390625 
Q 18.609375 15.53125 22.484375 10.953125 
Q 26.375 6.390625 33.015625 6.390625 
Q 39.65625 6.390625 43.53125 10.953125 
Q 47.40625 15.53125 47.40625 23.390625 
Q 47.40625 31.296875 43.53125 35.828125 
Q 39.65625 40.375 33.015625 40.375 
M 52.59375 71.296875 
L 52.59375 62.3125 
Q 48.875 64.0625 45.09375 64.984375 
Q 41.3125 65.921875 37.59375 65.921875 
Q 27.828125 65.921875 22.671875 59.328125 
Q 17.53125 52.734375 16.796875 39.40625 
Q 19.671875 43.65625 24.015625 45.921875 
Q 28.375 48.1875 33.59375 48.1875 
Q 44.578125 48.1875 50.953125 41.515625 
Q 57.328125 34.859375 57.328125 23.390625 
Q 57.328125 12.15625 50.6875 5.359375 
Q 44.046875 -1.421875 33.015625 -1.421875 
Q 20.359375 -1.421875 13.671875 8.265625 
Q 6.984375 17.96875 6.984375 36.375 
Q 6.984375 53.65625 15.1875 63.9375 
Q 23.390625 74.21875 37.203125 74.21875 
Q 40.921875 74.21875 44.703125 73.484375 
Q 48.484375 72.75 52.59375 71.296875 
" id="BitstreamVeraSans-Roman-36"/>
      </defs>
      <g transform="translate(1211.93928516 680.042529117)rotate(-45.0)scale(0.12 -0.12)">
       <use xlink:href="#BitstreamVeraSans-Roman-32"/>
       <use x="63.623046875" xlink:href="#BitstreamVeraSans-Roman-30"/>
       <use x="127.24609375" xlink:href="#BitstreamVeraSans-Roman-31"/>
       <use x="190.869140625" xlink:href="#BitstreamVeraSans-Roman-36"/>
      </g>
     </g>
    </g>
   </g>
   <g id="matplotlib.axis_2">
    <g id="ytick_1">
     <g id="line2d_15">
      <defs>
       <path d="M 0 0 
L 4 0 
" id="m61d590194c" style="stroke:#000000;stroke-width:0.5;"/>
      </defs>
      <g>
       <use style="stroke:#000000;stroke-width:0.5;" x="180.0" xlink:href="#m61d590194c" y="648.0"/>
      </g>
     </g>
     <g id="line2d_16">
      <defs>
       <path d="M 0 0 
L -4 0 
" id="mb7fae7b024" style="stroke:#000000;stroke-width:0.5;"/>
      </defs>
      <g>
       <use style="stroke:#000000;stroke-width:0.5;" x="1296.0" xlink:href="#mb7fae7b024" y="648.0"/>
      </g>
     </g>
     <g id="text_7">
      <!-- 0 -->
      <g transform="translate(168.365 651.31125)scale(0.12 -0.12)">
       <use xlink:href="#BitstreamVeraSans-Roman-30"/>
      </g>
     </g>
    </g>
    <g id="ytick_2">
     <g id="line2d_17">
      <g>
       <use style="stroke:#000000;stroke-width:0.5;" x="180.0" xlink:href="#m61d590194c" y="576.0"/>
      </g>
     </g>
     <g id="line2d_18">
      <g>
       <use style="stroke:#000000;stroke-width:0.5;" x="1296.0" xlink:href="#mb7fae7b024" y="576.0"/>
      </g>
     </g>
     <g id="text_8">
      <!-- 100 -->
      <g transform="translate(153.095 579.31125)scale(0.12 -0.12)">
       <use xlink:href="#BitstreamVeraSans-Roman-31"/>
       <use x="63.623046875" xlink:href="#BitstreamVeraSans-Roman-30"/>
       <use x="127.24609375" xlink:href="#BitstreamVeraSans-Roman-30"/>
      </g>
     </g>
    </g>
    <g id="ytick_3">
     <g id="line2d_19">
      <g>
       <use style="stroke:#000000;stroke-width:0.5;" x="180.0" xlink:href="#m61d590194c" y="504.0"/>
      </g>
     </g>
     <g id="line2d_20">
      <g>
       <use style="stroke:#000000;stroke-width:0.5;" x="1296.0" xlink:href="#mb7fae7b024" y="504.0"/>
      </g>
     </g>
     <g id="text_9">
      <!-- 200 -->
      <g transform="translate(153.095 507.31125)scale(0.12 -0.12)">
       <use xlink:href="#BitstreamVeraSans-Roman-32"/>
       <use x="63.623046875" xlink:href="#BitstreamVeraSans-Roman-30"/>
       <use x="127.24609375" xlink:href="#BitstreamVeraSans-Roman-30"/>
      </g>
     </g>
    </g>
    <g id="ytick_4">
     <g id="line2d_21">
      <g>
       <use style="stroke:#000000;stroke-width:0.5;" x="180.0" xlink:href="#m61d590194c" y="432.0"/>
      </g>
     </g>
     <g id="line2d_22">
      <g>
       <use style="stroke:#000000;stroke-width:0.5;" x="1296.0" xlink:href="#mb7fae7b024" y="432.0"/>
      </g>
     </g>
     <g id="text_10">
      <!-- 300 -->
      <g transform="translate(153.095 435.31125)scale(0.12 -0.12)">
       <use xlink:href="#BitstreamVeraSans-Roman-33"/>
       <use x="63.623046875" xlink:href="#BitstreamVeraSans-Roman-30"/>
       <use x="127.24609375" xlink:href="#BitstreamVeraSans-Roman-30"/>
      </g>
     </g>
    </g>
    <g id="ytick_5">
     <g id="line2d_23">
      <g>
       <use style="stroke:#000000;stroke-width:0.5;" x="180.0" xlink:href="#m61d590194c" y="360.0"/>
      </g>
     </g>
     <g id="line2d_24">
      <g>
       <use style="stroke:#000000;stroke-width:0.5;" x="1296.0" xlink:href="#mb7fae7b024" y="360.0"/>
      </g>
     </g>
     <g id="text_11">
      <!-- 400 -->
      <g transform="translate(153.095 363.31125)scale(0.12 -0.12)">
       <use xlink:href="#BitstreamVeraSans-Roman-34"/>
       <use x="63.623046875" xlink:href="#BitstreamVeraSans-Roman-30"/>
       <use x="127.24609375" xlink:href="#BitstreamVeraSans-Roman-30"/>
      </g>
     </g>
    </g>
    <g id="ytick_6">
     <g id="line2d_25">
      <g>
       <use style="stroke:#000000;stroke-width:0.5;" x="180.0" xlink:href="#m61d590194c" y="288.0"/>
      </g>
     </g>
     <g id="line2d_26">
      <g>
       <use style="stroke:#000000;stroke-width:0.5;" x="1296.0" xlink:href="#mb7fae7b024" y="288.0"/>
      </g>
     </g>
     <g id="text_12">
      <!-- 500 -->
      <g transform="translate(153.095 291.31125)scale(0.12 -0.12)">
       <use xlink:href="#BitstreamVeraSans-Roman-35"/>
       <use x="63.623046875" xlink:href="#BitstreamVeraSans-Roman-30"/>
       <use x="127.24609375" xlink:href="#BitstreamVeraSans-Roman-30"/>
      </g>
     </g>
    </g>
    <g id="ytick_7">
     <g id="line2d_27">
      <g>
       <use style="stroke:#000000;stroke-width:0.5;" x="180.0" xlink:href="#m61d590194c" y="216.0"/>
      </g>
     </g>
     <g id="line2d_28">
      <g>
       <use style="stroke:#000000;stroke-width:0.5;" x="1296.0" xlink:href="#mb7fae7b024" y="216.0"/>
      </g>
     </g>
     <g id="text_13">
      <!-- 600 -->
      <g transform="translate(153.095 219.31125)scale(0.12 -0.12)">
       <use xlink:href="#BitstreamVeraSans-Roman-36"/>
       <use x="63.623046875" xlink:href="#BitstreamVeraSans-Roman-30"/>
       <use x="127.24609375" xlink:href="#BitstreamVeraSans-Roman-30"/>
      </g>
     </g>
    </g>
    <g id="ytick_8">
     <g id="line2d_29">
      <g>
       <use style="stroke:#000000;stroke-width:0.5;" x="180.0" xlink:href="#m61d590194c" y="144.0"/>
      </g>
     </g>
     <g id="line2d_30">
      <g>
       <use style="stroke:#000000;stroke-width:0.5;" x="1296.0" xlink:href="#mb7fae7b024" y="144.0"/>
      </g>
     </g>
     <g id="text_14">
      <!-- 700 -->
      <defs>
       <path d="M 8.203125 72.90625 
L 55.078125 72.90625 
L 55.078125 68.703125 
L 28.609375 0 
L 18.3125 0 
L 43.21875 64.59375 
L 8.203125 64.59375 
z
" id="BitstreamVeraSans-Roman-37"/>
      </defs>
      <g transform="translate(153.095 147.31125)scale(0.12 -0.12)">
       <use xlink:href="#BitstreamVeraSans-Roman-37"/>
       <use x="63.623046875" xlink:href="#BitstreamVeraSans-Roman-30"/>
       <use x="127.24609375" xlink:href="#BitstreamVeraSans-Roman-30"/>
      </g>
     </g>
    </g>
    <g id="ytick_9">
     <g id="line2d_31">
      <g>
       <use style="stroke:#000000;stroke-width:0.5;" x="180.0" xlink:href="#m61d590194c" y="72.0"/>
      </g>
     </g>
     <g id="line2d_32">
      <g>
       <use style="stroke:#000000;stroke-width:0.5;" x="1296.0" xlink:href="#mb7fae7b024" y="72.0"/>
      </g>
     </g>
     <g id="text_15">
      <!-- 800 -->
      <defs>
       <path d="M 31.78125 34.625 
Q 24.75 34.625 20.71875 30.859375 
Q 16.703125 27.09375 16.703125 20.515625 
Q 16.703125 13.921875 20.71875 10.15625 
Q 24.75 6.390625 31.78125 6.390625 
Q 38.8125 6.390625 42.859375 10.171875 
Q 46.921875 13.96875 46.921875 20.515625 
Q 46.921875 27.09375 42.890625 30.859375 
Q 38.875 34.625 31.78125 34.625 
M 21.921875 38.8125 
Q 15.578125 40.375 12.03125 44.71875 
Q 8.5 49.078125 8.5 55.328125 
Q 8.5 64.0625 14.71875 69.140625 
Q 20.953125 74.21875 31.78125 74.21875 
Q 42.671875 74.21875 48.875 69.140625 
Q 55.078125 64.0625 55.078125 55.328125 
Q 55.078125 49.078125 51.53125 44.71875 
Q 48 40.375 41.703125 38.8125 
Q 48.828125 37.15625 52.796875 32.3125 
Q 56.78125 27.484375 56.78125 20.515625 
Q 56.78125 9.90625 50.3125 4.234375 
Q 43.84375 -1.421875 31.78125 -1.421875 
Q 19.734375 -1.421875 13.25 4.234375 
Q 6.78125 9.90625 6.78125 20.515625 
Q 6.78125 27.484375 10.78125 32.3125 
Q 14.796875 37.15625 21.921875 38.8125 
M 18.3125 54.390625 
Q 18.3125 48.734375 21.84375 45.5625 
Q 25.390625 42.390625 31.78125 42.390625 
Q 38.140625 42.390625 41.71875 45.5625 
Q 45.3125 48.734375 45.3125 54.390625 
Q 45.3125 60.0625 41.71875 63.234375 
Q 38.140625 66.40625 31.78125 66.40625 
Q 25.390625 66.40625 21.84375 63.234375 
Q 18.3125 60.0625 18.3125 54.390625 
" id="BitstreamVeraSans-Roman-38"/>
      </defs>
      <g transform="translate(153.095 75.31125)scale(0.12 -0.12)">
       <use xlink:href="#BitstreamVeraSans-Roman-38"/>
       <use x="63.623046875" xlink:href="#BitstreamVeraSans-Roman-30"/>
       <use x="127.24609375" xlink:href="#BitstreamVeraSans-Roman-30"/>
      </g>
     </g>
    </g>
   </g>
   <g id="text_16">
    <!-- AAPL -->
    <defs>
     <path d="M 19.671875 64.796875 
L 19.671875 37.40625 
L 32.078125 37.40625 
Q 38.96875 37.40625 42.71875 40.96875 
Q 46.484375 44.53125 46.484375 51.125 
Q 46.484375 57.671875 42.71875 61.234375 
Q 38.96875 64.796875 32.078125 64.796875 
z
M 9.8125 72.90625 
L 32.078125 72.90625 
Q 44.34375 72.90625 50.609375 67.359375 
Q 56.890625 61.8125 56.890625 51.125 
Q 56.890625 40.328125 50.609375 34.8125 
Q 44.34375 29.296875 32.078125 29.296875 
L 19.671875 29.296875 
L 19.671875 0 
L 9.8125 0 
z
" id="BitstreamVeraSans-Roman-50"/>
     <path d="M 9.8125 72.90625 
L 19.671875 72.90625 
L 19.671875 8.296875 
L 55.171875 8.296875 
L 55.171875 0 
L 9.8125 0 
z
" id="BitstreamVeraSans-Roman-4c"/>
     <path d="M 34.1875 63.1875 
L 20.796875 26.90625 
L 47.609375 26.90625 
z
M 28.609375 72.90625 
L 39.796875 72.90625 
L 67.578125 0 
L 57.328125 0 
L 50.6875 18.703125 
L 17.828125 18.703125 
L 11.1875 0 
L 0.78125 0 
z
" id="BitstreamVeraSans-Roman-41"/>
    </defs>
    <g transform="translate(719.794125 67.0)scale(0.144 -0.144)">
     <use xlink:href="#BitstreamVeraSans-Roman-41"/>
     <use x="68.439453125" xlink:href="#BitstreamVeraSans-Roman-41"/>
     <use x="136.84765625" xlink:href="#BitstreamVeraSans-Roman-50"/>
     <use x="197.150390625" xlink:href="#BitstreamVeraSans-Roman-4c"/>
    </g>
   </g>
   <g id="legend_1">
    <g id="patch_7">
     <path d="M 1203.8625 125.793 
L 1288.8 125.793 
L 1288.8 79.2 
L 1203.8625 79.2 
z
" style="fill:#ffffff;stroke:#000000;stroke-linejoin:miter;"/>
    </g>
    <g id="line2d_33">
     <path d="M 1213.9425 90.86175 
L 1234.1025 90.86175 
" style="fill:none;stroke:#0000ff;stroke-linecap:square;"/>
    </g>
    <g id="line2d_34"/>
    <g id="text_17">
     <!-- High -->
     <defs>
      <path d="M 9.8125 72.90625 
L 19.671875 72.90625 
L 19.671875 43.015625 
L 55.515625 43.015625 
L 55.515625 72.90625 
L 65.375 72.90625 
L 65.375 0 
L 55.515625 0 
L 55.515625 34.71875 
L 19.671875 34.71875 
L 19.671875 0 
L 9.8125 0 
z
" id="BitstreamVeraSans-Roman-48"/>
      <path d="M 9.421875 54.6875 
L 18.40625 54.6875 
L 18.40625 0 
L 9.421875 0 
z
M 9.421875 75.984375 
L 18.40625 75.984375 
L 18.40625 64.59375 
L 9.421875 64.59375 
z
" id="BitstreamVeraSans-Roman-69"/>
      <path d="M 45.40625 27.984375 
Q 45.40625 37.75 41.375 43.109375 
Q 37.359375 48.484375 30.078125 48.484375 
Q 22.859375 48.484375 18.828125 43.109375 
Q 14.796875 37.75 14.796875 27.984375 
Q 14.796875 18.265625 18.828125 12.890625 
Q 22.859375 7.515625 30.078125 7.515625 
Q 37.359375 7.515625 41.375 12.890625 
Q 45.40625 18.265625 45.40625 27.984375 
M 54.390625 6.78125 
Q 54.390625 -7.171875 48.1875 -13.984375 
Q 42 -20.796875 29.203125 -20.796875 
Q 24.46875 -20.796875 20.265625 -20.09375 
Q 16.0625 -19.390625 12.109375 -17.921875 
L 12.109375 -9.1875 
Q 16.0625 -11.328125 19.921875 -12.34375 
Q 23.78125 -13.375 27.78125 -13.375 
Q 36.625 -13.375 41.015625 -8.765625 
Q 45.40625 -4.15625 45.40625 5.171875 
L 45.40625 9.625 
Q 42.625 4.78125 38.28125 2.390625 
Q 33.9375 0 27.875 0 
Q 17.828125 0 11.671875 7.65625 
Q 5.515625 15.328125 5.515625 27.984375 
Q 5.515625 40.671875 11.671875 48.328125 
Q 17.828125 56 27.875 56 
Q 33.9375 56 38.28125 53.609375 
Q 42.625 51.21875 45.40625 46.390625 
L 45.40625 54.6875 
L 54.390625 54.6875 
z
" id="BitstreamVeraSans-Roman-67"/>
      <path d="M 54.890625 33.015625 
L 54.890625 0 
L 45.90625 0 
L 45.90625 32.71875 
Q 45.90625 40.484375 42.875 44.328125 
Q 39.84375 48.1875 33.796875 48.1875 
Q 26.515625 48.1875 22.3125 43.546875 
Q 18.109375 38.921875 18.109375 30.90625 
L 18.109375 0 
L 9.078125 0 
L 9.078125 75.984375 
L 18.109375 75.984375 
L 18.109375 46.1875 
Q 21.34375 51.125 25.703125 53.5625 
Q 30.078125 56 35.796875 56 
Q 45.21875 56 50.046875 50.171875 
Q 54.890625 44.34375 54.890625 33.015625 
" id="BitstreamVeraSans-Roman-68"/>
     </defs>
     <g transform="translate(1249.9425 95.90175)scale(0.144 -0.144)">
      <use xlink:href="#BitstreamVeraSans-Roman-48"/>
      <use x="75.1953125" xlink:href="#BitstreamVeraSans-Roman-69"/>
      <use x="102.978515625" xlink:href="#BitstreamVeraSans-Roman-67"/>
      <use x="166.455078125" xlink:href="#BitstreamVeraSans-Roman-68"/>
     </g>
    </g>
    <g id="line2d_35">
     <path d="M 1213.9425 111.99825 
L 1234.1025 111.99825 
" style="fill:none;stroke:#ff0000;stroke-linecap:square;"/>
    </g>
    <g id="line2d_36"/>
    <g id="text_18">
     <!-- Low -->
     <defs>
      <path d="M 4.203125 54.6875 
L 13.1875 54.6875 
L 24.421875 12.015625 
L 35.59375 54.6875 
L 46.1875 54.6875 
L 57.421875 12.015625 
L 68.609375 54.6875 
L 77.59375 54.6875 
L 63.28125 0 
L 52.6875 0 
L 40.921875 44.828125 
L 29.109375 0 
L 18.5 0 
z
" id="BitstreamVeraSans-Roman-77"/>
      <path d="M 30.609375 48.390625 
Q 23.390625 48.390625 19.1875 42.75 
Q 14.984375 37.109375 14.984375 27.296875 
Q 14.984375 17.484375 19.15625 11.84375 
Q 23.34375 6.203125 30.609375 6.203125 
Q 37.796875 6.203125 41.984375 11.859375 
Q 46.1875 17.53125 46.1875 27.296875 
Q 46.1875 37.015625 41.984375 42.703125 
Q 37.796875 48.390625 30.609375 48.390625 
M 30.609375 56 
Q 42.328125 56 49.015625 48.375 
Q 55.71875 40.765625 55.71875 27.296875 
Q 55.71875 13.875 49.015625 6.21875 
Q 42.328125 -1.421875 30.609375 -1.421875 
Q 18.84375 -1.421875 12.171875 6.21875 
Q 5.515625 13.875 5.515625 27.296875 
Q 5.515625 40.765625 12.171875 48.375 
Q 18.84375 56 30.609375 56 
" id="BitstreamVeraSans-Roman-6f"/>
     </defs>
     <g transform="translate(1249.9425 117.03825)scale(0.144 -0.144)">
      <use xlink:href="#BitstreamVeraSans-Roman-4c"/>
      <use x="55.697265625" xlink:href="#BitstreamVeraSans-Roman-6f"/>
      <use x="116.87890625" xlink:href="#BitstreamVeraSans-Roman-77"/>
     </g>
    </g>
   </g>
  </g>
 </g>
 <defs>
  <clipPath id="pd88d4bb667">
   <rect height="576.0" width="1116.0" x="180.0" y="72.0"/>
  </clipPath>
 </defs>
</svg>
