<?xml version="1.0" encoding="utf-8" standalone="no"?>
<!DOCTYPE svg PUBLIC "-//W3C//DTD SVG 1.1//EN"
  "http://www.w3.org/Graphics/SVG/1.1/DTD/svg11.dtd">
<!-- Created with matplotlib (http://matplotlib.org/) -->
<svg height="720pt" version="1.1" viewBox="0 0 1440 720" width="1440pt" xmlns="http://www.w3.org/2000/svg" xmlns:xlink="http://www.w3.org/1999/xlink">
 <defs>
  <style type="text/css">
*{stroke-linecap:butt;stroke-linejoin:round;stroke-miterlimit:100000;}
  </style>
 </defs>
 <g id="figure_1">
  <g id="patch_1">
   <path d="M 0 720 
L 1440 720 
L 1440 0 
L 0 0 
z
" style="fill:#ffffff;"/>
  </g>
  <g id="axes_1">
   <g id="patch_2">
    <path d="M 180 648 
L 1296 648 
L 1296 72 
L 180 72 
z
" style="fill:#ffffff;"/>
   </g>
   <g id="line2d_1">
    <path clip-path="url(#p333c744ace)" d="M 180 555.839987 
L 180.454768 555.456 
L 180.909535 554.560013 
L 181.364303 559.68 
L 181.819071 561.472 
L 183.638142 560.191987 
L 184.09291 558.656 
L 184.547677 555.456 
L 185.002445 555.2 
L 186.821516 558.912013 
L 187.276284 562.496 
L 187.731051 563.776 
L 188.185819 568.512013 
L 189.550122 569.791987 
L 190.00489 569.024 
L 190.459658 564.928 
L 190.914425 571.712 
L 191.369193 575.424 
L 192.733496 580.16 
L 193.188264 579.904 
L 193.643032 576.32 
L 194.0978 577.344 
L 194.552567 580.8 
L 195.91687 577.984 
L 196.826406 583.744 
L 197.281174 580.8 
L 197.735941 581.568 
L 199.555012 577.856 
L 200.00978 577.344 
L 200.464548 576.32 
L 200.919315 574.912 
L 202.283619 575.296 
L 202.738386 577.472 
L 203.193154 574.912 
L 203.647922 579.52 
L 204.102689 578.752 
L 205.92176 571.712 
L 206.376528 573.12 
L 206.831296 573.12 
L 207.286064 566.336013 
L 208.650367 563.391987 
L 209.105134 561.984013 
L 209.559902 559.167987 
L 210.01467 562.88 
L 210.469438 563.648 
L 211.833741 563.008013 
L 212.288509 563.648 
L 212.743276 563.136013 
L 213.198044 563.904 
L 213.652812 560.832013 
L 215.017115 564.287987 
L 215.471883 566.848 
L 215.92665 568.639987 
L 216.381418 563.648 
L 216.836186 563.904 
L 218.200489 562.496 
L 218.655257 562.367987 
L 219.110024 563.776 
L 219.564792 563.52 
L 221.383863 564.032013 
L 221.838631 558.656 
L 222.293399 559.424 
L 222.748166 553.152 
L 223.202934 544.704 
L 224.567237 547.136013 
L 225.022005 541.760013 
L 225.476773 539.584013 
L 225.93154 531.263987 
L 226.386308 536.896 
L 227.750611 540.48 
L 228.205379 538.815987 
L 228.660147 548.415987 
L 229.114914 548.415987 
L 229.569682 547.776 
L 230.933985 549.184013 
L 231.843521 558.4 
L 232.298289 557.760013 
L 232.753056 556.736013 
L 234.117359 558.528 
L 234.572127 559.68 
L 235.481663 564.672 
L 235.93643 571.84 
L 237.300733 560.576 
L 237.755501 563.008013 
L 238.210269 564.8 
L 238.665037 564.8 
L 239.119804 562.752 
L 240.484108 565.184013 
L 240.938875 565.567987 
L 241.848411 577.728 
L 242.303178 572.48 
L 243.667482 573.888 
L 244.122249 580.032 
L 244.577017 573.376 
L 245.031785 573.248 
L 245.486553 575.168 
L 247.305623 576.96 
L 247.760391 581.44 
L 248.215159 577.6 
L 248.669927 579.136 
L 250.03423 579.392 
L 250.488998 582.464 
L 250.943765 583.232 
L 251.398533 582.208 
L 251.853301 579.52 
L 253.217604 577.728 
L 253.672372 575.168 
L 254.127139 575.68 
L 254.581907 574.784 
L 255.036675 575.424 
L 256.400978 573.248 
L 256.855746 577.472 
L 257.310513 579.008 
L 257.765281 581.568 
L 258.220049 585.024 
L 259.584352 585.792 
L 260.493888 593.984 
L 260.948655 594.88 
L 261.403423 593.728 
L 263.222494 590.912 
L 263.677262 591.424 
L 264.132029 586.944 
L 264.586797 584.896 
L 265.9511 581.312 
L 266.405868 576.32 
L 266.860636 578.624 
L 267.770171 579.264 
L 269.134474 579.136 
L 269.589242 580.416 
L 270.04401 593.216 
L 270.953545 596.288 
L 272.317848 593.984 
L 273.227384 596.928 
L 273.682152 597.312 
L 274.136919 597.056 
L 275.501222 595.776 
L 275.95599 595.904 
L 276.410758 594.24 
L 276.865526 593.6 
L 277.320293 591.936 
L 278.684597 590.144 
L 279.139364 590.912 
L 280.0489 596.928 
L 280.503667 597.312 
L 281.867971 598.08 
L 282.322738 596.8 
L 282.777506 596.16 
L 283.687042 597.44 
L 285.051345 598.464 
L 285.96088 604.864 
L 286.415648 604.48 
L 286.870416 603.584 
L 288.234719 604.224 
L 288.689487 607.808 
L 289.144254 604.352 
L 289.599022 602.56 
L 290.05379 600 
L 291.872861 601.664 
L 292.327628 599.104 
L 292.782396 597.824 
L 293.237164 599.744 
L 294.601467 598.336 
L 295.056235 599.872 
L 295.511002 592.32 
L 295.96577 593.856 
L 296.420538 592.576 
L 297.784841 596.032 
L 298.239609 593.472 
L 299.149144 593.728 
L 299.603912 590.272 
L 300.968215 590.016 
L 301.877751 591.808 
L 302.332518 592.32 
L 302.787286 592.32 
L 304.151589 592.704 
L 304.606357 586.944 
L 305.061125 587.84 
L 305.515892 588.992 
L 305.97066 589.632 
L 307.334963 589.376 
L 307.789731 590.784 
L 308.244499 577.856 
L 308.699267 561.472 
L 309.154034 561.856 
L 310.518337 567.615987 
L 310.973105 573.76 
L 311.427873 568 
L 311.882641 571.2 
L 312.337408 565.952 
L 313.701711 565.567987 
L 314.156479 565.056 
L 314.611247 565.696 
L 315.066015 565.439987 
L 315.520782 564.544 
L 316.885086 564.544 
L 317.339853 566.08 
L 317.794621 568.256 
L 318.249389 566.72 
L 318.704156 566.08 
L 320.06846 564.8 
L 320.523227 550.72 
L 320.977995 558.272 
L 321.432763 560.191987 
L 321.887531 561.6 
L 323.251834 559.808013 
L 323.706601 564.928 
L 324.161369 566.976 
L 324.616137 556.224 
L 325.070905 558.784013 
L 326.435208 562.88 
L 326.889976 565.696 
L 327.344743 565.056 
L 328.254279 566.08 
L 329.618582 565.439987 
L 330.07335 566.848 
L 330.528117 566.08 
L 330.982885 565.952 
L 331.437653 566.463987 
L 332.801956 563.52 
L 333.256724 557.504 
L 333.711491 555.584013 
L 334.166259 555.967987 
L 334.621027 557.760013 
L 335.98533 558.528 
L 336.440098 560.448 
L 336.894866 561.856 
L 337.804401 562.752 
L 339.168704 565.824 
L 339.623472 562.496 
L 340.07824 561.215987 
L 340.533007 561.856 
L 342.352078 563.136013 
L 342.806846 564.287987 
L 343.261614 561.344 
L 343.716381 561.344 
L 344.171149 561.472 
L 345.535452 559.167987 
L 345.99022 560.576 
L 346.444988 559.552 
L 346.899756 554.048 
L 347.354523 556.224 
L 348.718826 560.960013 
L 349.173594 561.856 
L 349.628362 560.832013 
L 350.08313 559.424 
L 350.537897 560.576 
L 352.356968 562.496 
L 352.811736 564.160013 
L 353.266504 566.976 
L 353.721271 567.232013 
L 355.085575 568.128 
L 355.540342 568.767987 
L 355.99511 570.560013 
L 356.449878 566.591987 
L 356.904645 568.512013 
L 358.268949 568.639987 
L 359.178484 562.752 
L 359.633252 559.552 
L 360.08802 559.552 
L 361.452323 558.4 
L 362.361858 562.239987 
L 362.816626 561.984013 
L 363.271394 560.063987 
L 364.635697 559.296 
L 365.545232 547.904 
L 366 547.904 
L 366.454768 547.648 
L 368.273839 553.408013 
L 368.728606 557.12 
L 369.183374 561.856 
L 369.638142 561.344 
L 371.002445 563.52 
L 371.457213 564.928 
L 371.91198 560.32 
L 372.366748 557.760013 
L 372.821516 555.839987 
L 374.185819 556.48 
L 374.640587 558.144 
L 375.095355 549.439987 
L 375.550122 553.408013 
L 376.00489 551.487987 
L 377.369193 552.767987 
L 377.823961 562.496 
L 378.278729 565.056 
L 378.733496 565.824 
L 379.188264 568.767987 
L 380.552567 564.8 
L 381.007335 565.056 
L 381.462103 566.848 
L 381.91687 559.552 
L 382.371638 557.760013 
L 383.735941 557.632013 
L 384.190709 561.215987 
L 384.645477 559.424 
L 385.100244 559.936013 
L 385.555012 558.656 
L 386.919315 557.760013 
L 387.374083 554.687987 
L 388.283619 557.12 
L 388.738386 556.991987 
L 390.102689 558.912013 
L 390.557457 563.008013 
L 391.012225 562.367987 
L 391.466993 560.704 
L 391.92176 561.215987 
L 393.286064 565.567987 
L 393.740831 566.591987 
L 394.195599 555.456 
L 394.650367 559.167987 
L 396.469438 554.432013 
L 397.378973 552.896 
L 397.833741 551.615987 
L 398.288509 548.544 
L 399.652812 541.12 
L 400.107579 537.408013 
L 400.562347 540.736013 
L 401.017115 538.432013 
L 401.471883 535.360013 
L 402.836186 534.848 
L 403.290954 536.639987 
L 403.745721 537.791987 
L 404.655257 560.448 
L 406.01956 562.367987 
L 406.474328 570.304 
L 406.929095 569.152 
L 407.383863 564.928 
L 407.838631 565.567987 
L 409.202934 569.024 
L 409.657702 565.952 
L 410.112469 558.528 
L 410.567237 568.384013 
L 411.022005 568.767987 
L 412.841076 563.648 
L 413.295844 565.696 
L 413.750611 569.791987 
L 414.205379 571.2 
L 415.569682 573.12 
L 416.02445 575.68 
L 416.479218 579.136 
L 416.933985 579.776 
L 417.388753 574.656 
L 418.753056 579.648 
L 419.207824 576.832 
L 419.662592 583.36 
L 420.117359 582.848 
L 420.572127 584.256 
L 421.93643 578.624 
L 422.391198 579.136 
L 422.845966 577.216 
L 423.300733 582.848 
L 423.755501 581.952 
L 425.119804 584.256 
L 425.574572 581.696 
L 426.02934 583.36 
L 426.484108 582.72 
L 426.938875 577.6 
L 428.757946 575.424 
L 429.667482 571.84 
L 430.122249 575.168 
L 431.486553 578.368 
L 431.94132 581.696 
L 432.396088 582.72 
L 432.850856 584.128 
L 433.305623 584.768 
L 434.669927 587.968 
L 435.124694 587.968 
L 436.03423 601.536 
L 436.488998 596.16 
L 437.853301 598.336 
L 438.308068 596.928 
L 438.762836 598.08 
L 439.217604 600.512 
L 439.672372 595.904 
L 441.036675 605.248 
L 441.491443 607.296 
L 441.94621 608.704 
L 442.400978 611.392 
L 442.855746 620.864 
L 444.220049 624.96 
L 444.674817 621.248 
L 445.129584 620.608 
L 446.03912 601.664 
L 447.403423 600.768 
L 447.858191 602.304 
L 448.312958 601.664 
L 448.767726 608.448 
L 449.222494 608.576 
L 450.586797 606.656 
L 451.041565 605.12 
L 451.496333 605.76 
L 451.9511 606.912 
L 452.405868 611.008 
L 454.224939 597.056 
L 454.679707 597.568 
L 455.134474 599.616 
L 455.589242 607.936 
L 457.408313 610.24 
L 457.863081 596.8 
L 458.317848 590.528 
L 458.772616 589.504 
L 460.136919 593.216 
L 460.591687 592.448 
L 461.501222 578.88 
L 461.95599 579.648 
L 463.320293 586.688 
L 463.775061 588.352 
L 464.229829 589.12 
L 464.684597 593.6 
L 465.139364 586.176 
L 466.503667 586.56 
L 466.958435 584 
L 467.413203 588.864 
L 467.867971 591.808 
L 468.322738 603.968 
L 469.687042 596.288 
L 470.141809 590.656 
L 470.596577 569.28 
L 471.051345 573.76 
L 471.506112 574.4 
L 472.870416 570.687987 
L 473.325183 571.84 
L 473.779951 571.84 
L 474.234719 566.463987 
L 474.689487 569.28 
L 476.05379 570.687987 
L 476.508557 574.528 
L 476.963325 561.087987 
L 477.418093 564.928 
L 477.872861 566.208013 
L 479.237164 561.6 
L 479.691932 562.239987 
L 480.146699 565.567987 
L 480.601467 562.239987 
L 481.056235 562.239987 
L 482.420538 570.304 
L 482.875306 582.976 
L 483.784841 577.6 
L 484.239609 577.088 
L 485.603912 575.04 
L 486.05868 568.896 
L 486.513447 564.8 
L 486.968215 568.384013 
L 487.422983 567.232013 
L 488.787286 567.232013 
L 489.242054 570.560013 
L 489.696822 569.92 
L 490.151589 574.144 
L 490.606357 575.168 
L 491.97066 581.568 
L 492.425428 582.976 
L 492.880196 580.928 
L 493.789731 580.8 
L 495.154034 577.984 
L 495.608802 571.968 
L 496.06357 570.687987 
L 496.518337 565.312013 
L 496.973105 565.952 
L 498.792176 570.560013 
L 499.246944 572.992 
L 499.701711 574.272 
L 500.156479 571.712 
L 501.520782 574.784 
L 501.97555 574.528 
L 502.430318 580.416 
L 502.885086 580.288 
L 503.339853 580.672 
L 504.704156 584 
L 505.158924 581.568 
L 505.613692 568.128 
L 506.06846 566.08 
L 506.523227 567.872 
L 508.342298 569.024 
L 508.797066 570.560013 
L 509.251834 568.256 
L 509.706601 568.512013 
L 511.525672 566.208013 
L 511.98044 569.152 
L 512.435208 575.168 
L 512.889976 575.552 
L 514.254279 576.192 
L 514.709046 574.912 
L 515.163814 576.064 
L 515.618582 574.656 
L 516.07335 575.424 
L 517.892421 575.552 
L 518.347188 571.2 
L 518.801956 569.28 
L 519.256724 569.791987 
L 520.621027 572.096 
L 521.530562 574.912 
L 521.98533 575.168 
L 522.440098 573.76 
L 523.804401 575.68 
L 524.259169 576.064 
L 524.713936 573.76 
L 525.168704 573.504 
L 525.623472 571.456 
L 526.987775 571.84 
L 527.442543 572.608 
L 527.897311 571.584 
L 528.352078 569.92 
L 528.806846 567.232013 
L 530.171149 568.128 
L 530.625917 569.92 
L 531.080685 580.16 
L 531.99022 578.368 
L 533.809291 583.104 
L 534.264059 587.2 
L 534.718826 586.432 
L 535.173594 584.384 
L 536.537897 585.152 
L 536.992665 584.128 
L 537.447433 584.896 
L 537.9022 584.512 
L 538.356968 585.024 
L 539.721271 584.64 
L 540.176039 587.968 
L 540.630807 587.712 
L 541.085575 586.944 
L 541.540342 587.84 
L 542.904645 587.072 
L 543.359413 588.864 
L 543.814181 588.608 
L 544.268949 584.256 
L 544.723716 581.696 
L 546.08802 581.184 
L 546.542787 576.192 
L 546.997555 576.192 
L 547.452323 576.832 
L 547.90709 576.448 
L 549.726161 576.96 
L 550.180929 577.856 
L 550.635697 579.648 
L 551.090465 578.624 
L 552.454768 577.472 
L 553.819071 580.672 
L 555.638142 580.8 
L 556.09291 581.696 
L 556.547677 582.976 
L 557.002445 582.72 
L 557.457213 581.696 
L 558.821516 583.488 
L 559.276284 581.696 
L 559.731051 576.704 
L 560.185819 576.704 
L 560.640587 575.04 
L 562.00489 577.984 
L 562.459658 577.344 
L 562.914425 577.472 
L 563.369193 576.96 
L 563.823961 576.064 
L 565.188264 576.704 
L 565.643032 574.656 
L 566.0978 574.144 
L 566.552567 575.68 
L 567.007335 580.288 
L 568.371638 577.728 
L 568.826406 578.368 
L 569.281174 578.24 
L 569.735941 577.088 
L 570.190709 578.368 
L 571.555012 574.144 
L 572.00978 576.96 
L 572.464548 576.704 
L 572.919315 579.264 
L 573.374083 572.864 
L 574.738386 571.2 
L 575.193154 576.192 
L 575.647922 578.496 
L 576.102689 577.472 
L 576.557457 577.856 
L 578.376528 576.96 
L 578.831296 579.648 
L 579.286064 579.264 
L 579.740831 582.464 
L 581.105134 583.616 
L 581.559902 582.208 
L 582.01467 578.752 
L 582.469438 577.6 
L 582.924205 575.296 
L 584.288509 574.656 
L 584.743276 577.344 
L 586.107579 578.368 
L 587.471883 577.088 
L 587.92665 575.168 
L 588.836186 573.76 
L 589.290954 575.04 
L 590.655257 576.96 
L 591.110024 577.984 
L 591.564792 575.936 
L 592.01956 577.856 
L 592.474328 573.376 
L 593.838631 571.968 
L 594.293399 571.328 
L 595.202934 571.328 
L 595.657702 572.352 
L 597.022005 573.248 
L 597.476773 571.456 
L 597.93154 571.968 
L 598.386308 573.632 
L 598.841076 573.248 
L 600.205379 573.76 
L 600.660147 572.608 
L 601.114914 574.4 
L 601.569682 572.992 
L 602.02445 571.968 
L 603.843521 574.272 
L 604.298289 575.808 
L 605.207824 569.024 
L 606.572127 569.28 
L 607.026895 570.432013 
L 607.481663 570.304 
L 607.93643 571.2 
L 608.391198 570.815987 
L 609.755501 570.304 
L 610.210269 566.463987 
L 610.665037 567.104 
L 611.119804 569.152 
L 611.574572 579.52 
L 612.938875 581.312 
L 613.848411 585.792 
L 614.303178 583.872 
L 614.757946 583.104 
L 616.122249 583.36 
L 616.577017 583.872 
L 617.486553 584.384 
L 617.94132 584.768 
L 619.305623 584.896 
L 619.760391 585.664 
L 620.215159 584.768 
L 620.669927 586.048 
L 621.124694 586.304 
L 622.943765 584.256 
L 623.398533 582.208 
L 623.853301 582.08 
L 624.308068 580.288 
L 625.672372 580.416 
L 626.127139 580.8 
L 626.581907 576.96 
L 627.491443 573.248 
L 628.855746 573.248 
L 629.310513 569.024 
L 629.765281 569.536013 
L 630.220049 572.992 
L 630.674817 573.504 
L 632.03912 570.687987 
L 632.493888 570.048 
L 632.948655 573.632 
L 633.403423 568.639987 
L 633.858191 570.048 
L 635.222494 570.048 
L 635.677262 570.687987 
L 636.132029 568.128 
L 636.586797 566.72 
L 637.041565 566.336013 
L 638.405868 569.152 
L 638.860636 570.560013 
L 639.315403 571.328 
L 639.770171 570.944 
L 640.224939 570.944 
L 641.589242 572.864 
L 642.04401 571.456 
L 642.953545 568.128 
L 643.408313 570.815987 
L 644.772616 571.84 
L 645.227384 561.087987 
L 645.682152 560.960013 
L 646.136919 561.344 
L 646.591687 560.704 
L 648.865526 559.808013 
L 649.320293 557.760013 
L 651.139364 552.896 
L 651.594132 551.615987 
L 652.0489 551.232013 
L 652.503667 552 
L 652.958435 551.744 
L 654.322738 551.232013 
L 655.232274 544.576 
L 655.687042 543.552 
L 656.141809 545.344 
L 657.96088 539.2 
L 658.415648 539.2 
L 659.325183 538.048 
L 661.144254 530.752 
L 661.599022 533.439987 
L 662.05379 532.415987 
L 662.508557 533.439987 
L 663.872861 534.848 
L 664.327628 533.312013 
L 664.782396 532.415987 
L 665.237164 529.215987 
L 665.691932 528.960013 
L 667.056235 526.784013 
L 667.511002 524.736013 
L 667.96577 525.12 
L 668.420538 525.887987 
L 668.875306 523.584013 
L 670.239609 523.328 
L 670.694377 523.072 
L 671.149144 523.967987 
L 671.603912 523.712013 
L 672.05868 526.528 
L 673.422983 524.352 
L 674.332518 523.2 
L 675.242054 525.504 
L 676.606357 520.384013 
L 677.515892 515.904 
L 677.97066 518.72 
L 678.425428 520.639987 
L 679.789731 525.376 
L 680.244499 524.096 
L 680.699267 523.2 
L 681.154034 527.936013 
L 681.608802 527.936013 
L 682.973105 525.887987 
L 683.427873 525.887987 
L 683.882641 518.208013 
L 684.337408 517.312013 
L 684.792176 517.824 
L 686.611247 520.639987 
L 687.066015 517.567987 
L 687.520782 513.344 
L 687.97555 513.856 
L 689.339853 513.6 
L 689.794621 508.736013 
L 690.249389 518.463987 
L 691.158924 522.176 
L 692.523227 522.432013 
L 692.977995 522.815987 
L 693.432763 521.28 
L 693.887531 514.496 
L 694.342298 512.191987 
L 695.706601 507.456 
L 696.161369 502.08 
L 696.616137 501.696 
L 697.070905 503.872 
L 697.525672 504 
L 699.799511 501.439987 
L 700.254279 507.2 
L 700.709046 503.232013 
L 702.07335 503.104 
L 702.528117 509.12 
L 702.982885 503.232013 
L 703.437653 499.904 
L 703.892421 490.815987 
L 705.256724 484.928 
L 705.711491 480.576 
L 706.166259 480.448 
L 706.621027 481.6 
L 707.075795 482.112013 
L 708.440098 481.6 
L 708.894866 486.976 
L 709.349633 488.256 
L 709.804401 484.8 
L 710.259169 489.408013 
L 711.623472 492.224 
L 712.07824 490.176 
L 712.533007 490.176 
L 712.987775 482.239987 
L 713.442543 478.272 
L 714.806846 470.336013 
L 715.261614 473.663987 
L 715.716381 470.976 
L 716.171149 471.744 
L 717.99022 473.663987 
L 718.444988 470.08 
L 718.899756 470.336013 
L 719.354523 472.384013 
L 719.809291 476.352 
L 721.173594 475.456 
L 721.628362 468.8 
L 722.537897 461.504 
L 722.992665 458.560013 
L 724.356968 456.128 
L 724.811736 465.472 
L 725.266504 467.52 
L 725.721271 472.639987 
L 726.176039 473.536013 
L 727.540342 469.312013 
L 728.449878 456.384013 
L 728.904645 452.287987 
L 729.359413 451.263987 
L 731.178484 458.687987 
L 731.633252 459.584013 
L 732.542787 452.8 
L 733.90709 451.648 
L 734.361858 433.087987 
L 734.816626 434.752 
L 735.271394 436.928 
L 735.726161 432.191987 
L 737.090465 432.576 
L 737.545232 432.063987 
L 738 421.696 
L 738.454768 424.896 
L 738.909535 430.656 
L 740.273839 429.760013 
L 741.183374 427.967987 
L 741.638142 439.744 
L 742.09291 437.056 
L 743.91198 433.344 
L 744.366748 442.687987 
L 744.821516 436.8 
L 745.276284 435.52 
L 746.640587 435.263987 
L 747.095355 435.904 
L 747.550122 440 
L 748.00489 440.512013 
L 748.459658 429.248 
L 749.823961 428.863987 
L 750.278729 431.936013 
L 750.733496 436.415987 
L 751.188264 437.312013 
L 751.643032 436.160013 
L 753.007335 432.32 
L 753.462103 431.808013 
L 753.91687 433.215987 
L 754.826406 450.496 
L 756.190709 454.848 
L 756.645477 455.872 
L 757.100244 447.296 
L 757.555012 443.456 
L 758.00978 449.087987 
L 759.374083 449.087987 
L 759.828851 449.6 
L 760.283619 447.808013 
L 761.193154 439.872 
L 762.557457 443.328 
L 763.012225 434.239987 
L 763.466993 429.504 
L 763.92176 427.967987 
L 764.376528 424.767987 
L 765.740831 424.384013 
L 766.195599 424.639987 
L 766.650367 395.456 
L 767.105134 394.176 
L 767.559902 395.584013 
L 769.378973 417.087987 
L 769.833741 418.624 
L 770.288509 411.712013 
L 770.743276 413.248 
L 772.107579 413.376 
L 772.562347 414.656 
L 773.017115 414.912013 
L 773.471883 411.839987 
L 773.92665 416.448 
L 775.290954 420.160013 
L 775.745721 420.8 
L 776.200489 423.872 
L 776.655257 422.463987 
L 777.110024 421.439987 
L 778.929095 409.92 
L 779.838631 419.776 
L 780.293399 422.72 
L 781.657702 424.767987 
L 782.112469 426.432013 
L 782.567237 424.128 
L 783.022005 417.472 
L 783.476773 413.504 
L 784.841076 417.087987 
L 785.295844 424.512013 
L 785.750611 427.328 
L 786.205379 424.639987 
L 786.660147 424.767987 
L 788.479218 419.263987 
L 789.388753 413.12 
L 789.843521 411.2 
L 791.662592 396.736013 
L 792.117359 399.552 
L 792.572127 388.544 
L 793.026895 398.784013 
L 794.391198 391.487987 
L 794.845966 392 
L 795.300733 386.112013 
L 795.755501 378.560013 
L 796.210269 377.92 
L 797.574572 378.815987 
L 798.02934 370.752 
L 798.484108 366.016013 
L 799.393643 342.720026 
L 800.757946 344 
L 801.212714 335.168013 
L 801.667482 331.839987 
L 802.122249 336.191987 
L 802.577017 327.231987 
L 803.94132 331.968013 
L 804.396088 334.4 
L 804.850856 349.375974 
L 805.760391 336.064013 
L 807.124694 339.520026 
L 807.579462 336.704 
L 808.03423 339.391987 
L 808.488998 353.472026 
L 808.943765 344 
L 810.308068 336.320026 
L 810.762836 333.120026 
L 811.217604 342.848 
L 811.672372 349.631987 
L 812.127139 354.239987 
L 813.491443 357.439987 
L 813.94621 340.8 
L 814.400978 347.456 
L 814.855746 352.064013 
L 815.310513 349.120026 
L 816.674817 345.152 
L 817.129584 352.575974 
L 817.584352 349.760013 
L 818.03912 352.960013 
L 818.493888 352.064013 
L 819.858191 340.927974 
L 820.767726 326.464013 
L 821.222494 316.608013 
L 821.677262 315.968013 
L 823.041565 312.768013 
L 823.496333 325.824026 
L 823.9511 312.383987 
L 824.405868 306.752 
L 824.860636 307.135987 
L 826.224939 304.320026 
L 826.679707 305.6 
L 827.134474 300.864013 
L 828.04401 297.920026 
L 829.863081 301.504 
L 830.772616 272.831987 
L 832.591687 274.239987 
L 833.046455 260.8 
L 833.501222 261.952 
L 833.95599 264 
L 834.410758 261.439987 
L 835.775061 260.544 
L 836.229829 264 
L 836.684597 263.487987 
L 837.139364 259.135987 
L 837.594132 256.320026 
L 838.958435 253.760013 
L 839.413203 251.839987 
L 840.322738 250.560013 
L 840.777506 254.4 
L 842.141809 256.575974 
L 842.596577 257.6 
L 843.506112 257.727974 
L 843.96088 258.368013 
L 845.325183 259.904 
L 845.779951 248.639987 
L 846.234719 241.983987 
L 846.689487 246.720026 
L 847.144254 246.720026 
L 848.508557 248.383987 
L 848.963325 249.408013 
L 849.418093 247.231987 
L 849.872861 254.4 
L 850.327628 258.368013 
L 852.146699 263.360013 
L 852.601467 258.879974 
L 853.056235 266.944 
L 853.511002 277.056 
L 854.875306 290.368013 
L 855.330073 285.504 
L 855.784841 311.231987 
L 856.239609 317.631987 
L 856.694377 310.975974 
L 858.05868 315.072026 
L 858.513447 316.991987 
L 858.968215 315.968013 
L 859.422983 305.6 
L 859.877751 298.944 
L 861.242054 287.935987 
L 861.696822 278.591987 
L 862.151589 277.952 
L 863.061125 283.839987 
L 864.880196 282.048 
L 865.789731 289.087987 
L 867.608802 293.312013 
L 868.06357 294.975974 
L 868.518337 288.320026 
L 868.973105 283.456 
L 869.427873 271.935987 
L 870.792176 281.152 
L 871.246944 266.687987 
L 871.701711 262.079974 
L 872.156479 264.256 
L 872.611247 265.152 
L 873.97555 279.616013 
L 874.430318 285.760013 
L 874.885086 294.591987 
L 875.339853 284.224026 
L 875.794621 287.168013 
L 877.158924 272.191987 
L 877.613692 270.272026 
L 878.06846 264.768013 
L 878.523227 283.583987 
L 878.977995 286.144 
L 880.342298 289.087987 
L 880.797066 301.504 
L 881.251834 305.727974 
L 881.706601 313.279974 
L 882.161369 305.856 
L 883.525672 307.775974 
L 883.98044 304.191987 
L 884.435208 304.191987 
L 884.889976 305.087987 
L 885.344743 314.560013 
L 886.709046 336.064013 
L 887.163814 335.296 
L 887.618582 328 
L 888.07335 328.256 
L 888.528117 347.456 
L 889.892421 340.287987 
L 890.347188 337.216013 
L 890.801956 298.560013 
L 891.256724 307.520026 
L 893.075795 306.879974 
L 893.530562 304.320026 
L 893.98533 312.768013 
L 894.440098 317.504 
L 894.894866 326.720026 
L 896.259169 328 
L 896.713936 316.608013 
L 897.168704 309.568013 
L 897.623472 306.368013 
L 898.07824 300.864013 
L 899.442543 301.760013 
L 899.897311 300.224026 
L 900.806846 333.504 
L 901.261614 339.520026 
L 902.625917 333.120026 
L 903.080685 331.968013 
L 903.535452 332.479974 
L 904.444988 345.152 
L 905.809291 340.927974 
L 906.264059 334.783987 
L 906.718826 335.808013 
L 907.173594 329.791987 
L 907.628362 326.975974 
L 909.447433 326.335987 
L 909.9022 325.824026 
L 910.356968 326.720026 
L 910.811736 328.896 
L 912.176039 328.639987 
L 912.630807 328.383987 
L 913.085575 330.175974 
L 913.540342 328.127974 
L 913.99511 314.175974 
L 915.359413 311.104 
L 915.814181 308.544 
L 916.268949 304.448 
L 916.723716 305.087987 
L 917.178484 301.631987 
L 918.997555 328.768013 
L 919.452323 327.872026 
L 919.90709 325.439987 
L 920.361858 330.431987 
L 922.180929 340.927974 
L 922.635697 345.279974 
L 923.090465 344 
L 923.545232 333.760013 
L 924.909535 324.672026 
L 925.364303 319.039987 
L 926.273839 313.279974 
L 928.09291 312.256 
L 929.002445 327.104 
L 929.457213 328.383987 
L 929.91198 320.831987 
L 931.276284 315.839987 
L 931.731051 315.968013 
L 932.185819 335.039987 
L 933.095355 349.120026 
L 934.459658 345.408013 
L 934.914425 342.848 
L 935.369193 329.024026 
L 935.823961 308.160013 
L 936.278729 310.975974 
L 937.643032 312.256 
L 938.0978 313.152 
L 938.552567 302.527974 
L 939.462103 314.175974 
L 940.826406 306.752 
L 941.281174 309.824026 
L 941.735941 315.968013 
L 942.190709 315.2 
L 942.645477 315.712013 
L 944.00978 313.279974 
L 944.464548 315.327974 
L 944.919315 309.439987 
L 945.374083 309.824026 
L 945.828851 307.904 
L 947.193154 292.544 
L 947.647922 290.368013 
L 948.102689 292.8 
L 948.557457 292.8 
L 949.012225 287.039987 
L 950.376528 286.783987 
L 950.831296 290.624026 
L 951.286064 280.383987 
L 951.740831 282.304 
L 952.195599 281.024026 
L 954.01467 272.960013 
L 954.469438 269.120026 
L 954.924205 272.448 
L 955.378973 266.560013 
L 956.743276 240.704 
L 957.198044 237.631987 
L 957.652812 248.256 
L 958.107579 244.031987 
L 958.562347 223.039987 
L 959.92665 212.672026 
L 960.381418 226.112013 
L 960.836186 226.112013 
L 961.290954 221.504 
L 961.745721 223.168013 
L 963.110024 263.487987 
L 963.564792 273.344 
L 964.01956 262.720026 
L 964.474328 266.560013 
L 964.929095 253.760013 
L 966.293399 250.048 
L 966.748166 248.256 
L 967.202934 248.127974 
L 967.657702 255.808013 
L 968.112469 242.368013 
L 969.476773 241.856 
L 969.93154 247.487987 
L 970.386308 247.487987 
L 970.841076 248 
L 971.295844 250.304 
L 972.660147 263.104 
L 973.569682 288.575974 
L 974.479218 277.056 
L 975.843521 271.679974 
L 976.298289 257.856 
L 976.753056 227.135987 
L 977.207824 227.775974 
L 977.662592 217.279974 
L 979.026895 202.304 
L 979.481663 185.279974 
L 980.391198 189.248 
L 980.845966 180.544 
L 982.210269 177.983987 
L 982.665037 172.735987 
L 983.119804 158.016013 
L 983.574572 161.856 
L 984.02934 153.024026 
L 985.393643 140.735987 
L 985.848411 146.496 
L 986.303178 127.935987 
L 986.757946 121.024026 
L 987.212714 111.039987 
L 988.577017 105.024026 
L 989.031785 102.464013 
L 989.486553 118.464013 
L 989.94132 107.456 
L 990.396088 107.2 
L 991.760391 112.575974 
L 992.215159 107.968013 
L 992.669927 107.072026 
L 993.579462 110.4 
L 994.943765 117.696 
L 995.398533 121.664013 
L 995.853301 123.583987 
L 996.308068 127.424026 
L 996.762836 120 
L 998.127139 124.479974 
L 998.581907 129.216013 
L 999.036675 127.168013 
L 999.491443 128.575974 
L 999.94621 121.024026 
L 1001.310513 124.224026 
L 1001.765281 134.975974 
L 1002.220049 132.8 
L 1002.674817 121.279974 
L 1003.129584 117.183987 
L 1004.493888 115.520026 
L 1004.948655 117.312013 
L 1005.403423 124.224026 
L 1006.312958 122.431987 
L 1007.677262 123.072026 
L 1008.132029 119.744 
L 1008.586797 114.496 
L 1009.496333 126.016013 
L 1010.860636 137.535987 
L 1011.315403 137.535987 
L 1011.770171 140.608013 
L 1012.224939 133.056 
L 1012.679707 130.752 
L 1014.04401 136.896 
L 1014.498778 142.656 
L 1014.953545 160.448 
L 1015.408313 164.8 
L 1015.863081 179.648 
L 1017.682152 163.008013 
L 1018.136919 156.735987 
L 1018.591687 147.775974 
L 1019.046455 145.856 
L 1020.410758 138.687987 
L 1020.865526 145.216013 
L 1021.320293 131.904 
L 1021.775061 215.360013 
L 1022.229829 201.920026 
L 1023.594132 203.072026 
L 1024.0489 196.8 
L 1024.503667 200.256 
L 1025.413203 217.152 
L 1026.777506 223.679974 
L 1027.232274 223.296 
L 1027.687042 222.272026 
L 1028.141809 210.752 
L 1028.596577 205.248 
L 1030.415648 205.887987 
L 1030.870416 215.104 
L 1031.325183 207.424026 
L 1031.779951 208.191987 
L 1033.144254 212.927974 
L 1033.599022 218.944 
L 1034.05379 203.583987 
L 1034.508557 203.072026 
L 1034.963325 205.504 
L 1036.327628 207.296 
L 1036.782396 213.439987 
L 1037.237164 207.935987 
L 1038.146699 209.727974 
L 1039.511002 213.696 
L 1039.96577 226.624026 
L 1040.420538 225.727974 
L 1040.875306 220.991987 
L 1041.330073 225.856 
L 1043.149144 210.752 
L 1043.603912 203.712013 
L 1044.05868 194.239987 
L 1044.513447 192.575974 
L 1045.877751 193.087987 
L 1046.332518 202.816013 
L 1046.787286 200.896 
L 1047.242054 204.224026 
L 1047.696822 191.424026 
L 1049.061125 194.624026 
L 1049.515892 197.439987 
L 1049.97066 205.120026 
L 1050.425428 208.191987 
L 1052.244499 212.416013 
L 1052.699267 209.983987 
L 1053.608802 185.024026 
L 1054.06357 189.887987 
L 1055.427873 192.448 
L 1055.882641 191.808013 
L 1056.337408 189.375974 
L 1056.792176 185.535987 
L 1057.246944 194.368013 
L 1058.611247 201.152 
L 1059.066015 197.696 
L 1059.520782 201.920026 
L 1059.97555 212.031987 
L 1060.430318 203.712013 
L 1061.794621 198.720026 
L 1062.704156 212.160013 
L 1063.613692 229.696 
L 1064.977995 231.360013 
L 1065.432763 238.4 
L 1065.887531 241.856 
L 1066.342298 200.256 
L 1066.797066 205.760013 
L 1068.161369 211.008013 
L 1068.616137 208.831987 
L 1069.525672 200.127974 
L 1069.98044 199.104 
L 1071.344743 205.504 
L 1071.799511 204.352 
L 1072.254279 225.087987 
L 1072.709046 214.464013 
L 1073.163814 212.8 
L 1074.982885 219.2 
L 1075.437653 219.968013 
L 1075.892421 220.224026 
L 1076.347188 218.048 
L 1077.711491 217.535987 
L 1078.166259 217.664013 
L 1078.621027 215.616013 
L 1079.075795 219.968013 
L 1079.530562 222.272026 
L 1080.894866 227.008013 
L 1081.349633 239.039987 
L 1081.804401 234.431987 
L 1082.259169 235.712013 
L 1082.713936 249.791987 
L 1084.07824 255.424026 
L 1084.533007 246.079974 
L 1084.987775 244.544 
L 1085.442543 247.744 
L 1085.897311 252.096 
L 1087.261614 252.608013 
L 1087.716381 253.760013 
L 1088.171149 248.256 
L 1088.625917 246.208013 
L 1089.080685 252.864013 
L 1090.444988 266.816013 
L 1090.899756 268.479974 
L 1091.354523 266.816013 
L 1091.809291 268.608013 
L 1093.628362 275.264013 
L 1094.537897 296.127974 
L 1094.992665 280.896 
L 1095.447433 284.224026 
L 1096.811736 279.360013 
L 1097.266504 276.416013 
L 1097.721271 279.360013 
L 1098.176039 277.312013 
L 1098.630807 266.687987 
L 1099.99511 264.256 
L 1100.449878 265.920026 
L 1100.904645 268.735987 
L 1101.359413 266.816013 
L 1101.814181 269.375974 
L 1103.633252 290.624026 
L 1104.08802 290.624026 
L 1104.542787 293.568013 
L 1104.997555 295.104 
L 1106.361858 302.656 
L 1106.816626 299.712013 
L 1107.271394 293.312013 
L 1107.726161 295.744 
L 1108.180929 305.472026 
L 1109.545232 293.568013 
L 1110 305.344 
L 1110.454768 330.944 
L 1110.909535 307.391987 
L 1111.364303 310.720026 
L 1112.728606 312.127974 
L 1113.183374 312.768013 
L 1113.638142 319.424026 
L 1114.09291 328.639987 
L 1114.547677 340.544 
L 1115.91198 362.816013 
L 1116.366748 353.216013 
L 1116.821516 358.464013 
L 1117.276284 343.744 
L 1119.095355 353.727974 
L 1119.550122 365.120026 
L 1120.00489 366.016013 
L 1120.459658 356.927974 
L 1120.914425 362.687987 
L 1122.733496 355.775974 
L 1123.188264 368.960013 
L 1124.0978 373.696 
L 1125.462103 380.224 
L 1125.91687 376.256 
L 1126.371638 369.344 
L 1127.281174 381.760013 
L 1128.645477 369.728 
L 1129.100244 380.224 
L 1129.555012 384.704 
L 1130.00978 397.504 
L 1130.464548 395.712013 
L 1131.828851 401.984013 
L 1132.283619 401.856 
L 1133.193154 404.8 
L 1133.647922 382.912013 
L 1135.012225 376.639987 
L 1135.466993 376.767987 
L 1135.92176 366.528 
L 1136.376528 360 
L 1136.831296 357.568013 
L 1138.195599 353.344 
L 1138.650367 355.775974 
L 1139.105134 360.127974 
L 1139.559902 347.327974 
L 1140.01467 342.591987 
L 1141.378973 345.535987 
L 1141.833741 346.048 
L 1142.288509 360.896 
L 1142.743276 367.68 
L 1143.198044 348.991987 
L 1144.562347 347.327974 
L 1145.017115 321.983987 
L 1145.471883 324.544 
L 1145.92665 326.079974 
L 1146.381418 319.039987 
L 1147.745721 321.856 
L 1148.200489 323.648 
L 1148.655257 324.927974 
L 1149.110024 324.160013 
L 1149.564792 325.439987 
L 1150.929095 339.775974 
L 1151.383863 339.135987 
L 1151.838631 337.856 
L 1152.293399 342.720026 
L 1152.748166 353.087987 
L 1154.112469 353.727974 
L 1154.567237 352.064013 
L 1155.022005 353.344 
L 1155.476773 347.2 
L 1155.93154 349.760013 
L 1157.295844 342.464013 
L 1157.750611 351.168013 
L 1158.205379 346.944 
L 1159.114914 352.448 
L 1160.479218 342.975974 
L 1160.933985 342.208013 
L 1161.388753 310.208013 
L 1162.298289 325.439987 
L 1163.662592 329.024026 
L 1164.117359 328.256 
L 1164.572127 317.248 
L 1165.026895 331.456 
L 1165.481663 338.879974 
L 1166.845966 350.144 
L 1167.300733 348.608013 
L 1167.755501 342.335987 
L 1168.210269 339.775974 
L 1168.665037 345.535987 
L 1170.02934 349.760013 
L 1170.484108 338.112013 
L 1170.938875 333.375974 
L 1171.393643 331.327974 
L 1173.212714 341.952 
L 1173.667482 338.624026 
L 1174.122249 340.287987 
L 1176.396088 361.920026 
L 1176.850856 362.175974 
L 1177.305623 360.512013 
L 1177.760391 376.767987 
L 1178.215159 372.287987 
L 1179.579462 382.4 
L 1180.488998 377.024 
L 1180.943765 384.704 
L 1181.398533 394.944 
L 1183.217604 392 
L 1183.672372 403.391987 
L 1184.581907 385.344 
L 1185.94621 387.008013 
L 1186.400978 389.567987 
L 1186.855746 385.215987 
L 1187.310513 383.936013 
L 1187.765281 398.272 
L 1189.129584 394.687987 
L 1189.584352 389.056 
L 1190.03912 409.791987 
L 1190.493888 401.856 
L 1190.948655 403.008013 
L 1192.312958 417.984013 
L 1192.767726 421.567987 
L 1193.222494 420.032013 
L 1193.677262 430.784013 
L 1194.132029 426.304 
L 1195.9511 399.167987 
L 1196.405868 396.352 
L 1196.860636 390.208013 
L 1197.315403 389.056 
L 1198.679707 376.512013 
L 1199.134474 374.336013 
L 1199.589242 377.663987 
L 1200.04401 374.591987 
L 1200.498778 367.68 
L 1201.863081 360.512013 
L 1202.772616 350.527974 
L 1203.227384 350.912013 
L 1203.682152 341.696 
L 1205.046455 335.935987 
L 1205.501222 343.104 
L 1205.95599 346.944 
L 1206.410758 345.920026 
L 1206.865526 342.591987 
L 1208.229829 339.648 
L 1208.684597 347.712013 
L 1210.0489 325.312013 
L 1211.413203 313.920026 
L 1211.867971 320.191987 
L 1212.322738 319.039987 
L 1212.777506 329.664013 
L 1214.596577 322.239987 
L 1215.506112 298.816013 
L 1215.96088 302.144 
L 1216.415648 303.935987 
L 1217.779951 296 
L 1218.234719 303.424026 
L 1218.689487 302.4 
L 1219.144254 299.2 
L 1219.599022 303.424026 
L 1221.418093 304.575974 
L 1221.872861 297.920026 
L 1222.327628 296 
L 1222.782396 300.479974 
L 1224.146699 302.4 
L 1224.601467 305.856 
L 1225.056235 287.168013 
L 1225.511002 288.064013 
L 1225.96577 288.448 
L 1227.330073 295.487987 
L 1227.784841 295.487987 
L 1228.239609 294.848 
L 1228.694377 296.768013 
L 1229.149144 302.656 
L 1230.513447 305.727974 
L 1231.422983 314.048 
L 1231.877751 296.639987 
L 1232.332518 298.431987 
L 1233.696822 297.920026 
L 1234.151589 294.975974 
L 1234.606357 294.335987 
L 1235.061125 295.872026 
L 1235.515892 301.504 
L 1236.880196 292.287987 
L 1237.334963 293.439987 
L 1237.789731 296 
L 1238.244499 299.456 
L 1238.699267 305.983987 
L 1240.06357 303.039987 
L 1240.518337 294.335987 
L 1240.973105 302.912013 
L 1241.427873 304.320026 
L 1241.882641 291.135987 
L 1243.701711 288.575974 
L 1244.156479 292.927974 
L 1244.611247 299.583987 
L 1245.066015 300.991987 
L 1246.430318 299.839987 
L 1246.885086 302.527974 
L 1247.339853 298.560013 
L 1247.794621 293.056 
L 1248.249389 300.608013 
L 1249.613692 303.552 
L 1250.06846 296.768013 
L 1250.523227 294.720026 
L 1250.977995 296.639987 
L 1251.432763 296.768013 
L 1252.797066 293.696 
L 1253.251834 295.360013 
L 1253.706601 295.744 
L 1254.161369 292.416013 
L 1254.616137 303.039987 
L 1255.98044 315.072026 
L 1256.435208 313.408013 
L 1256.889976 301.375974 
L 1257.799511 288.575974 
L 1259.618582 292.544 
L 1260.07335 295.231987 
L 1260.528117 292.672026 
L 1260.982885 291.648 
L 1262.347188 287.679974 
L 1262.801956 285.375974 
L 1263.256724 289.472026 
L 1263.711491 285.120026 
L 1264.166259 287.168013 
L 1265.530562 289.983987 
L 1266.440098 277.696 
L 1266.894866 273.6 
L 1267.349633 271.424026 
L 1268.713936 274.112013 
L 1269.168704 278.975974 
L 1269.623472 279.744 
L 1270.533007 282.944 
L 1271.897311 278.208013 
L 1272.352078 281.024026 
L 1272.806846 282.560013 
L 1273.261614 276.416013 
L 1273.716381 274.879974 
L 1275.535452 272.831987 
L 1275.99022 264.256 
L 1276.444988 241.856 
L 1276.899756 225.856 
L 1278.264059 221.887987 
L 1278.718826 228.287987 
L 1279.173594 228.8 
L 1279.628362 225.983987 
L 1280.08313 224.064013 
L 1281.447433 227.264013 
L 1281.9022 226.752 
L 1282.356968 228.544 
L 1282.811736 235.327974 
L 1283.266504 230.591987 
L 1284.630807 232.512013 
L 1285.085575 228.927974 
L 1285.540342 228.160013 
L 1285.99511 224.320026 
L 1286.449878 217.920026 
L 1288.268949 201.920026 
L 1288.723716 201.024026 
L 1289.178484 203.583987 
L 1289.633252 210.879974 
L 1291.452323 218.944 
L 1291.90709 217.664013 
L 1292.361858 212.160013 
L 1292.816626 212.544 
L 1294.180929 213.439987 
L 1294.635697 220.608013 
L 1295.545232 201.664013 
L 1296 215.872026 
L 1296 215.872026 
" style="fill:none;stroke:#0000ff;stroke-linecap:square;"/>
   </g>
   <g id="line2d_2">
    <path clip-path="url(#p333c744ace)" d="M 180 559.936013 
L 180.454768 558.4 
L 180.909535 557.504 
L 181.364303 563.904 
L 181.819071 563.263987 
L 183.183374 565.056 
L 183.638142 563.52 
L 184.09291 562.88 
L 184.547677 560.960013 
L 185.002445 561.6 
L 186.821516 563.008013 
L 187.276284 568 
L 187.731051 569.92 
L 188.185819 573.632 
L 189.550122 574.528 
L 190.00489 575.04 
L 190.459658 574.144 
L 190.914425 578.368 
L 191.369193 585.28 
L 192.733496 585.664 
L 193.188264 583.616 
L 193.643032 582.464 
L 194.0978 584.128 
L 194.552567 585.024 
L 195.91687 584.64 
L 196.371638 584.768 
L 196.826406 590.656 
L 197.281174 586.944 
L 199.555012 581.696 
L 200.00978 579.904 
L 200.464548 579.904 
L 200.919315 579.776 
L 202.283619 578.368 
L 202.738386 582.208 
L 203.193154 579.776 
L 203.647922 582.336 
L 204.102689 581.952 
L 205.466993 578.88 
L 205.92176 575.424 
L 206.376528 576.96 
L 206.831296 577.344 
L 207.286064 572.608 
L 208.650367 567.360013 
L 209.559902 564.672 
L 210.01467 569.92 
L 210.469438 567.872 
L 211.833741 567.615987 
L 212.288509 568.256 
L 213.198044 567.104 
L 213.652812 566.848 
L 215.017115 567.104 
L 215.471883 571.584 
L 215.92665 572.224 
L 216.836186 567.232013 
L 218.200489 565.184013 
L 218.655257 566.208013 
L 219.110024 565.824 
L 219.564792 568.384013 
L 221.383863 567.360013 
L 221.838631 565.824 
L 222.293399 561.472 
L 222.748166 559.68 
L 223.202934 555.2 
L 224.567237 553.152 
L 225.022005 553.28 
L 225.476773 544.832013 
L 225.93154 543.936013 
L 226.386308 546.112013 
L 227.750611 545.728 
L 228.205379 542.656 
L 228.660147 554.560013 
L 229.114914 556.48 
L 229.569682 552 
L 230.933985 554.048 
L 231.388753 559.936013 
L 231.843521 563.136013 
L 232.298289 561.215987 
L 232.753056 564.415987 
L 234.117359 564.032013 
L 234.572127 568 
L 235.026895 569.791987 
L 235.481663 578.496 
L 235.93643 580.8 
L 237.300733 571.2 
L 237.755501 572.352 
L 238.210269 566.976 
L 238.665037 570.176 
L 239.119804 569.408013 
L 240.484108 571.712 
L 240.938875 571.84 
L 242.303178 588.736 
L 243.667482 579.392 
L 244.122249 585.408 
L 244.577017 578.496 
L 245.031785 579.392 
L 245.486553 584 
L 247.305623 584.256 
L 247.760391 584.512 
L 248.215159 581.952 
L 248.669927 584.512 
L 250.03423 584.768 
L 250.488998 588.864 
L 250.943765 588.48 
L 251.398533 585.664 
L 251.853301 584.256 
L 253.217604 582.08 
L 253.672372 581.056 
L 254.581907 578.368 
L 255.036675 577.984 
L 256.400978 582.848 
L 256.855746 583.104 
L 257.310513 584.64 
L 257.765281 587.84 
L 258.220049 589.504 
L 259.584352 589.376 
L 260.03912 598.336 
L 260.493888 599.488 
L 260.948655 600 
L 261.403423 596.416 
L 263.222494 596.8 
L 263.677262 595.264 
L 264.132029 591.68 
L 264.586797 589.248 
L 265.9511 586.816 
L 266.860636 581.44 
L 267.315403 583.488 
L 267.770171 598.592 
L 269.134474 583.744 
L 269.589242 586.56 
L 270.04401 600 
L 270.498778 599.232 
L 270.953545 602.944 
L 272.317848 597.44 
L 272.772616 598.208 
L 273.227384 598.72 
L 273.682152 600 
L 274.136919 600.896 
L 275.501222 597.312 
L 275.95599 597.952 
L 276.410758 597.824 
L 276.865526 596.544 
L 277.320293 596.8 
L 278.684597 592.448 
L 279.139364 594.24 
L 279.594132 598.848 
L 280.0489 600 
L 280.503667 599.872 
L 281.867971 600.896 
L 282.322738 600 
L 282.777506 598.848 
L 283.232274 599.36 
L 283.687042 600.128 
L 285.051345 602.688 
L 285.506112 604.608 
L 285.96088 607.808 
L 286.415648 606.912 
L 286.870416 609.216 
L 288.234719 607.296 
L 288.689487 610.368 
L 289.144254 607.936 
L 289.599022 606.272 
L 290.05379 602.432 
L 291.872861 603.2 
L 292.327628 601.664 
L 292.782396 602.304 
L 293.237164 602.688 
L 294.601467 601.792 
L 295.056235 601.92 
L 295.96577 597.056 
L 296.420538 598.336 
L 297.784841 598.848 
L 298.239609 597.824 
L 298.694377 597.184 
L 299.149144 597.696 
L 299.603912 593.728 
L 300.968215 593.6 
L 301.422983 595.008 
L 302.332518 596.928 
L 302.787286 595.136 
L 304.151589 595.136 
L 304.606357 591.68 
L 305.061125 592.448 
L 305.515892 595.008 
L 305.97066 594.496 
L 307.334963 591.936 
L 307.789731 593.344 
L 308.244499 590.4 
L 308.699267 574.4 
L 309.154034 572.48 
L 310.518337 574.4 
L 310.973105 579.264 
L 311.427873 573.888 
L 311.882641 574.656 
L 312.337408 572.992 
L 313.701711 569.28 
L 314.156479 568.639987 
L 314.611247 568.639987 
L 315.066015 567.232013 
L 315.520782 566.976 
L 316.885086 570.176 
L 317.339853 568.896 
L 317.794621 571.072 
L 318.249389 570.944 
L 318.704156 568.896 
L 320.06846 568 
L 320.523227 560.191987 
L 320.977995 561.6 
L 321.432763 564.544 
L 321.887531 566.08 
L 323.251834 566.976 
L 323.706601 569.92 
L 324.161369 569.791987 
L 324.616137 567.487987 
L 325.070905 564.544 
L 326.435208 568 
L 326.889976 570.687987 
L 327.344743 569.28 
L 328.254279 568.384013 
L 329.618582 571.84 
L 330.07335 574.144 
L 330.528117 571.2 
L 330.982885 569.663987 
L 331.437653 568.639987 
L 332.801956 567.360013 
L 333.256724 564.8 
L 333.711491 558.912013 
L 334.166259 560.960013 
L 334.621027 559.552 
L 335.98533 562.367987 
L 336.894866 565.824 
L 337.349633 565.567987 
L 337.804401 567.104 
L 339.168704 569.28 
L 339.623472 568.639987 
L 340.07824 564.032013 
L 340.533007 565.439987 
L 342.352078 566.08 
L 342.806846 566.976 
L 343.716381 564.544 
L 344.171149 565.184013 
L 345.535452 562.624 
L 345.99022 563.904 
L 346.444988 566.848 
L 346.899756 561.344 
L 347.354523 562.88 
L 348.718826 564.8 
L 349.173594 564.415987 
L 349.628362 563.648 
L 350.08313 563.904 
L 350.537897 563.52 
L 352.356968 565.824 
L 352.811736 568.256 
L 353.721271 572.096 
L 355.085575 574.272 
L 355.540342 573.12 
L 355.99511 578.752 
L 356.449878 576.576 
L 356.904645 575.296 
L 358.268949 573.888 
L 358.723716 568.256 
L 359.178484 568 
L 359.633252 566.08 
L 360.08802 565.439987 
L 361.452323 561.344 
L 361.90709 565.056 
L 362.361858 566.72 
L 362.816626 566.72 
L 363.271394 564.287987 
L 365.090465 561.215987 
L 365.545232 555.712013 
L 366 552 
L 366.454768 551.104 
L 368.273839 560.063987 
L 368.728606 566.72 
L 369.183374 570.687987 
L 369.638142 566.336013 
L 371.002445 567.615987 
L 371.457213 570.176 
L 371.91198 563.52 
L 372.366748 561.472 
L 372.821516 561.984013 
L 374.185819 564.928 
L 374.640587 561.984013 
L 375.095355 560.32 
L 376.00489 558.4 
L 377.369193 557.248 
L 377.823961 570.687987 
L 378.278729 573.12 
L 378.733496 573.632 
L 379.188264 571.072 
L 380.552567 569.152 
L 381.007335 569.152 
L 381.462103 571.456 
L 381.91687 569.024 
L 382.371638 562.239987 
L 384.190709 564.415987 
L 384.645477 562.496 
L 385.100244 562.88 
L 385.555012 561.984013 
L 386.919315 560.832013 
L 387.374083 561.087987 
L 387.828851 559.167987 
L 388.283619 561.087987 
L 388.738386 561.344 
L 390.102689 566.463987 
L 390.557457 567.487987 
L 391.012225 565.696 
L 391.466993 565.696 
L 391.92176 564.287987 
L 393.286064 570.432013 
L 393.740831 570.176 
L 394.195599 563.648 
L 394.650367 561.728 
L 396.469438 559.68 
L 396.924205 558.144 
L 397.378973 556.096 
L 397.833741 556.224 
L 398.288509 553.791987 
L 399.652812 551.104 
L 400.107579 547.136013 
L 401.017115 544.960013 
L 401.471883 540.736013 
L 402.836186 538.687987 
L 403.290954 540.224 
L 403.745721 561.728 
L 404.200489 559.296 
L 404.655257 571.712 
L 406.01956 575.936 
L 406.474328 574.656 
L 406.929095 574.4 
L 407.383863 570.687987 
L 407.838631 569.28 
L 409.202934 571.2 
L 410.112469 569.92 
L 410.567237 572.736 
L 411.022005 571.84 
L 412.841076 569.663987 
L 413.295844 573.888 
L 413.750611 572.864 
L 414.205379 575.936 
L 416.02445 579.904 
L 416.479218 582.976 
L 416.933985 584.768 
L 417.388753 582.592 
L 418.753056 582.72 
L 419.207824 581.568 
L 419.662592 590.4 
L 420.117359 588.48 
L 420.572127 589.632 
L 421.93643 588.352 
L 422.845966 581.568 
L 423.300733 587.584 
L 423.755501 585.92 
L 425.119804 586.944 
L 425.574572 585.536 
L 426.02934 588.096 
L 426.484108 588.608 
L 426.938875 583.744 
L 428.757946 580.8 
L 429.212714 577.344 
L 429.667482 575.04 
L 430.122249 578.368 
L 431.94132 585.92 
L 432.396088 585.664 
L 432.850856 589.12 
L 433.305623 588.992 
L 434.669927 592.064 
L 435.124694 591.04 
L 435.579462 603.84 
L 436.03423 604.992 
L 436.488998 602.304 
L 437.853301 600.896 
L 438.308068 601.28 
L 438.762836 602.304 
L 439.217604 604.096 
L 439.672372 609.088 
L 441.036675 610.24 
L 441.94621 615.616 
L 442.855746 629.952 
L 444.220049 634.048 
L 444.674817 632 
L 445.129584 627.264 
L 445.584352 623.936 
L 446.03912 612.672 
L 447.403423 606.144 
L 447.858191 607.296 
L 448.312958 605.504 
L 448.767726 612.16 
L 449.222494 613.184 
L 450.586797 612.544 
L 451.041565 612.8 
L 451.496333 612.288 
L 451.9511 612.032 
L 452.405868 615.744 
L 453.770171 613.568 
L 454.224939 606.656 
L 454.679707 602.688 
L 455.134474 605.504 
L 455.589242 611.392 
L 457.408313 616.64 
L 457.863081 606.528 
L 458.317848 604.864 
L 458.772616 595.904 
L 460.136919 597.824 
L 461.501222 590.272 
L 461.95599 584.768 
L 463.320293 591.68 
L 463.775061 593.216 
L 464.684597 600.768 
L 465.139364 595.264 
L 466.503667 593.856 
L 466.958435 591.168 
L 467.413203 594.88 
L 467.867971 607.68 
L 468.322738 608.192 
L 469.687042 604.864 
L 471.506112 579.136 
L 472.870416 576.064 
L 473.325183 576.448 
L 473.779951 575.424 
L 474.234719 577.088 
L 474.689487 575.552 
L 476.05379 575.68 
L 476.508557 582.592 
L 476.963325 574.656 
L 477.418093 571.584 
L 479.237164 567.232013 
L 479.691932 568.896 
L 480.146699 572.992 
L 480.601467 565.439987 
L 481.056235 568 
L 482.420538 578.24 
L 482.875306 587.2 
L 483.330073 584 
L 483.784841 583.616 
L 484.239609 584.64 
L 485.603912 580.8 
L 486.05868 573.632 
L 486.513447 572.864 
L 486.968215 573.248 
L 487.422983 572.352 
L 488.787286 572.096 
L 489.242054 575.04 
L 489.696822 575.04 
L 490.151589 581.44 
L 490.606357 579.264 
L 491.97066 586.944 
L 492.425428 587.2 
L 492.880196 586.176 
L 493.789731 585.28 
L 495.154034 581.312 
L 496.06357 575.68 
L 496.518337 570.048 
L 496.973105 570.815987 
L 498.337408 573.376 
L 498.792176 573.248 
L 499.246944 576.832 
L 499.701711 577.216 
L 500.156479 576.32 
L 501.97555 579.52 
L 502.430318 586.56 
L 502.885086 583.872 
L 503.339853 585.024 
L 504.704156 589.504 
L 505.158924 588.096 
L 505.613692 587.328 
L 506.06846 571.84 
L 506.523227 572.864 
L 508.342298 571.072 
L 508.797066 575.424 
L 509.251834 573.76 
L 509.706601 570.815987 
L 511.525672 568.639987 
L 511.98044 574.528 
L 512.435208 578.368 
L 512.889976 578.88 
L 514.254279 579.52 
L 514.709046 577.6 
L 515.163814 579.52 
L 515.618582 578.24 
L 516.07335 578.496 
L 517.892421 579.008 
L 518.347188 575.168 
L 518.801956 572.608 
L 519.256724 573.12 
L 520.621027 575.808 
L 521.530562 578.112 
L 521.98533 578.624 
L 522.440098 578.112 
L 523.804401 577.6 
L 524.259169 578.752 
L 524.713936 577.216 
L 525.623472 573.376 
L 527.897311 574.784 
L 528.352078 572.48 
L 528.806846 571.2 
L 530.171149 570.560013 
L 530.625917 585.024 
L 531.080685 582.976 
L 531.535452 582.72 
L 531.99022 584 
L 533.809291 587.2 
L 534.264059 591.296 
L 534.718826 592.064 
L 535.173594 586.176 
L 536.537897 587.584 
L 536.992665 587.072 
L 537.447433 586.816 
L 537.9022 586.688 
L 538.356968 588.352 
L 539.721271 590.144 
L 540.176039 592.32 
L 541.540342 588.992 
L 542.904645 590.656 
L 543.359413 591.808 
L 543.814181 591.424 
L 544.268949 589.504 
L 544.723716 585.024 
L 546.542787 585.024 
L 547.452323 579.136 
L 547.90709 580.032 
L 549.271394 579.392 
L 549.726161 578.752 
L 550.180929 582.208 
L 550.635697 582.592 
L 551.090465 581.696 
L 552.454768 582.592 
L 553.364303 584 
L 553.819071 584 
L 555.638142 584.512 
L 556.09291 585.152 
L 556.547677 586.048 
L 557.002445 586.048 
L 557.457213 585.792 
L 558.821516 587.456 
L 559.276284 586.304 
L 559.731051 580.16 
L 560.185819 579.392 
L 560.640587 579.008 
L 562.00489 580.288 
L 562.914425 579.136 
L 563.369193 579.136 
L 563.823961 577.728 
L 565.188264 578.24 
L 566.0978 577.088 
L 567.007335 582.848 
L 568.371638 581.952 
L 569.281174 583.616 
L 569.735941 580.16 
L 570.190709 586.56 
L 571.555012 578.88 
L 572.00978 579.648 
L 572.464548 580.672 
L 572.919315 585.92 
L 573.374083 579.392 
L 574.738386 582.72 
L 575.193154 581.568 
L 575.647922 582.208 
L 576.557457 580.416 
L 578.376528 580.416 
L 578.831296 581.952 
L 579.286064 582.464 
L 579.740831 585.92 
L 581.105134 586.432 
L 581.559902 585.152 
L 582.469438 579.776 
L 582.924205 578.88 
L 584.288509 580.544 
L 584.743276 580.672 
L 585.198044 580.544 
L 585.652812 580.8 
L 586.107579 579.776 
L 587.471883 580.544 
L 587.92665 577.472 
L 588.381418 576.576 
L 588.836186 577.984 
L 589.290954 577.344 
L 590.655257 580.032 
L 591.110024 581.568 
L 591.564792 579.136 
L 592.01956 580.288 
L 592.474328 577.216 
L 594.293399 573.504 
L 595.202934 573.632 
L 595.657702 575.296 
L 597.476773 574.912 
L 597.93154 575.296 
L 598.386308 577.088 
L 598.841076 575.168 
L 600.205379 576.32 
L 600.660147 578.624 
L 601.114914 577.472 
L 601.569682 575.808 
L 602.02445 575.296 
L 603.388753 576.448 
L 603.843521 581.056 
L 604.298289 578.88 
L 605.207824 573.248 
L 606.572127 572.48 
L 607.026895 573.632 
L 607.481663 573.376 
L 607.93643 575.808 
L 608.391198 573.504 
L 609.755501 571.84 
L 610.210269 570.304 
L 610.665037 570.048 
L 611.119804 571.456 
L 611.574572 583.872 
L 612.938875 584 
L 613.393643 587.968 
L 613.848411 588.48 
L 614.757946 585.92 
L 616.122249 585.536 
L 616.577017 585.536 
L 617.031785 585.792 
L 617.94132 586.944 
L 619.305623 586.944 
L 619.760391 587.968 
L 620.215159 587.84 
L 621.124694 589.248 
L 622.943765 589.248 
L 623.398533 585.92 
L 623.853301 584.512 
L 624.308068 582.72 
L 625.672372 582.592 
L 626.127139 583.232 
L 626.581907 580.416 
L 627.036675 579.264 
L 627.491443 576.064 
L 628.855746 575.936 
L 629.310513 576.32 
L 629.765281 573.248 
L 630.220049 575.68 
L 630.674817 575.552 
L 632.03912 576.32 
L 632.493888 575.424 
L 632.948655 576.96 
L 633.403423 573.888 
L 633.858191 572.096 
L 635.222494 574.144 
L 636.132029 571.328 
L 636.586797 569.28 
L 637.041565 570.048 
L 638.405868 571.2 
L 638.860636 573.632 
L 639.315403 573.76 
L 639.770171 573.248 
L 640.224939 572.992 
L 641.589242 575.68 
L 642.04401 574.272 
L 642.498778 573.376 
L 643.408313 573.376 
L 644.772616 574.528 
L 645.227384 567.872 
L 645.682152 565.056 
L 646.136919 564.928 
L 646.591687 564.544 
L 648.865526 563.52 
L 649.320293 560.191987 
L 649.775061 559.039987 
L 651.139364 558.272 
L 651.594132 554.304 
L 652.0489 556.096 
L 652.503667 555.456 
L 652.958435 556.096 
L 654.322738 556.224 
L 654.777506 553.536013 
L 655.232274 548.8 
L 655.687042 548.928 
L 656.141809 548.672 
L 657.506112 547.263987 
L 657.96088 543.167987 
L 658.415648 543.039987 
L 661.144254 535.360013 
L 661.599022 538.815987 
L 662.05379 534.72 
L 662.508557 536.767987 
L 663.872861 541.248 
L 664.327628 537.92 
L 664.782396 535.744 
L 665.237164 535.744 
L 665.691932 532.032013 
L 667.056235 530.88 
L 667.511002 527.296 
L 668.420538 529.472 
L 668.875306 527.68 
L 670.694377 525.376 
L 671.149144 525.376 
L 672.05868 529.856 
L 673.422983 527.936013 
L 674.332518 526.144 
L 674.787286 527.167987 
L 675.242054 529.215987 
L 676.606357 527.68 
L 677.515892 519.872 
L 677.97066 523.584013 
L 678.425428 523.584013 
L 679.789731 529.215987 
L 680.244499 528.960013 
L 680.699267 529.984013 
L 681.154034 533.696 
L 681.608802 534.208013 
L 682.973105 529.6 
L 683.427873 529.215987 
L 684.337408 520 
L 684.792176 520.384013 
L 686.611247 523.584013 
L 687.520782 519.104 
L 687.97555 517.056 
L 689.339853 517.439987 
L 689.794621 524.096 
L 690.249389 523.967987 
L 690.704156 525.504 
L 691.158924 525.376 
L 692.523227 528.832013 
L 692.977995 527.424 
L 693.432763 525.248 
L 694.342298 516.160013 
L 695.706601 515.008013 
L 696.161369 508.608013 
L 696.616137 506.304 
L 697.070905 506.432013 
L 697.525672 508.48 
L 699.344743 507.584013 
L 699.799511 508.48 
L 700.254279 510.528 
L 700.709046 509.12 
L 702.07335 510.784013 
L 702.528117 512.576 
L 702.982885 511.167987 
L 703.437653 506.560013 
L 703.892421 503.872 
L 705.256724 491.839987 
L 705.711491 486.591987 
L 706.166259 485.312013 
L 706.621027 486.08 
L 707.075795 485.312013 
L 708.440098 487.104 
L 708.894866 491.967987 
L 709.349633 492.352 
L 709.804401 489.152 
L 710.259169 494.784013 
L 711.623472 496.063987 
L 712.07824 495.808013 
L 712.533007 495.039987 
L 713.442543 485.184013 
L 714.806846 477.632013 
L 715.261614 477.12 
L 715.716381 476.352 
L 716.171149 475.839987 
L 717.99022 479.167987 
L 718.444988 473.92 
L 718.899756 478.528 
L 719.354523 476.991987 
L 719.809291 481.472 
L 721.173594 479.936013 
L 721.628362 475.967987 
L 722.08313 469.439987 
L 722.537897 464.832013 
L 722.992665 464.448 
L 724.356968 470.976 
L 724.811736 471.872 
L 725.266504 479.936013 
L 725.721271 485.439987 
L 726.176039 483.776 
L 727.540342 475.584013 
L 728.904645 457.536013 
L 729.359413 461.376 
L 730.723716 464.32 
L 731.178484 464.191987 
L 732.08802 466.496 
L 732.542787 456.128 
L 733.90709 457.024 
L 734.361858 448.960013 
L 734.816626 443.712013 
L 735.726161 439.232013 
L 737.090465 438.591987 
L 737.545232 436.544 
L 738.454768 435.904 
L 738.909535 437.312013 
L 740.273839 440.512013 
L 740.728606 433.984013 
L 741.183374 437.567987 
L 741.638142 447.039987 
L 742.09291 447.68 
L 743.91198 443.456 
L 744.366748 451.904 
L 744.821516 445.760013 
L 745.276284 442.048 
L 746.640587 441.536013 
L 747.095355 443.584013 
L 747.550122 447.167987 
L 748.00489 447.552 
L 748.459658 439.615987 
L 749.823961 434.239987 
L 750.733496 444.608013 
L 751.188264 446.912013 
L 751.643032 441.152 
L 753.007335 440.128 
L 753.462103 436.672 
L 753.91687 440.256 
L 754.371638 453.056 
L 754.826406 456.767987 
L 756.190709 471.104 
L 756.645477 465.856 
L 757.100244 455.872 
L 757.555012 450.367987 
L 758.00978 457.408013 
L 759.374083 453.696 
L 759.828851 457.28 
L 760.283619 458.304 
L 761.193154 449.344 
L 762.557457 449.728 
L 763.012225 446.528 
L 763.466993 440.767987 
L 763.92176 431.167987 
L 764.376528 430.272 
L 765.740831 429.632013 
L 766.195599 433.856 
L 766.650367 423.744 
L 767.105134 408.256 
L 767.559902 404.287987 
L 769.378973 427.712013 
L 769.833741 427.456 
L 770.288509 422.08 
L 770.743276 420.928 
L 772.107579 420.160013 
L 772.562347 419.391987 
L 773.017115 423.104 
L 773.471883 418.752 
L 773.92665 423.360013 
L 775.290954 424.639987 
L 775.745721 428.48 
L 776.200489 429.632013 
L 776.655257 427.456 
L 777.110024 427.839987 
L 778.474328 424 
L 778.929095 414.656 
L 779.383863 417.6 
L 779.838631 428.863987 
L 780.293399 430.4 
L 781.657702 431.552 
L 782.112469 431.68 
L 782.567237 430.4 
L 783.476773 420.032013 
L 784.841076 421.439987 
L 785.295844 433.6 
L 785.750611 432.576 
L 786.205379 430.015987 
L 786.660147 432.704 
L 788.479218 425.663987 
L 788.933985 422.72 
L 789.388753 418.752 
L 789.843521 419.904 
L 791.207824 413.504 
L 791.662592 403.776 
L 792.117359 405.184013 
L 792.572127 398.4 
L 793.026895 407.360013 
L 794.391198 398.272 
L 794.845966 400.832013 
L 795.755501 387.648 
L 796.210269 382.272 
L 797.574572 391.744 
L 798.938875 371.776 
L 799.393643 356.672026 
L 800.757946 357.696 
L 801.667482 342.079974 
L 802.122249 351.039987 
L 802.577017 341.312013 
L 803.94132 339.775974 
L 804.396088 365.120026 
L 804.850856 369.087987 
L 805.305623 349.375974 
L 805.760391 345.791987 
L 807.124694 344.896 
L 807.579462 352.831987 
L 808.03423 355.775974 
L 808.488998 362.431987 
L 808.943765 352.191987 
L 810.308068 345.279974 
L 810.762836 346.175974 
L 811.217604 353.344 
L 811.672372 356.031987 
L 812.127139 366.4 
L 813.491443 370.239987 
L 813.94621 355.904 
L 814.400978 361.535987 
L 814.855746 362.816013 
L 815.310513 353.6 
L 816.674817 353.472026 
L 817.129584 359.360013 
L 817.584352 357.312013 
L 818.03912 365.631987 
L 818.493888 363.839987 
L 819.858191 350.4 
L 820.312958 342.335987 
L 820.767726 345.535987 
L 821.222494 331.072026 
L 821.677262 324.160013 
L 823.041565 334.272026 
L 823.496333 334.272026 
L 823.9511 325.183987 
L 824.405868 312.383987 
L 824.860636 315.712013 
L 826.224939 315.712013 
L 826.679707 313.791987 
L 827.134474 308.672026 
L 828.04401 303.679974 
L 829.408313 306.496 
L 829.863081 310.848 
L 830.317848 312 
L 830.772616 288.960013 
L 831.227384 282.816013 
L 832.591687 282.304 
L 833.046455 277.824026 
L 833.501222 277.824026 
L 833.95599 276.8 
L 834.410758 269.631987 
L 835.775061 269.120026 
L 836.229829 271.679974 
L 836.684597 279.104 
L 837.139364 265.152 
L 837.594132 262.591987 
L 838.958435 262.335987 
L 839.413203 255.552 
L 840.322738 261.183987 
L 840.777506 259.904 
L 842.141809 265.920026 
L 842.596577 264 
L 843.506112 272.831987 
L 843.96088 266.304 
L 845.325183 267.2 
L 845.779951 262.975974 
L 846.234719 250.944 
L 846.689487 256.191987 
L 847.144254 253.504 
L 848.508557 266.560013 
L 848.963325 263.487987 
L 849.418093 254.272026 
L 850.327628 270.783987 
L 852.146699 278.591987 
L 852.601467 272.704 
L 853.056235 275.008013 
L 853.511002 294.464013 
L 854.875306 307.264013 
L 855.330073 308.544 
L 855.784841 330.304 
L 856.239609 335.039987 
L 856.694377 333.760013 
L 858.05868 332.352 
L 858.513447 329.791987 
L 858.968215 328.127974 
L 859.877751 312.127974 
L 861.242054 299.2 
L 861.696822 288.448 
L 862.151589 289.216013 
L 862.606357 292.287987 
L 863.061125 288.191987 
L 864.880196 288.448 
L 865.789731 298.560013 
L 866.244499 299.583987 
L 867.608802 304.704 
L 868.06357 302.144 
L 868.518337 298.048 
L 869.427873 286.783987 
L 870.792176 296.896 
L 871.246944 280.896 
L 871.701711 274.368013 
L 872.156479 270.4 
L 872.611247 283.839987 
L 873.97555 290.752 
L 874.430318 296.896 
L 874.885086 309.056 
L 875.339853 304.831987 
L 875.794621 309.439987 
L 877.158924 281.791987 
L 877.613692 279.360013 
L 878.06846 283.072026 
L 878.523227 297.024026 
L 878.977995 293.056 
L 880.797066 316.991987 
L 881.706601 327.360013 
L 882.161369 321.216013 
L 883.525672 318.656 
L 884.435208 308.031987 
L 884.889976 321.472026 
L 885.344743 342.975974 
L 886.709046 359.616013 
L 887.163814 353.344 
L 887.618582 341.439987 
L 888.528117 364.479974 
L 889.892421 353.087987 
L 890.347188 358.208013 
L 890.801956 317.631987 
L 891.256724 320.960013 
L 893.075795 316.608013 
L 893.530562 313.791987 
L 894.440098 330.944 
L 894.894866 337.087987 
L 896.259169 345.279974 
L 896.713936 339.264013 
L 897.168704 324.8 
L 897.623472 315.2 
L 898.07824 312.512013 
L 899.442543 311.360013 
L 899.897311 309.056 
L 900.352078 345.024026 
L 900.806846 345.791987 
L 901.261614 348.352 
L 902.625917 342.464013 
L 903.080685 338.624026 
L 903.535452 341.056 
L 903.99022 348.479974 
L 904.444988 352.320026 
L 905.809291 350.016013 
L 906.264059 345.024026 
L 906.718826 342.208013 
L 907.173594 337.472026 
L 907.628362 334.272026 
L 909.447433 331.456 
L 909.9022 335.424026 
L 910.356968 332.224026 
L 910.811736 339.135987 
L 912.176039 337.216013 
L 912.630807 333.375974 
L 913.085575 337.472026 
L 913.540342 336.191987 
L 913.99511 327.360013 
L 915.359413 321.087987 
L 916.268949 313.791987 
L 916.723716 310.848 
L 917.178484 307.008013 
L 918.542787 330.944 
L 918.997555 336.960013 
L 919.452323 337.472026 
L 919.90709 334.144 
L 920.361858 341.183987 
L 921.726161 348.864013 
L 922.180929 349.120026 
L 922.635697 352.320026 
L 923.090465 353.344 
L 923.545232 344.639987 
L 925.364303 325.312013 
L 925.819071 322.879974 
L 926.273839 316.479974 
L 928.09291 321.856 
L 928.547677 337.216013 
L 929.002445 332.096 
L 929.457213 339.520026 
L 929.91198 330.816013 
L 931.276284 322.239987 
L 931.731051 325.439987 
L 932.185819 344.383987 
L 932.640587 353.856 
L 933.095355 354.496 
L 934.459658 351.552 
L 935.369193 344.896 
L 935.823961 327.487987 
L 936.278729 318.4 
L 937.643032 321.472026 
L 938.552567 317.760013 
L 939.007335 319.296 
L 939.462103 324.031987 
L 940.826406 319.679974 
L 941.281174 320.064013 
L 941.735941 322.368013 
L 942.190709 321.216013 
L 942.645477 322.879974 
L 944.00978 318.4 
L 944.464548 326.079974 
L 944.919315 318.144 
L 945.374083 313.024026 
L 945.828851 313.664013 
L 947.193154 305.6 
L 947.647922 296 
L 948.102689 298.431987 
L 948.557457 298.431987 
L 949.012225 294.208013 
L 950.376528 295.487987 
L 950.831296 295.231987 
L 951.286064 291.775974 
L 951.740831 290.879974 
L 952.195599 287.039987 
L 954.01467 279.487987 
L 954.469438 280.768013 
L 954.924205 277.312013 
L 955.378973 276.160013 
L 957.198044 256.320026 
L 957.652812 259.775974 
L 958.562347 244.8 
L 959.92665 236.608013 
L 960.381418 242.368013 
L 960.836186 234.560013 
L 961.290954 245.824026 
L 961.745721 269.760013 
L 963.110024 286.783987 
L 963.564792 290.879974 
L 964.01956 277.952 
L 964.474328 279.104 
L 964.929095 276.8 
L 966.293399 261.952 
L 966.748166 258.368013 
L 967.202934 262.591987 
L 967.657702 267.968013 
L 968.112469 255.679974 
L 969.476773 250.687987 
L 969.93154 254.016013 
L 970.386308 262.720026 
L 970.841076 258.624026 
L 971.295844 269.248 
L 972.660147 285.887987 
L 973.114914 293.312013 
L 973.569682 312.639987 
L 974.02445 303.424026 
L 974.479218 285.631987 
L 975.843521 286.4 
L 976.298289 270.912013 
L 976.753056 241.344 
L 977.207824 235.072026 
L 977.662592 233.279974 
L 979.026895 221.887987 
L 979.481663 201.535987 
L 979.93643 198.335987 
L 980.391198 198.335987 
L 980.845966 191.424026 
L 982.210269 187.968013 
L 982.665037 190.527974 
L 983.119804 170.304 
L 983.574572 179.520026 
L 984.02934 163.391987 
L 985.393643 151.487987 
L 985.848411 160.320026 
L 986.303178 145.983987 
L 986.757946 136.639987 
L 987.212714 129.983987 
L 988.577017 123.968013 
L 989.031785 118.848 
L 989.486553 136 
L 989.94132 132.544 
L 990.396088 123.327974 
L 991.760391 122.304 
L 992.215159 115.520026 
L 992.669927 116.544 
L 993.579462 115.008013 
L 994.943765 140.352 
L 995.398533 135.872026 
L 995.853301 133.439987 
L 996.308068 137.279974 
L 996.762836 129.472026 
L 998.127139 145.983987 
L 998.581907 157.887987 
L 999.036675 146.368013 
L 999.491443 143.296 
L 999.94621 142.656 
L 1001.310513 142.4 
L 1001.765281 151.231987 
L 1002.220049 150.079974 
L 1002.674817 130.368013 
L 1003.129584 125.375974 
L 1004.493888 123.839987 
L 1004.948655 136.896 
L 1005.403423 133.568013 
L 1006.312958 128.191987 
L 1007.677262 129.472026 
L 1008.132029 131.520026 
L 1008.586797 130.112013 
L 1009.496333 142.783987 
L 1010.860636 149.952 
L 1011.315403 157.375974 
L 1012.224939 152.383987 
L 1012.679707 140.864013 
L 1014.04401 154.431987 
L 1014.498778 169.279974 
L 1014.953545 173.504 
L 1015.408313 184.639987 
L 1015.863081 189.120026 
L 1017.682152 177.344 
L 1018.136919 170.304 
L 1019.046455 153.535987 
L 1020.410758 147.904 
L 1021.320293 183.360013 
L 1021.775061 240.960013 
L 1022.229829 219.072026 
L 1023.594132 214.335987 
L 1024.0489 207.935987 
L 1024.503667 214.335987 
L 1024.958435 225.216013 
L 1025.413203 229.824026 
L 1026.777506 231.487987 
L 1027.687042 228.672026 
L 1028.141809 227.391987 
L 1028.596577 212.8 
L 1030.415648 221.120026 
L 1030.870416 221.760013 
L 1031.325183 219.2 
L 1031.779951 215.872026 
L 1033.144254 220.224026 
L 1033.599022 226.752 
L 1034.05379 222.912013 
L 1034.508557 209.472026 
L 1034.963325 212.160013 
L 1036.327628 216.639987 
L 1036.782396 233.024026 
L 1037.237164 238.783987 
L 1037.691932 219.2 
L 1038.146699 220.479974 
L 1039.511002 229.824026 
L 1039.96577 236.096 
L 1040.875306 230.975974 
L 1041.330073 232.768013 
L 1042.694377 228.8 
L 1043.149144 219.712013 
L 1043.603912 220.096 
L 1044.05868 202.431987 
L 1044.513447 201.152 
L 1045.877751 203.712013 
L 1046.332518 209.216013 
L 1046.787286 211.135987 
L 1047.242054 216.896 
L 1047.696822 199.872026 
L 1049.061125 202.304 
L 1050.425428 216.896 
L 1052.244499 217.791987 
L 1052.699267 218.431987 
L 1053.154034 215.360013 
L 1053.608802 197.952 
L 1054.06357 200 
L 1055.427873 203.583987 
L 1055.882641 202.687987 
L 1056.337408 197.056 
L 1056.792176 193.216013 
L 1057.246944 209.6 
L 1059.066015 207.039987 
L 1059.520782 217.024026 
L 1059.97555 218.175974 
L 1060.430318 216.768013 
L 1061.794621 209.6 
L 1062.249389 213.568013 
L 1063.158924 235.072026 
L 1063.613692 237.248 
L 1064.977995 240.575974 
L 1065.432763 253.631987 
L 1065.887531 248.512013 
L 1066.342298 218.560013 
L 1066.797066 212.8 
L 1068.161369 218.048 
L 1068.616137 216.768013 
L 1069.070905 213.056 
L 1069.525672 207.039987 
L 1069.98044 203.968013 
L 1071.344743 212.287987 
L 1071.799511 275.264013 
L 1072.254279 236.352 
L 1072.709046 224.960013 
L 1073.163814 219.583987 
L 1074.982885 230.975974 
L 1075.437653 234.816013 
L 1075.892421 226.496 
L 1076.347188 228.031987 
L 1077.711491 226.752 
L 1078.166259 226.624026 
L 1078.621027 225.856 
L 1079.075795 228.672026 
L 1079.530562 229.439987 
L 1080.894866 238.4 
L 1081.349633 250.944 
L 1081.804401 242.368013 
L 1082.259169 256.960013 
L 1084.07824 261.312013 
L 1084.533007 263.744 
L 1084.987775 254.016013 
L 1085.442543 253.887987 
L 1085.897311 259.264013 
L 1087.261614 257.087987 
L 1087.716381 257.472026 
L 1088.171149 256.575974 
L 1088.625917 252.479974 
L 1089.080685 264.896 
L 1090.444988 278.720026 
L 1090.899756 274.368013 
L 1091.354523 274.879974 
L 1091.809291 274.368013 
L 1093.628362 283.712013 
L 1094.08313 307.775974 
L 1094.537897 303.168013 
L 1094.992665 295.744 
L 1095.447433 292.416013 
L 1096.811736 288.320026 
L 1097.266504 283.968013 
L 1097.721271 287.679974 
L 1098.176039 281.920026 
L 1098.630807 277.696 
L 1100.449878 272.320026 
L 1100.904645 286.272026 
L 1101.359413 276.031987 
L 1101.814181 281.024026 
L 1103.633252 298.944 
L 1104.08802 297.535987 
L 1104.542787 298.560013 
L 1104.997555 307.264013 
L 1106.361858 310.464013 
L 1106.816626 307.520026 
L 1107.271394 299.456 
L 1107.726161 311.360013 
L 1108.180929 313.279974 
L 1109.545232 304.064013 
L 1110 318.656 
L 1110.454768 342.720026 
L 1111.364303 318.783987 
L 1112.728606 318.144 
L 1113.183374 320.320026 
L 1113.638142 327.616013 
L 1115.91198 404.8 
L 1116.366748 372.287987 
L 1116.821516 377.791987 
L 1117.276284 354.239987 
L 1117.731051 354.496 
L 1119.095355 363.456 
L 1119.550122 376.256 
L 1120.00489 374.336013 
L 1120.459658 368.960013 
L 1120.914425 373.567987 
L 1122.733496 380.991987 
L 1123.188264 387.52 
L 1123.643032 378.815987 
L 1124.0978 383.936013 
L 1125.462103 392 
L 1125.91687 399.552 
L 1126.371638 379.328 
L 1126.826406 381.632013 
L 1127.281174 386.752 
L 1128.645477 380.736013 
L 1130.00978 406.72 
L 1130.464548 405.952 
L 1131.828851 427.839987 
L 1132.738386 411.328 
L 1133.193154 411.967987 
L 1133.647922 412.096 
L 1135.012225 387.52 
L 1135.466993 383.552 
L 1136.376528 369.856 
L 1136.831296 366.528 
L 1138.195599 359.360013 
L 1138.650367 362.304 
L 1139.105134 369.344 
L 1140.01467 351.552 
L 1141.378973 351.296 
L 1141.833741 356.544 
L 1142.288509 379.072 
L 1142.743276 376.512013 
L 1143.198044 363.327974 
L 1144.562347 353.6 
L 1145.017115 342.335987 
L 1146.381418 327.360013 
L 1147.745721 327.104 
L 1148.200489 332.479974 
L 1148.655257 331.2 
L 1149.564792 347.712013 
L 1150.929095 352.575974 
L 1151.383863 350.272026 
L 1151.838631 353.216013 
L 1152.293399 351.935987 
L 1152.748166 364.224026 
L 1154.112469 364.864013 
L 1154.567237 358.464013 
L 1155.022005 362.304 
L 1155.476773 358.975974 
L 1155.93154 357.568013 
L 1157.295844 355.264013 
L 1157.750611 358.591987 
L 1158.205379 356.8 
L 1159.114914 360.768013 
L 1160.479218 355.520026 
L 1160.933985 347.583987 
L 1161.388753 330.944 
L 1161.843521 339.520026 
L 1162.298289 338.496 
L 1163.662592 334.783987 
L 1164.117359 340.416013 
L 1164.572127 351.679974 
L 1165.026895 341.952 
L 1165.481663 355.904 
L 1166.845966 363.712013 
L 1167.300733 360 
L 1167.755501 354.752 
L 1168.210269 352.191987 
L 1168.665037 355.264013 
L 1170.02934 357.568013 
L 1170.484108 353.983987 
L 1170.938875 340.927974 
L 1171.393643 339.520026 
L 1173.212714 349.120026 
L 1173.667482 345.920026 
L 1174.122249 349.120026 
L 1174.577017 351.296 
L 1176.396088 377.408013 
L 1176.850856 372.415987 
L 1177.305623 371.52 
L 1177.760391 391.744 
L 1178.215159 392 
L 1179.579462 395.328 
L 1180.03423 389.312013 
L 1180.488998 400.576 
L 1180.943765 408.512013 
L 1181.398533 410.048 
L 1183.217604 400.832013 
L 1183.672372 424.767987 
L 1184.127139 415.167987 
L 1184.581907 400.832013 
L 1185.94621 396.352 
L 1186.400978 396.863987 
L 1186.855746 399.039987 
L 1187.310513 409.92 
L 1187.765281 411.072 
L 1189.129584 407.487987 
L 1189.584352 415.936013 
L 1190.03912 435.904 
L 1190.493888 421.312013 
L 1190.948655 421.056 
L 1192.312958 437.056 
L 1192.767726 436.672 
L 1193.222494 432.448 
L 1193.677262 441.28 
L 1194.132029 433.984013 
L 1195.9511 418.367987 
L 1196.405868 404.032013 
L 1197.315403 395.839987 
L 1198.679707 387.008013 
L 1199.134474 385.472 
L 1199.589242 394.560013 
L 1200.04401 388.928 
L 1200.498778 376.384013 
L 1201.863081 375.232013 
L 1202.772616 356.544 
L 1203.227384 361.024026 
L 1203.682152 356.672026 
L 1205.046455 346.048 
L 1205.501222 355.648 
L 1205.95599 356.416013 
L 1206.410758 365.248 
L 1206.865526 355.648 
L 1208.229829 347.072026 
L 1208.684597 352.191987 
L 1209.139364 353.6 
L 1209.594132 342.464013 
L 1210.0489 335.935987 
L 1211.413203 328 
L 1211.867971 332.096 
L 1212.322738 331.712013 
L 1212.777506 341.696 
L 1214.596577 332.864013 
L 1215.051345 327.872026 
L 1215.506112 309.568013 
L 1215.96088 308.8 
L 1216.415648 311.231987 
L 1217.779951 308.287987 
L 1218.234719 312.383987 
L 1218.689487 311.231987 
L 1219.144254 318.783987 
L 1219.599022 320.064013 
L 1220.963325 311.104 
L 1221.418093 311.616013 
L 1221.872861 303.679974 
L 1222.327628 304.320026 
L 1222.782396 309.824026 
L 1224.146699 316.735987 
L 1224.601467 313.791987 
L 1225.056235 302.4 
L 1225.511002 297.920026 
L 1225.96577 300.352 
L 1227.330073 300.096 
L 1228.239609 307.135987 
L 1228.694377 308.672026 
L 1229.149144 313.279974 
L 1230.513447 311.104 
L 1230.968215 316.352 
L 1231.422983 318.527974 
L 1231.877751 304.191987 
L 1232.332518 308.927974 
L 1233.696822 303.424026 
L 1234.151589 300.608013 
L 1234.606357 299.839987 
L 1235.515892 310.335987 
L 1236.880196 303.935987 
L 1237.334963 299.2 
L 1237.789731 303.808013 
L 1238.244499 306.624026 
L 1238.699267 316.735987 
L 1240.06357 309.696 
L 1240.518337 305.344 
L 1240.973105 321.983987 
L 1241.427873 314.304 
L 1241.882641 304.448 
L 1243.701711 296 
L 1244.156479 308.031987 
L 1244.611247 307.775974 
L 1245.066015 308.8 
L 1246.430318 308.544 
L 1246.885086 307.135987 
L 1247.339853 304.448 
L 1248.249389 307.648 
L 1249.613692 309.824026 
L 1250.06846 307.135987 
L 1250.523227 301.120026 
L 1250.977995 308.287987 
L 1251.432763 304.831987 
L 1252.797066 299.327974 
L 1253.706601 300.224026 
L 1254.161369 297.152 
L 1254.616137 314.048 
L 1255.98044 327.360013 
L 1256.435208 321.6 
L 1257.344743 303.808013 
L 1257.799511 296.896 
L 1259.618582 300.224026 
L 1260.07335 300.735987 
L 1260.528117 298.687987 
L 1260.982885 301.631987 
L 1262.347188 297.664013 
L 1262.801956 291.264013 
L 1263.256724 296.512013 
L 1263.711491 291.520026 
L 1264.166259 293.696 
L 1265.530562 296 
L 1265.98533 294.079974 
L 1266.440098 286.272026 
L 1266.894866 280.383987 
L 1267.349633 279.616013 
L 1268.713936 286.783987 
L 1269.168704 290.879974 
L 1269.623472 284.096 
L 1270.07824 286.656 
L 1270.533007 288.575974 
L 1271.897311 288.320026 
L 1272.352078 286.272026 
L 1272.806846 286.016013 
L 1273.261614 284.096 
L 1273.716381 278.079974 
L 1275.080685 278.591987 
L 1275.99022 272.960013 
L 1276.444988 252.096 
L 1276.899756 247.616013 
L 1278.264059 232.896 
L 1278.718826 239.039987 
L 1279.173594 233.408013 
L 1279.628362 230.848 
L 1280.08313 230.079974 
L 1281.447433 234.175974 
L 1281.9022 232.639987 
L 1282.356968 241.087987 
L 1282.811736 241.856 
L 1283.266504 239.168013 
L 1284.630807 237.375974 
L 1285.99511 229.183987 
L 1286.449878 224.575974 
L 1288.268949 219.2 
L 1288.723716 210.368013 
L 1289.178484 212.416013 
L 1289.633252 227.904 
L 1290.997555 236.096 
L 1291.452323 229.568013 
L 1291.90709 227.391987 
L 1292.361858 222.783987 
L 1292.816626 219.583987 
L 1294.180929 225.6 
L 1294.635697 229.952 
L 1295.090465 227.008013 
L 1295.545232 216.127974 
L 1296 231.487987 
L 1296 231.487987 
" style="fill:none;stroke:#ff0000;stroke-linecap:square;"/>
   </g>
   <g id="patch_3">
    <path d="M 180 648 
L 1296 648 
" style="fill:none;stroke:#000000;stroke-linecap:square;stroke-linejoin:miter;"/>
   </g>
   <g id="patch_4">
    <path d="M 1296 648 
L 1296 72 
" style="fill:none;stroke:#000000;stroke-linecap:square;stroke-linejoin:miter;"/>
   </g>
   <g id="patch_5">
    <path d="M 180 72 
L 1296 72 
" style="fill:none;stroke:#000000;stroke-linecap:square;stroke-linejoin:miter;"/>
   </g>
   <g id="patch_6">
    <path d="M 180 648 
L 180 72 
" style="fill:none;stroke:#000000;stroke-linecap:square;stroke-linejoin:miter;"/>
   </g>
   <g id="matplotlib.axis_1">
    <g id="xtick_1">
     <g id="line2d_3">
      <defs>
       <path d="M 0 0 
L 0 -4 
" id="mc0e530dc5a" style="stroke:#000000;stroke-width:0.5;"/>
      </defs>
      <g>
       <use style="stroke:#000000;stroke-width:0.5;" x="344.62591687" xlink:href="#mc0e530dc5a" y="648.0"/>
      </g>
     </g>
     <g id="line2d_4">
      <defs>
       <path d="M 0 0 
L 0 4 
" id="m7fa4d790a2" style="stroke:#000000;stroke-width:0.5;"/>
      </defs>
      <g>
       <use style="stroke:#000000;stroke-width:0.5;" x="344.62591687" xlink:href="#m7fa4d790a2" y="72.0"/>
      </g>
     </g>
     <g id="text_1">
      <!-- 2011 -->
      <defs>
       <path d="M 31.78125 66.40625 
Q 24.171875 66.40625 20.328125 58.90625 
Q 16.5 51.421875 16.5 36.375 
Q 16.5 21.390625 20.328125 13.890625 
Q 24.171875 6.390625 31.78125 6.390625 
Q 39.453125 6.390625 43.28125 13.890625 
Q 47.125 21.390625 47.125 36.375 
Q 47.125 51.421875 43.28125 58.90625 
Q 39.453125 66.40625 31.78125 66.40625 
M 31.78125 74.21875 
Q 44.046875 74.21875 50.515625 64.515625 
Q 56.984375 54.828125 56.984375 36.375 
Q 56.984375 17.96875 50.515625 8.265625 
Q 44.046875 -1.421875 31.78125 -1.421875 
Q 19.53125 -1.421875 13.0625 8.265625 
Q 6.59375 17.96875 6.59375 36.375 
Q 6.59375 54.828125 13.0625 64.515625 
Q 19.53125 74.21875 31.78125 74.21875 
" id="BitstreamVeraSans-Roman-30"/>
       <path d="M 19.1875 8.296875 
L 53.609375 8.296875 
L 53.609375 0 
L 7.328125 0 
L 7.328125 8.296875 
Q 12.9375 14.109375 22.625 23.890625 
Q 32.328125 33.6875 34.8125 36.53125 
Q 39.546875 41.84375 41.421875 45.53125 
Q 43.3125 49.21875 43.3125 52.78125 
Q 43.3125 58.59375 39.234375 62.25 
Q 35.15625 65.921875 28.609375 65.921875 
Q 23.96875 65.921875 18.8125 64.3125 
Q 13.671875 62.703125 7.8125 59.421875 
L 7.8125 69.390625 
Q 13.765625 71.78125 18.9375 73 
Q 24.125 74.21875 28.421875 74.21875 
Q 39.75 74.21875 46.484375 68.546875 
Q 53.21875 62.890625 53.21875 53.421875 
Q 53.21875 48.921875 51.53125 44.890625 
Q 49.859375 40.875 45.40625 35.40625 
Q 44.1875 33.984375 37.640625 27.21875 
Q 31.109375 20.453125 19.1875 8.296875 
" id="BitstreamVeraSans-Roman-32"/>
       <path d="M 12.40625 8.296875 
L 28.515625 8.296875 
L 28.515625 63.921875 
L 10.984375 60.40625 
L 10.984375 69.390625 
L 28.421875 72.90625 
L 38.28125 72.90625 
L 38.28125 8.296875 
L 54.390625 8.296875 
L 54.390625 0 
L 12.40625 0 
z
" id="BitstreamVeraSans-Roman-31"/>
      </defs>
      <g transform="translate(336.169803651 680.042529117)rotate(-45.0)scale(0.12 -0.12)">
       <use xlink:href="#BitstreamVeraSans-Roman-32"/>
       <use x="63.623046875" xlink:href="#BitstreamVeraSans-Roman-30"/>
       <use x="127.24609375" xlink:href="#BitstreamVeraSans-Roman-31"/>
       <use x="190.869140625" xlink:href="#BitstreamVeraSans-Roman-31"/>
      </g>
     </g>
    </g>
    <g id="xtick_2">
     <g id="line2d_5">
      <g>
       <use style="stroke:#000000;stroke-width:0.5;" x="510.616136919" xlink:href="#mc0e530dc5a" y="648.0"/>
      </g>
     </g>
     <g id="line2d_6">
      <g>
       <use style="stroke:#000000;stroke-width:0.5;" x="510.616136919" xlink:href="#m7fa4d790a2" y="72.0"/>
      </g>
     </g>
     <g id="text_2">
      <!-- 2012 -->
      <g transform="translate(502.1600237 680.042529117)rotate(-45.0)scale(0.12 -0.12)">
       <use xlink:href="#BitstreamVeraSans-Roman-32"/>
       <use x="63.623046875" xlink:href="#BitstreamVeraSans-Roman-30"/>
       <use x="127.24609375" xlink:href="#BitstreamVeraSans-Roman-31"/>
       <use x="190.869140625" xlink:href="#BitstreamVeraSans-Roman-32"/>
      </g>
     </g>
    </g>
    <g id="xtick_3">
     <g id="line2d_7">
      <g>
       <use style="stroke:#000000;stroke-width:0.5;" x="677.061124694" xlink:href="#mc0e530dc5a" y="648.0"/>
      </g>
     </g>
     <g id="line2d_8">
      <g>
       <use style="stroke:#000000;stroke-width:0.5;" x="677.061124694" xlink:href="#m7fa4d790a2" y="72.0"/>
      </g>
     </g>
     <g id="text_3">
      <!-- 2013 -->
      <defs>
       <path d="M 40.578125 39.3125 
Q 47.65625 37.796875 51.625 33 
Q 55.609375 28.21875 55.609375 21.1875 
Q 55.609375 10.40625 48.1875 4.484375 
Q 40.765625 -1.421875 27.09375 -1.421875 
Q 22.515625 -1.421875 17.65625 -0.515625 
Q 12.796875 0.390625 7.625 2.203125 
L 7.625 11.71875 
Q 11.71875 9.328125 16.59375 8.109375 
Q 21.484375 6.890625 26.8125 6.890625 
Q 36.078125 6.890625 40.9375 10.546875 
Q 45.796875 14.203125 45.796875 21.1875 
Q 45.796875 27.640625 41.28125 31.265625 
Q 36.765625 34.90625 28.71875 34.90625 
L 20.21875 34.90625 
L 20.21875 43.015625 
L 29.109375 43.015625 
Q 36.375 43.015625 40.234375 45.921875 
Q 44.09375 48.828125 44.09375 54.296875 
Q 44.09375 59.90625 40.109375 62.90625 
Q 36.140625 65.921875 28.71875 65.921875 
Q 24.65625 65.921875 20.015625 65.03125 
Q 15.375 64.15625 9.8125 62.3125 
L 9.8125 71.09375 
Q 15.4375 72.65625 20.34375 73.4375 
Q 25.25 74.21875 29.59375 74.21875 
Q 40.828125 74.21875 47.359375 69.109375 
Q 53.90625 64.015625 53.90625 55.328125 
Q 53.90625 49.265625 50.4375 45.09375 
Q 46.96875 40.921875 40.578125 39.3125 
" id="BitstreamVeraSans-Roman-33"/>
      </defs>
      <g transform="translate(668.605011475 680.042529117)rotate(-45.0)scale(0.12 -0.12)">
       <use xlink:href="#BitstreamVeraSans-Roman-32"/>
       <use x="63.623046875" xlink:href="#BitstreamVeraSans-Roman-30"/>
       <use x="127.24609375" xlink:href="#BitstreamVeraSans-Roman-31"/>
       <use x="190.869140625" xlink:href="#BitstreamVeraSans-Roman-33"/>
      </g>
     </g>
    </g>
    <g id="xtick_4">
     <g id="line2d_9">
      <g>
       <use style="stroke:#000000;stroke-width:0.5;" x="843.051344743" xlink:href="#mc0e530dc5a" y="648.0"/>
      </g>
     </g>
     <g id="line2d_10">
      <g>
       <use style="stroke:#000000;stroke-width:0.5;" x="843.051344743" xlink:href="#m7fa4d790a2" y="72.0"/>
      </g>
     </g>
     <g id="text_4">
      <!-- 2014 -->
      <defs>
       <path d="M 37.796875 64.3125 
L 12.890625 25.390625 
L 37.796875 25.390625 
z
M 35.203125 72.90625 
L 47.609375 72.90625 
L 47.609375 25.390625 
L 58.015625 25.390625 
L 58.015625 17.1875 
L 47.609375 17.1875 
L 47.609375 0 
L 37.796875 0 
L 37.796875 17.1875 
L 4.890625 17.1875 
L 4.890625 26.703125 
z
" id="BitstreamVeraSans-Roman-34"/>
      </defs>
      <g transform="translate(834.595231524 680.042529117)rotate(-45.0)scale(0.12 -0.12)">
       <use xlink:href="#BitstreamVeraSans-Roman-32"/>
       <use x="63.623046875" xlink:href="#BitstreamVeraSans-Roman-30"/>
       <use x="127.24609375" xlink:href="#BitstreamVeraSans-Roman-31"/>
       <use x="190.869140625" xlink:href="#BitstreamVeraSans-Roman-34"/>
      </g>
     </g>
    </g>
    <g id="xtick_5">
     <g id="line2d_11">
      <g>
       <use style="stroke:#000000;stroke-width:0.5;" x="1009.04156479" xlink:href="#mc0e530dc5a" y="648.0"/>
      </g>
     </g>
     <g id="line2d_12">
      <g>
       <use style="stroke:#000000;stroke-width:0.5;" x="1009.04156479" xlink:href="#m7fa4d790a2" y="72.0"/>
      </g>
     </g>
     <g id="text_5">
      <!-- 2015 -->
      <defs>
       <path d="M 10.796875 72.90625 
L 49.515625 72.90625 
L 49.515625 64.59375 
L 19.828125 64.59375 
L 19.828125 46.734375 
Q 21.96875 47.46875 24.109375 47.828125 
Q 26.265625 48.1875 28.421875 48.1875 
Q 40.625 48.1875 47.75 41.5 
Q 54.890625 34.8125 54.890625 23.390625 
Q 54.890625 11.625 47.5625 5.09375 
Q 40.234375 -1.421875 26.90625 -1.421875 
Q 22.3125 -1.421875 17.546875 -0.640625 
Q 12.796875 0.140625 7.71875 1.703125 
L 7.71875 11.625 
Q 12.109375 9.234375 16.796875 8.0625 
Q 21.484375 6.890625 26.703125 6.890625 
Q 35.15625 6.890625 40.078125 11.328125 
Q 45.015625 15.765625 45.015625 23.390625 
Q 45.015625 31 40.078125 35.4375 
Q 35.15625 39.890625 26.703125 39.890625 
Q 22.75 39.890625 18.8125 39.015625 
Q 14.890625 38.140625 10.796875 36.28125 
z
" id="BitstreamVeraSans-Roman-35"/>
      </defs>
      <g transform="translate(1000.58545157 680.042529117)rotate(-45.0)scale(0.12 -0.12)">
       <use xlink:href="#BitstreamVeraSans-Roman-32"/>
       <use x="63.623046875" xlink:href="#BitstreamVeraSans-Roman-30"/>
       <use x="127.24609375" xlink:href="#BitstreamVeraSans-Roman-31"/>
       <use x="190.869140625" xlink:href="#BitstreamVeraSans-Roman-35"/>
      </g>
     </g>
    </g>
    <g id="xtick_6">
     <g id="line2d_13">
      <g>
       <use style="stroke:#000000;stroke-width:0.5;" x="1175.03178484" xlink:href="#mc0e530dc5a" y="648.0"/>
      </g>
     </g>
     <g id="line2d_14">
      <g>
       <use style="stroke:#000000;stroke-width:0.5;" x="1175.03178484" xlink:href="#m7fa4d790a2" y="72.0"/>
      </g>
     </g>
     <g id="text_6">
      <!-- 2016 -->
      <defs>
       <path d="M 33.015625 40.375 
Q 26.375 40.375 22.484375 35.828125 
Q 18.609375 31.296875 18.609375 23.390625 
Q 18.609375 15.53125 22.484375 10.953125 
Q 26.375 6.390625 33.015625 6.390625 
Q 39.65625 6.390625 43.53125 10.953125 
Q 47.40625 15.53125 47.40625 23.390625 
Q 47.40625 31.296875 43.53125 35.828125 
Q 39.65625 40.375 33.015625 40.375 
M 52.59375 71.296875 
L 52.59375 62.3125 
Q 48.875 64.0625 45.09375 64.984375 
Q 41.3125 65.921875 37.59375 65.921875 
Q 27.828125 65.921875 22.671875 59.328125 
Q 17.53125 52.734375 16.796875 39.40625 
Q 19.671875 43.65625 24.015625 45.921875 
Q 28.375 48.1875 33.59375 48.1875 
Q 44.578125 48.1875 50.953125 41.515625 
Q 57.328125 34.859375 57.328125 23.390625 
Q 57.328125 12.15625 50.6875 5.359375 
Q 44.046875 -1.421875 33.015625 -1.421875 
Q 20.359375 -1.421875 13.671875 8.265625 
Q 6.984375 17.96875 6.984375 36.375 
Q 6.984375 53.65625 15.1875 63.9375 
Q 23.390625 74.21875 37.203125 74.21875 
Q 40.921875 74.21875 44.703125 73.484375 
Q 48.484375 72.75 52.59375 71.296875 
" id="BitstreamVeraSans-Roman-36"/>
      </defs>
      <g transform="translate(1166.57567162 680.042529117)rotate(-45.0)scale(0.12 -0.12)">
       <use xlink:href="#BitstreamVeraSans-Roman-32"/>
       <use x="63.623046875" xlink:href="#BitstreamVeraSans-Roman-30"/>
       <use x="127.24609375" xlink:href="#BitstreamVeraSans-Roman-31"/>
       <use x="190.869140625" xlink:href="#BitstreamVeraSans-Roman-36"/>
      </g>
     </g>
    </g>
   </g>
   <g id="matplotlib.axis_2">
    <g id="ytick_1">
     <g id="line2d_15">
      <defs>
       <path d="M 0 0 
L 4 0 
" id="m5c14a8d673" style="stroke:#000000;stroke-width:0.5;"/>
      </defs>
      <g>
       <use style="stroke:#000000;stroke-width:0.5;" x="180.0" xlink:href="#m5c14a8d673" y="648.0"/>
      </g>
     </g>
     <g id="line2d_16">
      <defs>
       <path d="M 0 0 
L -4 0 
" id="m0c922d55fe" style="stroke:#000000;stroke-width:0.5;"/>
      </defs>
      <g>
       <use style="stroke:#000000;stroke-width:0.5;" x="1296.0" xlink:href="#m0c922d55fe" y="648.0"/>
      </g>
     </g>
     <g id="text_7">
      <!-- 10 -->
      <g transform="translate(160.73 651.31125)scale(0.12 -0.12)">
       <use xlink:href="#BitstreamVeraSans-Roman-31"/>
       <use x="63.623046875" xlink:href="#BitstreamVeraSans-Roman-30"/>
      </g>
     </g>
    </g>
    <g id="ytick_2">
     <g id="line2d_17">
      <g>
       <use style="stroke:#000000;stroke-width:0.5;" x="180.0" xlink:href="#m5c14a8d673" y="584.0"/>
      </g>
     </g>
     <g id="line2d_18">
      <g>
       <use style="stroke:#000000;stroke-width:0.5;" x="1296.0" xlink:href="#m0c922d55fe" y="584.0"/>
      </g>
     </g>
     <g id="text_8">
      <!-- 15 -->
      <g transform="translate(160.73 587.31125)scale(0.12 -0.12)">
       <use xlink:href="#BitstreamVeraSans-Roman-31"/>
       <use x="63.623046875" xlink:href="#BitstreamVeraSans-Roman-35"/>
      </g>
     </g>
    </g>
    <g id="ytick_3">
     <g id="line2d_19">
      <g>
       <use style="stroke:#000000;stroke-width:0.5;" x="180.0" xlink:href="#m5c14a8d673" y="520.0"/>
      </g>
     </g>
     <g id="line2d_20">
      <g>
       <use style="stroke:#000000;stroke-width:0.5;" x="1296.0" xlink:href="#m0c922d55fe" y="520.0"/>
      </g>
     </g>
     <g id="text_9">
      <!-- 20 -->
      <g transform="translate(160.73 523.31125)scale(0.12 -0.12)">
       <use xlink:href="#BitstreamVeraSans-Roman-32"/>
       <use x="63.623046875" xlink:href="#BitstreamVeraSans-Roman-30"/>
      </g>
     </g>
    </g>
    <g id="ytick_4">
     <g id="line2d_21">
      <g>
       <use style="stroke:#000000;stroke-width:0.5;" x="180.0" xlink:href="#m5c14a8d673" y="456.0"/>
      </g>
     </g>
     <g id="line2d_22">
      <g>
       <use style="stroke:#000000;stroke-width:0.5;" x="1296.0" xlink:href="#m0c922d55fe" y="456.0"/>
      </g>
     </g>
     <g id="text_10">
      <!-- 25 -->
      <g transform="translate(160.73 459.31125)scale(0.12 -0.12)">
       <use xlink:href="#BitstreamVeraSans-Roman-32"/>
       <use x="63.623046875" xlink:href="#BitstreamVeraSans-Roman-35"/>
      </g>
     </g>
    </g>
    <g id="ytick_5">
     <g id="line2d_23">
      <g>
       <use style="stroke:#000000;stroke-width:0.5;" x="180.0" xlink:href="#m5c14a8d673" y="392.0"/>
      </g>
     </g>
     <g id="line2d_24">
      <g>
       <use style="stroke:#000000;stroke-width:0.5;" x="1296.0" xlink:href="#m0c922d55fe" y="392.0"/>
      </g>
     </g>
     <g id="text_11">
      <!-- 30 -->
      <g transform="translate(160.73 395.31125)scale(0.12 -0.12)">
       <use xlink:href="#BitstreamVeraSans-Roman-33"/>
       <use x="63.623046875" xlink:href="#BitstreamVeraSans-Roman-30"/>
      </g>
     </g>
    </g>
    <g id="ytick_6">
     <g id="line2d_25">
      <g>
       <use style="stroke:#000000;stroke-width:0.5;" x="180.0" xlink:href="#m5c14a8d673" y="328.0"/>
      </g>
     </g>
     <g id="line2d_26">
      <g>
       <use style="stroke:#000000;stroke-width:0.5;" x="1296.0" xlink:href="#m0c922d55fe" y="328.0"/>
      </g>
     </g>
     <g id="text_12">
      <!-- 35 -->
      <g transform="translate(160.73 331.31125)scale(0.12 -0.12)">
       <use xlink:href="#BitstreamVeraSans-Roman-33"/>
       <use x="63.623046875" xlink:href="#BitstreamVeraSans-Roman-35"/>
      </g>
     </g>
    </g>
    <g id="ytick_7">
     <g id="line2d_27">
      <g>
       <use style="stroke:#000000;stroke-width:0.5;" x="180.0" xlink:href="#m5c14a8d673" y="264.0"/>
      </g>
     </g>
     <g id="line2d_28">
      <g>
       <use style="stroke:#000000;stroke-width:0.5;" x="1296.0" xlink:href="#m0c922d55fe" y="264.0"/>
      </g>
     </g>
     <g id="text_13">
      <!-- 40 -->
      <g transform="translate(160.73 267.31125)scale(0.12 -0.12)">
       <use xlink:href="#BitstreamVeraSans-Roman-34"/>
       <use x="63.623046875" xlink:href="#BitstreamVeraSans-Roman-30"/>
      </g>
     </g>
    </g>
    <g id="ytick_8">
     <g id="line2d_29">
      <g>
       <use style="stroke:#000000;stroke-width:0.5;" x="180.0" xlink:href="#m5c14a8d673" y="200.0"/>
      </g>
     </g>
     <g id="line2d_30">
      <g>
       <use style="stroke:#000000;stroke-width:0.5;" x="1296.0" xlink:href="#m0c922d55fe" y="200.0"/>
      </g>
     </g>
     <g id="text_14">
      <!-- 45 -->
      <g transform="translate(160.73 203.31125)scale(0.12 -0.12)">
       <use xlink:href="#BitstreamVeraSans-Roman-34"/>
       <use x="63.623046875" xlink:href="#BitstreamVeraSans-Roman-35"/>
      </g>
     </g>
    </g>
    <g id="ytick_9">
     <g id="line2d_31">
      <g>
       <use style="stroke:#000000;stroke-width:0.5;" x="180.0" xlink:href="#m5c14a8d673" y="136.0"/>
      </g>
     </g>
     <g id="line2d_32">
      <g>
       <use style="stroke:#000000;stroke-width:0.5;" x="1296.0" xlink:href="#m0c922d55fe" y="136.0"/>
      </g>
     </g>
     <g id="text_15">
      <!-- 50 -->
      <g transform="translate(160.73 139.31125)scale(0.12 -0.12)">
       <use xlink:href="#BitstreamVeraSans-Roman-35"/>
       <use x="63.623046875" xlink:href="#BitstreamVeraSans-Roman-30"/>
      </g>
     </g>
    </g>
    <g id="ytick_10">
     <g id="line2d_33">
      <g>
       <use style="stroke:#000000;stroke-width:0.5;" x="180.0" xlink:href="#m5c14a8d673" y="72.0"/>
      </g>
     </g>
     <g id="line2d_34">
      <g>
       <use style="stroke:#000000;stroke-width:0.5;" x="1296.0" xlink:href="#m0c922d55fe" y="72.0"/>
      </g>
     </g>
     <g id="text_16">
      <!-- 55 -->
      <g transform="translate(160.73 75.31125)scale(0.12 -0.12)">
       <use xlink:href="#BitstreamVeraSans-Roman-35"/>
       <use x="63.623046875" xlink:href="#BitstreamVeraSans-Roman-35"/>
      </g>
     </g>
    </g>
   </g>
   <g id="text_17">
    <!-- YHOO -->
    <defs>
     <path d="M 39.40625 66.21875 
Q 28.65625 66.21875 22.328125 58.203125 
Q 16.015625 50.203125 16.015625 36.375 
Q 16.015625 22.609375 22.328125 14.59375 
Q 28.65625 6.59375 39.40625 6.59375 
Q 50.140625 6.59375 56.421875 14.59375 
Q 62.703125 22.609375 62.703125 36.375 
Q 62.703125 50.203125 56.421875 58.203125 
Q 50.140625 66.21875 39.40625 66.21875 
M 39.40625 74.21875 
Q 54.734375 74.21875 63.90625 63.9375 
Q 73.09375 53.65625 73.09375 36.375 
Q 73.09375 19.140625 63.90625 8.859375 
Q 54.734375 -1.421875 39.40625 -1.421875 
Q 24.03125 -1.421875 14.8125 8.828125 
Q 5.609375 19.09375 5.609375 36.375 
Q 5.609375 53.65625 14.8125 63.9375 
Q 24.03125 74.21875 39.40625 74.21875 
" id="BitstreamVeraSans-Roman-4f"/>
     <path d="M 9.8125 72.90625 
L 19.671875 72.90625 
L 19.671875 43.015625 
L 55.515625 43.015625 
L 55.515625 72.90625 
L 65.375 72.90625 
L 65.375 0 
L 55.515625 0 
L 55.515625 34.71875 
L 19.671875 34.71875 
L 19.671875 0 
L 9.8125 0 
z
" id="BitstreamVeraSans-Roman-48"/>
     <path d="M -0.203125 72.90625 
L 10.40625 72.90625 
L 30.609375 42.921875 
L 50.6875 72.90625 
L 61.28125 72.90625 
L 35.5 34.71875 
L 35.5 0 
L 25.59375 0 
L 25.59375 34.71875 
z
" id="BitstreamVeraSans-Roman-59"/>
    </defs>
    <g transform="translate(716.85225 67.0)scale(0.144 -0.144)">
     <use xlink:href="#BitstreamVeraSans-Roman-59"/>
     <use x="61.083984375" xlink:href="#BitstreamVeraSans-Roman-48"/>
     <use x="136.279296875" xlink:href="#BitstreamVeraSans-Roman-4f"/>
     <use x="214.990234375" xlink:href="#BitstreamVeraSans-Roman-4f"/>
    </g>
   </g>
   <g id="legend_1">
    <g id="patch_7">
     <path d="M 1203.8625 125.793 
L 1288.8 125.793 
L 1288.8 79.2 
L 1203.8625 79.2 
z
" style="fill:#ffffff;stroke:#000000;stroke-linejoin:miter;"/>
    </g>
    <g id="line2d_35">
     <path d="M 1213.9425 90.86175 
L 1234.1025 90.86175 
" style="fill:none;stroke:#0000ff;stroke-linecap:square;"/>
    </g>
    <g id="line2d_36"/>
    <g id="text_18">
     <!-- High -->
     <defs>
      <path d="M 45.40625 27.984375 
Q 45.40625 37.75 41.375 43.109375 
Q 37.359375 48.484375 30.078125 48.484375 
Q 22.859375 48.484375 18.828125 43.109375 
Q 14.796875 37.75 14.796875 27.984375 
Q 14.796875 18.265625 18.828125 12.890625 
Q 22.859375 7.515625 30.078125 7.515625 
Q 37.359375 7.515625 41.375 12.890625 
Q 45.40625 18.265625 45.40625 27.984375 
M 54.390625 6.78125 
Q 54.390625 -7.171875 48.1875 -13.984375 
Q 42 -20.796875 29.203125 -20.796875 
Q 24.46875 -20.796875 20.265625 -20.09375 
Q 16.0625 -19.390625 12.109375 -17.921875 
L 12.109375 -9.1875 
Q 16.0625 -11.328125 19.921875 -12.34375 
Q 23.78125 -13.375 27.78125 -13.375 
Q 36.625 -13.375 41.015625 -8.765625 
Q 45.40625 -4.15625 45.40625 5.171875 
L 45.40625 9.625 
Q 42.625 4.78125 38.28125 2.390625 
Q 33.9375 0 27.875 0 
Q 17.828125 0 11.671875 7.65625 
Q 5.515625 15.328125 5.515625 27.984375 
Q 5.515625 40.671875 11.671875 48.328125 
Q 17.828125 56 27.875 56 
Q 33.9375 56 38.28125 53.609375 
Q 42.625 51.21875 45.40625 46.390625 
L 45.40625 54.6875 
L 54.390625 54.6875 
z
" id="BitstreamVeraSans-Roman-67"/>
      <path d="M 9.421875 54.6875 
L 18.40625 54.6875 
L 18.40625 0 
L 9.421875 0 
z
M 9.421875 75.984375 
L 18.40625 75.984375 
L 18.40625 64.59375 
L 9.421875 64.59375 
z
" id="BitstreamVeraSans-Roman-69"/>
      <path d="M 54.890625 33.015625 
L 54.890625 0 
L 45.90625 0 
L 45.90625 32.71875 
Q 45.90625 40.484375 42.875 44.328125 
Q 39.84375 48.1875 33.796875 48.1875 
Q 26.515625 48.1875 22.3125 43.546875 
Q 18.109375 38.921875 18.109375 30.90625 
L 18.109375 0 
L 9.078125 0 
L 9.078125 75.984375 
L 18.109375 75.984375 
L 18.109375 46.1875 
Q 21.34375 51.125 25.703125 53.5625 
Q 30.078125 56 35.796875 56 
Q 45.21875 56 50.046875 50.171875 
Q 54.890625 44.34375 54.890625 33.015625 
" id="BitstreamVeraSans-Roman-68"/>
     </defs>
     <g transform="translate(1249.9425 95.90175)scale(0.144 -0.144)">
      <use xlink:href="#BitstreamVeraSans-Roman-48"/>
      <use x="75.1953125" xlink:href="#BitstreamVeraSans-Roman-69"/>
      <use x="102.978515625" xlink:href="#BitstreamVeraSans-Roman-67"/>
      <use x="166.455078125" xlink:href="#BitstreamVeraSans-Roman-68"/>
     </g>
    </g>
    <g id="line2d_37">
     <path d="M 1213.9425 111.99825 
L 1234.1025 111.99825 
" style="fill:none;stroke:#ff0000;stroke-linecap:square;"/>
    </g>
    <g id="line2d_38"/>
    <g id="text_19">
     <!-- Low -->
     <defs>
      <path d="M 9.8125 72.90625 
L 19.671875 72.90625 
L 19.671875 8.296875 
L 55.171875 8.296875 
L 55.171875 0 
L 9.8125 0 
z
" id="BitstreamVeraSans-Roman-4c"/>
      <path d="M 4.203125 54.6875 
L 13.1875 54.6875 
L 24.421875 12.015625 
L 35.59375 54.6875 
L 46.1875 54.6875 
L 57.421875 12.015625 
L 68.609375 54.6875 
L 77.59375 54.6875 
L 63.28125 0 
L 52.6875 0 
L 40.921875 44.828125 
L 29.109375 0 
L 18.5 0 
z
" id="BitstreamVeraSans-Roman-77"/>
      <path d="M 30.609375 48.390625 
Q 23.390625 48.390625 19.1875 42.75 
Q 14.984375 37.109375 14.984375 27.296875 
Q 14.984375 17.484375 19.15625 11.84375 
Q 23.34375 6.203125 30.609375 6.203125 
Q 37.796875 6.203125 41.984375 11.859375 
Q 46.1875 17.53125 46.1875 27.296875 
Q 46.1875 37.015625 41.984375 42.703125 
Q 37.796875 48.390625 30.609375 48.390625 
M 30.609375 56 
Q 42.328125 56 49.015625 48.375 
Q 55.71875 40.765625 55.71875 27.296875 
Q 55.71875 13.875 49.015625 6.21875 
Q 42.328125 -1.421875 30.609375 -1.421875 
Q 18.84375 -1.421875 12.171875 6.21875 
Q 5.515625 13.875 5.515625 27.296875 
Q 5.515625 40.765625 12.171875 48.375 
Q 18.84375 56 30.609375 56 
" id="BitstreamVeraSans-Roman-6f"/>
     </defs>
     <g transform="translate(1249.9425 117.03825)scale(0.144 -0.144)">
      <use xlink:href="#BitstreamVeraSans-Roman-4c"/>
      <use x="55.697265625" xlink:href="#BitstreamVeraSans-Roman-6f"/>
      <use x="116.87890625" xlink:href="#BitstreamVeraSans-Roman-77"/>
     </g>
    </g>
   </g>
  </g>
 </g>
 <defs>
  <clipPath id="p333c744ace">
   <rect height="576.0" width="1116.0" x="180.0" y="72.0"/>
  </clipPath>
 </defs>
</svg>
