<?xml version="1.0" encoding="utf-8" standalone="no"?>
<!DOCTYPE svg PUBLIC "-//W3C//DTD SVG 1.1//EN"
  "http://www.w3.org/Graphics/SVG/1.1/DTD/svg11.dtd">
<!-- Created with matplotlib (http://matplotlib.org/) -->
<svg height="720pt" version="1.1" viewBox="0 0 1440 720" width="1440pt" xmlns="http://www.w3.org/2000/svg" xmlns:xlink="http://www.w3.org/1999/xlink">
 <defs>
  <style type="text/css">
*{stroke-linecap:butt;stroke-linejoin:round;stroke-miterlimit:100000;}
  </style>
 </defs>
 <g id="figure_1">
  <g id="patch_1">
   <path d="M 0 720 
L 1440 720 
L 1440 0 
L 0 0 
z
" style="fill:#ffffff;"/>
  </g>
  <g id="axes_1">
   <g id="patch_2">
    <path d="M 180 648 
L 1296 648 
L 1296 72 
L 180 72 
z
" style="fill:#ffffff;"/>
   </g>
   <g id="line2d_1">
    <path clip-path="url(#p5a7988aa6e)" d="M 180 318.116571 
L 181.172269 344.03658 
L 184.689076 376.457143 
L 185.861345 370.038865 
L 187.033613 377.526865 
L 188.205882 354.486874 
L 189.378151 357.778286 
L 192.894958 368.639992 
L 194.067227 385.508555 
L 195.239496 386.742857 
L 196.411765 380.653698 
L 197.584034 382.381723 
L 201.10084 391.762294 
L 202.273109 396.617151 
L 203.445378 389.622841 
L 205.789916 388.141698 
L 209.306723 384.685714 
L 210.478992 387.977159 
L 212.823529 348.891445 
L 213.995798 353.417151 
L 217.512605 320.173714 
L 218.684874 297.627412 
L 219.857143 287.01258 
L 221.029412 270.555437 
L 222.201681 241.426286 
L 225.718487 234.596555 
L 226.890756 258.130277 
L 228.063025 261.257143 
L 229.235294 255.085714 
L 230.407563 234.514286 
L 233.92437 195.510874 
L 235.096639 147.126832 
L 237.441176 115.364547 
L 238.613445 144 
L 242.130252 206.043437 
L 243.302521 193.618277 
L 245.647059 174.857143 
L 246.819328 150.747429 
L 250.336134 180.041118 
L 251.508403 172.964547 
L 252.680672 226.203445 
L 253.852941 229.906277 
L 255.02521 246.774874 
L 258.542017 233.444563 
L 259.714286 244.635429 
L 260.886555 222.171429 
L 262.058824 216.822841 
L 263.231092 197.979412 
L 267.920168 208.265151 
L 269.092437 205.302865 
L 270.264706 213.449135 
L 271.436975 206.784008 
L 274.953782 222.006857 
L 276.12605 229.577159 
L 277.298319 228.754277 
L 278.470588 193.453731 
L 279.642857 192.383975 
L 283.159664 183.250261 
L 284.331933 184.155404 
L 285.504202 176.996588 
L 286.676471 286.765698 
L 287.848739 278.372588 
L 291.365546 281.088 
L 292.537815 282.651412 
L 293.710084 261.257143 
L 294.882353 244.964571 
L 296.054622 254.180563 
L 300.743697 247.762294 
L 301.915966 245.21142 
L 303.088235 260.598841 
L 304.260504 259.61142 
L 307.777311 265.453698 
L 308.94958 269.897135 
L 310.121849 261.339412 
L 311.294118 263.808008 
L 312.466387 269.485714 
L 315.983193 282.651412 
L 317.155462 275.410294 
L 318.327731 277.467437 
L 319.5 268.745143 
L 320.672269 276.068563 
L 324.189076 281.088 
L 325.361345 270.802286 
L 326.533613 275.245723 
L 327.705882 274.01142 
L 328.878151 286.683429 
L 332.394958 298.367984 
L 333.567227 300.672008 
L 334.739496 302.564571 
L 335.911765 305.197714 
L 337.084034 311.286874 
L 340.60084 311.122294 
L 341.773109 321.325706 
L 342.945378 332.845723 
L 344.117647 348.479984 
L 345.289916 340.745143 
L 348.806723 337.371429 
L 351.151261 339.922294 
L 352.323529 354.980563 
L 353.495798 361.069723 
L 357.012605 363.291445 
L 358.184874 373.001159 
L 359.357143 375.96342 
L 360.529412 374.4 
L 361.701681 392.091445 
L 365.218487 385.097135 
L 366.390756 355.474294 
L 367.563025 355.391992 
L 368.735294 347.245723 
L 373.42437 349.302865 
L 374.596639 342.802286 
L 375.768908 350.372588 
L 376.941176 345.270849 
L 378.113445 364.608008 
L 381.630252 381.805731 
L 382.802521 368.47542 
L 383.97479 409.536 
L 385.147059 394.806857 
L 386.319328 402.294849 
L 389.836134 404.434302 
L 391.008403 433.234302 
L 392.180672 466.971429 
L 393.352941 458.907429 
L 394.52521 457.837706 
L 398.042017 449.691445 
L 399.214286 450.020563 
L 400.386555 451.913126 
L 401.558824 456.356563 
L 402.731092 457.014865 
L 406.247899 463.350865 
L 407.420168 463.762294 
L 408.592437 467.382849 
L 409.764706 464.914286 
L 410.936975 469.604571 
L 415.62605 473.554277 
L 416.798319 451.830857 
L 417.970588 441.133723 
L 419.142857 451.666277 
L 422.659664 457.097135 
L 423.831933 461.293723 
L 425.004202 456.109714 
L 426.176471 443.190865 
L 427.348739 447.140571 
L 430.865546 445.98858 
L 432.037815 438.171429 
L 433.210084 434.303992 
L 434.382353 423.606857 
L 435.554622 423.771429 
L 439.071429 416.201159 
L 440.243697 413.074294 
L 441.415966 410.770269 
L 442.588235 406.902865 
L 443.760504 407.396555 
L 447.277311 404.598841 
L 448.44958 404.105151 
L 449.621849 404.516571 
L 450.794118 384.685714 
L 451.966387 391.679984 
L 455.483193 390.116571 
L 456.655462 376.868563 
L 457.827731 377.855984 
L 459 384.685714 
L 463.689076 389.21142 
L 464.861345 400.813706 
L 466.033613 414.720016 
L 467.205882 416.777159 
L 468.378151 411.09942 
L 471.894958 406.244563 
L 473.067227 409.453698 
L 474.239496 413.321143 
L 475.411765 424.429731 
L 476.584034 425.170269 
L 480.10084 415.213706 
L 481.273109 412.662874 
L 482.445378 416.03658 
L 483.617647 409.371429 
L 484.789916 411.017151 
L 488.306723 413.979437 
L 489.478992 410.029731 
L 490.651261 335.314286 
L 491.823529 353.088 
L 492.995798 355.556563 
L 496.512605 363.867437 
L 497.684874 364.278857 
L 498.857143 367.89942 
L 500.029412 365.184008 
L 501.201681 373.494849 
L 504.718487 371.520016 
L 505.890756 362.303992 
L 507.063025 365.430857 
L 508.235294 357.202286 
L 509.407563 355.885714 
L 512.92437 357.284555 
L 514.096639 356.297135 
L 515.268908 358.272008 
L 516.441176 357.120016 
L 517.613445 350.619437 
L 521.130252 348.809135 
L 522.302521 333.668563 
L 523.47479 331.529151 
L 524.647059 319.844563 
L 525.819328 315.977159 
L 530.508403 307.830857 
L 531.680672 303.634302 
L 532.852941 311.780563 
L 534.02521 311.615992 
L 537.542017 296.804571 
L 538.714286 299.108555 
L 539.886555 291.455984 
L 541.058824 288.905151 
L 542.231092 295.652571 
L 545.747899 302.976 
L 546.920168 311.369143 
L 548.092437 305.691445 
L 549.264706 303.38742 
L 550.436975 294.171429 
L 553.953782 294.994269 
L 555.12605 297.791992 
L 556.298319 291.373714 
L 557.470588 292.278857 
L 558.642857 297.380563 
L 562.159664 300.918857 
L 563.331933 300.83658 
L 564.504202 308.242277 
L 565.676471 301.577159 
L 566.848739 279.936 
L 570.365546 282.239992 
L 571.537815 277.796555 
L 572.710084 272.201159 
L 573.882353 269.567984 
L 575.054622 272.283429 
L 578.571429 303.140571 
L 579.743697 322.72458 
L 580.915966 314.578286 
L 582.088235 320.338286 
L 583.260504 316.8 
L 586.777311 311.533723 
L 587.94958 301.165698 
L 589.121849 303.716571 
L 590.294118 315.565698 
L 591.466387 317.293723 
L 594.983193 316.882269 
L 596.155462 363.455984 
L 597.327731 366.912 
L 598.5 380.736 
L 599.672269 377.691445 
L 603.189076 391.268563 
L 604.361345 392.091445 
L 605.533613 386.331437 
L 606.705882 390.034302 
L 607.878151 395.053698 
L 611.394958 395.465151 
L 612.567227 402.459429 
L 613.739496 376.950865 
L 614.911765 368.639992 
L 616.084034 385.920016 
L 619.60084 387.318857 
L 620.773109 391.515445 
L 621.945378 397.27542 
L 623.117647 396.617151 
L 624.289916 398.838865 
L 627.806723 397.27542 
L 628.978992 398.674294 
L 630.151261 388.306277 
L 632.495798 384.027412 
L 636.012605 390.527992 
L 637.184874 406.079984 
L 638.357143 405.915445 
L 639.529412 403.940571 
L 640.701681 408.795429 
L 644.218487 416.61258 
L 645.390756 425.088 
L 646.563025 419.410294 
L 647.735294 423.936 
L 648.907563 419.986294 
L 652.42437 414.473135 
L 653.596639 428.214865 
L 654.768908 434.879984 
L 655.941176 423.606857 
L 657.113445 422.125706 
L 661.802521 407.314286 
L 662.97479 414.720016 
L 665.319328 416.777159 
L 668.836134 421.632016 
L 670.008403 432.082269 
L 671.180672 430.025126 
L 677.042017 424.92342 
L 678.214286 405.668563 
L 679.386555 408.548588 
L 680.558824 407.808008 
L 681.731092 398.345143 
L 685.247899 393.325706 
L 686.420168 398.262874 
L 687.592437 399.661714 
L 688.764706 403.61142 
L 689.936975 416.530277 
L 694.62605 416.448008 
L 695.798319 415.378286 
L 696.970588 407.314286 
L 698.142857 401.389706 
L 701.659664 400.073135 
L 702.831933 404.351992 
L 704.004202 411.181723 
L 705.176471 421.138286 
L 706.348739 416.365698 
L 709.865546 417.024 
L 711.037815 399.579437 
L 712.210084 394.313126 
L 713.382353 380.818277 
L 714.554622 331.2 
L 718.071429 337.865151 
L 719.243697 340.333723 
L 720.415966 337.12458 
L 721.588235 331.61142 
L 722.760504 328.566857 
L 727.44958 326.345143 
L 728.621849 328.813706 
L 729.794118 327.579437 
L 730.966387 319.844563 
L 734.483193 325.110841 
L 735.655462 324.617151 
L 736.827731 325.604571 
L 738 318.774874 
L 739.172269 319.679984 
L 742.689076 332.845723 
L 743.861345 328.731437 
L 745.033613 336.548588 
L 746.205882 331.776 
L 747.378151 334.738286 
L 750.894958 334.655984 
L 752.067227 341.403445 
L 753.239496 345.682269 
L 754.411765 340.909714 
L 755.584034 337.618277 
L 759.10084 342.966857 
L 760.273109 341.156563 
L 761.445378 340.333723 
L 762.617647 334.079984 
L 763.789916 325.851412 
L 767.306723 325.028571 
L 768.478992 304.127992 
L 769.651261 303.469723 
L 770.823529 311.451412 
L 771.995798 311.533723 
L 775.512605 313.014865 
L 776.684874 308.653698 
L 777.857143 304.950865 
L 779.029412 311.039992 
L 783.718487 309.312 
L 784.890756 291.867437 
L 786.063025 290.139412 
L 788.407563 298.697135 
L 791.92437 300.013706 
L 793.096639 303.96342 
L 794.268908 303.469723 
L 795.441176 299.602286 
L 796.613445 301.083429 
L 800.130252 306.678857 
L 801.302521 303.634302 
L 802.47479 301.659429 
L 803.647059 300.754277 
L 804.819328 302.729151 
L 808.336134 297.956563 
L 809.508403 300.589706 
L 810.680672 392.173714 
L 811.852941 403.282269 
L 813.02521 407.396555 
L 816.542017 409.70058 
L 817.714286 412.580563 
L 818.886555 419.410294 
L 820.058824 418.58742 
L 821.231092 415.954277 
L 824.747899 418.751992 
L 825.920168 419.245723 
L 827.092437 415.954277 
L 828.264706 416.859429 
L 829.436975 419.245723 
L 832.953782 421.138286 
L 834.12605 418.58742 
L 835.298319 418.093723 
L 836.470588 426.322294 
L 837.642857 425.993143 
L 842.331933 427.227412 
L 843.504202 428.708555 
L 844.676471 423.113126 
L 845.848739 425.252571 
L 849.365546 427.227412 
L 850.537815 429.120016 
L 852.882353 419.327992 
L 854.054622 423.936 
L 857.571429 425.993143 
L 858.743697 429.942857 
L 859.915966 432.658302 
L 861.088235 432.658302 
L 862.260504 423.771429 
L 865.777311 440.146302 
L 866.94958 440.639992 
L 869.294118 441.956563 
L 870.466387 431.753151 
L 873.983193 434.057143 
L 875.155462 432.41142 
L 876.327731 436.114286 
L 877.5 439.32342 
L 878.672269 439.570269 
L 882.189076 441.545143 
L 883.361345 430.601159 
L 884.533613 433.151992 
L 885.705882 434.303992 
L 890.394958 436.608008 
L 891.567227 436.361135 
L 892.739496 433.645723 
L 893.911765 438.747429 
L 895.084034 441.298294 
L 898.60084 432.905151 
L 899.773109 410.852571 
L 900.945378 425.088 
L 902.117647 430.354277 
L 903.289916 428.626286 
L 906.806723 434.139412 
L 907.978992 427.885714 
L 909.151261 431.01258 
L 910.323529 428.050286 
L 911.495798 430.683429 
L 915.012605 441.051412 
L 916.184874 428.544016 
L 917.357143 456.767984 
L 918.529412 468.370286 
L 919.701681 470.098277 
L 923.218487 474.459429 
L 924.390756 484.251429 
L 925.563025 487.542857 
L 926.735294 496.347429 
L 927.907563 500.708571 
L 931.42437 486.473151 
L 932.596639 484.333723 
L 933.768908 487.542857 
L 934.941176 486.72 
L 936.113445 489.435429 
L 939.630252 488.859429 
L 940.802521 491.657143 
L 941.97479 499.145143 
L 943.147059 504.164571 
L 944.319328 510.253714 
L 947.836134 514.450286 
L 949.008403 513.627429 
L 950.180672 522.185135 
L 951.352941 509.760008 
L 952.52521 508.690286 
L 956.042017 495.853714 
L 957.214286 498.898277 
L 958.386555 501.284571 
L 959.558824 491.657143 
L 960.731092 495.360008 
L 965.420168 498.239992 
L 966.592437 501.12 
L 967.764706 501.284571 
L 968.936975 502.765714 
L 972.453782 503.58858 
L 973.62605 503.58858 
L 974.798319 499.885714 
L 975.970588 500.461714 
L 977.142857 497.828571 
L 980.659664 499.145143 
L 981.831933 504.164571 
L 983.004202 505.810277 
L 984.176471 511.07658 
L 985.348739 508.854857 
L 988.865546 519.551992 
L 990.037815 518.317714 
L 991.210084 505.398857 
L 992.382353 509.430857 
L 993.554622 512.393143 
L 997.071429 497.828571 
L 998.243697 496.594286 
L 1000.588235 471.085714 
L 1001.760504 471.826286 
L 1005.277311 477.092571 
L 1006.44958 477.833143 
L 1007.621849 484.909714 
L 1008.794118 481.124563 
L 1009.966387 471.908571 
L 1013.483193 470.262857 
L 1014.655462 471.990865 
L 1015.827731 486.226286 
L 1017 485.074294 
L 1018.172269 477.504008 
L 1021.689076 473.389723 
L 1022.861345 468.041135 
L 1024.033613 472.402286 
L 1025.205882 477.668563 
L 1026.378151 486.966857 
L 1029.894958 489.270849 
L 1031.067227 486.473151 
L 1032.239496 482.194286 
L 1033.411765 487.131437 
L 1034.584034 494.125706 
L 1038.10084 498.157723 
L 1039.273109 506.715429 
L 1040.445378 506.962294 
L 1041.617647 511.32342 
L 1042.789916 515.026286 
L 1046.306723 518.153135 
L 1047.478992 518.893706 
L 1048.651261 515.602286 
L 1049.823529 511.570286 
L 1050.995798 510.582849 
L 1054.512605 514.121143 
L 1055.684874 520.045723 
L 1056.857143 512.969143 
L 1059.201681 515.766857 
L 1062.718487 517.824 
L 1063.890756 519.798857 
L 1065.063025 518.646865 
L 1066.235294 515.849151 
L 1067.407563 517.577143 
L 1070.92437 523.254857 
L 1072.096639 523.748571 
L 1073.268908 524.736 
L 1074.441176 514.285714 
L 1075.613445 514.697135 
L 1079.130252 525.065135 
L 1080.302521 527.122277 
L 1081.47479 528.850286 
L 1082.647059 526.628571 
L 1083.819328 537.407992 
L 1087.336134 540.69942 
L 1088.508403 543.744 
L 1089.680672 541.439992 
L 1090.852941 540.534865 
L 1095.542017 538.395429 
L 1096.714286 542.509714 
L 1097.886555 541.522277 
L 1099.058824 538.724563 
L 1103.747899 542.345143 
L 1104.920168 541.028571 
L 1106.092437 547.776 
L 1108.436975 559.789723 
L 1111.953782 564.068563 
L 1113.12605 562.340571 
L 1115.470588 572.626286 
L 1116.642857 577.810277 
L 1121.331933 580.690286 
L 1122.504202 573.613706 
L 1123.676471 579.538286 
L 1124.848739 577.563437 
L 1128.365546 586.697135 
L 1129.537815 588.095992 
L 1130.710084 585.298277 
L 1133.054622 589.824 
L 1136.571429 575.835429 
L 1137.743697 588.178286 
L 1138.915966 592.539429 
L 1140.088235 588.918857 
L 1141.260504 593.362294 
L 1144.777311 602.331429 
L 1145.94958 602.331429 
L 1147.121849 604.553143 
L 1148.294118 608.585143 
L 1149.466387 599.122286 
L 1154.155462 595.337143 
L 1155.327731 585.462857 
L 1156.5 577.645723 
L 1157.672269 574.930294 
L 1161.189076 576.576 
L 1162.361345 574.272008 
L 1163.533613 581.430857 
L 1164.705882 582.582849 
L 1165.878151 581.924563 
L 1169.394958 577.481143 
L 1170.567227 578.221714 
L 1171.739496 576.082286 
L 1172.911765 570.322277 
L 1174.084034 563.081143 
L 1177.60084 567.936 
L 1178.773109 572.708571 
L 1179.945378 576.082286 
L 1181.117647 584.064 
L 1182.289916 590.893706 
L 1185.806723 587.766857 
L 1188.151261 592.292571 
L 1189.323529 589.165714 
L 1190.495798 587.273151 
L 1194.012605 589.98858 
L 1195.184874 590.317714 
L 1196.357143 591.140571 
L 1197.529412 598.710857 
L 1202.218487 598.546286 
L 1203.390756 598.710857 
L 1204.563025 592.704008 
L 1205.735294 591.716571 
L 1206.907563 595.090286 
L 1210.42437 585.956563 
L 1211.596639 583.570286 
L 1212.768908 586.450286 
L 1213.941176 585.545143 
L 1215.113445 588.342857 
L 1218.630252 590.564571 
L 1219.802521 592.292571 
L 1220.97479 587.108571 
L 1222.147059 584.639992 
L 1223.319328 582.912 
L 1226.836134 584.475437 
L 1228.008403 587.190865 
L 1229.180672 586.121143 
L 1230.352941 584.064 
L 1231.52521 586.203429 
L 1235.042017 584.228571 
L 1236.214286 582.336 
L 1237.386555 604.553143 
L 1238.558824 606.116571 
L 1239.731092 607.433143 
L 1243.247899 608.749714 
L 1244.420168 613.028571 
L 1245.592437 607.844571 
L 1246.764706 607.021714 
L 1247.936975 611.794286 
L 1251.453782 611.218286 
L 1252.62605 609.408 
L 1253.798319 608.009143 
L 1254.970588 609.490286 
L 1256.142857 612.781714 
L 1259.659664 612.041143 
L 1260.831933 610.230857 
L 1262.004202 610.395429 
L 1263.176471 612.534857 
L 1264.348739 610.889143 
L 1267.865546 610.148571 
L 1269.037815 613.275429 
L 1270.210084 610.395429 
L 1271.382353 611.136 
L 1272.554622 606.034286 
L 1277.243697 602.825143 
L 1278.415966 605.046857 
L 1279.588235 604.717714 
L 1280.760504 603.977143 
L 1284.277311 603.154286 
L 1285.44958 603.812571 
L 1287.794118 608.009143 
L 1288.966387 611.382857 
L 1292.483193 604.388571 
L 1293.655462 603.401143 
L 1294.827731 595.007992 
L 1296 599.04 
L 1296 599.04 
" style="fill:none;stroke:#0000ff;stroke-linecap:square;"/>
   </g>
   <g id="line2d_2">
    <path clip-path="url(#p5a7988aa6e)" d="M 180 368.228571 
L 181.172269 395.465151 
L 184.689076 406.079984 
L 185.861345 386.084555 
L 187.033613 394.889159 
L 188.205882 382.710841 
L 189.378151 372.918857 
L 194.067227 401.142857 
L 195.239496 396.946302 
L 196.411765 398.098294 
L 197.584034 393.161135 
L 201.10084 411.017151 
L 202.273109 410.029731 
L 203.445378 398.262874 
L 205.789916 393.737126 
L 209.306723 397.851412 
L 210.478992 396.69942 
L 211.651261 390.692571 
L 212.823529 377.855984 
L 213.995798 363.785135 
L 217.512605 359.835429 
L 218.684874 329.554277 
L 219.857143 310.628571 
L 221.029412 313.179437 
L 222.201681 274.01142 
L 225.718487 271.460588 
L 226.890756 280.841151 
L 228.063025 284.050286 
L 229.235294 277.714286 
L 230.407563 252.946302 
L 233.92437 239.039992 
L 235.096639 190.820588 
L 237.441176 161.444596 
L 238.613445 206.208008 
L 242.130252 248.338286 
L 243.302521 222.994269 
L 245.647059 200.365698 
L 246.819328 167.204571 
L 250.336134 207.771429 
L 251.508403 225.133723 
L 252.680672 253.686874 
L 253.852941 272.859429 
L 255.02521 270.555437 
L 258.542017 258.870849 
L 259.714286 258.294849 
L 260.886555 250.395429 
L 262.058824 232.786294 
L 263.231092 223.488 
L 267.920168 224.228571 
L 269.092437 222.089159 
L 270.264706 229.330277 
L 271.436975 225.874294 
L 274.953782 268.662874 
L 277.298319 248.091445 
L 278.470588 213.531437 
L 279.642857 214.765698 
L 283.159664 201.929151 
L 285.504202 197.074261 
L 286.676471 318.939412 
L 287.848739 312.685714 
L 291.365546 299.602286 
L 292.537815 293.348588 
L 293.710084 279.689159 
L 294.882353 273.929151 
L 296.054622 263.725706 
L 300.743697 263.149714 
L 301.915966 280.841151 
L 303.088235 280.594269 
L 304.260504 271.954277 
L 307.777311 275.245723 
L 308.94958 281.828571 
L 310.121849 278.537126 
L 311.294118 274.422841 
L 312.466387 284.873135 
L 315.983193 294.994269 
L 317.155462 284.955437 
L 318.327731 288 
L 319.5 280.182849 
L 320.672269 291.620563 
L 324.189076 291.044563 
L 325.361345 287.58858 
L 326.533613 286.930277 
L 327.705882 292.525706 
L 328.878151 304.045723 
L 332.394958 307.748588 
L 333.567227 316.470849 
L 334.739496 313.014865 
L 335.911765 321.819437 
L 337.084034 322.889159 
L 340.60084 337.206857 
L 341.773109 338.770269 
L 342.945378 366.171429 
L 344.117647 373.906277 
L 345.289916 354.239992 
L 348.806723 348.233143 
L 349.978992 350.290286 
L 351.151261 355.803445 
L 352.323529 373.330277 
L 353.495798 381.641151 
L 357.012605 382.546302 
L 358.184874 388.38858 
L 359.357143 386.578286 
L 360.529412 393.490286 
L 361.701681 403.776 
L 365.218487 400.155437 
L 366.390756 394.889159 
L 367.563025 372.013706 
L 368.735294 368.969143 
L 373.42437 362.962294 
L 374.596639 353.417151 
L 375.768908 361.069723 
L 376.941176 371.273135 
L 378.113445 390.36342 
L 381.630252 406.902865 
L 382.802521 399.744016 
L 383.97479 423.853698 
L 385.147059 409.618277 
L 386.319328 411.839992 
L 389.836134 417.18858 
L 391.008403 469.275437 
L 392.180672 487.460571 
L 393.352941 474.130294 
L 394.52521 469.028571 
L 398.042017 463.679984 
L 399.214286 459.648008 
L 400.386555 461.869723 
L 401.558824 465.654857 
L 402.731092 466.806857 
L 407.420168 470.921143 
L 408.592437 473.965714 
L 409.764706 479.149714 
L 410.936975 479.725706 
L 415.62605 480.301723 
L 416.798319 474.459429 
L 417.970588 451.501706 
L 419.142857 466.066277 
L 422.659664 470.098277 
L 423.831933 469.851429 
L 425.004202 468.205714 
L 426.176471 457.837706 
L 427.348739 456.932563 
L 430.865546 458.002286 
L 432.037815 445.083429 
L 433.210084 442.861714 
L 434.382353 441.791992 
L 435.554622 434.879984 
L 439.071429 430.43658 
L 440.243697 423.360008 
L 441.415966 419.657143 
L 442.588235 414.966857 
L 443.760504 419.492571 
L 447.277311 411.593143 
L 448.44958 415.460588 
L 449.621849 417.517731 
L 450.794118 402.706277 
L 451.966387 400.237706 
L 455.483193 398.262874 
L 456.655462 385.426286 
L 457.827731 389.458302 
L 459 394.313126 
L 463.689076 399.990865 
L 464.861345 427.145143 
L 466.033613 422.948588 
L 467.205882 433.151992 
L 468.378151 417.6 
L 471.894958 415.954277 
L 473.067227 420.726865 
L 474.239496 425.005731 
L 475.411765 430.930277 
L 476.584034 434.468563 
L 480.10084 427.062874 
L 481.273109 422.125706 
L 482.445378 421.220563 
L 483.617647 418.834302 
L 484.789916 417.435429 
L 488.306723 421.220563 
L 489.478992 417.682269 
L 490.651261 354.651412 
L 491.823529 365.760008 
L 492.995798 369.791992 
L 496.512605 372.83658 
L 497.684874 376.292571 
L 498.857143 378.514286 
L 500.029412 377.362294 
L 501.201681 380.489159 
L 504.718487 378.843437 
L 505.890756 371.437706 
L 507.063025 371.355437 
L 509.407563 364.608008 
L 512.92437 361.892571 
L 514.096639 359.753151 
L 515.268908 361.974874 
L 516.441176 361.316571 
L 517.613445 361.645723 
L 521.130252 354.239992 
L 522.302521 351.442277 
L 523.47479 342.061714 
L 524.647059 336.466277 
L 525.819328 326.015992 
L 530.508403 319.679984 
L 531.680672 326.674294 
L 532.852941 325.27542 
L 534.02521 322.806857 
L 537.542017 305.033143 
L 538.714286 317.046849 
L 539.886555 303.634302 
L 541.058824 300.918857 
L 542.231092 302.235429 
L 545.747899 338.934849 
L 546.920168 332.022841 
L 548.092437 317.540571 
L 549.264706 314.496008 
L 550.436975 317.376 
L 553.953782 307.666277 
L 555.12605 310.464 
L 556.298319 301.330277 
L 557.470588 308.406857 
L 558.642857 304.868563 
L 562.159664 311.615992 
L 563.331933 309.229731 
L 564.504202 325.851412 
L 565.676471 318.774874 
L 566.848739 301.494849 
L 570.365546 292.278857 
L 571.537815 293.348588 
L 572.710084 297.462874 
L 573.882353 278.372588 
L 575.054622 316.38858 
L 578.571429 333.174874 
L 579.743697 342.884555 
L 580.915966 348.644563 
L 582.088235 342.144016 
L 583.260504 329.965698 
L 586.777311 328.731437 
L 587.94958 316.38858 
L 589.121849 327.085714 
L 590.294118 325.439992 
L 591.466387 325.851412 
L 594.983193 342.061714 
L 596.155462 386.660588 
L 597.327731 386.249135 
L 598.5 401.63658 
L 599.672269 390.116571 
L 604.361345 403.2 
L 605.533613 400.073135 
L 606.705882 400.320016 
L 607.878151 403.61142 
L 611.394958 405.915445 
L 612.567227 410.934849 
L 613.739496 404.434302 
L 614.911765 401.554277 
L 616.084034 403.035429 
L 619.60084 397.769143 
L 620.773109 401.554277 
L 621.945378 407.643437 
L 623.117647 406.738286 
L 624.289916 402.78858 
L 627.806723 404.598841 
L 628.978992 404.76342 
L 630.151261 403.282269 
L 632.495798 394.313126 
L 636.012605 409.371429 
L 637.184874 414.884555 
L 638.357143 414.473135 
L 639.529412 412.498294 
L 640.701681 414.720016 
L 644.218487 436.114286 
L 645.390756 445.41258 
L 646.563025 432 
L 647.735294 432 
L 648.907563 433.234302 
L 652.42437 428.050286 
L 653.596639 441.545143 
L 654.768908 442.697135 
L 655.941176 434.468563 
L 657.113445 429.942857 
L 660.630252 423.277706 
L 661.802521 422.043437 
L 662.97479 421.220563 
L 665.319328 421.385135 
L 668.836134 430.930277 
L 670.008403 438.50058 
L 671.180672 438.418277 
L 677.042017 437.019437 
L 678.214286 433.727992 
L 679.386555 425.334849 
L 680.558824 425.088 
L 681.731092 415.460588 
L 685.247899 406.902865 
L 686.420168 407.478857 
L 687.592437 411.017151 
L 688.764706 426.980563 
L 689.936975 427.062874 
L 694.62605 429.613706 
L 695.798319 423.113126 
L 696.970588 421.302865 
L 698.142857 411.181723 
L 701.659664 409.042277 
L 702.831933 414.473135 
L 704.004202 425.581723 
L 705.176471 433.481143 
L 706.348739 430.683429 
L 709.865546 426.486874 
L 711.037815 420.150865 
L 712.210084 402.624 
L 713.382353 393.654857 
L 714.554622 353.417151 
L 718.071429 347.657143 
L 719.243697 355.309714 
L 720.415966 350.866277 
L 721.588235 344.530277 
L 722.760504 338.852571 
L 727.44958 336.219437 
L 728.621849 340.580563 
L 729.794118 340.086874 
L 730.966387 329.965698 
L 734.483193 332.434302 
L 735.655462 334.820563 
L 736.827731 333.257143 
L 738 330.048008 
L 739.172269 335.643437 
L 742.689076 340.991992 
L 743.861345 339.922294 
L 745.033613 348.397714 
L 746.205882 341.897135 
L 747.378151 347.081143 
L 750.894958 342.473135 
L 752.067227 353.49942 
L 753.239496 358.930277 
L 754.411765 347.574874 
L 755.584034 348.068563 
L 759.10084 351.360008 
L 760.273109 348.150865 
L 761.445378 350.454857 
L 762.617647 348.068563 
L 763.789916 333.257143 
L 767.306723 336.384008 
L 768.478992 330.870849 
L 769.651261 324.534849 
L 770.823529 323.794269 
L 771.995798 319.350865 
L 775.512605 329.883429 
L 776.684874 322.642277 
L 777.857143 317.458302 
L 779.029412 319.844563 
L 783.718487 319.926865 
L 784.890756 311.780563 
L 786.063025 302.81142 
L 787.235294 306.185135 
L 788.407563 307.501706 
L 791.92437 306.925706 
L 793.096639 313.261714 
L 795.441176 309.47658 
L 796.613445 317.293723 
L 800.130252 314.660588 
L 801.302521 309.805731 
L 802.47479 307.995429 
L 803.647059 308.818277 
L 804.819328 316.882269 
L 808.336134 312.109714 
L 809.508403 414.473135 
L 810.680672 417.024 
L 811.852941 413.650286 
L 813.02521 422.784008 
L 816.542017 421.302865 
L 817.714286 422.866277 
L 818.886555 429.778286 
L 820.058824 426.239992 
L 821.231092 421.302865 
L 824.747899 424.182849 
L 825.920168 425.334849 
L 827.092437 421.467437 
L 829.436975 425.828571 
L 832.953782 426.651412 
L 834.12605 426.651412 
L 835.298319 429.613706 
L 836.470588 430.848008 
L 837.642857 429.366857 
L 842.331933 431.01258 
L 843.504202 433.234302 
L 844.676471 431.01258 
L 845.848739 429.696008 
L 849.365546 430.518857 
L 850.537815 432.740571 
L 851.710084 430.107429 
L 852.882353 429.860588 
L 854.054622 428.708555 
L 857.571429 430.683429 
L 858.743697 437.595429 
L 859.915966 437.348588 
L 861.088235 435.785135 
L 862.260504 437.760008 
L 865.777311 447.96342 
L 866.94958 454.546302 
L 868.121849 449.115445 
L 869.294118 446.81142 
L 870.466387 443.520016 
L 873.983193 439.488 
L 875.155462 442.614865 
L 876.327731 441.462874 
L 877.5 442.532563 
L 878.672269 445.001159 
L 882.189076 449.279984 
L 883.361345 446.893723 
L 884.533613 440.310841 
L 885.705882 441.462874 
L 890.394958 442.285714 
L 891.567227 445.98858 
L 892.739496 445.001159 
L 893.911765 447.96342 
L 895.084034 446.729151 
L 898.60084 444.342857 
L 899.773109 435.949714 
L 900.945378 437.760008 
L 902.117647 436.114286 
L 903.289916 437.348588 
L 906.806723 440.557723 
L 907.978992 436.443437 
L 909.151261 438.089159 
L 910.323529 434.468563 
L 911.495798 439.817151 
L 915.012605 451.501706 
L 916.184874 449.362294 
L 917.357143 474.706294 
L 918.529412 474.78858 
L 919.701681 476.434286 
L 923.218487 494.207992 
L 924.390756 492.48 
L 925.563025 496.347429 
L 926.735294 506.221714 
L 927.907563 509.183992 
L 931.42437 501.366857 
L 932.596639 495.524563 
L 933.768908 495.689143 
L 934.941176 496.265135 
L 936.113445 496.182849 
L 939.630252 492.233143 
L 940.802521 497.417151 
L 943.147059 517.001143 
L 944.319328 520.374857 
L 947.836134 557.403429 
L 949.008403 529.673151 
L 950.180672 534.198857 
L 951.352941 522.596571 
L 952.52521 515.849151 
L 956.042017 505.234286 
L 957.214286 510.006857 
L 958.386555 509.183992 
L 959.558824 501.449151 
L 960.731092 501.531437 
L 965.420168 508.032 
L 966.592437 512.886857 
L 967.764706 508.525706 
L 968.936975 506.715429 
L 972.453782 509.760008 
L 973.62605 508.114286 
L 974.798319 508.114286 
L 975.970588 507.86742 
L 977.142857 508.196571 
L 980.659664 506.550849 
L 981.831933 511.241135 
L 983.004202 511.570286 
L 984.176471 521.28 
L 985.348739 523.419437 
L 988.865546 527.862857 
L 990.037815 525.229714 
L 991.210084 517.330294 
L 992.382353 527.451429 
L 993.554622 530.002286 
L 997.071429 513.627429 
L 998.243697 510.171429 
L 999.415966 499.803429 
L 1000.588235 491.410277 
L 1001.760504 481.124563 
L 1005.277311 494.948571 
L 1006.44958 492.973714 
L 1007.621849 496.758865 
L 1008.794118 491.574857 
L 1009.966387 488.694849 
L 1013.483193 478.738286 
L 1014.655462 480.054857 
L 1015.827731 494.537143 
L 1017 493.796571 
L 1018.172269 486.637706 
L 1021.689076 479.478857 
L 1022.861345 478.08 
L 1024.033613 501.860571 
L 1025.205882 492.233143 
L 1026.378151 497.005714 
L 1029.894958 499.474294 
L 1031.067227 491.327992 
L 1032.239496 489.764571 
L 1033.411765 496.182849 
L 1034.584034 499.474294 
L 1039.273109 514.285714 
L 1040.445378 513.298277 
L 1041.617647 517.577143 
L 1042.789916 523.254857 
L 1046.306723 524.571429 
L 1047.478992 525.394286 
L 1048.651261 523.254857 
L 1049.823529 516.918857 
L 1050.995798 516.095992 
L 1054.512605 524.406857 
L 1055.684874 524.406857 
L 1056.857143 519.716571 
L 1059.201681 519.058286 
L 1062.718487 524.077723 
L 1063.890756 524.571429 
L 1065.063025 523.172571 
L 1066.235294 525.312 
L 1067.407563 524.489143 
L 1070.92437 531.730294 
L 1072.096639 536.585135 
L 1073.268908 531.236563 
L 1074.441176 530.002286 
L 1075.613445 526.217151 
L 1079.130252 535.268563 
L 1080.302521 535.268563 
L 1081.47479 534.445723 
L 1082.647059 538.642277 
L 1083.819328 543.826286 
L 1087.336134 549.339429 
L 1088.508403 548.516571 
L 1089.680672 546.212563 
L 1090.852941 544.731437 
L 1095.542017 545.142857 
L 1096.714286 546.706294 
L 1097.886555 547.529151 
L 1099.058824 548.022857 
L 1103.747899 548.351992 
L 1104.920168 550.491429 
L 1106.092437 556.004571 
L 1107.264706 564.068563 
L 1108.436975 569.005714 
L 1111.953782 571.803429 
L 1113.12605 571.309714 
L 1114.298319 578.304008 
L 1115.470588 588.178286 
L 1116.642857 585.380563 
L 1121.331933 595.090286 
L 1122.504202 602.907429 
L 1123.676471 592.045723 
L 1124.848739 584.393143 
L 1128.365546 594.432 
L 1129.537815 595.337143 
L 1130.710084 592.292571 
L 1131.882353 594.925706 
L 1133.054622 594.432 
L 1136.571429 587.931437 
L 1137.743697 598.546286 
L 1138.915966 602.331429 
L 1140.088235 596.242277 
L 1141.260504 601.755429 
L 1144.777311 609.078857 
L 1145.94958 612.534857 
L 1147.121849 610.806857 
L 1148.294118 615.826286 
L 1149.466387 610.724571 
L 1154.155462 601.344 
L 1155.327731 595.090286 
L 1156.5 586.121143 
L 1157.672269 584.064 
L 1161.189076 584.146286 
L 1162.361345 581.348571 
L 1163.533613 589.494849 
L 1165.878151 586.285714 
L 1169.394958 583.981706 
L 1170.567227 585.545143 
L 1171.739496 584.475437 
L 1172.911765 578.221714 
L 1174.084034 573.449151 
L 1177.60084 575.835429 
L 1178.773109 579.456 
L 1179.945378 586.121143 
L 1181.117647 595.501723 
L 1182.289916 594.843437 
L 1185.806723 592.127992 
L 1186.978992 597.47658 
L 1188.151261 597.558865 
L 1189.323529 593.526849 
L 1190.495798 592.374857 
L 1194.012605 593.033143 
L 1195.184874 592.868563 
L 1196.357143 598.546286 
L 1197.529412 602.166857 
L 1202.218487 603.565714 
L 1203.390756 604.141714 
L 1204.563025 598.546286 
L 1205.735294 596.90058 
L 1206.907563 600.027429 
L 1210.42437 598.957714 
L 1211.596639 591.305151 
L 1212.768908 591.222857 
L 1213.941176 591.634286 
L 1215.113445 595.254857 
L 1218.630252 595.254857 
L 1219.802521 597.394286 
L 1220.97479 593.033143 
L 1222.147059 589.248008 
L 1223.319328 587.849151 
L 1226.836134 589.906294 
L 1228.008403 593.033143 
L 1229.180672 591.222857 
L 1230.352941 586.944 
L 1231.52521 590.235429 
L 1235.042017 591.387437 
L 1236.214286 589.741714 
L 1237.386555 608.420571 
L 1238.558824 609.984 
L 1239.731092 612.452571 
L 1243.247899 613.686857 
L 1244.420168 615.908571 
L 1245.592437 615.744 
L 1246.764706 614.427429 
L 1247.936975 615.250286 
L 1251.453782 613.851429 
L 1252.62605 613.769143 
L 1253.798319 611.465143 
L 1254.970588 615.085714 
L 1256.142857 615.085714 
L 1259.659664 614.592 
L 1260.831933 614.016 
L 1262.004202 614.674286 
L 1263.176471 614.756571 
L 1264.348739 613.769143 
L 1267.865546 612.370286 
L 1269.037815 617.307429 
L 1270.210084 614.592 
L 1271.382353 613.522286 
L 1272.554622 613.193143 
L 1277.243697 606.198857 
L 1278.415966 609.984 
L 1279.588235 608.091429 
L 1280.760504 607.186286 
L 1284.277311 605.376 
L 1285.44958 607.597714 
L 1286.621849 608.420571 
L 1287.794118 610.230857 
L 1288.966387 615.085714 
L 1292.483193 610.889143 
L 1293.655462 608.502857 
L 1294.827731 601.014857 
L 1296 603.565714 
L 1296 603.565714 
" style="fill:none;stroke:#ff0000;stroke-linecap:square;"/>
   </g>
   <g id="patch_3">
    <path d="M 180 648 
L 1296 648 
" style="fill:none;stroke:#000000;stroke-linecap:square;stroke-linejoin:miter;"/>
   </g>
   <g id="patch_4">
    <path d="M 180 648 
L 180 72 
" style="fill:none;stroke:#000000;stroke-linecap:square;stroke-linejoin:miter;"/>
   </g>
   <g id="patch_5">
    <path d="M 180 72 
L 1296 72 
" style="fill:none;stroke:#000000;stroke-linecap:square;stroke-linejoin:miter;"/>
   </g>
   <g id="patch_6">
    <path d="M 1296 648 
L 1296 72 
" style="fill:none;stroke:#000000;stroke-linecap:square;stroke-linejoin:miter;"/>
   </g>
   <g id="matplotlib.axis_1">
    <g id="xtick_1">
     <g id="line2d_3">
      <defs>
       <path d="M 0 0 
L 0 -4 
" id="md531a21b3a" style="stroke:#000000;stroke-width:0.5;"/>
      </defs>
      <g>
       <use style="stroke:#000000;stroke-width:0.5;" x="208.134453782" xlink:href="#md531a21b3a" y="648.0"/>
      </g>
     </g>
     <g id="line2d_4">
      <defs>
       <path d="M 0 0 
L 0 4 
" id="m9c088582d4" style="stroke:#000000;stroke-width:0.5;"/>
      </defs>
      <g>
       <use style="stroke:#000000;stroke-width:0.5;" x="208.134453782" xlink:href="#m9c088582d4" y="72.0"/>
      </g>
     </g>
     <g id="text_1">
      <!-- Dec 2013 -->
      <defs>
       <path d="M 56.203125 29.59375 
L 56.203125 25.203125 
L 14.890625 25.203125 
Q 15.484375 15.921875 20.484375 11.0625 
Q 25.484375 6.203125 34.421875 6.203125 
Q 39.59375 6.203125 44.453125 7.46875 
Q 49.3125 8.734375 54.109375 11.28125 
L 54.109375 2.78125 
Q 49.265625 0.734375 44.1875 -0.34375 
Q 39.109375 -1.421875 33.890625 -1.421875 
Q 20.796875 -1.421875 13.15625 6.1875 
Q 5.515625 13.8125 5.515625 26.8125 
Q 5.515625 40.234375 12.765625 48.109375 
Q 20.015625 56 32.328125 56 
Q 43.359375 56 49.78125 48.890625 
Q 56.203125 41.796875 56.203125 29.59375 
M 47.21875 32.234375 
Q 47.125 39.59375 43.09375 43.984375 
Q 39.0625 48.390625 32.421875 48.390625 
Q 24.90625 48.390625 20.390625 44.140625 
Q 15.875 39.890625 15.1875 32.171875 
z
" id="BitstreamVeraSans-Roman-65"/>
       <path d="M 40.578125 39.3125 
Q 47.65625 37.796875 51.625 33 
Q 55.609375 28.21875 55.609375 21.1875 
Q 55.609375 10.40625 48.1875 4.484375 
Q 40.765625 -1.421875 27.09375 -1.421875 
Q 22.515625 -1.421875 17.65625 -0.515625 
Q 12.796875 0.390625 7.625 2.203125 
L 7.625 11.71875 
Q 11.71875 9.328125 16.59375 8.109375 
Q 21.484375 6.890625 26.8125 6.890625 
Q 36.078125 6.890625 40.9375 10.546875 
Q 45.796875 14.203125 45.796875 21.1875 
Q 45.796875 27.640625 41.28125 31.265625 
Q 36.765625 34.90625 28.71875 34.90625 
L 20.21875 34.90625 
L 20.21875 43.015625 
L 29.109375 43.015625 
Q 36.375 43.015625 40.234375 45.921875 
Q 44.09375 48.828125 44.09375 54.296875 
Q 44.09375 59.90625 40.109375 62.90625 
Q 36.140625 65.921875 28.71875 65.921875 
Q 24.65625 65.921875 20.015625 65.03125 
Q 15.375 64.15625 9.8125 62.3125 
L 9.8125 71.09375 
Q 15.4375 72.65625 20.34375 73.4375 
Q 25.25 74.21875 29.59375 74.21875 
Q 40.828125 74.21875 47.359375 69.109375 
Q 53.90625 64.015625 53.90625 55.328125 
Q 53.90625 49.265625 50.4375 45.09375 
Q 46.96875 40.921875 40.578125 39.3125 
" id="BitstreamVeraSans-Roman-33"/>
       <path d="M 31.78125 66.40625 
Q 24.171875 66.40625 20.328125 58.90625 
Q 16.5 51.421875 16.5 36.375 
Q 16.5 21.390625 20.328125 13.890625 
Q 24.171875 6.390625 31.78125 6.390625 
Q 39.453125 6.390625 43.28125 13.890625 
Q 47.125 21.390625 47.125 36.375 
Q 47.125 51.421875 43.28125 58.90625 
Q 39.453125 66.40625 31.78125 66.40625 
M 31.78125 74.21875 
Q 44.046875 74.21875 50.515625 64.515625 
Q 56.984375 54.828125 56.984375 36.375 
Q 56.984375 17.96875 50.515625 8.265625 
Q 44.046875 -1.421875 31.78125 -1.421875 
Q 19.53125 -1.421875 13.0625 8.265625 
Q 6.59375 17.96875 6.59375 36.375 
Q 6.59375 54.828125 13.0625 64.515625 
Q 19.53125 74.21875 31.78125 74.21875 
" id="BitstreamVeraSans-Roman-30"/>
       <path d="M 19.671875 64.796875 
L 19.671875 8.109375 
L 31.59375 8.109375 
Q 46.6875 8.109375 53.6875 14.9375 
Q 60.6875 21.78125 60.6875 36.53125 
Q 60.6875 51.171875 53.6875 57.984375 
Q 46.6875 64.796875 31.59375 64.796875 
z
M 9.8125 72.90625 
L 30.078125 72.90625 
Q 51.265625 72.90625 61.171875 64.09375 
Q 71.09375 55.28125 71.09375 36.53125 
Q 71.09375 17.671875 61.125 8.828125 
Q 51.171875 0 30.078125 0 
L 9.8125 0 
z
" id="BitstreamVeraSans-Roman-44"/>
       <path d="M 12.40625 8.296875 
L 28.515625 8.296875 
L 28.515625 63.921875 
L 10.984375 60.40625 
L 10.984375 69.390625 
L 28.421875 72.90625 
L 38.28125 72.90625 
L 38.28125 8.296875 
L 54.390625 8.296875 
L 54.390625 0 
L 12.40625 0 
z
" id="BitstreamVeraSans-Roman-31"/>
       <path id="BitstreamVeraSans-Roman-20"/>
       <path d="M 19.1875 8.296875 
L 53.609375 8.296875 
L 53.609375 0 
L 7.328125 0 
L 7.328125 8.296875 
Q 12.9375 14.109375 22.625 23.890625 
Q 32.328125 33.6875 34.8125 36.53125 
Q 39.546875 41.84375 41.421875 45.53125 
Q 43.3125 49.21875 43.3125 52.78125 
Q 43.3125 58.59375 39.234375 62.25 
Q 35.15625 65.921875 28.609375 65.921875 
Q 23.96875 65.921875 18.8125 64.3125 
Q 13.671875 62.703125 7.8125 59.421875 
L 7.8125 69.390625 
Q 13.765625 71.78125 18.9375 73 
Q 24.125 74.21875 28.421875 74.21875 
Q 39.75 74.21875 46.484375 68.546875 
Q 53.21875 62.890625 53.21875 53.421875 
Q 53.21875 48.921875 51.53125 44.890625 
Q 49.859375 40.875 45.40625 35.40625 
Q 44.1875 33.984375 37.640625 27.21875 
Q 31.109375 20.453125 19.1875 8.296875 
" id="BitstreamVeraSans-Roman-32"/>
       <path d="M 48.78125 52.59375 
L 48.78125 44.1875 
Q 44.96875 46.296875 41.140625 47.34375 
Q 37.3125 48.390625 33.40625 48.390625 
Q 24.65625 48.390625 19.8125 42.84375 
Q 14.984375 37.3125 14.984375 27.296875 
Q 14.984375 17.28125 19.8125 11.734375 
Q 24.65625 6.203125 33.40625 6.203125 
Q 37.3125 6.203125 41.140625 7.25 
Q 44.96875 8.296875 48.78125 10.40625 
L 48.78125 2.09375 
Q 45.015625 0.34375 40.984375 -0.53125 
Q 36.96875 -1.421875 32.421875 -1.421875 
Q 20.0625 -1.421875 12.78125 6.34375 
Q 5.515625 14.109375 5.515625 27.296875 
Q 5.515625 40.671875 12.859375 48.328125 
Q 20.21875 56 33.015625 56 
Q 37.15625 56 41.109375 55.140625 
Q 45.0625 54.296875 48.78125 52.59375 
" id="BitstreamVeraSans-Roman-63"/>
      </defs>
      <g transform="translate(190.119803676 699.159602888)rotate(-45.0)scale(0.12 -0.12)">
       <use xlink:href="#BitstreamVeraSans-Roman-44"/>
       <use x="77.001953125" xlink:href="#BitstreamVeraSans-Roman-65"/>
       <use x="138.525390625" xlink:href="#BitstreamVeraSans-Roman-63"/>
       <use x="193.505859375" xlink:href="#BitstreamVeraSans-Roman-20"/>
       <use x="225.29296875" xlink:href="#BitstreamVeraSans-Roman-32"/>
       <use x="288.916015625" xlink:href="#BitstreamVeraSans-Roman-30"/>
       <use x="352.5390625" xlink:href="#BitstreamVeraSans-Roman-31"/>
       <use x="416.162109375" xlink:href="#BitstreamVeraSans-Roman-33"/>
      </g>
     </g>
    </g>
    <g id="xtick_2">
     <g id="line2d_5">
      <g>
       <use style="stroke:#000000;stroke-width:0.5;" x="313.638655462" xlink:href="#md531a21b3a" y="648.0"/>
      </g>
     </g>
     <g id="line2d_6">
      <g>
       <use style="stroke:#000000;stroke-width:0.5;" x="313.638655462" xlink:href="#m9c088582d4" y="72.0"/>
      </g>
     </g>
     <g id="text_2">
      <!-- Mar 2014 -->
      <defs>
       <path d="M 37.796875 64.3125 
L 12.890625 25.390625 
L 37.796875 25.390625 
z
M 35.203125 72.90625 
L 47.609375 72.90625 
L 47.609375 25.390625 
L 58.015625 25.390625 
L 58.015625 17.1875 
L 47.609375 17.1875 
L 47.609375 0 
L 37.796875 0 
L 37.796875 17.1875 
L 4.890625 17.1875 
L 4.890625 26.703125 
z
" id="BitstreamVeraSans-Roman-34"/>
       <path d="M 41.109375 46.296875 
Q 39.59375 47.171875 37.8125 47.578125 
Q 36.03125 48 33.890625 48 
Q 26.265625 48 22.1875 43.046875 
Q 18.109375 38.09375 18.109375 28.8125 
L 18.109375 0 
L 9.078125 0 
L 9.078125 54.6875 
L 18.109375 54.6875 
L 18.109375 46.1875 
Q 20.953125 51.171875 25.484375 53.578125 
Q 30.03125 56 36.53125 56 
Q 37.453125 56 38.578125 55.875 
Q 39.703125 55.765625 41.0625 55.515625 
z
" id="BitstreamVeraSans-Roman-72"/>
       <path d="M 9.8125 72.90625 
L 24.515625 72.90625 
L 43.109375 23.296875 
L 61.8125 72.90625 
L 76.515625 72.90625 
L 76.515625 0 
L 66.890625 0 
L 66.890625 64.015625 
L 48.09375 14.015625 
L 38.1875 14.015625 
L 19.390625 64.015625 
L 19.390625 0 
L 9.8125 0 
z
" id="BitstreamVeraSans-Roman-4d"/>
       <path d="M 34.28125 27.484375 
Q 23.390625 27.484375 19.1875 25 
Q 14.984375 22.515625 14.984375 16.5 
Q 14.984375 11.71875 18.140625 8.90625 
Q 21.296875 6.109375 26.703125 6.109375 
Q 34.1875 6.109375 38.703125 11.40625 
Q 43.21875 16.703125 43.21875 25.484375 
L 43.21875 27.484375 
z
M 52.203125 31.203125 
L 52.203125 0 
L 43.21875 0 
L 43.21875 8.296875 
Q 40.140625 3.328125 35.546875 0.953125 
Q 30.953125 -1.421875 24.3125 -1.421875 
Q 15.921875 -1.421875 10.953125 3.296875 
Q 6 8.015625 6 15.921875 
Q 6 25.140625 12.171875 29.828125 
Q 18.359375 34.515625 30.609375 34.515625 
L 43.21875 34.515625 
L 43.21875 35.40625 
Q 43.21875 41.609375 39.140625 45 
Q 35.0625 48.390625 27.6875 48.390625 
Q 23 48.390625 18.546875 47.265625 
Q 14.109375 46.140625 10.015625 43.890625 
L 10.015625 52.203125 
Q 14.9375 54.109375 19.578125 55.046875 
Q 24.21875 56 28.609375 56 
Q 40.484375 56 46.34375 49.84375 
Q 52.203125 43.703125 52.203125 31.203125 
" id="BitstreamVeraSans-Roman-61"/>
      </defs>
      <g transform="translate(295.829508265 698.748597071)rotate(-45.0)scale(0.12 -0.12)">
       <use xlink:href="#BitstreamVeraSans-Roman-4d"/>
       <use x="86.279296875" xlink:href="#BitstreamVeraSans-Roman-61"/>
       <use x="147.55859375" xlink:href="#BitstreamVeraSans-Roman-72"/>
       <use x="188.671875" xlink:href="#BitstreamVeraSans-Roman-20"/>
       <use x="220.458984375" xlink:href="#BitstreamVeraSans-Roman-32"/>
       <use x="284.08203125" xlink:href="#BitstreamVeraSans-Roman-30"/>
       <use x="347.705078125" xlink:href="#BitstreamVeraSans-Roman-31"/>
       <use x="411.328125" xlink:href="#BitstreamVeraSans-Roman-34"/>
      </g>
     </g>
    </g>
    <g id="xtick_3">
     <g id="line2d_7">
      <g>
       <use style="stroke:#000000;stroke-width:0.5;" x="421.487394958" xlink:href="#md531a21b3a" y="648.0"/>
      </g>
     </g>
     <g id="line2d_8">
      <g>
       <use style="stroke:#000000;stroke-width:0.5;" x="421.487394958" xlink:href="#m9c088582d4" y="72.0"/>
      </g>
     </g>
     <g id="text_3">
      <!-- Jun 2014 -->
      <defs>
       <path d="M 9.8125 72.90625 
L 19.671875 72.90625 
L 19.671875 5.078125 
Q 19.671875 -8.109375 14.671875 -14.0625 
Q 9.671875 -20.015625 -1.421875 -20.015625 
L -5.171875 -20.015625 
L -5.171875 -11.71875 
L -2.09375 -11.71875 
Q 4.4375 -11.71875 7.125 -8.046875 
Q 9.8125 -4.390625 9.8125 5.078125 
z
" id="BitstreamVeraSans-Roman-4a"/>
       <path d="M 54.890625 33.015625 
L 54.890625 0 
L 45.90625 0 
L 45.90625 32.71875 
Q 45.90625 40.484375 42.875 44.328125 
Q 39.84375 48.1875 33.796875 48.1875 
Q 26.515625 48.1875 22.3125 43.546875 
Q 18.109375 38.921875 18.109375 30.90625 
L 18.109375 0 
L 9.078125 0 
L 9.078125 54.6875 
L 18.109375 54.6875 
L 18.109375 46.1875 
Q 21.34375 51.125 25.703125 53.5625 
Q 30.078125 56 35.796875 56 
Q 45.21875 56 50.046875 50.171875 
Q 54.890625 44.34375 54.890625 33.015625 
" id="BitstreamVeraSans-Roman-6e"/>
       <path d="M 8.5 21.578125 
L 8.5 54.6875 
L 17.484375 54.6875 
L 17.484375 21.921875 
Q 17.484375 14.15625 20.5 10.265625 
Q 23.53125 6.390625 29.59375 6.390625 
Q 36.859375 6.390625 41.078125 11.03125 
Q 45.3125 15.671875 45.3125 23.6875 
L 45.3125 54.6875 
L 54.296875 54.6875 
L 54.296875 0 
L 45.3125 0 
L 45.3125 8.40625 
Q 42.046875 3.421875 37.71875 1 
Q 33.40625 -1.421875 27.6875 -1.421875 
Q 18.265625 -1.421875 13.375 4.4375 
Q 8.5 10.296875 8.5 21.578125 
" id="BitstreamVeraSans-Roman-75"/>
      </defs>
      <g transform="translate(405.053791421 695.997509751)rotate(-45.0)scale(0.12 -0.12)">
       <use xlink:href="#BitstreamVeraSans-Roman-4a"/>
       <use x="29.4921875" xlink:href="#BitstreamVeraSans-Roman-75"/>
       <use x="92.87109375" xlink:href="#BitstreamVeraSans-Roman-6e"/>
       <use x="156.25" xlink:href="#BitstreamVeraSans-Roman-20"/>
       <use x="188.037109375" xlink:href="#BitstreamVeraSans-Roman-32"/>
       <use x="251.66015625" xlink:href="#BitstreamVeraSans-Roman-30"/>
       <use x="315.283203125" xlink:href="#BitstreamVeraSans-Roman-31"/>
       <use x="378.90625" xlink:href="#BitstreamVeraSans-Roman-34"/>
      </g>
     </g>
    </g>
    <g id="xtick_4">
     <g id="line2d_9">
      <g>
       <use style="stroke:#000000;stroke-width:0.5;" x="529.336134454" xlink:href="#md531a21b3a" y="648.0"/>
      </g>
     </g>
     <g id="line2d_10">
      <g>
       <use style="stroke:#000000;stroke-width:0.5;" x="529.336134454" xlink:href="#m9c088582d4" y="72.0"/>
      </g>
     </g>
     <g id="text_4">
      <!-- Sep 2014 -->
      <defs>
       <path d="M 18.109375 8.203125 
L 18.109375 -20.796875 
L 9.078125 -20.796875 
L 9.078125 54.6875 
L 18.109375 54.6875 
L 18.109375 46.390625 
Q 20.953125 51.265625 25.265625 53.625 
Q 29.59375 56 35.59375 56 
Q 45.5625 56 51.78125 48.09375 
Q 58.015625 40.1875 58.015625 27.296875 
Q 58.015625 14.40625 51.78125 6.484375 
Q 45.5625 -1.421875 35.59375 -1.421875 
Q 29.59375 -1.421875 25.265625 0.953125 
Q 20.953125 3.328125 18.109375 8.203125 
M 48.6875 27.296875 
Q 48.6875 37.203125 44.609375 42.84375 
Q 40.53125 48.484375 33.40625 48.484375 
Q 26.265625 48.484375 22.1875 42.84375 
Q 18.109375 37.203125 18.109375 27.296875 
Q 18.109375 17.390625 22.1875 11.75 
Q 26.265625 6.109375 33.40625 6.109375 
Q 40.53125 6.109375 44.609375 11.75 
Q 48.6875 17.390625 48.6875 27.296875 
" id="BitstreamVeraSans-Roman-70"/>
       <path d="M 53.515625 70.515625 
L 53.515625 60.890625 
Q 47.90625 63.578125 42.921875 64.890625 
Q 37.9375 66.21875 33.296875 66.21875 
Q 25.25 66.21875 20.875 63.09375 
Q 16.5 59.96875 16.5 54.203125 
Q 16.5 49.359375 19.40625 46.890625 
Q 22.3125 44.4375 30.421875 42.921875 
L 36.375 41.703125 
Q 47.40625 39.59375 52.65625 34.296875 
Q 57.90625 29 57.90625 20.125 
Q 57.90625 9.515625 50.796875 4.046875 
Q 43.703125 -1.421875 29.984375 -1.421875 
Q 24.8125 -1.421875 18.96875 -0.25 
Q 13.140625 0.921875 6.890625 3.21875 
L 6.890625 13.375 
Q 12.890625 10.015625 18.65625 8.296875 
Q 24.421875 6.59375 29.984375 6.59375 
Q 38.421875 6.59375 43.015625 9.90625 
Q 47.609375 13.234375 47.609375 19.390625 
Q 47.609375 24.75 44.3125 27.78125 
Q 41.015625 30.8125 33.5 32.328125 
L 27.484375 33.5 
Q 16.453125 35.6875 11.515625 40.375 
Q 6.59375 45.0625 6.59375 53.421875 
Q 6.59375 63.09375 13.40625 68.65625 
Q 20.21875 74.21875 32.171875 74.21875 
Q 37.3125 74.21875 42.625 73.28125 
Q 47.953125 72.359375 53.515625 70.515625 
" id="BitstreamVeraSans-Roman-53"/>
      </defs>
      <g transform="translate(511.534279296 698.734012994)rotate(-45.0)scale(0.12 -0.12)">
       <use xlink:href="#BitstreamVeraSans-Roman-53"/>
       <use x="63.4765625" xlink:href="#BitstreamVeraSans-Roman-65"/>
       <use x="125.0" xlink:href="#BitstreamVeraSans-Roman-70"/>
       <use x="188.4765625" xlink:href="#BitstreamVeraSans-Roman-20"/>
       <use x="220.263671875" xlink:href="#BitstreamVeraSans-Roman-32"/>
       <use x="283.88671875" xlink:href="#BitstreamVeraSans-Roman-30"/>
       <use x="347.509765625" xlink:href="#BitstreamVeraSans-Roman-31"/>
       <use x="411.1328125" xlink:href="#BitstreamVeraSans-Roman-34"/>
      </g>
     </g>
    </g>
    <g id="xtick_5">
     <g id="line2d_11">
      <g>
       <use style="stroke:#000000;stroke-width:0.5;" x="636.012605042" xlink:href="#md531a21b3a" y="648.0"/>
      </g>
     </g>
     <g id="line2d_12">
      <g>
       <use style="stroke:#000000;stroke-width:0.5;" x="636.012605042" xlink:href="#m9c088582d4" y="72.0"/>
      </g>
     </g>
     <g id="text_5">
      <!-- Dec 2014 -->
      <g transform="translate(617.997954937 699.159602888)rotate(-45.0)scale(0.12 -0.12)">
       <use xlink:href="#BitstreamVeraSans-Roman-44"/>
       <use x="77.001953125" xlink:href="#BitstreamVeraSans-Roman-65"/>
       <use x="138.525390625" xlink:href="#BitstreamVeraSans-Roman-63"/>
       <use x="193.505859375" xlink:href="#BitstreamVeraSans-Roman-20"/>
       <use x="225.29296875" xlink:href="#BitstreamVeraSans-Roman-32"/>
       <use x="288.916015625" xlink:href="#BitstreamVeraSans-Roman-30"/>
       <use x="352.5390625" xlink:href="#BitstreamVeraSans-Roman-31"/>
       <use x="416.162109375" xlink:href="#BitstreamVeraSans-Roman-34"/>
      </g>
     </g>
    </g>
    <g id="xtick_6">
     <g id="line2d_13">
      <g>
       <use style="stroke:#000000;stroke-width:0.5;" x="741.516806723" xlink:href="#md531a21b3a" y="648.0"/>
      </g>
     </g>
     <g id="line2d_14">
      <g>
       <use style="stroke:#000000;stroke-width:0.5;" x="741.516806723" xlink:href="#m9c088582d4" y="72.0"/>
      </g>
     </g>
     <g id="text_6">
      <!-- Mar 2015 -->
      <defs>
       <path d="M 10.796875 72.90625 
L 49.515625 72.90625 
L 49.515625 64.59375 
L 19.828125 64.59375 
L 19.828125 46.734375 
Q 21.96875 47.46875 24.109375 47.828125 
Q 26.265625 48.1875 28.421875 48.1875 
Q 40.625 48.1875 47.75 41.5 
Q 54.890625 34.8125 54.890625 23.390625 
Q 54.890625 11.625 47.5625 5.09375 
Q 40.234375 -1.421875 26.90625 -1.421875 
Q 22.3125 -1.421875 17.546875 -0.640625 
Q 12.796875 0.140625 7.71875 1.703125 
L 7.71875 11.625 
Q 12.109375 9.234375 16.796875 8.0625 
Q 21.484375 6.890625 26.703125 6.890625 
Q 35.15625 6.890625 40.078125 11.328125 
Q 45.015625 15.765625 45.015625 23.390625 
Q 45.015625 31 40.078125 35.4375 
Q 35.15625 39.890625 26.703125 39.890625 
Q 22.75 39.890625 18.8125 39.015625 
Q 14.890625 38.140625 10.796875 36.28125 
z
" id="BitstreamVeraSans-Roman-35"/>
      </defs>
      <g transform="translate(723.707659526 698.748597071)rotate(-45.0)scale(0.12 -0.12)">
       <use xlink:href="#BitstreamVeraSans-Roman-4d"/>
       <use x="86.279296875" xlink:href="#BitstreamVeraSans-Roman-61"/>
       <use x="147.55859375" xlink:href="#BitstreamVeraSans-Roman-72"/>
       <use x="188.671875" xlink:href="#BitstreamVeraSans-Roman-20"/>
       <use x="220.458984375" xlink:href="#BitstreamVeraSans-Roman-32"/>
       <use x="284.08203125" xlink:href="#BitstreamVeraSans-Roman-30"/>
       <use x="347.705078125" xlink:href="#BitstreamVeraSans-Roman-31"/>
       <use x="411.328125" xlink:href="#BitstreamVeraSans-Roman-35"/>
      </g>
     </g>
    </g>
    <g id="xtick_7">
     <g id="line2d_15">
      <g>
       <use style="stroke:#000000;stroke-width:0.5;" x="849.365546218" xlink:href="#md531a21b3a" y="648.0"/>
      </g>
     </g>
     <g id="line2d_16">
      <g>
       <use style="stroke:#000000;stroke-width:0.5;" x="849.365546218" xlink:href="#m9c088582d4" y="72.0"/>
      </g>
     </g>
     <g id="text_7">
      <!-- Jun 2015 -->
      <g transform="translate(832.931942682 695.997509751)rotate(-45.0)scale(0.12 -0.12)">
       <use xlink:href="#BitstreamVeraSans-Roman-4a"/>
       <use x="29.4921875" xlink:href="#BitstreamVeraSans-Roman-75"/>
       <use x="92.87109375" xlink:href="#BitstreamVeraSans-Roman-6e"/>
       <use x="156.25" xlink:href="#BitstreamVeraSans-Roman-20"/>
       <use x="188.037109375" xlink:href="#BitstreamVeraSans-Roman-32"/>
       <use x="251.66015625" xlink:href="#BitstreamVeraSans-Roman-30"/>
       <use x="315.283203125" xlink:href="#BitstreamVeraSans-Roman-31"/>
       <use x="378.90625" xlink:href="#BitstreamVeraSans-Roman-35"/>
      </g>
     </g>
    </g>
    <g id="xtick_8">
     <g id="line2d_17">
      <g>
       <use style="stroke:#000000;stroke-width:0.5;" x="957.214285714" xlink:href="#md531a21b3a" y="648.0"/>
      </g>
     </g>
     <g id="line2d_18">
      <g>
       <use style="stroke:#000000;stroke-width:0.5;" x="957.214285714" xlink:href="#m9c088582d4" y="72.0"/>
      </g>
     </g>
     <g id="text_8">
      <!-- Sep 2015 -->
      <g transform="translate(939.412430556 698.734012994)rotate(-45.0)scale(0.12 -0.12)">
       <use xlink:href="#BitstreamVeraSans-Roman-53"/>
       <use x="63.4765625" xlink:href="#BitstreamVeraSans-Roman-65"/>
       <use x="125.0" xlink:href="#BitstreamVeraSans-Roman-70"/>
       <use x="188.4765625" xlink:href="#BitstreamVeraSans-Roman-20"/>
       <use x="220.263671875" xlink:href="#BitstreamVeraSans-Roman-32"/>
       <use x="283.88671875" xlink:href="#BitstreamVeraSans-Roman-30"/>
       <use x="347.509765625" xlink:href="#BitstreamVeraSans-Roman-31"/>
       <use x="411.1328125" xlink:href="#BitstreamVeraSans-Roman-35"/>
      </g>
     </g>
    </g>
    <g id="xtick_9">
     <g id="line2d_19">
      <g>
       <use style="stroke:#000000;stroke-width:0.5;" x="1063.8907563" xlink:href="#md531a21b3a" y="648.0"/>
      </g>
     </g>
     <g id="line2d_20">
      <g>
       <use style="stroke:#000000;stroke-width:0.5;" x="1063.8907563" xlink:href="#m9c088582d4" y="72.0"/>
      </g>
     </g>
     <g id="text_9">
      <!-- Dec 2015 -->
      <g transform="translate(1045.8761062 699.159602888)rotate(-45.0)scale(0.12 -0.12)">
       <use xlink:href="#BitstreamVeraSans-Roman-44"/>
       <use x="77.001953125" xlink:href="#BitstreamVeraSans-Roman-65"/>
       <use x="138.525390625" xlink:href="#BitstreamVeraSans-Roman-63"/>
       <use x="193.505859375" xlink:href="#BitstreamVeraSans-Roman-20"/>
       <use x="225.29296875" xlink:href="#BitstreamVeraSans-Roman-32"/>
       <use x="288.916015625" xlink:href="#BitstreamVeraSans-Roman-30"/>
       <use x="352.5390625" xlink:href="#BitstreamVeraSans-Roman-31"/>
       <use x="416.162109375" xlink:href="#BitstreamVeraSans-Roman-35"/>
      </g>
     </g>
    </g>
    <g id="xtick_10">
     <g id="line2d_21">
      <g>
       <use style="stroke:#000000;stroke-width:0.5;" x="1170.56722689" xlink:href="#md531a21b3a" y="648.0"/>
      </g>
     </g>
     <g id="line2d_22">
      <g>
       <use style="stroke:#000000;stroke-width:0.5;" x="1170.56722689" xlink:href="#m9c088582d4" y="72.0"/>
      </g>
     </g>
     <g id="text_10">
      <!-- Mar 2016 -->
      <defs>
       <path d="M 33.015625 40.375 
Q 26.375 40.375 22.484375 35.828125 
Q 18.609375 31.296875 18.609375 23.390625 
Q 18.609375 15.53125 22.484375 10.953125 
Q 26.375 6.390625 33.015625 6.390625 
Q 39.65625 6.390625 43.53125 10.953125 
Q 47.40625 15.53125 47.40625 23.390625 
Q 47.40625 31.296875 43.53125 35.828125 
Q 39.65625 40.375 33.015625 40.375 
M 52.59375 71.296875 
L 52.59375 62.3125 
Q 48.875 64.0625 45.09375 64.984375 
Q 41.3125 65.921875 37.59375 65.921875 
Q 27.828125 65.921875 22.671875 59.328125 
Q 17.53125 52.734375 16.796875 39.40625 
Q 19.671875 43.65625 24.015625 45.921875 
Q 28.375 48.1875 33.59375 48.1875 
Q 44.578125 48.1875 50.953125 41.515625 
Q 57.328125 34.859375 57.328125 23.390625 
Q 57.328125 12.15625 50.6875 5.359375 
Q 44.046875 -1.421875 33.015625 -1.421875 
Q 20.359375 -1.421875 13.671875 8.265625 
Q 6.984375 17.96875 6.984375 36.375 
Q 6.984375 53.65625 15.1875 63.9375 
Q 23.390625 74.21875 37.203125 74.21875 
Q 40.921875 74.21875 44.703125 73.484375 
Q 48.484375 72.75 52.59375 71.296875 
" id="BitstreamVeraSans-Roman-36"/>
      </defs>
      <g transform="translate(1152.75807969 698.748597071)rotate(-45.0)scale(0.12 -0.12)">
       <use xlink:href="#BitstreamVeraSans-Roman-4d"/>
       <use x="86.279296875" xlink:href="#BitstreamVeraSans-Roman-61"/>
       <use x="147.55859375" xlink:href="#BitstreamVeraSans-Roman-72"/>
       <use x="188.671875" xlink:href="#BitstreamVeraSans-Roman-20"/>
       <use x="220.458984375" xlink:href="#BitstreamVeraSans-Roman-32"/>
       <use x="284.08203125" xlink:href="#BitstreamVeraSans-Roman-30"/>
       <use x="347.705078125" xlink:href="#BitstreamVeraSans-Roman-31"/>
       <use x="411.328125" xlink:href="#BitstreamVeraSans-Roman-36"/>
      </g>
     </g>
    </g>
    <g id="xtick_11">
     <g id="line2d_23">
      <g>
       <use style="stroke:#000000;stroke-width:0.5;" x="1278.41596639" xlink:href="#md531a21b3a" y="648.0"/>
      </g>
     </g>
     <g id="line2d_24">
      <g>
       <use style="stroke:#000000;stroke-width:0.5;" x="1278.41596639" xlink:href="#m9c088582d4" y="72.0"/>
      </g>
     </g>
     <g id="text_11">
      <!-- Jun 2016 -->
      <g transform="translate(1261.98236285 695.997509751)rotate(-45.0)scale(0.12 -0.12)">
       <use xlink:href="#BitstreamVeraSans-Roman-4a"/>
       <use x="29.4921875" xlink:href="#BitstreamVeraSans-Roman-75"/>
       <use x="92.87109375" xlink:href="#BitstreamVeraSans-Roman-6e"/>
       <use x="156.25" xlink:href="#BitstreamVeraSans-Roman-20"/>
       <use x="188.037109375" xlink:href="#BitstreamVeraSans-Roman-32"/>
       <use x="251.66015625" xlink:href="#BitstreamVeraSans-Roman-30"/>
       <use x="315.283203125" xlink:href="#BitstreamVeraSans-Roman-31"/>
       <use x="378.90625" xlink:href="#BitstreamVeraSans-Roman-36"/>
      </g>
     </g>
    </g>
   </g>
   <g id="matplotlib.axis_2">
    <g id="ytick_1">
     <g id="line2d_25">
      <defs>
       <path d="M 0 0 
L 4 0 
" id="m9fb3a12f3f" style="stroke:#000000;stroke-width:0.5;"/>
      </defs>
      <g>
       <use style="stroke:#000000;stroke-width:0.5;" x="180.0" xlink:href="#m9fb3a12f3f" y="648.0"/>
      </g>
     </g>
     <g id="line2d_26">
      <defs>
       <path d="M 0 0 
L -4 0 
" id="m3a83d448fd" style="stroke:#000000;stroke-width:0.5;"/>
      </defs>
      <g>
       <use style="stroke:#000000;stroke-width:0.5;" x="1296.0" xlink:href="#m3a83d448fd" y="648.0"/>
      </g>
     </g>
     <g id="text_12">
      <!-- 10 -->
      <g transform="translate(160.73 651.31125)scale(0.12 -0.12)">
       <use xlink:href="#BitstreamVeraSans-Roman-31"/>
       <use x="63.623046875" xlink:href="#BitstreamVeraSans-Roman-30"/>
      </g>
     </g>
    </g>
    <g id="ytick_2">
     <g id="line2d_27">
      <g>
       <use style="stroke:#000000;stroke-width:0.5;" x="180.0" xlink:href="#m9fb3a12f3f" y="565.714285714"/>
      </g>
     </g>
     <g id="line2d_28">
      <g>
       <use style="stroke:#000000;stroke-width:0.5;" x="1296.0" xlink:href="#m3a83d448fd" y="565.714285714"/>
      </g>
     </g>
     <g id="text_13">
      <!-- 20 -->
      <g transform="translate(160.73 569.025535714)scale(0.12 -0.12)">
       <use xlink:href="#BitstreamVeraSans-Roman-32"/>
       <use x="63.623046875" xlink:href="#BitstreamVeraSans-Roman-30"/>
      </g>
     </g>
    </g>
    <g id="ytick_3">
     <g id="line2d_29">
      <g>
       <use style="stroke:#000000;stroke-width:0.5;" x="180.0" xlink:href="#m9fb3a12f3f" y="483.428571429"/>
      </g>
     </g>
     <g id="line2d_30">
      <g>
       <use style="stroke:#000000;stroke-width:0.5;" x="1296.0" xlink:href="#m3a83d448fd" y="483.428571429"/>
      </g>
     </g>
     <g id="text_14">
      <!-- 30 -->
      <g transform="translate(160.73 486.739821429)scale(0.12 -0.12)">
       <use xlink:href="#BitstreamVeraSans-Roman-33"/>
       <use x="63.623046875" xlink:href="#BitstreamVeraSans-Roman-30"/>
      </g>
     </g>
    </g>
    <g id="ytick_4">
     <g id="line2d_31">
      <g>
       <use style="stroke:#000000;stroke-width:0.5;" x="180.0" xlink:href="#m9fb3a12f3f" y="401.142857143"/>
      </g>
     </g>
     <g id="line2d_32">
      <g>
       <use style="stroke:#000000;stroke-width:0.5;" x="1296.0" xlink:href="#m3a83d448fd" y="401.142857143"/>
      </g>
     </g>
     <g id="text_15">
      <!-- 40 -->
      <g transform="translate(160.73 404.454107143)scale(0.12 -0.12)">
       <use xlink:href="#BitstreamVeraSans-Roman-34"/>
       <use x="63.623046875" xlink:href="#BitstreamVeraSans-Roman-30"/>
      </g>
     </g>
    </g>
    <g id="ytick_5">
     <g id="line2d_33">
      <g>
       <use style="stroke:#000000;stroke-width:0.5;" x="180.0" xlink:href="#m9fb3a12f3f" y="318.857142857"/>
      </g>
     </g>
     <g id="line2d_34">
      <g>
       <use style="stroke:#000000;stroke-width:0.5;" x="1296.0" xlink:href="#m3a83d448fd" y="318.857142857"/>
      </g>
     </g>
     <g id="text_16">
      <!-- 50 -->
      <g transform="translate(160.73 322.168392857)scale(0.12 -0.12)">
       <use xlink:href="#BitstreamVeraSans-Roman-35"/>
       <use x="63.623046875" xlink:href="#BitstreamVeraSans-Roman-30"/>
      </g>
     </g>
    </g>
    <g id="ytick_6">
     <g id="line2d_35">
      <g>
       <use style="stroke:#000000;stroke-width:0.5;" x="180.0" xlink:href="#m9fb3a12f3f" y="236.571428571"/>
      </g>
     </g>
     <g id="line2d_36">
      <g>
       <use style="stroke:#000000;stroke-width:0.5;" x="1296.0" xlink:href="#m3a83d448fd" y="236.571428571"/>
      </g>
     </g>
     <g id="text_17">
      <!-- 60 -->
      <g transform="translate(160.73 239.882678571)scale(0.12 -0.12)">
       <use xlink:href="#BitstreamVeraSans-Roman-36"/>
       <use x="63.623046875" xlink:href="#BitstreamVeraSans-Roman-30"/>
      </g>
     </g>
    </g>
    <g id="ytick_7">
     <g id="line2d_37">
      <g>
       <use style="stroke:#000000;stroke-width:0.5;" x="180.0" xlink:href="#m9fb3a12f3f" y="154.285714286"/>
      </g>
     </g>
     <g id="line2d_38">
      <g>
       <use style="stroke:#000000;stroke-width:0.5;" x="1296.0" xlink:href="#m3a83d448fd" y="154.285714286"/>
      </g>
     </g>
     <g id="text_18">
      <!-- 70 -->
      <defs>
       <path d="M 8.203125 72.90625 
L 55.078125 72.90625 
L 55.078125 68.703125 
L 28.609375 0 
L 18.3125 0 
L 43.21875 64.59375 
L 8.203125 64.59375 
z
" id="BitstreamVeraSans-Roman-37"/>
      </defs>
      <g transform="translate(160.73 157.596964286)scale(0.12 -0.12)">
       <use xlink:href="#BitstreamVeraSans-Roman-37"/>
       <use x="63.623046875" xlink:href="#BitstreamVeraSans-Roman-30"/>
      </g>
     </g>
    </g>
    <g id="ytick_8">
     <g id="line2d_39">
      <g>
       <use style="stroke:#000000;stroke-width:0.5;" x="180.0" xlink:href="#m9fb3a12f3f" y="72.0"/>
      </g>
     </g>
     <g id="line2d_40">
      <g>
       <use style="stroke:#000000;stroke-width:0.5;" x="1296.0" xlink:href="#m3a83d448fd" y="72.0"/>
      </g>
     </g>
     <g id="text_19">
      <!-- 80 -->
      <defs>
       <path d="M 31.78125 34.625 
Q 24.75 34.625 20.71875 30.859375 
Q 16.703125 27.09375 16.703125 20.515625 
Q 16.703125 13.921875 20.71875 10.15625 
Q 24.75 6.390625 31.78125 6.390625 
Q 38.8125 6.390625 42.859375 10.171875 
Q 46.921875 13.96875 46.921875 20.515625 
Q 46.921875 27.09375 42.890625 30.859375 
Q 38.875 34.625 31.78125 34.625 
M 21.921875 38.8125 
Q 15.578125 40.375 12.03125 44.71875 
Q 8.5 49.078125 8.5 55.328125 
Q 8.5 64.0625 14.71875 69.140625 
Q 20.953125 74.21875 31.78125 74.21875 
Q 42.671875 74.21875 48.875 69.140625 
Q 55.078125 64.0625 55.078125 55.328125 
Q 55.078125 49.078125 51.53125 44.71875 
Q 48 40.375 41.703125 38.8125 
Q 48.828125 37.15625 52.796875 32.3125 
Q 56.78125 27.484375 56.78125 20.515625 
Q 56.78125 9.90625 50.3125 4.234375 
Q 43.84375 -1.421875 31.78125 -1.421875 
Q 19.734375 -1.421875 13.25 4.234375 
Q 6.78125 9.90625 6.78125 20.515625 
Q 6.78125 27.484375 10.78125 32.3125 
Q 14.796875 37.15625 21.921875 38.8125 
M 18.3125 54.390625 
Q 18.3125 48.734375 21.84375 45.5625 
Q 25.390625 42.390625 31.78125 42.390625 
Q 38.140625 42.390625 41.71875 45.5625 
Q 45.3125 48.734375 45.3125 54.390625 
Q 45.3125 60.0625 41.71875 63.234375 
Q 38.140625 66.40625 31.78125 66.40625 
Q 25.390625 66.40625 21.84375 63.234375 
Q 18.3125 60.0625 18.3125 54.390625 
" id="BitstreamVeraSans-Roman-38"/>
      </defs>
      <g transform="translate(160.73 75.31125)scale(0.12 -0.12)">
       <use xlink:href="#BitstreamVeraSans-Roman-38"/>
       <use x="63.623046875" xlink:href="#BitstreamVeraSans-Roman-30"/>
      </g>
     </g>
    </g>
   </g>
   <g id="text_20">
    <!-- TWTR -->
    <defs>
     <path d="M 3.328125 72.90625 
L 13.28125 72.90625 
L 28.609375 11.28125 
L 43.890625 72.90625 
L 54.984375 72.90625 
L 70.3125 11.28125 
L 85.59375 72.90625 
L 95.609375 72.90625 
L 77.296875 0 
L 64.890625 0 
L 49.515625 63.28125 
L 33.984375 0 
L 21.578125 0 
z
" id="BitstreamVeraSans-Roman-57"/>
     <path d="M 44.390625 34.1875 
Q 47.5625 33.109375 50.5625 29.59375 
Q 53.5625 26.078125 56.59375 19.921875 
L 66.609375 0 
L 56 0 
L 46.6875 18.703125 
Q 43.0625 26.03125 39.671875 28.421875 
Q 36.28125 30.8125 30.421875 30.8125 
L 19.671875 30.8125 
L 19.671875 0 
L 9.8125 0 
L 9.8125 72.90625 
L 32.078125 72.90625 
Q 44.578125 72.90625 50.734375 67.671875 
Q 56.890625 62.453125 56.890625 51.90625 
Q 56.890625 45.015625 53.6875 40.46875 
Q 50.484375 35.9375 44.390625 34.1875 
M 19.671875 64.796875 
L 19.671875 38.921875 
L 32.078125 38.921875 
Q 39.203125 38.921875 42.84375 42.21875 
Q 46.484375 45.515625 46.484375 51.90625 
Q 46.484375 58.296875 42.84375 61.546875 
Q 39.203125 64.796875 32.078125 64.796875 
z
" id="BitstreamVeraSans-Roman-52"/>
     <path d="M -0.296875 72.90625 
L 61.375 72.90625 
L 61.375 64.59375 
L 35.5 64.59375 
L 35.5 0 
L 25.59375 0 
L 25.59375 64.59375 
L -0.296875 64.59375 
z
" id="BitstreamVeraSans-Roman-54"/>
    </defs>
    <g transform="translate(717.082875 67.0)scale(0.144 -0.144)">
     <use xlink:href="#BitstreamVeraSans-Roman-54"/>
     <use x="61.083984375" xlink:href="#BitstreamVeraSans-Roman-57"/>
     <use x="159.9609375" xlink:href="#BitstreamVeraSans-Roman-54"/>
     <use x="221.044921875" xlink:href="#BitstreamVeraSans-Roman-52"/>
    </g>
   </g>
   <g id="legend_1">
    <g id="patch_7">
     <path d="M 1203.8625 125.793 
L 1288.8 125.793 
L 1288.8 79.2 
L 1203.8625 79.2 
z
" style="fill:#ffffff;stroke:#000000;stroke-linejoin:miter;"/>
    </g>
    <g id="line2d_41">
     <path d="M 1213.9425 90.86175 
L 1234.1025 90.86175 
" style="fill:none;stroke:#0000ff;stroke-linecap:square;"/>
    </g>
    <g id="line2d_42"/>
    <g id="text_21">
     <!-- High -->
     <defs>
      <path d="M 45.40625 27.984375 
Q 45.40625 37.75 41.375 43.109375 
Q 37.359375 48.484375 30.078125 48.484375 
Q 22.859375 48.484375 18.828125 43.109375 
Q 14.796875 37.75 14.796875 27.984375 
Q 14.796875 18.265625 18.828125 12.890625 
Q 22.859375 7.515625 30.078125 7.515625 
Q 37.359375 7.515625 41.375 12.890625 
Q 45.40625 18.265625 45.40625 27.984375 
M 54.390625 6.78125 
Q 54.390625 -7.171875 48.1875 -13.984375 
Q 42 -20.796875 29.203125 -20.796875 
Q 24.46875 -20.796875 20.265625 -20.09375 
Q 16.0625 -19.390625 12.109375 -17.921875 
L 12.109375 -9.1875 
Q 16.0625 -11.328125 19.921875 -12.34375 
Q 23.78125 -13.375 27.78125 -13.375 
Q 36.625 -13.375 41.015625 -8.765625 
Q 45.40625 -4.15625 45.40625 5.171875 
L 45.40625 9.625 
Q 42.625 4.78125 38.28125 2.390625 
Q 33.9375 0 27.875 0 
Q 17.828125 0 11.671875 7.65625 
Q 5.515625 15.328125 5.515625 27.984375 
Q 5.515625 40.671875 11.671875 48.328125 
Q 17.828125 56 27.875 56 
Q 33.9375 56 38.28125 53.609375 
Q 42.625 51.21875 45.40625 46.390625 
L 45.40625 54.6875 
L 54.390625 54.6875 
z
" id="BitstreamVeraSans-Roman-67"/>
      <path d="M 9.8125 72.90625 
L 19.671875 72.90625 
L 19.671875 43.015625 
L 55.515625 43.015625 
L 55.515625 72.90625 
L 65.375 72.90625 
L 65.375 0 
L 55.515625 0 
L 55.515625 34.71875 
L 19.671875 34.71875 
L 19.671875 0 
L 9.8125 0 
z
" id="BitstreamVeraSans-Roman-48"/>
      <path d="M 9.421875 54.6875 
L 18.40625 54.6875 
L 18.40625 0 
L 9.421875 0 
z
M 9.421875 75.984375 
L 18.40625 75.984375 
L 18.40625 64.59375 
L 9.421875 64.59375 
z
" id="BitstreamVeraSans-Roman-69"/>
      <path d="M 54.890625 33.015625 
L 54.890625 0 
L 45.90625 0 
L 45.90625 32.71875 
Q 45.90625 40.484375 42.875 44.328125 
Q 39.84375 48.1875 33.796875 48.1875 
Q 26.515625 48.1875 22.3125 43.546875 
Q 18.109375 38.921875 18.109375 30.90625 
L 18.109375 0 
L 9.078125 0 
L 9.078125 75.984375 
L 18.109375 75.984375 
L 18.109375 46.1875 
Q 21.34375 51.125 25.703125 53.5625 
Q 30.078125 56 35.796875 56 
Q 45.21875 56 50.046875 50.171875 
Q 54.890625 44.34375 54.890625 33.015625 
" id="BitstreamVeraSans-Roman-68"/>
     </defs>
     <g transform="translate(1249.9425 95.90175)scale(0.144 -0.144)">
      <use xlink:href="#BitstreamVeraSans-Roman-48"/>
      <use x="75.1953125" xlink:href="#BitstreamVeraSans-Roman-69"/>
      <use x="102.978515625" xlink:href="#BitstreamVeraSans-Roman-67"/>
      <use x="166.455078125" xlink:href="#BitstreamVeraSans-Roman-68"/>
     </g>
    </g>
    <g id="line2d_43">
     <path d="M 1213.9425 111.99825 
L 1234.1025 111.99825 
" style="fill:none;stroke:#ff0000;stroke-linecap:square;"/>
    </g>
    <g id="line2d_44"/>
    <g id="text_22">
     <!-- Low -->
     <defs>
      <path d="M 9.8125 72.90625 
L 19.671875 72.90625 
L 19.671875 8.296875 
L 55.171875 8.296875 
L 55.171875 0 
L 9.8125 0 
z
" id="BitstreamVeraSans-Roman-4c"/>
      <path d="M 30.609375 48.390625 
Q 23.390625 48.390625 19.1875 42.75 
Q 14.984375 37.109375 14.984375 27.296875 
Q 14.984375 17.484375 19.15625 11.84375 
Q 23.34375 6.203125 30.609375 6.203125 
Q 37.796875 6.203125 41.984375 11.859375 
Q 46.1875 17.53125 46.1875 27.296875 
Q 46.1875 37.015625 41.984375 42.703125 
Q 37.796875 48.390625 30.609375 48.390625 
M 30.609375 56 
Q 42.328125 56 49.015625 48.375 
Q 55.71875 40.765625 55.71875 27.296875 
Q 55.71875 13.875 49.015625 6.21875 
Q 42.328125 -1.421875 30.609375 -1.421875 
Q 18.84375 -1.421875 12.171875 6.21875 
Q 5.515625 13.875 5.515625 27.296875 
Q 5.515625 40.765625 12.171875 48.375 
Q 18.84375 56 30.609375 56 
" id="BitstreamVeraSans-Roman-6f"/>
      <path d="M 4.203125 54.6875 
L 13.1875 54.6875 
L 24.421875 12.015625 
L 35.59375 54.6875 
L 46.1875 54.6875 
L 57.421875 12.015625 
L 68.609375 54.6875 
L 77.59375 54.6875 
L 63.28125 0 
L 52.6875 0 
L 40.921875 44.828125 
L 29.109375 0 
L 18.5 0 
z
" id="BitstreamVeraSans-Roman-77"/>
     </defs>
     <g transform="translate(1249.9425 117.03825)scale(0.144 -0.144)">
      <use xlink:href="#BitstreamVeraSans-Roman-4c"/>
      <use x="55.697265625" xlink:href="#BitstreamVeraSans-Roman-6f"/>
      <use x="116.87890625" xlink:href="#BitstreamVeraSans-Roman-77"/>
     </g>
    </g>
   </g>
  </g>
 </g>
 <defs>
  <clipPath id="p5a7988aa6e">
   <rect height="576.0" width="1116.0" x="180.0" y="72.0"/>
  </clipPath>
 </defs>
</svg>
