<?xml version="1.0" encoding="utf-8" standalone="no"?>
<!DOCTYPE svg PUBLIC "-//W3C//DTD SVG 1.1//EN"
  "http://www.w3.org/Graphics/SVG/1.1/DTD/svg11.dtd">
<!-- Created with matplotlib (http://matplotlib.org/) -->
<svg height="720pt" version="1.1" viewBox="0 0 1440 720" width="1440pt" xmlns="http://www.w3.org/2000/svg" xmlns:xlink="http://www.w3.org/1999/xlink">
 <defs>
  <style type="text/css">
*{stroke-linecap:butt;stroke-linejoin:round;stroke-miterlimit:100000;}
  </style>
 </defs>
 <g id="figure_1">
  <g id="patch_1">
   <path d="M 0 720 
L 1440 720 
L 1440 0 
L 0 0 
z
" style="fill:#ffffff;"/>
  </g>
  <g id="axes_1">
   <g id="patch_2">
    <path d="M 180 648 
L 1296 648 
L 1296 72 
L 180 72 
z
" style="fill:#ffffff;"/>
   </g>
   <g id="line2d_1">
    <path clip-path="url(#pfb451e360d)" d="M 180 355.135987 
L 180.475906 338.239987 
L 180.951812 338.239987 
L 181.427719 324.8 
L 181.903625 322.879974 
L 183.331343 312.383987 
L 183.807249 319.679974 
L 184.283156 306.239987 
L 184.759062 296 
L 185.234968 310.079974 
L 187.138593 298.560013 
L 187.614499 324.8 
L 188.566311 347.2 
L 189.99403 346.175974 
L 190.469936 359.744 
L 190.945842 347.839987 
L 191.421748 359.744 
L 191.897655 358.464013 
L 193.325373 339.391987 
L 193.801279 328 
L 194.277186 406.079974 
L 194.753092 427.456 
L 195.228998 430.144 
L 196.656716 443.839987 
L 197.132623 425.279974 
L 197.608529 439.360013 
L 198.084435 426.431987 
L 198.560341 442.560013 
L 200.463966 431.039987 
L 200.939872 423.616013 
L 201.415778 411.583987 
L 201.891684 419.135987 
L 203.319403 416.831987 
L 203.795309 426.687987 
L 204.747122 438.335987 
L 205.223028 421.439987 
L 206.650746 417.6 
L 207.126652 415.039987 
L 207.602559 423.360013 
L 208.078465 419.775974 
L 208.554371 404.8 
L 209.98209 389.696 
L 210.457996 399.679974 
L 210.933902 401.6 
L 211.409808 385.344 
L 211.885714 379.839987 
L 213.313433 379.2 
L 213.789339 361.279974 
L 214.265245 354.624026 
L 215.217058 355.520026 
L 216.644776 367.168013 
L 217.120682 357.056 
L 217.596588 363.712013 
L 218.072495 356.672026 
L 218.548401 356.160013 
L 219.976119 355.520026 
L 220.452026 375.872026 
L 220.927932 368.320026 
L 221.403838 377.279974 
L 223.307463 373.439987 
L 223.783369 393.920026 
L 224.259275 394.560013 
L 224.735181 399.039987 
L 225.211087 382.912013 
L 226.638806 384.831987 
L 227.114712 384.831987 
L 227.590618 375.231987 
L 228.066525 371.775974 
L 228.542431 376 
L 229.970149 372.672026 
L 230.446055 375.231987 
L 230.921962 359.104 
L 231.397868 361.920026 
L 231.873774 331.2 
L 233.301493 304.575974 
L 233.777399 320.320026 
L 234.253305 327.360013 
L 234.729211 302.912013 
L 235.205117 302.527974 
L 236.632836 300.224026 
L 237.108742 315.2 
L 237.584648 349.760013 
L 238.060554 361.664013 
L 238.536461 383.168013 
L 239.964179 364.608013 
L 240.440085 351.808013 
L 240.915991 321.6 
L 241.867804 338.368013 
L 243.295522 327.360013 
L 243.771429 320.320026 
L 244.247335 350.912013 
L 244.723241 401.6 
L 245.199147 386.239987 
L 246.626866 392 
L 247.102772 425.664013 
L 247.578678 412.864013 
L 248.054584 393.279974 
L 248.53049 393.664013 
L 250.434115 383.679974 
L 251.385928 368.191987 
L 251.861834 393.535987 
L 253.289552 404.8 
L 253.765458 414.144 
L 254.241365 403.520026 
L 254.717271 383.168013 
L 255.193177 390.720026 
L 256.620896 376.768013 
L 257.096802 366.272026 
L 257.572708 363.2 
L 258.048614 340.8 
L 258.52452 333.760013 
L 259.952239 326.079974 
L 260.904051 354.752 
L 261.379957 358.464013 
L 261.855864 356.544 
L 263.283582 351.935987 
L 263.759488 382.016013 
L 264.235394 378.944 
L 264.711301 393.535987 
L 265.187207 386.879974 
L 267.090832 393.791987 
L 267.566738 389.824026 
L 268.042644 390.848 
L 268.51855 378.175974 
L 269.946269 374.720026 
L 270.422175 356.160013 
L 270.898081 347.2 
L 271.373987 355.391987 
L 271.849893 377.279974 
L 273.277612 425.791987 
L 273.753518 415.039987 
L 274.229424 408.256 
L 274.70533 391.104 
L 275.181237 387.648 
L 276.608955 394.431987 
L 277.084861 381.631987 
L 277.560768 400.320026 
L 278.036674 384.320026 
L 278.51258 391.487987 
L 279.940299 360.256 
L 280.416205 369.6 
L 280.892111 368.575974 
L 281.368017 368.320026 
L 281.843923 376.639987 
L 283.271642 385.983987 
L 283.747548 386.879974 
L 284.223454 418.368013 
L 285.175267 443.327974 
L 286.602985 436.031987 
L 287.078891 416.320026 
L 287.554797 418.879974 
L 288.030704 437.439987 
L 288.50661 446.656 
L 289.934328 429.887987 
L 290.410235 456.127974 
L 290.886141 466.879974 
L 291.362047 459.327974 
L 291.837953 453.952 
L 293.265672 470.720026 
L 293.741578 468.8 
L 294.217484 429.887987 
L 294.69339 441.791987 
L 295.169296 420.8 
L 297.072921 418.624026 
L 297.548827 411.456 
L 298.024733 402.496 
L 298.50064 408.639987 
L 300.404264 389.312013 
L 300.880171 396.352 
L 301.356077 399.296 
L 301.831983 390.720026 
L 303.259701 380.735987 
L 303.735608 350.4 
L 304.211514 355.008013 
L 304.68742 370.239987 
L 305.163326 354.239987 
L 306.591045 351.296 
L 307.066951 339.520026 
L 307.542857 335.679974 
L 308.018763 328 
L 308.49467 345.664013 
L 309.922388 361.920026 
L 310.398294 340.287987 
L 310.8742 344 
L 311.350107 321.727974 
L 311.826013 319.552 
L 313.253731 284.096 
L 313.729638 294.591987 
L 314.68145 271.808013 
L 315.157356 283.968013 
L 316.585075 289.087987 
L 317.060981 313.279974 
L 317.536887 302.4 
L 318.012793 299.2 
L 318.488699 307.264013 
L 319.916418 300.991987 
L 320.392324 318.656 
L 320.86823 351.039987 
L 321.344136 347.712013 
L 321.820043 346.687987 
L 323.247761 345.920026 
L 323.723667 335.679974 
L 324.199574 328.512013 
L 324.67548 311.744 
L 325.151386 320.960013 
L 326.579104 331.968013 
L 327.055011 308.416013 
L 328.006823 327.872026 
L 328.482729 331.327974 
L 329.910448 339.775974 
L 330.386354 352.320026 
L 330.86226 357.696 
L 331.338166 352.960013 
L 331.814072 361.279974 
L 333.241791 365.887987 
L 333.717697 377.920026 
L 334.193603 368.960013 
L 335.145416 356.160013 
L 336.573134 355.520026 
L 337.049041 360 
L 337.524947 334.783987 
L 338.000853 319.039987 
L 338.476759 290.879974 
L 339.904478 287.679974 
L 340.380384 280.768013 
L 340.85629 296.768013 
L 341.332196 296.768013 
L 341.808102 301.120026 
L 343.235821 271.679974 
L 343.711727 270.4 
L 344.187633 266.560013 
L 344.663539 256.960013 
L 345.139446 264.896 
L 346.567164 254.144 
L 347.04307 258.112013 
L 347.518977 257.727974 
L 347.994883 257.6 
L 349.898507 249.024026 
L 350.374414 248 
L 350.85032 235.712013 
L 351.326226 237.120026 
L 351.802132 241.6 
L 353.229851 217.279974 
L 353.705757 245.439987 
L 354.181663 256.960013 
L 354.657569 262.848 
L 355.133475 262.848 
L 356.561194 282.304 
L 357.0371 271.679974 
L 357.513006 275.008013 
L 357.988913 275.008013 
L 358.464819 260.287987 
L 360.368443 259.135987 
L 360.84435 280.512013 
L 361.320256 276.416013 
L 361.796162 241.983987 
L 363.223881 230.464013 
L 363.699787 244.8 
L 364.175693 238.4 
L 364.651599 222.527974 
L 365.127505 219.456 
L 366.555224 240.320026 
L 367.03113 238.656 
L 367.507036 302.4 
L 367.982942 296.639987 
L 368.458849 304.320026 
L 369.886567 310.720026 
L 370.362473 305.727974 
L 370.83838 304.191987 
L 371.314286 317.887987 
L 371.790192 308.672026 
L 373.21791 320.704 
L 373.693817 331.2 
L 374.169723 329.920026 
L 374.645629 329.920026 
L 375.121535 325.824026 
L 377.02516 330.944 
L 377.501066 342.591987 
L 377.976972 345.920026 
L 378.452878 347.2 
L 379.880597 324.8 
L 380.356503 325.439987 
L 380.832409 331.327974 
L 381.308316 323.008013 
L 381.784222 334.656 
L 383.21194 338.496 
L 384.163753 316.096 
L 384.639659 329.279974 
L 385.115565 331.2 
L 386.543284 331.2 
L 387.01919 354.496 
L 387.495096 362.431987 
L 387.971002 344.127974 
L 388.446908 332.479974 
L 389.874627 316.096 
L 390.350533 317.760013 
L 390.826439 329.920026 
L 391.302345 311.487987 
L 391.778252 315.327974 
L 393.20597 319.679974 
L 393.681876 317.120026 
L 394.157783 301.375974 
L 394.633689 301.375974 
L 395.109595 330.687987 
L 396.537313 329.408013 
L 397.01322 335.679974 
L 397.489126 326.720026 
L 397.965032 345.408013 
L 398.440938 332.096 
L 399.868657 339.775974 
L 400.344563 340.160013 
L 400.820469 325.696 
L 401.296375 328.768013 
L 401.772281 314.431987 
L 403.2 329.152 
L 403.675906 303.808013 
L 404.151812 289.983987 
L 404.627719 289.983987 
L 407.007249 280 
L 407.483156 305.6 
L 407.959062 311.616013 
L 408.434968 313.279974 
L 409.862687 307.520026 
L 410.338593 316.864013 
L 410.814499 323.264013 
L 411.290405 328 
L 411.766311 318.656 
L 413.19403 322.239987 
L 413.669936 315.327974 
L 414.145842 315.712013 
L 414.621748 299.2 
L 415.097655 308.672026 
L 416.525373 312.896 
L 417.001279 318.912013 
L 417.477186 319.039987 
L 417.953092 301.120026 
L 418.428998 290.752 
L 419.856716 314.048 
L 420.332623 312.639987 
L 420.808529 299.839987 
L 421.284435 302.656 
L 421.760341 302.4 
L 423.663966 270.4 
L 424.139872 278.720026 
L 424.615778 281.279974 
L 425.091684 284.608013 
L 426.519403 291.520026 
L 426.995309 288.320026 
L 428.423028 351.679974 
L 429.850746 344.512013 
L 430.326652 342.720026 
L 430.802559 363.839987 
L 431.278465 374.079974 
L 431.754371 364.096 
L 433.18209 367.679974 
L 433.657996 349.375974 
L 434.133902 375.360013 
L 435.085714 407.360013 
L 436.513433 381.375974 
L 436.989339 379.839987 
L 437.465245 369.087987 
L 437.941151 353.727974 
L 438.417058 346.687987 
L 440.320682 331.583987 
L 440.796588 346.175974 
L 441.272495 333.760013 
L 441.748401 350.016013 
L 443.176119 376.639987 
L 443.652026 377.791987 
L 444.127932 369.727974 
L 444.603838 383.808013 
L 445.079744 385.472026 
L 446.507463 402.368013 
L 446.983369 480.831987 
L 447.459275 473.920026 
L 447.935181 463.679974 
L 448.411087 472.639987 
L 449.838806 466.368013 
L 450.314712 469.056 
L 451.266525 480.320026 
L 451.742431 483.264013 
L 453.170149 485.824026 
L 453.646055 515.135987 
L 454.121962 495.552 
L 454.597868 514.624026 
L 455.073774 507.839987 
L 456.501493 540.352 
L 456.977399 513.6 
L 457.453305 523.712013 
L 457.929211 513.344 
L 458.405117 506.048 
L 459.832836 498.496 
L 460.308742 509.375974 
L 460.784648 510.912013 
L 461.260554 548.160013 
L 461.736461 554.048 
L 463.164179 567.232013 
L 463.640085 550.335987 
L 464.115991 538.560013 
L 464.591898 559.68 
L 466.495522 543.935987 
L 466.971429 551.104 
L 467.447335 536.512013 
L 467.923241 548.287987 
L 468.399147 553.279974 
L 470.302772 581.056 
L 470.778678 555.839987 
L 471.254584 566.336013 
L 471.73049 587.839987 
L 473.158209 602.687987 
L 473.634115 592.960013 
L 474.110021 586.944 
L 474.585928 559.68 
L 475.061834 560.576 
L 476.489552 585.791987 
L 476.965458 573.12 
L 477.441365 586.176 
L 477.917271 609.728 
L 478.393177 591.936013 
L 479.820896 584.639987 
L 480.296802 555.327974 
L 480.772708 564.032013 
L 481.248614 567.872 
L 481.72452 584.639987 
L 483.152239 576.960013 
L 483.628145 596.8 
L 484.104051 596.8 
L 484.579957 582.72 
L 485.055864 580.032013 
L 486.483582 556.479974 
L 486.959488 552 
L 487.435394 544.960013 
L 487.911301 560.832013 
L 488.387207 554.944 
L 489.814925 558.4 
L 490.290832 543.679974 
L 490.766738 558.912013 
L 491.242644 554.304 
L 491.71855 554.304 
L 493.146269 516.031987 
L 493.622175 518.591987 
L 494.098081 509.760013 
L 494.573987 488.127974 
L 495.049893 460.352 
L 496.477612 481.983987 
L 496.953518 526.4 
L 497.429424 502.208013 
L 497.90533 489.152 
L 498.381237 496.960013 
L 499.808955 503.104 
L 500.284861 496.064013 
L 500.760768 523.2 
L 501.236674 518.720026 
L 501.71258 505.152 
L 503.140299 510.144 
L 503.616205 535.231987 
L 504.092111 548.031987 
L 504.568017 557.760013 
L 505.043923 564.544 
L 506.471642 577.087987 
L 506.947548 582.463987 
L 507.423454 597.184013 
L 508.375267 579.52 
L 510.278891 559.039987 
L 510.754797 526.4 
L 511.230704 524.224026 
L 511.70661 520 
L 513.134328 518.079974 
L 513.610235 530.624026 
L 514.086141 531.648 
L 514.562047 550.079974 
L 515.037953 546.496 
L 516.465672 547.904 
L 517.417484 575.552 
L 517.89339 571.456 
L 518.369296 584.256 
L 519.797015 580.8 
L 520.272921 566.591987 
L 520.748827 570.432013 
L 521.224733 559.552 
L 521.70064 551.487987 
L 523.604264 554.431987 
L 524.080171 565.312013 
L 524.556077 564.928 
L 525.031983 564.928 
L 526.935608 539.2 
L 527.88742 552.127974 
L 529.791045 552.127974 
L 530.266951 545.856 
L 533.598294 545.856 
L 534.0742 513.216013 
L 534.550107 497.727974 
L 535.026013 492.224026 
L 536.453731 485.568013 
L 537.405544 496.064013 
L 537.88145 473.535987 
L 538.357356 488 
L 539.785075 497.983987 
L 540.260981 497.983987 
L 540.736887 467.264013 
L 541.212793 459.583987 
L 541.688699 432.064013 
L 543.116418 432.064013 
L 543.592324 429.631987 
L 544.06823 419.391987 
L 544.544136 421.183987 
L 545.020043 434.879974 
L 546.447761 438.975974 
L 546.923667 438.975974 
L 547.399574 420.031987 
L 547.87548 412.991987 
L 548.351386 412.479974 
L 550.255011 412.479974 
L 550.730917 423.487987 
L 551.206823 429.887987 
L 551.682729 422.208013 
L 553.110448 422.208013 
L 553.586354 403.008013 
L 554.06226 397.120026 
L 556.441791 397.120026 
L 556.917697 448.960013 
L 559.773134 448.960013 
L 560.249041 399.552 
L 560.724947 399.552 
L 561.200853 403.135987 
L 561.676759 399.424026 
L 563.104478 403.135987 
L 563.580384 403.135987 
L 564.05629 419.520026 
L 564.532196 427.072026 
L 565.008102 415.552 
L 566.435821 391.872026 
L 566.911727 389.568013 
L 567.387633 432.191987 
L 567.863539 437.952 
L 568.339446 437.952 
L 569.767164 418.752 
L 570.24307 416.960013 
L 570.718977 448.064013 
L 571.194883 452.031987 
L 573.098507 452.031987 
L 573.574414 469.824026 
L 574.05032 468.031987 
L 574.526226 448.448 
L 575.002132 445.120026 
L 576.429851 445.120026 
L 576.905757 427.968013 
L 577.381663 442.944 
L 577.857569 446.144 
L 578.333475 434.624026 
L 579.761194 454.335987 
L 580.2371 440.383987 
L 580.713006 400.704 
L 581.188913 409.024026 
L 581.664819 400.960013 
L 583.092537 399.679974 
L 583.568443 397.760013 
L 584.520256 397.760013 
L 584.996162 423.487987 
L 586.423881 432.191987 
L 587.375693 459.327974 
L 587.851599 446.4 
L 588.327505 448.831987 
L 589.755224 467.520026 
L 590.23113 477.248 
L 590.707036 478.272026 
L 591.658849 503.104 
L 593.086567 489.279974 
L 593.562473 466.879974 
L 594.990192 480.960013 
L 596.893817 460.479974 
L 597.369723 481.983987 
L 597.845629 477.120026 
L 598.321535 490.944 
L 599.749254 508.096 
L 600.22516 523.839987 
L 600.701066 514.496 
L 601.176972 496.320026 
L 601.652878 500.160013 
L 603.080597 500.160013 
L 603.556503 497.472026 
L 604.032409 502.079974 
L 604.508316 511.679974 
L 604.984222 498.879974 
L 606.41194 501.439987 
L 606.887846 501.439987 
L 607.363753 468.416013 
L 607.839659 463.808013 
L 608.315565 472.256 
L 609.743284 487.616013 
L 610.21919 488.256 
L 610.695096 483.008013 
L 611.171002 495.168013 
L 611.646908 459.456 
L 613.074627 454.720026 
L 613.550533 451.520026 
L 614.502345 453.439987 
L 614.978252 467.775974 
L 616.40597 464.960013 
L 616.881876 447.935987 
L 617.357783 461.248 
L 617.833689 471.231987 
L 618.309595 462.4 
L 620.21322 462.4 
L 620.689126 436.927974 
L 621.165032 398.912013 
L 621.640938 421.439987 
L 623.068657 423.744 
L 623.544563 428.096 
L 624.020469 429.248 
L 624.496375 409.279974 
L 624.972281 402.752 
L 626.4 403.135987 
L 626.875906 384.320026 
L 627.351812 387.135987 
L 627.827719 395.968013 
L 628.303625 371.135987 
L 629.731343 370.112013 
L 630.207249 374.591987 
L 630.683156 368.448 
L 631.159062 371.520026 
L 631.634968 372.031987 
L 633.062687 378.560013 
L 633.538593 381.375974 
L 634.014499 386.239987 
L 634.490405 386.879974 
L 634.966311 375.872026 
L 636.39403 376 
L 636.869936 374.079974 
L 637.345842 374.464013 
L 638.297655 364.352 
L 639.725373 363.2 
L 640.201279 368.831987 
L 640.677186 368.831987 
L 641.153092 368.960013 
L 641.628998 342.848 
L 643.532623 353.344 
L 644.008529 334.4 
L 644.484435 336.575974 
L 644.960341 317.120026 
L 646.38806 324.544 
L 646.863966 318.912013 
L 647.815778 318.912013 
L 648.291684 276.8 
L 649.719403 297.535987 
L 650.195309 284.479974 
L 650.671215 296.896 
L 651.147122 325.183987 
L 651.623028 315.968013 
L 653.050746 319.679974 
L 653.526652 315.839987 
L 654.002559 344 
L 654.478465 340.672026 
L 654.954371 334.4 
L 656.38209 309.312013 
L 656.857996 328.639987 
L 657.333902 332.224026 
L 658.285714 309.439987 
L 659.713433 319.296 
L 660.189339 337.344 
L 660.665245 337.344 
L 661.617058 344 
L 663.044776 340.544 
L 663.520682 334.783987 
L 664.472495 334.783987 
L 664.948401 316.224026 
L 666.376119 311.231987 
L 666.852026 326.464013 
L 667.327932 315.583987 
L 667.803838 309.824026 
L 668.279744 310.079974 
L 670.659275 308.8 
L 671.135181 302.4 
L 671.611087 300.479974 
L 673.038806 299.456 
L 673.514712 297.279974 
L 673.990618 318.272026 
L 674.466525 318.272026 
L 674.942431 336.320026 
L 676.370149 334.527974 
L 676.846055 344 
L 677.321962 327.744 
L 677.797868 343.872026 
L 678.273774 347.968013 
L 679.701493 335.679974 
L 680.177399 316.991987 
L 680.653305 308.8 
L 681.605117 308.8 
L 683.032836 307.904 
L 683.508742 316.479974 
L 683.984648 316.479974 
L 684.460554 296 
L 684.936461 290.752 
L 686.364179 282.560013 
L 686.840085 281.152 
L 687.315991 278.848 
L 687.791898 279.487987 
L 688.267804 279.487987 
L 689.695522 292.672026 
L 690.171429 286.144 
L 691.123241 297.920026 
L 691.599147 297.920026 
L 693.026866 289.087987 
L 693.502772 270.4 
L 693.978678 280.639987 
L 694.454584 287.039987 
L 694.93049 298.816013 
L 696.358209 303.935987 
L 697.310021 305.472026 
L 697.785928 294.079974 
L 698.261834 303.039987 
L 699.689552 286.527974 
L 701.117271 286.656 
L 701.593177 290.624026 
L 703.020896 300.479974 
L 703.496802 316.479974 
L 703.972708 320.831987 
L 704.448614 316.608013 
L 704.92452 303.808013 
L 706.352239 304.831987 
L 707.304051 322.879974 
L 707.779957 313.791987 
L 708.255864 312.256 
L 710.159488 314.431987 
L 710.635394 314.431987 
L 711.111301 318.272026 
L 711.587207 320.831987 
L 713.014925 303.168013 
L 713.490832 306.624026 
L 713.966738 310.975974 
L 714.442644 288.448 
L 714.91855 333.375974 
L 716.346269 337.6 
L 716.822175 342.591987 
L 717.298081 343.744 
L 717.773987 352.191987 
L 718.249893 350.144 
L 719.677612 343.487987 
L 720.153518 343.487987 
L 720.629424 302.4 
L 721.10533 315.712013 
L 723.960768 315.712013 
L 724.436674 323.904 
L 724.91258 310.720026 
L 726.340299 318.144 
L 726.816205 324.287987 
L 727.292111 313.152 
L 727.768017 313.152 
L 728.243923 310.464013 
L 729.671642 313.279974 
L 730.147548 313.279974 
L 730.623454 310.335987 
L 731.09936 301.760013 
L 731.575267 307.520026 
L 733.002985 308.160013 
L 733.478891 311.744 
L 733.954797 309.312013 
L 734.430704 313.791987 
L 734.90661 297.920026 
L 736.334328 302.783987 
L 736.810235 300.479974 
L 737.286141 277.439987 
L 737.762047 282.431987 
L 738.237953 279.872026 
L 739.665672 282.048 
L 740.141578 295.360013 
L 740.617484 290.624026 
L 741.09339 310.335987 
L 742.997015 312.896 
L 743.472921 301.120026 
L 743.948827 305.983987 
L 744.424733 303.935987 
L 744.90064 305.983987 
L 746.328358 305.087987 
L 746.804264 299.839987 
L 747.280171 292.287987 
L 747.756077 287.168013 
L 748.231983 297.920026 
L 749.659701 301.120026 
L 750.135608 288.831987 
L 750.611514 307.904 
L 751.08742 312.256 
L 751.563326 314.431987 
L 752.991045 306.368013 
L 753.466951 293.312013 
L 753.942857 304.191987 
L 754.89467 259.648 
L 756.322388 261.568013 
L 756.798294 243.520026 
L 757.2742 242.879974 
L 757.750107 269.120026 
L 758.226013 255.039987 
L 759.653731 268.096 
L 760.129638 269.631987 
L 760.605544 261.439987 
L 761.08145 265.279974 
L 761.557356 274.368013 
L 763.460981 283.327974 
L 763.936887 278.335987 
L 764.412793 255.679974 
L 764.888699 245.056 
L 766.316418 253.504 
L 766.792324 245.056 
L 767.26823 251.2 
L 767.744136 265.920026 
L 768.220043 263.487987 
L 770.123667 257.6 
L 770.599574 264 
L 771.07548 263.616013 
L 771.551386 272.320026 
L 772.979104 259.520026 
L 773.455011 258.624026 
L 773.930917 276.031987 
L 774.406823 273.983987 
L 774.882729 273.6 
L 776.310448 277.696 
L 776.786354 291.135987 
L 777.26226 284.352 
L 777.738166 283.072026 
L 778.214072 283.072026 
L 779.641791 266.560013 
L 780.117697 257.983987 
L 780.593603 258.239987 
L 781.06951 299.2 
L 781.545416 303.168013 
L 782.973134 340.544 
L 783.449041 329.279974 
L 783.924947 322.624026 
L 784.400853 320.831987 
L 784.876759 321.216013 
L 786.304478 314.560013 
L 786.780384 322.496 
L 787.25629 327.360013 
L 788.208102 328.768013 
L 789.635821 328.768013 
L 790.111727 331.072026 
L 790.587633 325.568013 
L 791.063539 305.216013 
L 791.539446 310.591987 
L 792.967164 296 
L 793.44307 279.487987 
L 793.918977 276.8 
L 794.394883 278.335987 
L 794.870789 240.960013 
L 796.298507 240.704 
L 796.774414 251.456 
L 797.726226 220.224026 
L 798.202132 220.224026 
L 799.629851 224.448 
L 800.105757 218.687987 
L 801.057569 215.487987 
L 801.533475 218.687987 
L 802.961194 217.408013 
L 803.4371 215.104 
L 803.913006 221.631987 
L 804.388913 220.224026 
L 804.864819 225.856 
L 806.292537 239.808013 
L 806.768443 235.072026 
L 807.24435 227.264013 
L 807.720256 245.568013 
L 808.196162 248.639987 
L 809.623881 246.079974 
L 810.099787 242.879974 
L 810.575693 249.920026 
L 811.051599 253.248 
L 811.527505 251.839987 
L 812.955224 257.216013 
L 813.43113 263.104 
L 814.858849 291.648 
L 816.762473 277.312013 
L 817.23838 267.327974 
L 817.714286 286.016013 
L 818.190192 276.8 
L 819.61791 266.048 
L 820.093817 257.472026 
L 820.569723 257.344 
L 821.045629 268.352 
L 821.521535 275.008013 
L 822.949254 259.648 
L 823.42516 262.335987 
L 823.901066 246.720026 
L 824.376972 223.552 
L 824.852878 236.352 
L 826.756503 251.327974 
L 828.184222 284.224026 
L 829.61194 299.968013 
L 830.087846 293.312013 
L 830.563753 294.464013 
L 831.039659 289.472026 
L 831.515565 304.448 
L 832.943284 315.2 
L 833.41919 308.672026 
L 833.895096 328 
L 834.371002 312.896 
L 834.846908 305.6 
L 836.274627 313.024026 
L 836.750533 313.024026 
L 837.226439 309.696 
L 837.702345 300.096 
L 838.178252 286.016013 
L 839.60597 280.768013 
L 840.081876 257.344 
L 840.557783 272.320026 
L 841.033689 270.272026 
L 841.509595 308.031987 
L 842.937313 315.2 
L 843.41322 316.608013 
L 843.889126 320.831987 
L 844.365032 330.431987 
L 844.840938 351.296 
L 846.268657 330.687987 
L 846.744563 338.879974 
L 847.220469 334.656 
L 847.696375 329.408013 
L 848.172281 335.296 
L 849.6 330.944 
L 850.075906 342.464013 
L 850.551812 358.848 
L 851.027719 366.783987 
L 851.503625 368.191987 
L 852.931343 360.127974 
L 853.407249 356.160013 
L 853.883156 351.039987 
L 854.359062 356.544 
L 854.834968 345.664013 
L 856.262687 347.072026 
L 856.738593 350.4 
L 857.214499 345.791987 
L 858.166311 338.239987 
L 859.59403 342.208013 
L 860.545842 359.231987 
L 861.021748 346.175974 
L 861.497655 351.679974 
L 862.925373 352.575974 
L 863.401279 346.687987 
L 863.877186 343.231987 
L 864.353092 362.944 
L 864.828998 369.344 
L 866.256716 361.791987 
L 866.732623 364.864013 
L 867.208529 336.448 
L 867.684435 321.344 
L 868.160341 323.135987 
L 869.58806 317.120026 
L 870.063966 317.760013 
L 871.015778 315.2 
L 871.491684 305.216013 
L 872.919403 294.591987 
L 873.395309 294.591987 
L 874.823028 305.727974 
L 876.250746 303.808013 
L 876.726652 305.983987 
L 877.202559 315.968013 
L 877.678465 315.327974 
L 878.154371 305.983987 
L 879.58209 322.239987 
L 880.057996 319.168013 
L 880.533902 322.752 
L 881.009808 322.752 
L 881.485714 325.056 
L 883.389339 317.248 
L 883.865245 319.296 
L 884.341151 325.183987 
L 884.817058 345.920026 
L 886.244776 341.312013 
L 886.720682 337.216013 
L 887.196588 353.727974 
L 887.672495 358.975974 
L 888.148401 421.952 
L 889.576119 428.096 
L 890.052026 436.031987 
L 890.527932 431.679974 
L 891.003838 423.487987 
L 891.479744 419.264013 
L 892.907463 417.344 
L 893.383369 407.231987 
L 894.335181 410.687987 
L 894.811087 403.135987 
L 896.714712 402.879974 
L 897.190618 398.272026 
L 897.666525 403.008013 
L 898.142431 388.672026 
L 900.046055 378.048 
L 900.997868 382.016013 
L 901.473774 357.824026 
L 902.901493 375.104 
L 903.377399 383.808013 
L 903.853305 383.424026 
L 904.329211 367.296 
L 904.805117 366.656 
L 906.232836 377.279974 
L 906.708742 378.431987 
L 907.184648 389.439987 
L 907.660554 388.287987 
L 908.136461 385.727974 
L 909.564179 374.591987 
L 910.040085 367.168013 
L 910.515991 373.952 
L 910.991898 395.712013 
L 911.467804 394.048 
L 912.895522 395.072026 
L 913.847335 380.864013 
L 914.323241 413.760013 
L 914.799147 421.056 
L 916.226866 406.464013 
L 916.702772 400.191987 
L 917.178678 396.352 
L 917.654584 402.368013 
L 918.13049 395.327974 
L 919.558209 396.735987 
L 920.034115 393.152 
L 920.510021 387.648 
L 920.985928 386.879974 
L 921.461834 393.920026 
L 923.365458 383.296 
L 923.841365 388.287987 
L 924.317271 382.912013 
L 926.220896 384.191987 
L 926.696802 373.439987 
L 927.172708 378.048 
L 927.648614 364.735987 
L 928.12452 300.096 
L 929.552239 290.368013 
L 930.504051 258.239987 
L 930.979957 260.287987 
L 931.455864 273.983987 
L 932.883582 279.104 
L 933.359488 278.464013 
L 933.835394 278.079974 
L 934.311301 274.368013 
L 934.787207 283.456 
L 936.214925 294.720026 
L 936.690832 284.096 
L 937.166738 292.416013 
L 937.642644 296 
L 938.11855 313.920026 
L 939.546269 301.887987 
L 940.022175 301.631987 
L 940.498081 303.552 
L 940.973987 299.839987 
L 941.449893 311.487987 
L 943.353518 311.104 
L 943.829424 326.079974 
L 944.30533 327.616013 
L 944.781237 320.320026 
L 946.208955 328 
L 946.684861 331.327974 
L 947.160768 332.096 
L 947.636674 329.279974 
L 948.11258 323.775974 
L 949.540299 328.256 
L 950.016205 340.672026 
L 950.492111 341.696 
L 950.968017 336.575974 
L 951.443923 342.208013 
L 952.871642 342.208013 
L 953.347548 350.016013 
L 953.823454 348.479974 
L 954.29936 335.808013 
L 954.775267 345.791987 
L 956.202985 335.168013 
L 956.678891 330.431987 
L 957.154797 328.383987 
L 957.630704 333.887987 
L 958.10661 326.464013 
L 959.534328 320.064013 
L 960.010235 323.008013 
L 960.486141 328.896 
L 960.962047 333.120026 
L 962.865672 340.287987 
L 964.29339 343.744 
L 964.769296 336.191987 
L 966.197015 326.591987 
L 966.672921 340.927974 
L 967.148827 330.048 
L 967.624733 326.720026 
L 968.10064 292.160013 
L 969.528358 294.079974 
L 970.004264 291.648 
L 970.480171 297.152 
L 970.956077 293.696 
L 971.431983 308.031987 
L 972.859701 307.648 
L 973.335608 312 
L 973.811514 319.168013 
L 974.28742 319.168013 
L 974.763326 327.744 
L 976.191045 339.904 
L 976.666951 330.687987 
L 977.142857 340.672026 
L 977.618763 340.672026 
L 978.09467 349.504 
L 979.522388 335.424026 
L 979.998294 335.935987 
L 980.4742 340.031987 
L 980.950107 306.496 
L 981.426013 311.872026 
L 982.853731 311.872026 
L 983.329638 303.424026 
L 983.805544 309.056 
L 984.28145 308.287987 
L 984.757356 314.304 
L 986.185075 308.031987 
L 986.660981 308.031987 
L 987.136887 311.231987 
L 987.612793 321.6 
L 988.088699 322.496 
L 989.992324 309.439987 
L 990.46823 304.448 
L 990.944136 276.672026 
L 991.420043 292.8 
L 992.847761 255.424026 
L 993.323667 276.031987 
L 993.799574 273.087987 
L 994.27548 264.896 
L 994.751386 248.127974 
L 996.179104 233.920026 
L 996.655011 225.6 
L 997.606823 231.487987 
L 998.082729 238.912013 
L 999.510448 245.056 
L 999.986354 257.6 
L 1000.46226 257.6 
L 1000.938166 258.496 
L 1001.414072 270.272026 
L 1002.841791 277.439987 
L 1003.793603 301.375974 
L 1004.26951 305.6 
L 1004.745416 320.320026 
L 1006.173134 296 
L 1006.649041 308.8 
L 1007.124947 287.679974 
L 1007.600853 315.968013 
L 1008.076759 326.464013 
L 1009.504478 315.968013 
L 1009.980384 329.408013 
L 1010.45629 334.016013 
L 1010.932196 323.391987 
L 1011.408102 303.552 
L 1012.835821 262.079974 
L 1013.311727 258.752 
L 1013.787633 269.760013 
L 1014.263539 258.879974 
L 1014.739446 256.064013 
L 1016.167164 266.687987 
L 1017.594883 251.456 
L 1018.070789 240.575974 
L 1019.498507 241.727974 
L 1019.974414 237.504 
L 1020.45032 234.560013 
L 1021.402132 253.887987 
L 1022.829851 242.112013 
L 1023.781663 242.112013 
L 1024.257569 216.127974 
L 1024.733475 229.952 
L 1026.161194 220.096 
L 1026.6371 220.735987 
L 1027.113006 227.264013 
L 1027.588913 247.872026 
L 1028.064819 240.575974 
L 1029.492537 227.264013 
L 1029.968443 211.904 
L 1030.44435 209.727974 
L 1031.396162 207.296 
L 1032.823881 192.448 
L 1033.299787 202.304 
L 1033.775693 216.639987 
L 1034.251599 205.631987 
L 1034.727505 204.352 
L 1036.155224 207.679974 
L 1036.63113 219.712013 
L 1037.107036 214.335987 
L 1037.582942 215.231987 
L 1038.058849 220.096 
L 1039.486567 226.879974 
L 1039.962473 235.968013 
L 1040.43838 242.624026 
L 1040.914286 213.183987 
L 1041.390192 213.439987 
L 1042.81791 220.991987 
L 1043.293817 216 
L 1044.721535 219.2 
L 1046.149254 214.975974 
L 1046.62516 214.975974 
L 1047.101066 213.056 
L 1048.052878 230.335987 
L 1049.956503 256.064013 
L 1050.432409 244.672026 
L 1050.908316 229.568013 
L 1051.384222 241.087987 
L 1052.81194 252.864013 
L 1053.287846 237.248 
L 1053.763753 275.135987 
L 1054.239659 280.768013 
L 1054.715565 295.487987 
L 1057.095096 280.512013 
L 1057.571002 279.744 
L 1058.046908 288.704 
L 1059.474627 274.368013 
L 1059.950533 272.704 
L 1060.426439 192.448 
L 1060.902345 181.056 
L 1061.378252 166.720026 
L 1062.80597 180.160013 
L 1063.281876 159.679974 
L 1063.757783 158.783987 
L 1064.233689 156.864013 
L 1064.709595 153.024026 
L 1066.137313 152.127974 
L 1066.61322 138.048051 
L 1067.089126 140.608013 
L 1067.565032 115.136038 
L 1068.040938 117.440038 
L 1069.944563 118.463962 
L 1070.420469 123.712013 
L 1070.896375 121.791987 
L 1071.372281 121.791987 
L 1072.8 125.759962 
L 1073.275906 134.336038 
L 1073.751812 117.824026 
L 1074.227719 128.575974 
L 1074.703625 135.871974 
L 1076.131343 142.655962 
L 1077.083156 135.232026 
L 1077.559062 144.575974 
L 1078.034968 158.4 
L 1079.462687 156.352 
L 1079.938593 169.152 
L 1080.414499 178.752 
L 1080.890405 181.312013 
L 1081.366311 200 
L 1082.79403 187.456 
L 1083.269936 195.135987 
L 1083.745842 187.072026 
L 1084.221748 188.096 
L 1084.697655 198.208013 
L 1086.125373 203.327974 
L 1086.601279 194.239987 
L 1087.077186 202.560013 
L 1087.553092 219.456 
L 1088.028998 232.383987 
L 1089.456716 231.360013 
L 1089.932623 232.512013 
L 1090.408529 217.664013 
L 1090.884435 217.152 
L 1092.78806 206.656 
L 1093.263966 217.024026 
L 1093.739872 260.544 
L 1094.215778 283.2 
L 1094.691684 284.608013 
L 1096.119403 292.8 
L 1097.071215 289.856 
L 1097.547122 263.872026 
L 1098.023028 291.135987 
L 1099.450746 284.224026 
L 1099.926652 268.991987 
L 1100.402559 261.696 
L 1100.878465 251.327974 
L 1101.354371 183.487987 
L 1102.78209 171.968013 
L 1103.257996 186.431987 
L 1103.733902 171.583987 
L 1104.209808 196.287987 
L 1104.685714 200.639987 
L 1106.113433 184.768013 
L 1106.589339 200 
L 1107.065245 208.960013 
L 1107.541151 202.816013 
L 1108.017058 180.544 
L 1109.444776 183.360013 
L 1109.920682 205.631987 
L 1110.396588 180.160013 
L 1110.872495 179.391987 
L 1111.348401 154.560013 
L 1112.776119 161.087987 
L 1113.252026 168.896 
L 1114.203838 148.032026 
L 1114.679744 155.839987 
L 1116.583369 166.591987 
L 1117.059275 175.039987 
L 1118.011087 182.208013 
L 1119.914712 175.808013 
L 1120.390618 163.135987 
L 1120.866525 170.944 
L 1121.342431 191.552 
L 1122.770149 184.768013 
L 1123.246055 185.024026 
L 1124.197868 150.591987 
L 1124.673774 147.391987 
L 1126.101493 156.991987 
L 1126.577399 142.4 
L 1127.053305 141.504 
L 1127.529211 132.928026 
L 1128.005117 140.991987 
L 1129.432836 105.024026 
L 1129.908742 109.632026 
L 1130.384648 133.312013 
L 1130.860554 150.079974 
L 1131.336461 139.2 
L 1132.764179 161.087987 
L 1133.240085 161.6 
L 1133.715991 160.831987 
L 1134.191898 248.127974 
L 1136.095522 255.552 
L 1136.571429 249.152 
L 1137.047335 250.687987 
L 1137.523241 243.520026 
L 1137.999147 230.848 
L 1139.902772 206.783987 
L 1140.378678 216.896 
L 1140.854584 205.887987 
L 1141.33049 216 
L 1143.234115 203.2 
L 1143.710021 209.087987 
L 1144.185928 211.008013 
L 1144.661834 209.216013 
L 1146.089552 212.160013 
L 1146.565458 227.520026 
L 1147.041365 225.216013 
L 1147.517271 225.983987 
L 1147.993177 219.712013 
L 1149.420896 209.216013 
L 1149.896802 219.968013 
L 1150.372708 223.424026 
L 1150.848614 219.456 
L 1151.32452 239.168013 
L 1152.752239 235.712013 
L 1153.228145 239.552 
L 1153.704051 254.016013 
L 1154.179957 241.727974 
L 1154.655864 243.135987 
L 1156.083582 250.175974 
L 1156.559488 247.231987 
L 1157.035394 247.104 
L 1157.511301 249.920026 
L 1157.987207 258.368013 
L 1159.414925 257.344 
L 1160.366738 236.864013 
L 1161.31855 226.879974 
L 1162.746269 241.472026 
L 1163.222175 264.639987 
L 1163.698081 259.520026 
L 1164.173987 248.127974 
L 1164.649893 250.048 
L 1166.553518 223.808013 
L 1167.029424 211.135987 
L 1167.50533 214.591987 
L 1167.981237 207.039987 
L 1169.408955 218.431987 
L 1169.884861 232 
L 1170.360768 211.775974 
L 1170.836674 201.535987 
L 1171.31258 207.296 
L 1172.740299 227.135987 
L 1173.216205 250.175974 
L 1173.692111 251.2 
L 1174.168017 273.344 
L 1174.643923 267.327974 
L 1176.071642 282.048 
L 1176.547548 277.056 
L 1177.023454 245.952 
L 1177.49936 249.920026 
L 1177.975267 244.672026 
L 1179.402985 227.520026 
L 1179.878891 210.879974 
L 1180.354797 217.024026 
L 1181.30661 197.952 
L 1182.734328 208.960013 
L 1183.210235 209.856 
L 1183.686141 198.208013 
L 1184.162047 208.191987 
L 1184.637953 181.056 
L 1186.065672 176.575974 
L 1186.541578 167.487987 
L 1187.017484 176.831987 
L 1187.49339 190.783987 
L 1187.969296 177.727974 
L 1189.872921 207.168013 
L 1190.348827 191.296 
L 1190.824733 206.912013 
L 1191.30064 208.960013 
L 1192.728358 249.279974 
L 1193.204264 250.304 
L 1193.680171 247.360013 
L 1194.156077 240.575974 
L 1194.631983 255.039987 
L 1196.535608 251.072026 
L 1197.011514 236.864013 
L 1197.48742 244.927974 
L 1197.963326 258.879974 
L 1199.391045 262.079974 
L 1199.866951 256.575974 
L 1200.342857 258.112013 
L 1200.818763 240.448 
L 1201.29467 189.120026 
L 1202.722388 231.104 
L 1203.198294 236.608013 
L 1203.6742 229.056 
L 1204.626013 233.152 
L 1206.053731 209.983987 
L 1207.005544 231.616013 
L 1207.48145 228.927974 
L 1207.957356 239.935987 
L 1209.385075 341.183987 
L 1209.860981 352.320026 
L 1210.336887 351.424026 
L 1211.288699 378.816013 
L 1212.716418 374.975974 
L 1213.192324 377.535987 
L 1213.66823 355.520026 
L 1214.144136 349.248 
L 1214.620043 359.872026 
L 1216.047761 364.479974 
L 1216.523667 361.279974 
L 1216.999574 348.608013 
L 1217.47548 348.479974 
L 1219.379104 342.079974 
L 1219.855011 337.087987 
L 1220.330917 341.056 
L 1220.806823 348.479974 
L 1222.710448 355.391987 
L 1223.186354 375.616013 
L 1223.66226 378.175974 
L 1224.138166 372.8 
L 1224.614072 377.791987 
L 1226.041791 389.183987 
L 1226.517697 399.168013 
L 1226.993603 393.664013 
L 1227.46951 402.112013 
L 1227.945416 429.887987 
L 1229.849041 419.135987 
L 1230.324947 427.456 
L 1230.800853 420.8 
L 1231.276759 427.712013 
L 1232.704478 429.248 
L 1233.180384 420.8 
L 1233.65629 422.208013 
L 1234.132196 393.279974 
L 1234.608102 408.896 
L 1236.035821 411.839987 
L 1236.511727 416.704 
L 1236.987633 418.624026 
L 1237.463539 408.256 
L 1237.939446 394.816013 
L 1239.367164 409.024026 
L 1239.84307 409.791987 
L 1240.318977 406.591987 
L 1240.794883 429.631987 
L 1241.270789 416.320026 
L 1243.174414 403.135987 
L 1243.65032 392.383987 
L 1244.126226 374.720026 
L 1244.602132 379.072026 
L 1246.029851 381.760013 
L 1246.505757 388.672026 
L 1246.981663 399.935987 
L 1247.457569 371.648 
L 1247.933475 359.872026 
L 1249.361194 362.175974 
L 1249.8371 359.104 
L 1250.313006 366.016013 
L 1250.788913 361.152 
L 1251.264819 342.591987 
L 1252.692537 351.296 
L 1253.168443 352.704 
L 1253.64435 353.6 
L 1254.120256 352.064013 
L 1254.596162 331.327974 
L 1256.023881 325.952 
L 1256.499787 328.768013 
L 1256.975693 321.6 
L 1257.451599 316.224026 
L 1257.927505 312.512013 
L 1259.355224 316.352 
L 1259.83113 314.944 
L 1260.307036 314.048 
L 1260.782942 324.160013 
L 1262.686567 321.6 
L 1263.162473 314.687987 
L 1263.63838 297.920026 
L 1264.114286 292.927974 
L 1264.590192 290.239987 
L 1266.01791 285.760013 
L 1266.493817 294.591987 
L 1266.969723 318.272026 
L 1267.445629 322.496 
L 1267.921535 307.904 
L 1269.349254 306.368013 
L 1269.82516 298.560013 
L 1270.776972 290.752 
L 1271.252878 295.487987 
L 1272.680597 286.272026 
L 1273.156503 268.479974 
L 1273.632409 277.312013 
L 1274.108316 280.512013 
L 1274.584222 282.175974 
L 1276.01194 279.104 
L 1276.487846 288.704 
L 1276.963753 294.079974 
L 1277.439659 225.6 
L 1277.915565 216.383987 
L 1279.81919 233.535987 
L 1280.295096 239.935987 
L 1280.771002 237.631987 
L 1281.246908 245.056 
L 1282.674627 248 
L 1283.150533 235.968013 
L 1283.626439 240.960013 
L 1284.102345 255.935987 
L 1284.578252 278.335987 
L 1286.00597 279.231987 
L 1286.481876 277.312013 
L 1286.957783 285.248 
L 1287.433689 309.183987 
L 1287.909595 309.183987 
L 1289.337313 298.560013 
L 1289.81322 279.744 
L 1290.289126 267.839987 
L 1290.765032 264.768013 
L 1291.240938 270.272026 
L 1293.144563 279.104 
L 1294.096375 274.752 
L 1294.572281 270.016013 
L 1296 266.175974 
L 1296 266.175974 
" style="fill:none;stroke:#0000ff;stroke-linecap:square;"/>
   </g>
   <g id="line2d_2">
    <path clip-path="url(#pfb451e360d)" d="M 180 357.696 
L 180.475906 345.279974 
L 180.951812 342.335987 
L 181.427719 329.279974 
L 181.903625 328 
L 183.331343 315.583987 
L 183.807249 326.720026 
L 184.283156 315.968013 
L 184.759062 300.479974 
L 185.234968 311.744 
L 187.138593 313.279974 
L 188.090405 361.279974 
L 188.566311 363.2 
L 189.99403 352.704 
L 190.469936 369.983987 
L 190.945842 358.720026 
L 191.421748 365.760013 
L 191.897655 368.320026 
L 193.325373 345.664013 
L 193.801279 343.360013 
L 194.277186 423.360013 
L 194.753092 445.760013 
L 195.228998 455.360013 
L 196.656716 448.960013 
L 197.132623 436.160013 
L 197.608529 448.320026 
L 198.084435 434.879974 
L 198.560341 446.527974 
L 200.463966 442.687987 
L 201.415778 418.624026 
L 201.891684 425.152 
L 203.319403 416.960013 
L 203.795309 438.720026 
L 204.271215 433.087987 
L 204.747122 442.560013 
L 205.223028 428.479974 
L 206.650746 422.848 
L 207.126652 420.160013 
L 207.602559 425.791987 
L 208.078465 419.775974 
L 208.554371 415.424026 
L 209.98209 394.560013 
L 210.457996 408.639987 
L 210.933902 401.6 
L 211.409808 386.879974 
L 211.885714 380.479974 
L 213.313433 382.4 
L 213.789339 372.160013 
L 214.265245 357.439987 
L 214.741151 357.439987 
L 215.217058 367.168013 
L 216.644776 367.168013 
L 217.120682 357.183987 
L 217.596588 367.168013 
L 218.072495 360.639987 
L 218.548401 356.672026 
L 219.976119 356.287987 
L 220.452026 378.560013 
L 220.927932 383.679974 
L 221.403838 381.760013 
L 223.307463 378.560013 
L 223.783369 396.479974 
L 224.259275 396.479974 
L 224.735181 400.064013 
L 225.211087 384.960013 
L 227.114712 384.831987 
L 227.590618 376.896 
L 228.066525 373.312013 
L 228.542431 383.039987 
L 229.970149 375.231987 
L 230.446055 375.231987 
L 230.921962 360.639987 
L 231.397868 375.231987 
L 231.873774 348.608013 
L 233.301493 311.231987 
L 233.777399 340.416013 
L 234.253305 342.720026 
L 234.729211 306.752 
L 235.205117 311.616013 
L 236.632836 307.391987 
L 237.584648 358.720026 
L 238.060554 411.327974 
L 238.536461 419.520026 
L 239.964179 369.6 
L 240.440085 369.216013 
L 240.915991 335.039987 
L 241.391898 338.879974 
L 241.867804 355.520026 
L 243.295522 339.648 
L 243.771429 351.424026 
L 244.247335 366.4 
L 244.723241 410.304 
L 245.199147 405.056 
L 246.626866 405.568013 
L 247.102772 436.160013 
L 248.054584 410.431987 
L 248.53049 399.424026 
L 250.434115 393.279974 
L 250.910021 386.879974 
L 251.385928 374.591987 
L 251.861834 408 
L 253.289552 418.879974 
L 253.765458 424 
L 254.241365 417.6 
L 254.717271 392.639987 
L 255.193177 399.039987 
L 256.620896 384.960013 
L 257.096802 377.920026 
L 258.52452 335.039987 
L 259.952239 340.8 
L 260.428145 352.960013 
L 260.904051 360 
L 261.379957 362.560013 
L 261.855864 366.4 
L 263.283582 356.160013 
L 263.759488 395.2 
L 264.235394 379.839987 
L 264.711301 398.4 
L 265.187207 402.624026 
L 267.090832 402.879974 
L 267.566738 406.079974 
L 268.042644 395.839987 
L 268.51855 382.016013 
L 269.946269 378.560013 
L 270.422175 357.312013 
L 270.898081 354.624026 
L 271.373987 358.720026 
L 271.849893 390.720026 
L 273.277612 433.087987 
L 273.753518 422.079974 
L 274.229424 422.720026 
L 274.70533 397.631987 
L 275.181237 390.464013 
L 276.608955 397.120026 
L 277.084861 395.2 
L 277.560768 407.360013 
L 278.036674 399.679974 
L 278.51258 399.039987 
L 279.940299 368.064013 
L 280.416205 376.896 
L 280.892111 374.720026 
L 281.368017 379.839987 
L 281.843923 381.504 
L 283.271642 388.927974 
L 283.747548 398.4 
L 284.223454 423.616013 
L 285.175267 445.375974 
L 286.602985 440.639987 
L 287.078891 423.487987 
L 287.554797 426.304 
L 288.030704 443.2 
L 288.50661 450.239987 
L 289.934328 439.360013 
L 290.886141 478.144 
L 291.362047 463.808013 
L 291.837953 455.360013 
L 293.741578 476.864013 
L 294.217484 449.6 
L 294.69339 445.248 
L 295.169296 425.152 
L 297.072921 424.639987 
L 297.548827 417.6 
L 298.50064 413.760013 
L 299.928358 396.735987 
L 300.404264 406.079974 
L 300.880171 402.239987 
L 301.356077 405.952 
L 301.831983 396.735987 
L 303.259701 390.720026 
L 303.735608 363.968013 
L 304.211514 364.864013 
L 304.68742 378.560013 
L 305.163326 363.712013 
L 306.591045 360.383987 
L 307.542857 342.079974 
L 308.018763 339.775974 
L 308.49467 353.6 
L 309.922388 363.839987 
L 310.398294 348.864013 
L 310.8742 344 
L 311.350107 329.920026 
L 311.826013 328 
L 313.253731 298.944 
L 313.729638 297.279974 
L 314.205544 285.248 
L 314.68145 279.360013 
L 315.157356 289.472026 
L 316.585075 290.496 
L 317.060981 317.375974 
L 317.536887 315.712013 
L 318.012793 307.264013 
L 318.488699 312 
L 319.916418 303.039987 
L 320.392324 324.160013 
L 320.86823 360.512013 
L 321.344136 361.664013 
L 321.820043 351.039987 
L 323.247761 353.472026 
L 323.723667 339.775974 
L 324.199574 338.624026 
L 324.67548 315.2 
L 325.151386 322.496 
L 326.579104 338.239987 
L 327.055011 327.616013 
L 327.530917 327.487987 
L 328.006823 340.544 
L 328.482729 347.2 
L 329.910448 349.760013 
L 330.386354 365.248 
L 330.86226 365.887987 
L 331.338166 352.960013 
L 331.814072 368.960013 
L 333.241791 370.239987 
L 333.717697 377.920026 
L 334.193603 369.6 
L 335.145416 358.335987 
L 336.573134 356.927974 
L 337.049041 360 
L 337.524947 344.256 
L 338.476759 297.920026 
L 339.904478 293.824026 
L 340.380384 296.768013 
L 340.85629 296.768013 
L 341.332196 301.120026 
L 341.808102 301.120026 
L 343.235821 276.672026 
L 343.711727 275.520026 
L 344.187633 273.6 
L 344.663539 260.031987 
L 345.139446 269.504 
L 346.567164 257.727974 
L 347.04307 260.160013 
L 347.994883 257.6 
L 349.898507 253.375974 
L 350.374414 250.048 
L 350.85032 237.760013 
L 351.326226 238.4 
L 351.802132 241.6 
L 353.229851 224.320026 
L 353.705757 245.439987 
L 354.181663 258.879974 
L 354.657569 268.352 
L 355.133475 262.848 
L 356.561194 286.527974 
L 357.0371 271.808013 
L 357.513006 275.008013 
L 357.988913 279.360013 
L 358.464819 265.920026 
L 360.368443 263.360013 
L 360.84435 280.512013 
L 361.320256 281.535987 
L 361.796162 242.239987 
L 363.223881 234.175974 
L 363.699787 248.512013 
L 364.175693 238.4 
L 364.651599 225.6 
L 365.127505 240.320026 
L 366.555224 240.320026 
L 367.03113 244.160013 
L 367.507036 304.064013 
L 367.982942 306.112013 
L 368.458849 304.320026 
L 369.886567 310.720026 
L 370.362473 310.848 
L 370.83838 308.672026 
L 371.314286 322.239987 
L 371.790192 308.672026 
L 373.21791 320.704 
L 373.693817 331.2 
L 374.169723 331.456 
L 374.645629 329.920026 
L 375.121535 328 
L 377.02516 333.120026 
L 377.501066 348.608013 
L 377.976972 347.2 
L 378.452878 347.2 
L 379.880597 326.848 
L 380.356503 335.552 
L 380.832409 332.352 
L 381.308316 326.335987 
L 381.784222 335.168013 
L 383.21194 338.496 
L 384.163753 316.096 
L 384.639659 329.791987 
L 385.115565 332.479974 
L 386.543284 331.2 
L 387.01919 362.560013 
L 387.495096 379.2 
L 387.971002 350.144 
L 388.446908 332.479974 
L 390.350533 317.760013 
L 390.826439 335.039987 
L 391.302345 314.687987 
L 391.778252 324.160013 
L 393.20597 324.160013 
L 394.157783 309.439987 
L 394.633689 301.375974 
L 395.109595 330.687987 
L 396.537313 335.552 
L 397.01322 340.160013 
L 397.489126 331.072026 
L 397.965032 346.304 
L 398.440938 337.344 
L 399.868657 346.175974 
L 400.344563 343.487987 
L 400.820469 328.768013 
L 401.296375 328.768013 
L 401.772281 319.552 
L 403.2 329.279974 
L 404.151812 293.183987 
L 404.627719 289.983987 
L 406.531343 287.679974 
L 407.007249 284.352 
L 407.483156 306.239987 
L 407.959062 311.616013 
L 408.434968 314.431987 
L 409.862687 312.256 
L 410.338593 317.760013 
L 410.814499 325.696 
L 411.290405 341.312013 
L 411.766311 327.487987 
L 413.19403 324.416013 
L 413.669936 317.631987 
L 414.145842 323.520026 
L 414.621748 309.568013 
L 415.097655 308.672026 
L 416.525373 316.864013 
L 417.001279 323.520026 
L 417.477186 319.039987 
L 417.953092 301.760013 
L 418.428998 300.224026 
L 419.856716 322.879974 
L 420.332623 317.887987 
L 420.808529 305.472026 
L 421.284435 312 
L 421.760341 302.4 
L 423.663966 276.160013 
L 424.139872 293.439987 
L 424.615778 293.568013 
L 425.091684 291.648 
L 426.519403 291.520026 
L 426.995309 292.160013 
L 427.471215 319.679974 
L 427.947122 325.312013 
L 428.423028 357.312013 
L 429.850746 356.8 
L 430.326652 351.679974 
L 430.802559 375.872026 
L 431.278465 374.848 
L 431.754371 366.912013 
L 433.18209 367.935987 
L 433.657996 357.056 
L 434.133902 377.664013 
L 434.609808 405.312013 
L 435.085714 407.360013 
L 436.513433 390.591987 
L 436.989339 380.479974 
L 437.465245 373.696 
L 438.417058 347.968013 
L 440.320682 333.504 
L 440.796588 351.039987 
L 441.272495 339.008013 
L 441.748401 356.8 
L 443.176119 382.656 
L 443.652026 377.791987 
L 444.127932 380.991987 
L 444.603838 388.416013 
L 445.079744 385.472026 
L 446.507463 408.639987 
L 446.983369 494.527974 
L 447.459275 481.856 
L 447.935181 477.375974 
L 448.411087 480.320026 
L 449.838806 468.287987 
L 450.790618 485.312013 
L 451.266525 486.720026 
L 451.742431 486.848 
L 453.170149 499.008013 
L 453.646055 522.816013 
L 454.121962 507.968013 
L 454.597868 545.983987 
L 455.073774 519.616013 
L 456.501493 545.856 
L 456.977399 516.927974 
L 457.453305 537.920026 
L 457.929211 513.727974 
L 458.405117 506.560013 
L 459.832836 499.520026 
L 460.308742 509.375974 
L 460.784648 512.575974 
L 461.260554 559.167987 
L 461.736461 567.232013 
L 463.164179 567.232013 
L 463.640085 556.352 
L 464.115991 548.8 
L 465.067804 571.2 
L 466.495522 546.368013 
L 466.971429 560.960013 
L 467.447335 539.2 
L 467.923241 548.287987 
L 468.399147 553.279974 
L 470.302772 585.28 
L 470.778678 561.6 
L 471.254584 566.336013 
L 471.73049 589.760013 
L 473.158209 608.832013 
L 473.634115 597.312013 
L 474.110021 592.32 
L 474.585928 564.928 
L 475.061834 570.048 
L 476.489552 591.296 
L 476.965458 582.08 
L 477.441365 589.376 
L 477.917271 612.160013 
L 478.393177 601.663987 
L 479.820896 598.208013 
L 480.296802 563.52 
L 480.772708 577.6 
L 481.248614 577.6 
L 481.72452 595.391987 
L 483.152239 583.360013 
L 483.628145 601.92 
L 484.104051 596.8 
L 484.579957 582.72 
L 485.055864 582.72 
L 486.483582 563.263987 
L 486.959488 563.263987 
L 487.435394 545.856 
L 487.911301 562.752 
L 488.387207 554.944 
L 489.814925 558.4 
L 490.290832 568.256 
L 490.766738 560.32 
L 491.242644 562.496 
L 491.71855 554.304 
L 493.146269 523.839987 
L 493.622175 527.039987 
L 494.098081 515.648 
L 495.049893 469.952 
L 496.477612 491.072026 
L 496.953518 532.927974 
L 497.429424 506.560013 
L 497.90533 493.248 
L 499.808955 508.479974 
L 500.284861 502.335987 
L 500.760768 527.679974 
L 501.236674 525.504 
L 501.71258 505.152 
L 503.140299 510.144 
L 503.616205 545.216013 
L 504.092111 553.408013 
L 504.568017 566.591987 
L 505.043923 565.439987 
L 506.471642 586.176 
L 506.947548 587.584013 
L 507.423454 597.184013 
L 508.375267 585.791987 
L 509.802985 571.2 
L 510.278891 569.024 
L 510.754797 532.8 
L 511.230704 530.368013 
L 511.70661 525.375974 
L 513.134328 523.2 
L 513.610235 530.879974 
L 514.086141 531.648 
L 514.562047 553.664013 
L 515.037953 547.904 
L 516.465672 547.904 
L 517.417484 577.087987 
L 517.89339 571.584013 
L 518.369296 584.256 
L 519.797015 590.656 
L 520.272921 572.991987 
L 520.748827 570.815987 
L 521.224733 559.552 
L 521.70064 554.560013 
L 523.604264 554.431987 
L 524.080171 568.256 
L 524.556077 568.639987 
L 525.031983 564.928 
L 526.935608 539.456 
L 527.411514 548.160013 
L 527.88742 552.127974 
L 529.791045 552.127974 
L 530.266951 545.856 
L 533.598294 545.856 
L 534.0742 513.983987 
L 534.550107 497.727974 
L 535.026013 492.479974 
L 536.453731 485.568013 
L 536.929638 500.927974 
L 537.405544 496.064013 
L 537.88145 488.256 
L 538.357356 490.175974 
L 539.785075 500.160013 
L 540.260981 497.983987 
L 540.736887 476.479974 
L 541.212793 464.064013 
L 541.688699 433.216013 
L 543.116418 432.064013 
L 543.592324 429.631987 
L 544.06823 424.256 
L 544.544136 421.183987 
L 545.020043 438.975974 
L 546.923667 438.975974 
L 547.399574 420.031987 
L 547.87548 412.991987 
L 548.351386 412.479974 
L 550.255011 412.479974 
L 550.730917 424.639987 
L 551.206823 429.887987 
L 551.682729 422.208013 
L 553.110448 422.208013 
L 553.586354 403.008013 
L 554.06226 398.4 
L 554.538166 397.120026 
L 556.441791 397.120026 
L 556.917697 448.960013 
L 559.773134 448.960013 
L 560.249041 399.552 
L 560.724947 399.552 
L 561.200853 403.135987 
L 563.104478 407.487987 
L 563.580384 403.135987 
L 564.05629 420.160013 
L 564.532196 431.552 
L 565.008102 420.927974 
L 566.435821 395.072026 
L 566.911727 399.552 
L 567.387633 437.952 
L 568.339446 437.952 
L 569.767164 422.720026 
L 570.24307 424.127974 
L 570.718977 452.031987 
L 573.098507 452.031987 
L 573.574414 469.824026 
L 574.05032 473.664013 
L 574.526226 448.448 
L 575.002132 445.120026 
L 576.429851 445.120026 
L 576.905757 427.968013 
L 577.381663 447.808013 
L 577.857569 448.704 
L 578.333475 434.752 
L 579.761194 464.191987 
L 580.2371 449.6 
L 580.713006 410.560013 
L 581.188913 409.024026 
L 581.664819 400.960013 
L 583.092537 402.239987 
L 583.568443 400.960013 
L 584.04435 397.760013 
L 584.520256 397.760013 
L 584.996162 432.448 
L 586.423881 438.335987 
L 586.899787 454.464013 
L 587.375693 463.679974 
L 587.851599 449.472026 
L 588.327505 448.831987 
L 589.755224 472 
L 590.23113 477.760013 
L 590.707036 487.231987 
L 591.182942 492.096 
L 591.658849 504.896 
L 593.086567 489.279974 
L 593.562473 471.360013 
L 594.03838 471.360013 
L 594.514286 481.216013 
L 594.990192 485.183987 
L 596.893817 460.479974 
L 597.369723 482.239987 
L 597.845629 484.160013 
L 598.321535 503.104 
L 599.749254 508.096 
L 600.22516 523.839987 
L 600.701066 514.752 
L 601.176972 499.264013 
L 601.652878 511.679974 
L 603.080597 500.160013 
L 603.556503 499.520026 
L 604.508316 514.239987 
L 604.984222 498.879974 
L 606.41194 501.439987 
L 606.887846 501.439987 
L 607.363753 473.152 
L 608.315565 472.256 
L 609.743284 488.256 
L 610.21919 488.256 
L 610.695096 483.008013 
L 611.171002 495.168013 
L 611.646908 461.631987 
L 613.074627 457.408013 
L 613.550533 455.360013 
L 614.502345 453.439987 
L 614.978252 472 
L 616.40597 464.960013 
L 616.881876 452.927974 
L 617.357783 464.064013 
L 617.833689 471.231987 
L 618.309595 462.4 
L 620.21322 462.4 
L 620.689126 436.927974 
L 621.165032 405.439987 
L 621.640938 422.079974 
L 623.068657 427.968013 
L 623.544563 431.935987 
L 624.020469 429.248 
L 624.496375 409.279974 
L 624.972281 413.631987 
L 626.4 403.135987 
L 626.875906 386.368013 
L 627.351812 395.968013 
L 627.827719 395.968013 
L 628.303625 371.135987 
L 629.731343 370.112013 
L 630.207249 374.720026 
L 630.683156 376.127974 
L 631.159062 371.904 
L 631.634968 374.720026 
L 633.062687 381.375974 
L 633.538593 381.375974 
L 634.014499 386.239987 
L 634.490405 386.879974 
L 634.966311 375.872026 
L 636.39403 379.2 
L 636.869936 375.231987 
L 637.345842 374.464013 
L 637.821748 372.031987 
L 638.297655 366.656 
L 639.725373 363.2 
L 640.201279 374.720026 
L 640.677186 368.831987 
L 641.153092 368.960013 
L 641.628998 342.848 
L 643.532623 353.344 
L 644.008529 339.135987 
L 644.484435 338.879974 
L 644.960341 323.391987 
L 646.38806 324.544 
L 646.863966 328.256 
L 647.339872 318.912013 
L 647.815778 318.912013 
L 648.291684 279.360013 
L 649.719403 301.887987 
L 650.195309 290.879974 
L 651.147122 325.183987 
L 651.623028 319.679974 
L 653.526652 326.591987 
L 654.002559 344 
L 654.478465 340.672026 
L 654.954371 335.552 
L 656.38209 322.879974 
L 656.857996 328.768013 
L 657.333902 332.224026 
L 658.285714 309.439987 
L 659.713433 325.183987 
L 660.189339 337.344 
L 660.665245 337.344 
L 661.617058 350.656 
L 663.044776 340.544 
L 663.520682 334.783987 
L 664.472495 334.783987 
L 664.948401 320.960013 
L 666.376119 321.983987 
L 666.852026 328.256 
L 667.327932 322.496 
L 667.803838 314.048 
L 668.279744 312 
L 670.659275 328 
L 671.135181 302.4 
L 671.611087 300.479974 
L 673.038806 306.239987 
L 673.514712 297.279974 
L 673.990618 319.039987 
L 674.466525 318.272026 
L 674.942431 341.056 
L 676.370149 341.056 
L 676.846055 349.120026 
L 677.321962 336.575974 
L 677.797868 345.920026 
L 678.273774 347.968013 
L 679.701493 335.679974 
L 680.653305 308.8 
L 681.605117 308.8 
L 683.032836 307.904 
L 683.508742 316.479974 
L 683.984648 316.479974 
L 684.460554 296.639987 
L 684.936461 301.760013 
L 686.364179 286.527974 
L 686.840085 283.327974 
L 687.315991 280.896 
L 687.791898 279.487987 
L 688.267804 279.487987 
L 689.695522 293.439987 
L 690.171429 292.416013 
L 690.647335 297.920026 
L 691.599147 297.920026 
L 693.026866 289.087987 
L 693.502772 276.8 
L 694.454584 291.648 
L 694.93049 303.935987 
L 696.358209 303.935987 
L 697.310021 305.6 
L 697.785928 301.120026 
L 698.261834 303.039987 
L 699.689552 301.120026 
L 700.641365 286.656 
L 701.117271 286.656 
L 701.593177 290.624026 
L 703.020896 304.320026 
L 703.496802 316.479974 
L 703.972708 321.344 
L 704.448614 316.608013 
L 704.92452 313.791987 
L 706.352239 307.775974 
L 706.828145 313.024026 
L 707.304051 323.135987 
L 707.779957 313.791987 
L 708.255864 314.431987 
L 710.635394 314.431987 
L 711.111301 323.391987 
L 711.587207 320.831987 
L 713.014925 306.624026 
L 713.490832 306.624026 
L 713.966738 310.975974 
L 714.442644 293.696 
L 714.91855 350.4 
L 716.346269 340.031987 
L 716.822175 344 
L 717.298081 349.248 
L 717.773987 357.056 
L 718.249893 352.191987 
L 719.677612 346.560013 
L 720.153518 343.487987 
L 720.629424 306.239987 
L 721.10533 316.352 
L 721.581237 315.712013 
L 723.960768 315.712013 
L 724.436674 325.952 
L 724.91258 313.279974 
L 726.340299 329.279974 
L 726.816205 324.287987 
L 727.292111 323.520026 
L 727.768017 313.152 
L 728.243923 310.464013 
L 729.671642 313.791987 
L 730.147548 313.279974 
L 730.623454 310.591987 
L 731.09936 304.320026 
L 731.575267 308.8 
L 733.002985 309.824026 
L 733.478891 316.608013 
L 733.954797 310.079974 
L 734.430704 315.839987 
L 734.90661 300.479974 
L 736.334328 306.624026 
L 736.810235 303.039987 
L 737.286141 283.968013 
L 737.762047 286.527974 
L 738.237953 282.048 
L 739.665672 282.048 
L 740.141578 296.512013 
L 740.617484 319.039987 
L 741.09339 310.975974 
L 742.997015 316.479974 
L 743.472921 309.183987 
L 743.948827 305.983987 
L 744.424733 310.079974 
L 744.90064 305.983987 
L 746.328358 309.824026 
L 746.804264 301.375974 
L 747.280171 295.872026 
L 747.756077 287.168013 
L 748.231983 298.431987 
L 749.659701 306.368013 
L 750.135608 292.160013 
L 750.611514 309.439987 
L 751.08742 316.864013 
L 751.563326 320.191987 
L 752.991045 309.568013 
L 753.466951 302.4 
L 753.942857 315.2 
L 754.418763 289.344 
L 754.89467 271.679974 
L 756.322388 264.512013 
L 756.798294 248.639987 
L 757.2742 244.672026 
L 757.750107 271.296 
L 758.226013 263.104 
L 759.653731 273.216013 
L 760.129638 272.320026 
L 760.605544 266.816013 
L 761.08145 273.344 
L 761.557356 277.696 
L 762.985075 281.408013 
L 763.460981 286.016013 
L 763.936887 278.464013 
L 764.412793 262.975974 
L 764.888699 255.168013 
L 766.316418 260.927974 
L 766.792324 254.144 
L 767.26823 255.424026 
L 767.744136 270.783987 
L 768.220043 271.935987 
L 770.123667 270.144 
L 770.599574 266.175974 
L 771.07548 265.535987 
L 771.551386 277.952 
L 772.979104 272.960013 
L 773.455011 265.408013 
L 773.930917 282.944 
L 774.406823 284.608013 
L 774.882729 274.239987 
L 776.310448 277.696 
L 776.786354 291.135987 
L 777.26226 289.087987 
L 777.738166 300.352 
L 778.214072 283.072026 
L 779.641791 275.008013 
L 780.593603 259.904 
L 781.06951 304.831987 
L 781.545416 312.639987 
L 782.973134 353.472026 
L 783.449041 337.087987 
L 783.924947 329.279974 
L 784.400853 329.152 
L 784.876759 325.824026 
L 786.304478 317.248 
L 786.780384 331.839987 
L 787.25629 332.224026 
L 788.208102 330.816013 
L 789.635821 333.631987 
L 790.111727 340.160013 
L 790.587633 328.383987 
L 791.063539 312.127974 
L 791.539446 311.487987 
L 792.967164 300.735987 
L 793.44307 288.960013 
L 793.918977 289.087987 
L 794.394883 294.848 
L 794.870789 246.079974 
L 796.298507 246.208013 
L 796.774414 255.679974 
L 797.726226 234.816013 
L 798.202132 224.960013 
L 799.629851 229.568013 
L 800.581663 226.496 
L 801.057569 227.520026 
L 801.533475 222.912013 
L 802.961194 223.935987 
L 803.4371 218.560013 
L 803.913006 224.960013 
L 804.388913 225.727974 
L 806.292537 244.927974 
L 806.768443 242.239987 
L 807.24435 228.927974 
L 807.720256 257.856 
L 808.196162 257.6 
L 810.099787 247.872026 
L 810.575693 261.312013 
L 811.051599 256.704 
L 811.527505 258.879974 
L 812.955224 264.383987 
L 813.43113 268.479974 
L 814.858849 293.312013 
L 816.762473 280.383987 
L 817.23838 271.039987 
L 817.714286 289.087987 
L 818.190192 282.175974 
L 819.61791 272.448 
L 820.093817 260.416013 
L 820.569723 263.744 
L 821.045629 271.168013 
L 821.521535 280.512013 
L 822.949254 269.248 
L 823.42516 266.560013 
L 823.901066 262.079974 
L 824.376972 230.848 
L 824.852878 241.472026 
L 826.280597 253.887987 
L 826.756503 256.575974 
L 827.232409 267.327974 
L 827.708316 274.239987 
L 828.184222 287.935987 
L 829.61194 303.808013 
L 830.087846 298.816013 
L 830.563753 299.2 
L 831.039659 298.944 
L 831.515565 308.287987 
L 832.943284 317.504 
L 833.41919 316.735987 
L 833.895096 331.2 
L 834.846908 308.927974 
L 836.274627 319.935987 
L 836.750533 318.144 
L 837.226439 319.039987 
L 838.178252 289.983987 
L 839.60597 286.272026 
L 840.081876 266.304 
L 840.557783 278.079974 
L 841.033689 275.391987 
L 841.509595 323.775974 
L 842.937313 321.727974 
L 843.41322 321.6 
L 843.889126 325.056 
L 844.365032 337.344 
L 844.840938 354.879974 
L 846.268657 336.320026 
L 846.744563 340.8 
L 847.220469 337.6 
L 847.696375 337.472026 
L 848.172281 338.752 
L 849.6 336.448 
L 850.075906 344.512013 
L 850.551812 364.352 
L 851.027719 379.2 
L 851.503625 371.135987 
L 852.931343 368.575974 
L 853.407249 360.127974 
L 853.883156 365.504 
L 854.359062 360.512013 
L 854.834968 351.168013 
L 856.262687 350.912013 
L 856.738593 350.527974 
L 857.214499 347.072026 
L 858.166311 345.535987 
L 859.59403 347.2 
L 860.069936 356.672026 
L 860.545842 361.664013 
L 861.021748 351.935987 
L 861.497655 358.079974 
L 862.925373 358.720026 
L 863.401279 351.424026 
L 863.877186 348.224026 
L 864.353092 371.520026 
L 864.828998 372.287987 
L 866.256716 368.320026 
L 866.732623 369.727974 
L 867.684435 326.848 
L 868.160341 328 
L 869.58806 320.575974 
L 870.063966 320.575974 
L 871.015778 317.120026 
L 871.491684 307.135987 
L 872.919403 302.144 
L 873.395309 298.687987 
L 874.347122 310.079974 
L 874.823028 307.135987 
L 876.250746 307.520026 
L 876.726652 309.824026 
L 877.202559 319.935987 
L 877.678465 322.368013 
L 878.154371 313.408013 
L 879.58209 328.639987 
L 880.057996 324.672026 
L 880.533902 323.648 
L 881.009808 323.904 
L 881.485714 329.152 
L 883.389339 322.879974 
L 883.865245 323.008013 
L 884.341151 330.175974 
L 884.817058 352.831987 
L 886.244776 352.191987 
L 886.720682 343.744 
L 887.672495 371.264013 
L 888.148401 425.920026 
L 890.052026 441.535987 
L 890.527932 434.752 
L 891.003838 426.304 
L 891.479744 424.256 
L 892.907463 419.135987 
L 893.383369 410.048 
L 893.859275 411.583987 
L 894.335181 416.704 
L 894.811087 407.360013 
L 897.190618 403.775974 
L 897.666525 407.487987 
L 898.142431 393.279974 
L 899.570149 385.6 
L 900.046055 381.120026 
L 900.521962 381.120026 
L 900.997868 386.239987 
L 901.473774 363.968013 
L 902.901493 382.4 
L 903.377399 393.279974 
L 903.853305 386.496 
L 904.329211 372.8 
L 904.805117 371.264013 
L 906.232836 378.944 
L 906.708742 379.712013 
L 907.184648 394.304 
L 907.660554 404.672026 
L 908.136461 389.056 
L 909.564179 377.535987 
L 910.040085 371.008013 
L 910.991898 399.808013 
L 911.467804 396.991987 
L 912.895522 400.960013 
L 913.371429 394.944 
L 913.847335 387.135987 
L 914.323241 421.312013 
L 914.799147 422.720026 
L 916.226866 413.375974 
L 916.702772 405.952 
L 917.178678 401.856 
L 917.654584 405.824026 
L 918.13049 402.112013 
L 919.558209 400.704 
L 920.034115 393.152 
L 920.510021 389.952 
L 921.461834 395.968013 
L 922.889552 393.920026 
L 923.365458 387.391987 
L 923.841365 392.639987 
L 924.317271 387.648 
L 926.220896 386.496 
L 926.696802 377.152 
L 927.172708 378.048 
L 927.648614 368.960013 
L 928.12452 306.112013 
L 929.552239 296.639987 
L 930.504051 261.824026 
L 930.979957 261.312013 
L 931.455864 283.712013 
L 932.883582 282.944 
L 933.359488 283.968013 
L 933.835394 281.664013 
L 934.311301 276.927974 
L 934.787207 287.935987 
L 936.214925 298.687987 
L 936.690832 291.135987 
L 937.166738 300.991987 
L 937.642644 307.135987 
L 938.11855 318.783987 
L 939.546269 305.856 
L 940.022175 307.008013 
L 940.498081 305.983987 
L 940.973987 303.168013 
L 941.449893 314.304 
L 943.353518 314.048 
L 943.829424 328.512013 
L 944.30533 328 
L 944.781237 324.416013 
L 946.208955 332.224026 
L 946.684861 334.144 
L 947.160768 335.296 
L 947.636674 331.456 
L 948.11258 326.591987 
L 949.540299 330.175974 
L 950.016205 342.335987 
L 950.492111 342.079974 
L 950.968017 338.879974 
L 951.443923 343.231987 
L 952.871642 342.208013 
L 953.347548 351.552 
L 953.823454 349.760013 
L 954.29936 341.696 
L 954.775267 348.991987 
L 956.202985 336.575974 
L 956.678891 331.2 
L 957.154797 332.864013 
L 957.630704 336.831987 
L 958.10661 326.591987 
L 959.534328 323.648 
L 960.010235 325.824026 
L 960.486141 328.896 
L 960.962047 335.679974 
L 962.865672 340.416013 
L 963.817484 344.383987 
L 964.29339 347.968013 
L 964.769296 336.831987 
L 966.197015 331.327974 
L 966.672921 342.335987 
L 967.148827 331.712013 
L 967.624733 328.256 
L 968.10064 298.304 
L 969.528358 299.2 
L 970.004264 291.648 
L 970.480171 300.735987 
L 970.956077 298.816013 
L 971.431983 310.975974 
L 972.859701 308.287987 
L 973.335608 314.560013 
L 973.811514 323.135987 
L 974.28742 319.168013 
L 974.763326 330.175974 
L 976.191045 339.904 
L 976.666951 332.479974 
L 977.142857 343.616013 
L 977.618763 340.672026 
L 978.09467 359.104 
L 979.522388 338.496 
L 979.998294 340.031987 
L 980.4742 340.031987 
L 981.426013 317.760013 
L 982.853731 314.304 
L 983.329638 305.472026 
L 983.805544 312.127974 
L 984.28145 309.952 
L 984.757356 315.456 
L 986.185075 308.031987 
L 986.660981 308.031987 
L 987.136887 311.231987 
L 987.612793 322.496 
L 988.088699 322.496 
L 989.992324 309.952 
L 990.46823 304.448 
L 990.944136 309.696 
L 991.420043 292.8 
L 992.847761 268.352 
L 993.323667 285.120026 
L 993.799574 284.352 
L 994.27548 271.552 
L 994.751386 251.2 
L 996.179104 241.856 
L 996.655011 232.639987 
L 997.606823 233.791987 
L 998.082729 242.239987 
L 999.510448 249.920026 
L 999.986354 263.104 
L 1000.46226 257.983987 
L 1000.938166 264.256 
L 1001.414072 272.064013 
L 1002.841791 278.720026 
L 1003.317697 298.560013 
L 1004.26951 320.320026 
L 1004.745416 325.312013 
L 1006.173134 301.248 
L 1006.649041 308.8 
L 1007.124947 298.687987 
L 1007.600853 321.983987 
L 1008.076759 331.456 
L 1009.504478 326.208013 
L 1010.45629 344.768013 
L 1010.932196 327.104 
L 1011.408102 303.552 
L 1012.835821 267.839987 
L 1013.311727 268.864013 
L 1013.787633 273.216013 
L 1014.263539 264.256 
L 1014.739446 259.648 
L 1016.167164 269.375974 
L 1016.64307 261.312013 
L 1017.118977 264.127974 
L 1017.594883 260.8 
L 1018.070789 243.135987 
L 1019.498507 241.727974 
L 1020.45032 240.064013 
L 1020.926226 246.464013 
L 1021.402132 257.856 
L 1022.829851 242.752 
L 1023.305757 242.112013 
L 1023.781663 242.112013 
L 1024.257569 217.920026 
L 1024.733475 232.639987 
L 1026.161194 225.983987 
L 1026.6371 224.831987 
L 1027.113006 230.591987 
L 1027.588913 248.512013 
L 1028.064819 240.575974 
L 1029.492537 227.264013 
L 1029.968443 212.160013 
L 1030.44435 213.056 
L 1031.396162 208.064013 
L 1032.823881 196.031987 
L 1033.299787 212.672026 
L 1033.775693 217.791987 
L 1034.251599 207.808013 
L 1034.727505 210.496 
L 1036.155224 207.679974 
L 1036.63113 224.831987 
L 1037.107036 215.231987 
L 1037.582942 215.231987 
L 1038.058849 222.656 
L 1039.486567 239.296 
L 1039.962473 239.808013 
L 1040.43838 251.327974 
L 1040.914286 223.679974 
L 1041.390192 216.127974 
L 1042.81791 220.991987 
L 1043.293817 216.896 
L 1043.769723 217.152 
L 1044.721535 219.2 
L 1046.149254 214.975974 
L 1046.62516 214.975974 
L 1047.101066 217.408013 
L 1048.052878 233.024026 
L 1049.480597 262.335987 
L 1049.956503 257.216013 
L 1050.432409 248 
L 1050.908316 230.720026 
L 1051.384222 241.216013 
L 1052.81194 255.168013 
L 1053.287846 250.687987 
L 1053.763753 284.352 
L 1054.239659 281.791987 
L 1054.715565 297.920026 
L 1056.61919 286.272026 
L 1057.095096 287.168013 
L 1057.571002 281.279974 
L 1058.046908 292.544 
L 1059.474627 279.231987 
L 1059.950533 278.975974 
L 1060.426439 202.048 
L 1060.902345 193.216013 
L 1061.378252 177.344 
L 1062.80597 186.944 
L 1063.281876 166.464013 
L 1063.757783 160.575974 
L 1064.233689 161.6 
L 1064.709595 163.264013 
L 1066.137313 155.2 
L 1066.61322 138.048051 
L 1067.089126 140.608013 
L 1067.565032 120.383987 
L 1068.040938 118.720026 
L 1069.944563 118.463962 
L 1070.896375 129.6 
L 1071.372281 138.687987 
L 1072.8 125.759962 
L 1073.275906 136.640038 
L 1073.751812 123.2 
L 1074.227719 135.871974 
L 1074.703625 135.871974 
L 1076.131343 146.496 
L 1076.607249 142.655962 
L 1077.083156 149.183987 
L 1077.559062 144.704 
L 1078.034968 168.512013 
L 1079.462687 163.520026 
L 1080.414499 181.056 
L 1080.890405 182.208013 
L 1081.366311 205.631987 
L 1082.79403 191.808013 
L 1083.269936 207.935987 
L 1083.745842 201.408013 
L 1084.221748 203.072026 
L 1084.697655 203.712013 
L 1086.125373 217.920026 
L 1086.601279 197.568013 
L 1087.077186 209.727974 
L 1087.553092 242.879974 
L 1088.028998 232.383987 
L 1089.456716 238.783987 
L 1089.932623 236.224026 
L 1090.408529 225.6 
L 1090.884435 220.352 
L 1092.78806 209.6 
L 1093.263966 219.583987 
L 1093.739872 276.8 
L 1094.215778 285.760013 
L 1094.691684 299.072026 
L 1096.119403 294.720026 
L 1096.595309 293.696 
L 1097.071215 294.335987 
L 1097.547122 266.048 
L 1098.023028 294.464013 
L 1099.450746 293.183987 
L 1100.402559 261.696 
L 1100.878465 257.472026 
L 1101.354371 189.120026 
L 1102.78209 187.2 
L 1103.257996 196.416013 
L 1103.733902 180.544 
L 1104.209808 200.127974 
L 1104.685714 203.968013 
L 1106.113433 188.991987 
L 1106.589339 208.448 
L 1107.065245 212.8 
L 1107.541151 206.272026 
L 1108.017058 191.552 
L 1109.444776 187.839987 
L 1109.920682 210.239987 
L 1110.396588 184.512013 
L 1111.348401 175.679974 
L 1112.776119 166.335987 
L 1113.252026 183.104 
L 1113.727932 169.535987 
L 1114.203838 151.487987 
L 1114.679744 158.912013 
L 1116.583369 181.439987 
L 1117.059275 175.935987 
L 1117.535181 180.287987 
L 1118.011087 188.735987 
L 1119.438806 192.831987 
L 1119.914712 184.512013 
L 1120.390618 178.879974 
L 1120.866525 176.960013 
L 1121.342431 197.439987 
L 1122.770149 189.631987 
L 1123.246055 187.839987 
L 1123.721962 172.352 
L 1124.197868 153.024026 
L 1124.673774 156.352 
L 1126.101493 162.496 
L 1126.577399 148.544038 
L 1127.053305 148.287987 
L 1127.529211 147.520026 
L 1128.005117 145.855962 
L 1129.432836 110.4 
L 1129.908742 123.712013 
L 1130.384648 146.496 
L 1130.860554 153.920026 
L 1131.336461 146.367974 
L 1133.240085 171.327974 
L 1133.715991 238.016013 
L 1134.191898 257.6 
L 1136.095522 266.431987 
L 1136.571429 266.175974 
L 1137.523241 247.360013 
L 1137.999147 230.848 
L 1139.902772 211.775974 
L 1140.378678 219.839987 
L 1140.854584 212.927974 
L 1141.33049 226.624026 
L 1142.758209 217.408013 
L 1143.234115 208.448 
L 1143.710021 213.183987 
L 1144.185928 211.008013 
L 1144.661834 214.975974 
L 1146.089552 220.224026 
L 1146.565458 235.712013 
L 1147.041365 227.135987 
L 1147.517271 225.983987 
L 1147.993177 232 
L 1149.420896 214.208013 
L 1149.896802 222.4 
L 1150.372708 225.6 
L 1150.848614 227.008013 
L 1151.32452 241.727974 
L 1152.752239 238.912013 
L 1153.228145 243.904 
L 1153.704051 260.160013 
L 1154.179957 251.839987 
L 1154.655864 247.744 
L 1156.083582 255.296 
L 1156.559488 252.864013 
L 1157.035394 249.535987 
L 1157.511301 256.575974 
L 1157.987207 266.560013 
L 1159.414925 267.327974 
L 1159.890832 265.920026 
L 1160.842644 239.296 
L 1161.31855 238.527974 
L 1162.746269 247.872026 
L 1163.222175 269.760013 
L 1163.698081 264 
L 1164.173987 251.839987 
L 1164.649893 257.6 
L 1166.553518 233.920026 
L 1167.029424 229.952 
L 1167.50533 228.544 
L 1167.981237 211.264013 
L 1169.408955 223.296 
L 1169.884861 238.272026 
L 1170.360768 220.479974 
L 1170.836674 213.439987 
L 1171.31258 217.408013 
L 1172.740299 230.975974 
L 1173.216205 254.4 
L 1173.692111 258.752 
L 1174.168017 283.712013 
L 1174.643923 273.983987 
L 1176.071642 298.816013 
L 1176.547548 282.560013 
L 1177.023454 253.375974 
L 1177.49936 255.424026 
L 1177.975267 250.304 
L 1179.402985 238.4 
L 1179.878891 216.512013 
L 1180.354797 223.296 
L 1180.830704 214.335987 
L 1181.30661 197.952 
L 1182.734328 220.479974 
L 1183.210235 211.775974 
L 1183.686141 229.056 
L 1184.162047 215.104 
L 1184.637953 187.072026 
L 1186.065672 182.208013 
L 1186.541578 170.431987 
L 1187.017484 206.527974 
L 1187.49339 200 
L 1187.969296 186.431987 
L 1189.872921 209.983987 
L 1190.348827 205.631987 
L 1190.824733 208.831987 
L 1191.30064 254.4 
L 1192.728358 257.983987 
L 1193.680171 250.687987 
L 1194.156077 272.320026 
L 1194.631983 261.312013 
L 1196.059701 251.968013 
L 1196.535608 255.808013 
L 1197.011514 240.704 
L 1197.48742 247.616013 
L 1197.963326 263.487987 
L 1199.391045 266.175974 
L 1199.866951 265.920026 
L 1200.342857 264.896 
L 1201.29467 222.144 
L 1202.722388 238.783987 
L 1203.198294 242.368013 
L 1203.6742 232 
L 1204.626013 234.560013 
L 1206.053731 219.327974 
L 1206.529638 225.856 
L 1207.005544 238.4 
L 1207.957356 254.527974 
L 1209.385075 350.4 
L 1209.860981 358.848 
L 1210.336887 364.479974 
L 1211.288699 383.679974 
L 1212.716418 382.912013 
L 1213.192324 381.760013 
L 1213.66823 367.168013 
L 1214.144136 358.591987 
L 1214.620043 374.591987 
L 1216.047761 369.727974 
L 1216.523667 366.912013 
L 1216.999574 355.648 
L 1217.47548 351.679974 
L 1219.379104 350.783987 
L 1219.855011 340.672026 
L 1220.330917 345.408013 
L 1220.806823 352.960013 
L 1222.710448 364.096 
L 1223.186354 378.816013 
L 1223.66226 382.4 
L 1224.138166 379.456 
L 1224.614072 383.039987 
L 1226.041791 397.120026 
L 1226.517697 410.175974 
L 1226.993603 406.591987 
L 1227.46951 409.664013 
L 1227.945416 440.383987 
L 1229.849041 426.304 
L 1230.324947 437.439987 
L 1230.800853 429.760013 
L 1231.276759 433.983987 
L 1232.704478 436.416013 
L 1233.180384 430.527974 
L 1233.65629 433.983987 
L 1234.132196 404.8 
L 1234.608102 416.191987 
L 1236.035821 415.808013 
L 1236.511727 426.304 
L 1236.987633 426.560013 
L 1237.463539 421.568013 
L 1237.939446 399.168013 
L 1239.84307 418.239987 
L 1240.318977 413.504 
L 1240.794883 433.6 
L 1241.270789 423.487987 
L 1243.174414 408.512013 
L 1243.65032 401.216013 
L 1244.126226 387.648 
L 1244.602132 381.887987 
L 1246.029851 384.960013 
L 1246.505757 391.360013 
L 1246.981663 401.472026 
L 1247.457569 373.568013 
L 1247.933475 360.896 
L 1249.361194 376.512013 
L 1249.8371 367.552 
L 1250.313006 376.639987 
L 1251.264819 350.656 
L 1252.692537 362.560013 
L 1253.168443 355.904 
L 1253.64435 359.104 
L 1254.120256 354.496 
L 1254.596162 339.648 
L 1256.023881 332.352 
L 1256.499787 332.479974 
L 1256.975693 332.224026 
L 1257.451599 329.535987 
L 1257.927505 321.6 
L 1259.355224 322.624026 
L 1259.83113 318.656 
L 1260.307036 321.087987 
L 1260.782942 329.279974 
L 1262.686567 327.104 
L 1263.162473 324.031987 
L 1263.63838 306.239987 
L 1264.114286 298.048 
L 1264.590192 297.408013 
L 1266.01791 297.791987 
L 1266.493817 304.831987 
L 1266.969723 321.216013 
L 1267.445629 325.183987 
L 1267.921535 313.279974 
L 1269.349254 312.127974 
L 1269.82516 307.775974 
L 1270.301066 294.720026 
L 1270.776972 296.383987 
L 1271.252878 297.535987 
L 1272.680597 287.935987 
L 1273.156503 280.512013 
L 1273.632409 277.312013 
L 1274.108316 280.512013 
L 1274.584222 282.816013 
L 1276.01194 279.104 
L 1276.487846 298.944 
L 1276.963753 294.079974 
L 1277.439659 232.639987 
L 1277.915565 228.8 
L 1279.343284 228.8 
L 1279.81919 247.104 
L 1280.295096 239.935987 
L 1281.246908 251.712013 
L 1282.674627 251.2 
L 1283.150533 240.831987 
L 1283.626439 240.960013 
L 1284.102345 267.072026 
L 1284.578252 280.896 
L 1286.00597 282.816013 
L 1286.481876 279.487987 
L 1287.433689 309.183987 
L 1287.909595 309.183987 
L 1289.337313 303.679974 
L 1289.81322 286.016013 
L 1290.289126 273.472026 
L 1290.765032 267.327974 
L 1291.240938 272.575974 
L 1293.144563 284.735987 
L 1293.620469 276.8 
L 1294.096375 280 
L 1294.572281 275.391987 
L 1296 268.864013 
L 1296 268.864013 
" style="fill:none;stroke:#ff0000;stroke-linecap:square;"/>
   </g>
   <g id="patch_3">
    <path d="M 180 648 
L 1296 648 
" style="fill:none;stroke:#000000;stroke-linecap:square;stroke-linejoin:miter;"/>
   </g>
   <g id="patch_4">
    <path d="M 180 72 
L 1296 72 
" style="fill:none;stroke:#000000;stroke-linecap:square;stroke-linejoin:miter;"/>
   </g>
   <g id="patch_5">
    <path d="M 1296 648 
L 1296 72 
" style="fill:none;stroke:#000000;stroke-linecap:square;stroke-linejoin:miter;"/>
   </g>
   <g id="patch_6">
    <path d="M 180 648 
L 180 72 
" style="fill:none;stroke:#000000;stroke-linecap:square;stroke-linejoin:miter;"/>
   </g>
   <g id="matplotlib.axis_1">
    <g id="xtick_1">
     <g id="line2d_3">
      <defs>
       <path d="M 0 0 
L 0 -4 
" id="m483fff0a69" style="stroke:#000000;stroke-width:0.5;"/>
      </defs>
      <g>
       <use style="stroke:#000000;stroke-width:0.5;" x="352.27803838" xlink:href="#m483fff0a69" y="648.0"/>
      </g>
     </g>
     <g id="line2d_4">
      <defs>
       <path d="M 0 0 
L 0 4 
" id="meb123950f1" style="stroke:#000000;stroke-width:0.5;"/>
      </defs>
      <g>
       <use style="stroke:#000000;stroke-width:0.5;" x="352.27803838" xlink:href="#meb123950f1" y="72.0"/>
      </g>
     </g>
     <g id="text_1">
      <!-- 2011 -->
      <defs>
       <path d="M 12.40625 8.296875 
L 28.515625 8.296875 
L 28.515625 63.921875 
L 10.984375 60.40625 
L 10.984375 69.390625 
L 28.421875 72.90625 
L 38.28125 72.90625 
L 38.28125 8.296875 
L 54.390625 8.296875 
L 54.390625 0 
L 12.40625 0 
z
" id="BitstreamVeraSans-Roman-31"/>
       <path d="M 19.1875 8.296875 
L 53.609375 8.296875 
L 53.609375 0 
L 7.328125 0 
L 7.328125 8.296875 
Q 12.9375 14.109375 22.625 23.890625 
Q 32.328125 33.6875 34.8125 36.53125 
Q 39.546875 41.84375 41.421875 45.53125 
Q 43.3125 49.21875 43.3125 52.78125 
Q 43.3125 58.59375 39.234375 62.25 
Q 35.15625 65.921875 28.609375 65.921875 
Q 23.96875 65.921875 18.8125 64.3125 
Q 13.671875 62.703125 7.8125 59.421875 
L 7.8125 69.390625 
Q 13.765625 71.78125 18.9375 73 
Q 24.125 74.21875 28.421875 74.21875 
Q 39.75 74.21875 46.484375 68.546875 
Q 53.21875 62.890625 53.21875 53.421875 
Q 53.21875 48.921875 51.53125 44.890625 
Q 49.859375 40.875 45.40625 35.40625 
Q 44.1875 33.984375 37.640625 27.21875 
Q 31.109375 20.453125 19.1875 8.296875 
" id="BitstreamVeraSans-Roman-32"/>
       <path d="M 31.78125 66.40625 
Q 24.171875 66.40625 20.328125 58.90625 
Q 16.5 51.421875 16.5 36.375 
Q 16.5 21.390625 20.328125 13.890625 
Q 24.171875 6.390625 31.78125 6.390625 
Q 39.453125 6.390625 43.28125 13.890625 
Q 47.125 21.390625 47.125 36.375 
Q 47.125 51.421875 43.28125 58.90625 
Q 39.453125 66.40625 31.78125 66.40625 
M 31.78125 74.21875 
Q 44.046875 74.21875 50.515625 64.515625 
Q 56.984375 54.828125 56.984375 36.375 
Q 56.984375 17.96875 50.515625 8.265625 
Q 44.046875 -1.421875 31.78125 -1.421875 
Q 19.53125 -1.421875 13.0625 8.265625 
Q 6.59375 17.96875 6.59375 36.375 
Q 6.59375 54.828125 13.0625 64.515625 
Q 19.53125 74.21875 31.78125 74.21875 
" id="BitstreamVeraSans-Roman-30"/>
      </defs>
      <g transform="translate(343.82192516 680.042529117)rotate(-45.0)scale(0.12 -0.12)">
       <use xlink:href="#BitstreamVeraSans-Roman-32"/>
       <use x="63.623046875" xlink:href="#BitstreamVeraSans-Roman-30"/>
       <use x="127.24609375" xlink:href="#BitstreamVeraSans-Roman-31"/>
       <use x="190.869140625" xlink:href="#BitstreamVeraSans-Roman-31"/>
      </g>
     </g>
    </g>
    <g id="xtick_2">
     <g id="line2d_5">
      <g>
       <use style="stroke:#000000;stroke-width:0.5;" x="525.983795309" xlink:href="#m483fff0a69" y="648.0"/>
      </g>
     </g>
     <g id="line2d_6">
      <g>
       <use style="stroke:#000000;stroke-width:0.5;" x="525.983795309" xlink:href="#meb123950f1" y="72.0"/>
      </g>
     </g>
     <g id="text_2">
      <!-- 2012 -->
      <g transform="translate(517.52768209 680.042529117)rotate(-45.0)scale(0.12 -0.12)">
       <use xlink:href="#BitstreamVeraSans-Roman-32"/>
       <use x="63.623046875" xlink:href="#BitstreamVeraSans-Roman-30"/>
       <use x="127.24609375" xlink:href="#BitstreamVeraSans-Roman-31"/>
       <use x="190.869140625" xlink:href="#BitstreamVeraSans-Roman-32"/>
      </g>
     </g>
    </g>
    <g id="xtick_3">
     <g id="line2d_7">
      <g>
       <use style="stroke:#000000;stroke-width:0.5;" x="700.165458422" xlink:href="#m483fff0a69" y="648.0"/>
      </g>
     </g>
     <g id="line2d_8">
      <g>
       <use style="stroke:#000000;stroke-width:0.5;" x="700.165458422" xlink:href="#meb123950f1" y="72.0"/>
      </g>
     </g>
     <g id="text_3">
      <!-- 2013 -->
      <defs>
       <path d="M 40.578125 39.3125 
Q 47.65625 37.796875 51.625 33 
Q 55.609375 28.21875 55.609375 21.1875 
Q 55.609375 10.40625 48.1875 4.484375 
Q 40.765625 -1.421875 27.09375 -1.421875 
Q 22.515625 -1.421875 17.65625 -0.515625 
Q 12.796875 0.390625 7.625 2.203125 
L 7.625 11.71875 
Q 11.71875 9.328125 16.59375 8.109375 
Q 21.484375 6.890625 26.8125 6.890625 
Q 36.078125 6.890625 40.9375 10.546875 
Q 45.796875 14.203125 45.796875 21.1875 
Q 45.796875 27.640625 41.28125 31.265625 
Q 36.765625 34.90625 28.71875 34.90625 
L 20.21875 34.90625 
L 20.21875 43.015625 
L 29.109375 43.015625 
Q 36.375 43.015625 40.234375 45.921875 
Q 44.09375 48.828125 44.09375 54.296875 
Q 44.09375 59.90625 40.109375 62.90625 
Q 36.140625 65.921875 28.71875 65.921875 
Q 24.65625 65.921875 20.015625 65.03125 
Q 15.375 64.15625 9.8125 62.3125 
L 9.8125 71.09375 
Q 15.4375 72.65625 20.34375 73.4375 
Q 25.25 74.21875 29.59375 74.21875 
Q 40.828125 74.21875 47.359375 69.109375 
Q 53.90625 64.015625 53.90625 55.328125 
Q 53.90625 49.265625 50.4375 45.09375 
Q 46.96875 40.921875 40.578125 39.3125 
" id="BitstreamVeraSans-Roman-33"/>
      </defs>
      <g transform="translate(691.709345203 680.042529117)rotate(-45.0)scale(0.12 -0.12)">
       <use xlink:href="#BitstreamVeraSans-Roman-32"/>
       <use x="63.623046875" xlink:href="#BitstreamVeraSans-Roman-30"/>
       <use x="127.24609375" xlink:href="#BitstreamVeraSans-Roman-31"/>
       <use x="190.869140625" xlink:href="#BitstreamVeraSans-Roman-33"/>
      </g>
     </g>
    </g>
    <g id="xtick_4">
     <g id="line2d_9">
      <g>
       <use style="stroke:#000000;stroke-width:0.5;" x="873.871215352" xlink:href="#m483fff0a69" y="648.0"/>
      </g>
     </g>
     <g id="line2d_10">
      <g>
       <use style="stroke:#000000;stroke-width:0.5;" x="873.871215352" xlink:href="#meb123950f1" y="72.0"/>
      </g>
     </g>
     <g id="text_4">
      <!-- 2014 -->
      <defs>
       <path d="M 37.796875 64.3125 
L 12.890625 25.390625 
L 37.796875 25.390625 
z
M 35.203125 72.90625 
L 47.609375 72.90625 
L 47.609375 25.390625 
L 58.015625 25.390625 
L 58.015625 17.1875 
L 47.609375 17.1875 
L 47.609375 0 
L 37.796875 0 
L 37.796875 17.1875 
L 4.890625 17.1875 
L 4.890625 26.703125 
z
" id="BitstreamVeraSans-Roman-34"/>
      </defs>
      <g transform="translate(865.415102132 680.042529117)rotate(-45.0)scale(0.12 -0.12)">
       <use xlink:href="#BitstreamVeraSans-Roman-32"/>
       <use x="63.623046875" xlink:href="#BitstreamVeraSans-Roman-30"/>
       <use x="127.24609375" xlink:href="#BitstreamVeraSans-Roman-31"/>
       <use x="190.869140625" xlink:href="#BitstreamVeraSans-Roman-34"/>
      </g>
     </g>
    </g>
    <g id="xtick_5">
     <g id="line2d_11">
      <g>
       <use style="stroke:#000000;stroke-width:0.5;" x="1047.57697228" xlink:href="#m483fff0a69" y="648.0"/>
      </g>
     </g>
     <g id="line2d_12">
      <g>
       <use style="stroke:#000000;stroke-width:0.5;" x="1047.57697228" xlink:href="#meb123950f1" y="72.0"/>
      </g>
     </g>
     <g id="text_5">
      <!-- 2015 -->
      <defs>
       <path d="M 10.796875 72.90625 
L 49.515625 72.90625 
L 49.515625 64.59375 
L 19.828125 64.59375 
L 19.828125 46.734375 
Q 21.96875 47.46875 24.109375 47.828125 
Q 26.265625 48.1875 28.421875 48.1875 
Q 40.625 48.1875 47.75 41.5 
Q 54.890625 34.8125 54.890625 23.390625 
Q 54.890625 11.625 47.5625 5.09375 
Q 40.234375 -1.421875 26.90625 -1.421875 
Q 22.3125 -1.421875 17.546875 -0.640625 
Q 12.796875 0.140625 7.71875 1.703125 
L 7.71875 11.625 
Q 12.109375 9.234375 16.796875 8.0625 
Q 21.484375 6.890625 26.703125 6.890625 
Q 35.15625 6.890625 40.078125 11.328125 
Q 45.015625 15.765625 45.015625 23.390625 
Q 45.015625 31 40.078125 35.4375 
Q 35.15625 39.890625 26.703125 39.890625 
Q 22.75 39.890625 18.8125 39.015625 
Q 14.890625 38.140625 10.796875 36.28125 
z
" id="BitstreamVeraSans-Roman-35"/>
      </defs>
      <g transform="translate(1039.12085906 680.042529117)rotate(-45.0)scale(0.12 -0.12)">
       <use xlink:href="#BitstreamVeraSans-Roman-32"/>
       <use x="63.623046875" xlink:href="#BitstreamVeraSans-Roman-30"/>
       <use x="127.24609375" xlink:href="#BitstreamVeraSans-Roman-31"/>
       <use x="190.869140625" xlink:href="#BitstreamVeraSans-Roman-35"/>
      </g>
     </g>
    </g>
    <g id="xtick_6">
     <g id="line2d_13">
      <g>
       <use style="stroke:#000000;stroke-width:0.5;" x="1221.28272921" xlink:href="#m483fff0a69" y="648.0"/>
      </g>
     </g>
     <g id="line2d_14">
      <g>
       <use style="stroke:#000000;stroke-width:0.5;" x="1221.28272921" xlink:href="#meb123950f1" y="72.0"/>
      </g>
     </g>
     <g id="text_6">
      <!-- 2016 -->
      <defs>
       <path d="M 33.015625 40.375 
Q 26.375 40.375 22.484375 35.828125 
Q 18.609375 31.296875 18.609375 23.390625 
Q 18.609375 15.53125 22.484375 10.953125 
Q 26.375 6.390625 33.015625 6.390625 
Q 39.65625 6.390625 43.53125 10.953125 
Q 47.40625 15.53125 47.40625 23.390625 
Q 47.40625 31.296875 43.53125 35.828125 
Q 39.65625 40.375 33.015625 40.375 
M 52.59375 71.296875 
L 52.59375 62.3125 
Q 48.875 64.0625 45.09375 64.984375 
Q 41.3125 65.921875 37.59375 65.921875 
Q 27.828125 65.921875 22.671875 59.328125 
Q 17.53125 52.734375 16.796875 39.40625 
Q 19.671875 43.65625 24.015625 45.921875 
Q 28.375 48.1875 33.59375 48.1875 
Q 44.578125 48.1875 50.953125 41.515625 
Q 57.328125 34.859375 57.328125 23.390625 
Q 57.328125 12.15625 50.6875 5.359375 
Q 44.046875 -1.421875 33.015625 -1.421875 
Q 20.359375 -1.421875 13.671875 8.265625 
Q 6.984375 17.96875 6.984375 36.375 
Q 6.984375 53.65625 15.1875 63.9375 
Q 23.390625 74.21875 37.203125 74.21875 
Q 40.921875 74.21875 44.703125 73.484375 
Q 48.484375 72.75 52.59375 71.296875 
" id="BitstreamVeraSans-Roman-36"/>
      </defs>
      <g transform="translate(1212.82661599 680.042529117)rotate(-45.0)scale(0.12 -0.12)">
       <use xlink:href="#BitstreamVeraSans-Roman-32"/>
       <use x="63.623046875" xlink:href="#BitstreamVeraSans-Roman-30"/>
       <use x="127.24609375" xlink:href="#BitstreamVeraSans-Roman-31"/>
       <use x="190.869140625" xlink:href="#BitstreamVeraSans-Roman-36"/>
      </g>
     </g>
    </g>
   </g>
   <g id="matplotlib.axis_2">
    <g id="ytick_1">
     <g id="line2d_15">
      <defs>
       <path d="M 0 0 
L 4 0 
" id="mefca9ce083" style="stroke:#000000;stroke-width:0.5;"/>
      </defs>
      <g>
       <use style="stroke:#000000;stroke-width:0.5;" x="180.0" xlink:href="#mefca9ce083" y="648.0"/>
      </g>
     </g>
     <g id="line2d_16">
      <defs>
       <path d="M 0 0 
L -4 0 
" id="m94a605c4e0" style="stroke:#000000;stroke-width:0.5;"/>
      </defs>
      <g>
       <use style="stroke:#000000;stroke-width:0.5;" x="1296.0" xlink:href="#m94a605c4e0" y="648.0"/>
      </g>
     </g>
     <g id="text_7">
      <!-- 25 -->
      <g transform="translate(160.73 651.31125)scale(0.12 -0.12)">
       <use xlink:href="#BitstreamVeraSans-Roman-32"/>
       <use x="63.623046875" xlink:href="#BitstreamVeraSans-Roman-35"/>
      </g>
     </g>
    </g>
    <g id="ytick_2">
     <g id="line2d_17">
      <g>
       <use style="stroke:#000000;stroke-width:0.5;" x="180.0" xlink:href="#mefca9ce083" y="584.0"/>
      </g>
     </g>
     <g id="line2d_18">
      <g>
       <use style="stroke:#000000;stroke-width:0.5;" x="1296.0" xlink:href="#m94a605c4e0" y="584.0"/>
      </g>
     </g>
     <g id="text_8">
      <!-- 30 -->
      <g transform="translate(160.73 587.31125)scale(0.12 -0.12)">
       <use xlink:href="#BitstreamVeraSans-Roman-33"/>
       <use x="63.623046875" xlink:href="#BitstreamVeraSans-Roman-30"/>
      </g>
     </g>
    </g>
    <g id="ytick_3">
     <g id="line2d_19">
      <g>
       <use style="stroke:#000000;stroke-width:0.5;" x="180.0" xlink:href="#mefca9ce083" y="520.0"/>
      </g>
     </g>
     <g id="line2d_20">
      <g>
       <use style="stroke:#000000;stroke-width:0.5;" x="1296.0" xlink:href="#m94a605c4e0" y="520.0"/>
      </g>
     </g>
     <g id="text_9">
      <!-- 35 -->
      <g transform="translate(160.73 523.31125)scale(0.12 -0.12)">
       <use xlink:href="#BitstreamVeraSans-Roman-33"/>
       <use x="63.623046875" xlink:href="#BitstreamVeraSans-Roman-35"/>
      </g>
     </g>
    </g>
    <g id="ytick_4">
     <g id="line2d_21">
      <g>
       <use style="stroke:#000000;stroke-width:0.5;" x="180.0" xlink:href="#mefca9ce083" y="456.0"/>
      </g>
     </g>
     <g id="line2d_22">
      <g>
       <use style="stroke:#000000;stroke-width:0.5;" x="1296.0" xlink:href="#m94a605c4e0" y="456.0"/>
      </g>
     </g>
     <g id="text_10">
      <!-- 40 -->
      <g transform="translate(160.73 459.31125)scale(0.12 -0.12)">
       <use xlink:href="#BitstreamVeraSans-Roman-34"/>
       <use x="63.623046875" xlink:href="#BitstreamVeraSans-Roman-30"/>
      </g>
     </g>
    </g>
    <g id="ytick_5">
     <g id="line2d_23">
      <g>
       <use style="stroke:#000000;stroke-width:0.5;" x="180.0" xlink:href="#mefca9ce083" y="392.0"/>
      </g>
     </g>
     <g id="line2d_24">
      <g>
       <use style="stroke:#000000;stroke-width:0.5;" x="1296.0" xlink:href="#m94a605c4e0" y="392.0"/>
      </g>
     </g>
     <g id="text_11">
      <!-- 45 -->
      <g transform="translate(160.73 395.31125)scale(0.12 -0.12)">
       <use xlink:href="#BitstreamVeraSans-Roman-34"/>
       <use x="63.623046875" xlink:href="#BitstreamVeraSans-Roman-35"/>
      </g>
     </g>
    </g>
    <g id="ytick_6">
     <g id="line2d_25">
      <g>
       <use style="stroke:#000000;stroke-width:0.5;" x="180.0" xlink:href="#mefca9ce083" y="328.0"/>
      </g>
     </g>
     <g id="line2d_26">
      <g>
       <use style="stroke:#000000;stroke-width:0.5;" x="1296.0" xlink:href="#m94a605c4e0" y="328.0"/>
      </g>
     </g>
     <g id="text_12">
      <!-- 50 -->
      <g transform="translate(160.73 331.31125)scale(0.12 -0.12)">
       <use xlink:href="#BitstreamVeraSans-Roman-35"/>
       <use x="63.623046875" xlink:href="#BitstreamVeraSans-Roman-30"/>
      </g>
     </g>
    </g>
    <g id="ytick_7">
     <g id="line2d_27">
      <g>
       <use style="stroke:#000000;stroke-width:0.5;" x="180.0" xlink:href="#mefca9ce083" y="264.0"/>
      </g>
     </g>
     <g id="line2d_28">
      <g>
       <use style="stroke:#000000;stroke-width:0.5;" x="1296.0" xlink:href="#m94a605c4e0" y="264.0"/>
      </g>
     </g>
     <g id="text_13">
      <!-- 55 -->
      <g transform="translate(160.73 267.31125)scale(0.12 -0.12)">
       <use xlink:href="#BitstreamVeraSans-Roman-35"/>
       <use x="63.623046875" xlink:href="#BitstreamVeraSans-Roman-35"/>
      </g>
     </g>
    </g>
    <g id="ytick_8">
     <g id="line2d_29">
      <g>
       <use style="stroke:#000000;stroke-width:0.5;" x="180.0" xlink:href="#mefca9ce083" y="200.0"/>
      </g>
     </g>
     <g id="line2d_30">
      <g>
       <use style="stroke:#000000;stroke-width:0.5;" x="1296.0" xlink:href="#m94a605c4e0" y="200.0"/>
      </g>
     </g>
     <g id="text_14">
      <!-- 60 -->
      <g transform="translate(160.73 203.31125)scale(0.12 -0.12)">
       <use xlink:href="#BitstreamVeraSans-Roman-36"/>
       <use x="63.623046875" xlink:href="#BitstreamVeraSans-Roman-30"/>
      </g>
     </g>
    </g>
    <g id="ytick_9">
     <g id="line2d_31">
      <g>
       <use style="stroke:#000000;stroke-width:0.5;" x="180.0" xlink:href="#mefca9ce083" y="136.0"/>
      </g>
     </g>
     <g id="line2d_32">
      <g>
       <use style="stroke:#000000;stroke-width:0.5;" x="1296.0" xlink:href="#m94a605c4e0" y="136.0"/>
      </g>
     </g>
     <g id="text_15">
      <!-- 65 -->
      <g transform="translate(160.73 139.31125)scale(0.12 -0.12)">
       <use xlink:href="#BitstreamVeraSans-Roman-36"/>
       <use x="63.623046875" xlink:href="#BitstreamVeraSans-Roman-35"/>
      </g>
     </g>
    </g>
    <g id="ytick_10">
     <g id="line2d_33">
      <g>
       <use style="stroke:#000000;stroke-width:0.5;" x="180.0" xlink:href="#mefca9ce083" y="72.0"/>
      </g>
     </g>
     <g id="line2d_34">
      <g>
       <use style="stroke:#000000;stroke-width:0.5;" x="1296.0" xlink:href="#m94a605c4e0" y="72.0"/>
      </g>
     </g>
     <g id="text_16">
      <!-- 70 -->
      <defs>
       <path d="M 8.203125 72.90625 
L 55.078125 72.90625 
L 55.078125 68.703125 
L 28.609375 0 
L 18.3125 0 
L 43.21875 64.59375 
L 8.203125 64.59375 
z
" id="BitstreamVeraSans-Roman-37"/>
      </defs>
      <g transform="translate(160.73 75.31125)scale(0.12 -0.12)">
       <use xlink:href="#BitstreamVeraSans-Roman-37"/>
       <use x="63.623046875" xlink:href="#BitstreamVeraSans-Roman-30"/>
      </g>
     </g>
    </g>
   </g>
   <g id="text_17">
    <!-- ELUXY -->
    <defs>
     <path d="M -0.203125 72.90625 
L 10.40625 72.90625 
L 30.609375 42.921875 
L 50.6875 72.90625 
L 61.28125 72.90625 
L 35.5 34.71875 
L 35.5 0 
L 25.59375 0 
L 25.59375 34.71875 
z
" id="BitstreamVeraSans-Roman-59"/>
     <path d="M 9.8125 72.90625 
L 55.90625 72.90625 
L 55.90625 64.59375 
L 19.671875 64.59375 
L 19.671875 43.015625 
L 54.390625 43.015625 
L 54.390625 34.71875 
L 19.671875 34.71875 
L 19.671875 8.296875 
L 56.78125 8.296875 
L 56.78125 0 
L 9.8125 0 
z
" id="BitstreamVeraSans-Roman-45"/>
     <path d="M 8.6875 72.90625 
L 18.609375 72.90625 
L 18.609375 28.609375 
Q 18.609375 16.890625 22.84375 11.734375 
Q 27.09375 6.59375 36.625 6.59375 
Q 46.09375 6.59375 50.34375 11.734375 
Q 54.59375 16.890625 54.59375 28.609375 
L 54.59375 72.90625 
L 64.5 72.90625 
L 64.5 27.390625 
Q 64.5 13.140625 57.4375 5.859375 
Q 50.390625 -1.421875 36.625 -1.421875 
Q 22.796875 -1.421875 15.734375 5.859375 
Q 8.6875 13.140625 8.6875 27.390625 
z
" id="BitstreamVeraSans-Roman-55"/>
     <path d="M 9.8125 72.90625 
L 19.671875 72.90625 
L 19.671875 8.296875 
L 55.171875 8.296875 
L 55.171875 0 
L 9.8125 0 
z
" id="BitstreamVeraSans-Roman-4c"/>
     <path d="M 6.296875 72.90625 
L 16.890625 72.90625 
L 35.015625 45.796875 
L 53.21875 72.90625 
L 63.8125 72.90625 
L 40.375 37.890625 
L 65.375 0 
L 54.78125 0 
L 34.28125 31 
L 13.625 0 
L 2.984375 0 
L 29 38.921875 
z
" id="BitstreamVeraSans-Roman-58"/>
    </defs>
    <g transform="translate(714.84525 67.0)scale(0.144 -0.144)">
     <use xlink:href="#BitstreamVeraSans-Roman-45"/>
     <use x="63.18359375" xlink:href="#BitstreamVeraSans-Roman-4c"/>
     <use x="118.818359375" xlink:href="#BitstreamVeraSans-Roman-55"/>
     <use x="192.01171875" xlink:href="#BitstreamVeraSans-Roman-58"/>
     <use x="260.517578125" xlink:href="#BitstreamVeraSans-Roman-59"/>
    </g>
   </g>
   <g id="legend_1">
    <g id="patch_7">
     <path d="M 1203.8625 125.793 
L 1288.8 125.793 
L 1288.8 79.2 
L 1203.8625 79.2 
z
" style="fill:#ffffff;stroke:#000000;stroke-linejoin:miter;"/>
    </g>
    <g id="line2d_35">
     <path d="M 1213.9425 90.86175 
L 1234.1025 90.86175 
" style="fill:none;stroke:#0000ff;stroke-linecap:square;"/>
    </g>
    <g id="line2d_36"/>
    <g id="text_18">
     <!-- High -->
     <defs>
      <path d="M 9.8125 72.90625 
L 19.671875 72.90625 
L 19.671875 43.015625 
L 55.515625 43.015625 
L 55.515625 72.90625 
L 65.375 72.90625 
L 65.375 0 
L 55.515625 0 
L 55.515625 34.71875 
L 19.671875 34.71875 
L 19.671875 0 
L 9.8125 0 
z
" id="BitstreamVeraSans-Roman-48"/>
      <path d="M 54.890625 33.015625 
L 54.890625 0 
L 45.90625 0 
L 45.90625 32.71875 
Q 45.90625 40.484375 42.875 44.328125 
Q 39.84375 48.1875 33.796875 48.1875 
Q 26.515625 48.1875 22.3125 43.546875 
Q 18.109375 38.921875 18.109375 30.90625 
L 18.109375 0 
L 9.078125 0 
L 9.078125 75.984375 
L 18.109375 75.984375 
L 18.109375 46.1875 
Q 21.34375 51.125 25.703125 53.5625 
Q 30.078125 56 35.796875 56 
Q 45.21875 56 50.046875 50.171875 
Q 54.890625 44.34375 54.890625 33.015625 
" id="BitstreamVeraSans-Roman-68"/>
      <path d="M 45.40625 27.984375 
Q 45.40625 37.75 41.375 43.109375 
Q 37.359375 48.484375 30.078125 48.484375 
Q 22.859375 48.484375 18.828125 43.109375 
Q 14.796875 37.75 14.796875 27.984375 
Q 14.796875 18.265625 18.828125 12.890625 
Q 22.859375 7.515625 30.078125 7.515625 
Q 37.359375 7.515625 41.375 12.890625 
Q 45.40625 18.265625 45.40625 27.984375 
M 54.390625 6.78125 
Q 54.390625 -7.171875 48.1875 -13.984375 
Q 42 -20.796875 29.203125 -20.796875 
Q 24.46875 -20.796875 20.265625 -20.09375 
Q 16.0625 -19.390625 12.109375 -17.921875 
L 12.109375 -9.1875 
Q 16.0625 -11.328125 19.921875 -12.34375 
Q 23.78125 -13.375 27.78125 -13.375 
Q 36.625 -13.375 41.015625 -8.765625 
Q 45.40625 -4.15625 45.40625 5.171875 
L 45.40625 9.625 
Q 42.625 4.78125 38.28125 2.390625 
Q 33.9375 0 27.875 0 
Q 17.828125 0 11.671875 7.65625 
Q 5.515625 15.328125 5.515625 27.984375 
Q 5.515625 40.671875 11.671875 48.328125 
Q 17.828125 56 27.875 56 
Q 33.9375 56 38.28125 53.609375 
Q 42.625 51.21875 45.40625 46.390625 
L 45.40625 54.6875 
L 54.390625 54.6875 
z
" id="BitstreamVeraSans-Roman-67"/>
      <path d="M 9.421875 54.6875 
L 18.40625 54.6875 
L 18.40625 0 
L 9.421875 0 
z
M 9.421875 75.984375 
L 18.40625 75.984375 
L 18.40625 64.59375 
L 9.421875 64.59375 
z
" id="BitstreamVeraSans-Roman-69"/>
     </defs>
     <g transform="translate(1249.9425 95.90175)scale(0.144 -0.144)">
      <use xlink:href="#BitstreamVeraSans-Roman-48"/>
      <use x="75.1953125" xlink:href="#BitstreamVeraSans-Roman-69"/>
      <use x="102.978515625" xlink:href="#BitstreamVeraSans-Roman-67"/>
      <use x="166.455078125" xlink:href="#BitstreamVeraSans-Roman-68"/>
     </g>
    </g>
    <g id="line2d_37">
     <path d="M 1213.9425 111.99825 
L 1234.1025 111.99825 
" style="fill:none;stroke:#ff0000;stroke-linecap:square;"/>
    </g>
    <g id="line2d_38"/>
    <g id="text_19">
     <!-- Low -->
     <defs>
      <path d="M 30.609375 48.390625 
Q 23.390625 48.390625 19.1875 42.75 
Q 14.984375 37.109375 14.984375 27.296875 
Q 14.984375 17.484375 19.15625 11.84375 
Q 23.34375 6.203125 30.609375 6.203125 
Q 37.796875 6.203125 41.984375 11.859375 
Q 46.1875 17.53125 46.1875 27.296875 
Q 46.1875 37.015625 41.984375 42.703125 
Q 37.796875 48.390625 30.609375 48.390625 
M 30.609375 56 
Q 42.328125 56 49.015625 48.375 
Q 55.71875 40.765625 55.71875 27.296875 
Q 55.71875 13.875 49.015625 6.21875 
Q 42.328125 -1.421875 30.609375 -1.421875 
Q 18.84375 -1.421875 12.171875 6.21875 
Q 5.515625 13.875 5.515625 27.296875 
Q 5.515625 40.765625 12.171875 48.375 
Q 18.84375 56 30.609375 56 
" id="BitstreamVeraSans-Roman-6f"/>
      <path d="M 4.203125 54.6875 
L 13.1875 54.6875 
L 24.421875 12.015625 
L 35.59375 54.6875 
L 46.1875 54.6875 
L 57.421875 12.015625 
L 68.609375 54.6875 
L 77.59375 54.6875 
L 63.28125 0 
L 52.6875 0 
L 40.921875 44.828125 
L 29.109375 0 
L 18.5 0 
z
" id="BitstreamVeraSans-Roman-77"/>
     </defs>
     <g transform="translate(1249.9425 117.03825)scale(0.144 -0.144)">
      <use xlink:href="#BitstreamVeraSans-Roman-4c"/>
      <use x="55.697265625" xlink:href="#BitstreamVeraSans-Roman-6f"/>
      <use x="116.87890625" xlink:href="#BitstreamVeraSans-Roman-77"/>
     </g>
    </g>
   </g>
  </g>
 </g>
 <defs>
  <clipPath id="pfb451e360d">
   <rect height="576.0" width="1116.0" x="180.0" y="72.0"/>
  </clipPath>
 </defs>
</svg>
