<?xml version="1.0" encoding="utf-8" standalone="no"?>
<!DOCTYPE svg PUBLIC "-//W3C//DTD SVG 1.1//EN"
  "http://www.w3.org/Graphics/SVG/1.1/DTD/svg11.dtd">
<!-- Created with matplotlib (http://matplotlib.org/) -->
<svg height="720pt" version="1.1" viewBox="0 0 1440 720" width="1440pt" xmlns="http://www.w3.org/2000/svg" xmlns:xlink="http://www.w3.org/1999/xlink">
 <defs>
  <style type="text/css">
*{stroke-linecap:butt;stroke-linejoin:round;stroke-miterlimit:100000;}
  </style>
 </defs>
 <g id="figure_1">
  <g id="patch_1">
   <path d="M 0 720 
L 1440 720 
L 1440 0 
L 0 0 
z
" style="fill:#ffffff;"/>
  </g>
  <g id="axes_1">
   <g id="patch_2">
    <path d="M 180 648 
L 1296 648 
L 1296 72 
L 180 72 
z
" style="fill:#ffffff;"/>
   </g>
   <g id="line2d_1">
    <path clip-path="url(#p43b8dde806)" d="M 180 592.128 
L 180.4949 580.608 
L 180.9898 573.695981 
L 181.484701 561.984 
L 181.979601 566.208 
L 183.464302 561.6 
L 183.959202 560.831981 
L 184.454102 554.112019 
L 184.949002 544.128 
L 185.443902 547.776019 
L 187.423503 556.416 
L 187.918404 545.472 
L 188.413304 537.792 
L 188.908204 516.672 
L 190.392905 549.504019 
L 190.887805 553.728 
L 191.382705 547.584 
L 191.877605 544.895981 
L 192.372506 543.168019 
L 193.857206 545.087981 
L 194.352106 546.048019 
L 195.341907 563.52 
L 195.836807 566.4 
L 197.321508 570.623981 
L 197.816408 573.887981 
L 198.311308 573.504019 
L 198.806208 576.959981 
L 199.301109 582.912019 
L 201.28071 573.504019 
L 201.77561 573.312019 
L 202.27051 571.2 
L 202.76541 566.4 
L 204.250111 557.568019 
L 204.745011 559.104019 
L 205.239911 553.728 
L 205.734812 556.223981 
L 206.229712 557.568019 
L 207.714412 557.184 
L 208.209313 553.728 
L 208.704213 553.728 
L 209.199113 555.648019 
L 209.694013 547.2 
L 211.178714 546.048019 
L 211.673614 554.304019 
L 212.663415 542.016 
L 213.158315 532.8 
L 214.643016 533.184 
L 215.632816 526.656 
L 216.127716 527.808 
L 216.622616 525.312019 
L 218.107317 525.504019 
L 218.602217 527.040019 
L 219.097118 524.159981 
L 219.592018 519.359981 
L 220.086918 524.351981 
L 221.571619 529.92 
L 222.066519 528.768019 
L 222.561419 532.8 
L 223.056319 527.808 
L 225.03592 523.584 
L 225.53082 510.144 
L 226.025721 509.376019 
L 226.520621 508.031981 
L 227.015521 508.416 
L 228.500222 501.887981 
L 228.995122 501.312019 
L 229.490022 488.448019 
L 229.984922 486.144 
L 231.964523 500.159981 
L 232.459424 486.912019 
L 232.954324 486.336 
L 233.449224 499.776019 
L 233.944124 505.151981 
L 235.428825 505.344 
L 235.923725 513.984 
L 236.418625 514.944 
L 236.913525 500.544 
L 237.408426 504.768019 
L 238.893126 507.264 
L 240.377827 522.816 
L 240.872727 533.568019 
L 242.357428 518.208 
L 242.852328 511.68 
L 243.347228 513.6 
L 243.842129 516.48 
L 244.337029 530.112019 
L 245.821729 539.136 
L 246.31663 538.176019 
L 246.81153 558.336 
L 247.30643 571.776019 
L 247.80133 570.431981 
L 249.286031 566.976019 
L 249.780931 573.312019 
L 250.275831 565.248019 
L 250.770732 562.368019 
L 251.265632 562.751981 
L 253.740133 570.816 
L 254.235033 569.28 
L 254.729933 586.176019 
L 256.214634 588.095981 
L 256.709534 594.623981 
L 257.204435 587.52 
L 257.699335 576.576019 
L 258.194235 577.92 
L 259.678936 582.336 
L 260.173836 586.559981 
L 260.668736 585.216 
L 261.163636 585.6 
L 261.658537 578.687981 
L 263.143237 571.584 
L 263.638137 571.2 
L 264.133038 579.264 
L 264.627938 589.248019 
L 265.122838 581.184 
L 266.607539 581.951981 
L 267.102439 586.559981 
L 267.597339 588.48 
L 268.092239 596.544 
L 268.58714 599.808 
L 270.566741 603.456 
L 271.061641 590.784 
L 271.556541 584.256 
L 272.051441 572.351981 
L 273.536142 573.312019 
L 274.031042 560.448019 
L 274.525942 564.48 
L 275.020843 561.984 
L 275.515743 566.4 
L 277.000443 585.792 
L 277.495344 586.559981 
L 277.990244 571.2 
L 278.485144 572.928 
L 278.980044 572.159981 
L 280.464745 567.744 
L 280.959645 561.984 
L 281.949446 568.32 
L 282.444346 570.048019 
L 283.929047 561.216 
L 284.423947 561.408 
L 284.918847 564.48 
L 285.413747 575.040019 
L 285.908647 581.376019 
L 287.393348 576.768019 
L 287.888248 578.304019 
L 288.878049 599.040019 
L 289.372949 597.504019 
L 290.85765 604.608 
L 291.35255 598.464 
L 291.84745 599.616 
L 292.34235 601.92 
L 292.837251 612.672 
L 294.321951 609.216 
L 294.816851 618.431981 
L 295.311752 622.656 
L 296.301552 616.128 
L 297.786253 616.704019 
L 298.281153 628.8 
L 298.776053 612.864 
L 299.270953 607.295981 
L 299.765854 596.159981 
L 301.745455 598.656 
L 302.240355 600 
L 302.735255 590.976019 
L 303.230155 595.008 
L 304.714856 580.416 
L 305.209756 581.951981 
L 305.704656 590.976019 
L 306.199557 595.392 
L 306.694457 590.784 
L 308.179157 583.487981 
L 308.674058 578.88 
L 309.663858 601.728 
L 310.158758 601.536 
L 311.643459 599.231981 
L 312.138359 611.52 
L 312.633259 611.328 
L 313.12816 609.792 
L 313.62306 609.6 
L 315.107761 612.095981 
L 315.602661 601.151981 
L 316.097561 599.616 
L 316.592461 599.616 
L 317.087361 600.576019 
L 318.572062 600.384 
L 319.066962 591.744 
L 319.561863 585.984 
L 320.056763 594.816 
L 320.551663 591.744 
L 322.036364 587.328 
L 322.531264 588.095981 
L 323.026164 588.48 
L 323.521064 579.072 
L 324.015965 577.151981 
L 325.500665 575.423981 
L 325.995565 571.584 
L 326.490466 563.328 
L 326.985366 560.831981 
L 327.480266 566.208 
L 328.964967 566.016 
L 329.459867 566.976019 
L 329.954767 569.087981 
L 330.944568 525.312019 
L 332.429268 529.536 
L 332.924169 537.023981 
L 333.419069 541.440019 
L 333.913969 544.32 
L 334.408869 549.504019 
L 335.89357 544.704019 
L 336.38847 550.08 
L 336.88337 552 
L 337.378271 547.008 
L 337.873171 552.576019 
L 339.357871 556.031981 
L 340.347672 565.248019 
L 342.822173 567.744 
L 343.317073 566.4 
L 343.811973 566.784 
L 344.306874 552.192 
L 344.801774 553.536 
L 346.286475 555.072 
L 346.781375 550.464 
L 347.276275 548.736 
L 347.771175 533.376019 
L 348.266075 523.776019 
L 349.750776 523.776019 
L 350.245676 524.351981 
L 350.740576 529.151981 
L 351.235477 528.768019 
L 353.215078 526.464 
L 354.204878 508.8 
L 354.699778 512.640019 
L 356.679379 509.759981 
L 357.174279 507.840019 
L 357.66918 510.528 
L 358.16408 511.295981 
L 358.65898 511.68 
L 360.143681 505.92 
L 360.638581 512.831981 
L 361.133481 515.904019 
L 361.628381 515.328 
L 362.123282 524.159981 
L 363.607982 525.504019 
L 364.597783 515.52 
L 365.092683 508.608 
L 365.587583 503.808 
L 367.567184 500.544 
L 368.556984 517.056 
L 369.051885 510.72 
L 370.536585 512.448019 
L 371.031486 515.328 
L 371.526386 513.408 
L 372.021286 514.176019 
L 372.516186 508.223981 
L 374.000887 511.295981 
L 374.495787 499.584 
L 374.990687 500.928 
L 375.485588 503.616 
L 375.980488 503.808 
L 377.960089 489.023981 
L 378.454989 489.023981 
L 378.949889 494.208 
L 379.444789 484.031981 
L 380.92949 480.192 
L 381.91929 476.351981 
L 382.414191 481.151981 
L 382.909091 483.456 
L 384.888692 492.095981 
L 385.878492 500.159981 
L 386.373392 497.472 
L 388.352993 498.048019 
L 388.847894 508.608 
L 389.342794 500.159981 
L 389.837694 503.423981 
L 391.322395 506.687981 
L 391.817295 496.895981 
L 392.312195 495.551981 
L 392.807095 502.848019 
L 393.301996 507.264 
L 394.786696 512.448019 
L 395.281596 516.095981 
L 396.271397 521.087981 
L 396.766297 508.416 
L 398.250998 512.064 
L 399.240798 522.623981 
L 399.735698 518.784 
L 400.230599 512.640019 
L 401.715299 512.831981 
L 402.2102 518.592 
L 402.7051 516.672 
L 403.2 520.128 
L 403.6949 518.4 
L 405.179601 517.823981 
L 405.674501 519.936 
L 406.169401 514.176019 
L 406.664302 512.640019 
L 407.159202 521.28 
L 408.643902 524.351981 
L 409.138803 521.472 
L 409.633703 522.048019 
L 410.128603 532.992 
L 410.623503 532.031981 
L 412.108204 535.487981 
L 412.603104 535.487981 
L 413.592905 546.623981 
L 415.572506 545.664 
L 416.067406 546.431981 
L 416.562306 538.751981 
L 417.057206 538.944 
L 417.552106 535.68 
L 419.036807 531.648019 
L 419.531707 533.568019 
L 420.026608 534.912019 
L 420.521508 541.440019 
L 422.501109 545.856 
L 422.996009 538.368019 
L 423.985809 543.551981 
L 424.48071 544.128 
L 425.96541 544.128 
L 426.46031 539.904019 
L 426.955211 537.216 
L 427.450111 535.872 
L 427.945011 535.295981 
L 429.429712 549.12 
L 429.924612 550.272 
L 430.419512 550.464 
L 430.914412 551.040019 
L 431.409313 540.672 
L 433.388914 537.6 
L 433.883814 542.4 
L 434.378714 552.576019 
L 434.873614 554.88 
L 436.358315 557.951981 
L 436.853215 562.368019 
L 437.348115 564.672 
L 437.843016 559.68 
L 438.337916 561.408 
L 439.822616 562.559981 
L 440.317517 557.951981 
L 440.812417 565.056 
L 441.307317 562.559981 
L 441.802217 558.72 
L 443.286918 556.992 
L 443.781818 555.456 
L 444.276718 554.88 
L 444.771619 564.287981 
L 445.266519 564.864 
L 446.75122 558.72 
L 447.24612 554.112019 
L 447.74102 544.895981 
L 448.23592 540.287981 
L 448.73082 529.151981 
L 450.710421 532.031981 
L 451.205322 540.672 
L 451.700222 536.831981 
L 452.195122 544.704019 
L 453.679823 549.887981 
L 454.174723 547.392 
L 454.669623 542.016 
L 455.164523 546.048019 
L 455.659424 555.456 
L 457.144124 557.951981 
L 457.639024 548.736 
L 458.133925 523.776019 
L 458.628825 510.336 
L 459.123725 511.104019 
L 461.103326 513.023981 
L 461.598226 517.440019 
L 462.093126 523.776019 
L 462.588027 526.464 
L 464.072727 525.887981 
L 465.062528 546.431981 
L 465.557428 550.848019 
L 466.052328 558.336 
L 467.537029 577.92 
L 468.031929 582.144 
L 468.526829 593.472 
L 469.021729 595.008 
L 469.51663 584.256 
L 471.00133 595.2 
L 471.496231 596.544 
L 471.991131 597.12 
L 472.486031 614.4 
L 472.980931 618.048019 
L 474.465632 624.768019 
L 474.960532 619.008 
L 475.455432 603.840019 
L 475.950333 583.295981 
L 476.445233 596.159981 
L 477.929933 587.136 
L 478.424834 585.6 
L 478.919734 581.184 
L 479.414634 584.064 
L 479.909534 605.184 
L 481.889135 623.040019 
L 482.384035 596.159981 
L 482.878936 587.328 
L 483.373836 595.392 
L 484.858537 602.495981 
L 485.848337 574.848019 
L 486.343237 570.240019 
L 486.838137 563.52 
L 488.322838 568.32 
L 488.817738 560.640019 
L 489.312639 569.087981 
L 489.807539 589.440019 
L 490.302439 582.144 
L 491.78714 563.328 
L 492.28204 551.808 
L 492.77694 565.823981 
L 493.27184 564.48 
L 493.766741 568.512019 
L 495.251441 572.928 
L 495.746341 584.064 
L 496.241242 579.840019 
L 496.736142 570.431981 
L 497.231042 568.32 
L 498.715743 562.559981 
L 499.210643 563.712019 
L 499.705543 545.664 
L 500.200443 559.487981 
L 500.695344 554.112019 
L 502.180044 566.976019 
L 502.674945 554.88 
L 503.169845 548.544 
L 503.664745 552 
L 504.159645 543.168019 
L 505.644346 536.448019 
L 506.139246 544.32 
L 506.634146 539.712019 
L 507.129047 520.512019 
L 507.623947 527.040019 
L 509.108647 528.384 
L 509.603548 547.584 
L 510.098448 542.592 
L 510.593348 536.064 
L 511.088248 539.904019 
L 512.572949 534.528 
L 513.067849 525.695981 
L 513.562749 536.831981 
L 514.05765 538.176019 
L 514.55255 529.728 
L 516.037251 536.640019 
L 516.532151 539.904019 
L 517.027051 530.304019 
L 517.521951 532.992 
L 518.016851 543.744 
L 519.501552 549.695981 
L 519.996452 553.536 
L 520.491353 564.287981 
L 521.481153 562.751981 
L 523.460754 552.192 
L 523.955654 533.376019 
L 524.450554 536.831981 
L 524.945455 529.92 
L 526.430155 527.040019 
L 526.925055 524.736 
L 527.419956 523.2 
L 527.914856 525.12 
L 528.409756 525.695981 
L 529.894457 530.88 
L 530.389357 526.08 
L 530.884257 529.344 
L 531.379157 527.231981 
L 531.874058 524.544 
L 533.358758 529.344 
L 533.853659 518.976019 
L 534.348559 516.095981 
L 534.843459 504.959981 
L 535.338359 503.231981 
L 537.31796 502.464 
L 537.81286 506.88 
L 538.802661 506.495981 
L 540.782262 495.936 
L 541.277162 499.968019 
L 541.772062 488.448019 
L 542.266962 492.864 
L 543.751663 488.256 
L 544.246563 483.840019 
L 544.741463 485.951981 
L 545.236364 479.423981 
L 545.731264 470.016 
L 547.710865 467.136 
L 548.205765 469.440019 
L 548.700665 472.704019 
L 549.195565 478.08 
L 550.680266 477.887981 
L 551.175166 483.840019 
L 552.164967 477.887981 
L 552.659867 493.248019 
L 554.144568 492.095981 
L 554.639468 486.912019 
L 555.134368 476.736 
L 555.629268 477.312019 
L 556.124169 470.208 
L 557.608869 470.976019 
L 558.103769 464.064 
L 558.59867 460.992 
L 559.09357 462.336 
L 559.58847 472.32 
L 561.073171 470.4 
L 561.568071 470.592 
L 562.062971 472.32 
L 562.557871 471.936 
L 563.052772 467.328 
L 565.032373 465.023981 
L 565.527273 472.512019 
L 566.517073 472.128 
L 568.001774 467.328 
L 568.496674 468.095981 
L 568.991574 463.295981 
L 569.486475 460.223981 
L 569.981375 460.031981 
L 571.466075 472.704019 
L 571.960976 480.384 
L 572.455876 479.616 
L 573.445676 458.304019 
L 574.930377 461.376019 
L 575.425277 435.456 
L 575.920177 427.584 
L 576.415078 421.631981 
L 578.394678 414.144 
L 578.889579 420.48 
L 579.384479 419.328 
L 579.879379 426.816 
L 580.374279 422.976019 
L 581.85898 413.184 
L 582.35388 417.216 
L 582.84878 419.328 
L 583.343681 425.856 
L 583.838581 423.744 
L 585.323282 421.248019 
L 586.313082 427.008 
L 586.807982 426.816 
L 588.787583 432.959981 
L 589.282483 433.728 
L 589.777384 435.840019 
L 590.272284 428.928 
L 590.767184 429.695981 
L 592.251885 428.159981 
L 592.746785 425.087981 
L 593.241685 425.28 
L 594.231486 428.544 
L 595.716186 432.192 
L 596.211086 422.4 
L 596.705987 420.095981 
L 597.200887 414.912019 
L 597.695787 407.040019 
L 599.180488 409.919962 
L 599.675388 398.784 
L 600.170288 413.375981 
L 600.665188 410.303981 
L 601.160089 417.6 
L 602.644789 416.640019 
L 603.13969 421.631981 
L 603.63459 422.784 
L 604.12949 416.831981 
L 604.62439 409.536038 
L 606.109091 413.568019 
L 606.603991 422.208 
L 607.098891 422.4 
L 608.088692 442.176019 
L 609.573392 440.831981 
L 610.068293 430.656 
L 610.563193 433.344 
L 611.552993 429.695981 
L 613.532594 431.808 
L 614.027494 436.416 
L 614.522395 429.887981 
L 615.017295 444.48 
L 616.996896 468.864 
L 617.491796 461.759981 
L 617.986696 451.968019 
L 618.481596 454.08 
L 619.966297 443.52 
L 620.461197 441.408 
L 621.450998 433.344 
L 621.945898 425.664 
L 623.430599 421.440019 
L 623.925499 418.751981 
L 624.420399 420.864 
L 624.915299 417.6 
L 625.4102 420.864 
L 626.8949 427.392 
L 627.3898 425.856 
L 627.884701 426.048019 
L 628.379601 425.856 
L 628.874501 414.144 
L 630.854102 406.080038 
L 631.843902 407.040019 
L 632.338803 413.568019 
L 633.823503 414.336038 
L 634.318404 406.656 
L 634.813304 410.687981 
L 635.308204 413.568019 
L 635.803104 404.159981 
L 637.287805 399.552019 
L 638.277605 386.687981 
L 638.772506 379.391962 
L 639.267406 382.080038 
L 640.752106 388.991962 
L 641.247007 386.496019 
L 641.741907 384.959981 
L 642.236807 381.696019 
L 642.731707 377.472 
L 644.216408 377.280038 
L 644.711308 383.040019 
L 645.206208 381.312019 
L 645.701109 394.175981 
L 646.196009 385.152019 
L 647.68071 386.112019 
L 648.17561 392.640019 
L 648.67051 395.712019 
L 649.16541 394.559981 
L 649.66031 394.752019 
L 651.145011 393.984 
L 651.639911 391.872 
L 652.134812 394.175981 
L 652.629712 392.256 
L 653.124612 392.256 
L 654.609313 393.984 
L 655.104213 388.224019 
L 656.094013 398.975981 
L 656.588914 396.672 
L 658.073614 391.872 
L 659.063415 386.687981 
L 659.558315 390.336038 
L 660.053215 387.456 
L 662.032816 390.144 
L 662.527716 392.831981 
L 663.022616 380.352019 
L 663.517517 375.936038 
L 665.002217 378.047981 
L 665.497118 377.663962 
L 665.992018 374.4 
L 666.486918 360.959981 
L 666.981818 357.119962 
L 668.466519 361.152019 
L 668.961419 372.863962 
L 669.456319 368.640019 
L 669.95122 374.784 
L 670.44612 373.247981 
L 671.93082 373.631981 
L 672.425721 367.103981 
L 672.920621 376.512019 
L 673.415521 372.672 
L 673.910421 369.791962 
L 675.395122 367.296019 
L 675.890022 373.056 
L 676.384922 370.368019 
L 676.879823 355.584 
L 677.374723 351.168019 
L 678.859424 360.575981 
L 679.354324 361.536038 
L 679.849224 363.456 
L 680.344124 360.575981 
L 680.839024 376.512019 
L 682.323725 380.544 
L 682.818625 380.736038 
L 683.313525 371.712019 
L 683.808426 365.952019 
L 684.303326 370.368019 
L 685.788027 374.016 
L 686.282927 381.696019 
L 686.777827 387.072 
L 687.272727 385.919962 
L 687.767627 388.224019 
L 690.242129 387.072 
L 690.737029 384.384 
L 691.231929 379.775981 
L 692.71663 390.528 
L 693.21153 383.231981 
L 693.70643 392.831981 
L 694.696231 406.272 
L 696.180931 412.608038 
L 696.675831 411.647981 
L 697.170732 418.559981 
L 697.665632 429.312019 
L 698.160532 425.28 
L 699.645233 415.296019 
L 700.140133 410.496019 
L 700.635033 410.880038 
L 701.624834 406.272 
L 703.109534 409.919962 
L 703.604435 409.919962 
L 704.099335 409.344 
L 704.594235 404.736038 
L 705.089135 409.919962 
L 706.573836 409.536038 
L 707.068736 414.528 
L 707.563636 417.792 
L 708.058537 419.712019 
L 708.553437 416.831981 
L 710.038137 413.952019 
L 710.533038 410.880038 
L 711.027938 414.144 
L 711.522838 418.944 
L 712.017738 425.28 
L 713.502439 415.487981 
L 713.997339 404.928 
L 714.492239 405.312019 
L 714.98714 408.959981 
L 715.48204 407.231981 
L 716.966741 405.503981 
L 717.956541 409.919962 
L 718.451441 412.8 
L 718.946341 417.408038 
L 720.431042 418.559981 
L 721.420843 398.784 
L 721.915743 399.168019 
L 722.410643 392.640019 
L 723.895344 395.136038 
L 724.390244 398.016 
L 725.380044 383.040019 
L 725.874945 387.263962 
L 727.359645 387.456 
L 727.854545 390.719962 
L 728.349446 393.216 
L 728.844346 391.487981 
L 729.339246 398.975981 
L 731.318847 396.480038 
L 731.813747 396.672 
L 732.308647 391.296019 
L 732.803548 392.831981 
L 734.288248 393.216 
L 734.783149 389.952019 
L 735.278049 393.024019 
L 735.772949 393.408038 
L 736.267849 389.375981 
L 737.75255 393.6 
L 738.24745 393.6 
L 738.74235 386.303981 
L 739.237251 384.191962 
L 739.732151 385.152019 
L 741.216851 372.863962 
L 741.711752 371.519962 
L 742.206652 372.287981 
L 742.701552 378.047981 
L 743.196452 376.319962 
L 745.176053 376.319962 
L 746.165854 379.775981 
L 746.660754 380.159981 
L 748.145455 377.280038 
L 748.640355 380.928 
L 749.630155 376.319962 
L 750.125055 376.319962 
L 751.609756 373.631981 
L 752.104656 365.184 
L 752.599557 380.736038 
L 753.094457 375.744 
L 753.589357 372.287981 
L 755.074058 367.680038 
L 755.568958 371.903981 
L 756.063858 373.247981 
L 756.558758 372.480038 
L 757.053659 373.440019 
L 758.538359 374.975981 
L 759.033259 374.208038 
L 759.52816 374.591962 
L 760.02306 381.696019 
L 760.51796 384 
L 762.002661 382.656 
L 762.497561 384 
L 762.992461 382.272 
L 763.487361 379.968019 
L 765.466962 378.431981 
L 765.961863 376.703981 
L 766.456763 377.087981 
L 766.951663 380.159981 
L 767.446563 388.224019 
L 768.931264 385.152019 
L 769.426164 380.352019 
L 769.921064 373.631981 
L 770.415965 370.944 
L 770.910865 377.472 
L 772.395565 379.008038 
L 772.890466 394.559981 
L 773.385366 403.968019 
L 773.880266 409.152019 
L 774.375166 407.040019 
L 775.859867 407.040019 
L 776.354767 401.280038 
L 776.849667 394.175981 
L 777.344568 389.184 
L 777.839468 391.296019 
L 779.324169 389.568019 
L 779.819069 392.063962 
L 780.313969 393.984 
L 780.808869 399.744 
L 781.303769 400.128 
L 782.78847 399.168019 
L 783.28337 393.408038 
L 783.778271 391.872 
L 784.273171 387.647981 
L 784.768071 387.840019 
L 786.252772 384.959981 
L 786.747672 380.544 
L 787.242572 372.096019 
L 787.737472 369.984 
L 788.232373 364.224019 
L 789.717073 352.512019 
L 790.211973 352.703981 
L 790.706874 342.719962 
L 791.201774 353.280038 
L 791.696674 350.4 
L 793.676275 342.144 
L 794.171175 350.784 
L 794.666075 344.447981 
L 795.160976 346.368019 
L 796.645676 354.624019 
L 797.140576 349.440019 
L 797.635477 353.856 
L 798.130377 351.359981 
L 798.625277 342.528 
L 800.109978 340.8 
L 800.604878 349.056 
L 801.099778 349.824019 
L 801.594678 350.016 
L 802.089579 351.552019 
L 803.574279 352.128 
L 804.06918 351.744 
L 804.56408 347.903981 
L 805.05898 354.047981 
L 805.55388 346.175981 
L 807.038581 346.752019 
L 807.533481 339.647981 
L 808.028381 336 
L 809.018182 333.119962 
L 810.502882 328.512019 
L 810.997783 327.359981 
L 811.492683 333.119962 
L 812.482483 325.824019 
L 813.967184 317.952019 
L 814.462084 312.768019 
L 814.956984 316.416 
L 815.451885 315.072 
L 815.946785 308.544 
L 817.431486 307.391962 
L 817.926386 310.847981 
L 818.421286 324.480038 
L 819.411086 313.919962 
L 820.895787 312.384 
L 821.390687 307.584 
L 821.885588 308.352019 
L 822.380488 311.616 
L 822.875388 310.656 
L 824.360089 310.463962 
L 824.854989 302.975981 
L 825.349889 302.975981 
L 825.844789 303.744 
L 826.33969 305.856 
L 827.82439 305.663962 
L 828.31929 307.775981 
L 828.814191 313.152019 
L 829.309091 311.616 
L 829.803991 314.112019 
L 831.288692 316.224019 
L 831.783592 316.608038 
L 832.278492 317.759981 
L 832.773392 321.6 
L 833.268293 321.6 
L 834.752993 323.328 
L 835.247894 320.447981 
L 835.742794 319.296019 
L 836.237694 312.768019 
L 836.732594 309.887981 
L 838.217295 313.536038 
L 838.712195 327.936038 
L 839.207095 334.272 
L 839.701996 333.312019 
L 840.196896 336.959981 
L 842.176497 329.087981 
L 842.671397 336.191962 
L 843.166297 324.863962 
L 843.661197 323.328 
L 845.145898 331.2 
L 845.640798 324.287981 
L 846.135698 325.247981 
L 846.630599 315.072 
L 847.125499 317.184 
L 848.6102 309.503981 
L 849.1051 308.928 
L 849.6 297.984 
L 850.0949 301.247981 
L 850.5898 303.744 
L 852.074501 307.008038 
L 853.559202 326.208038 
L 854.054102 328.319962 
L 855.538803 326.591962 
L 856.033703 325.631981 
L 856.528603 329.663962 
L 857.023503 331.584 
L 857.518404 327.744 
L 859.003104 333.312019 
L 859.498004 337.344 
L 859.992905 338.880038 
L 860.487805 322.175981 
L 860.982705 317.568019 
L 862.962306 316.608038 
L 863.457206 308.352019 
L 863.952106 306.431981 
L 864.447007 300.672 
L 865.931707 300.096019 
L 866.426608 298.175981 
L 866.921508 301.247981 
L 867.416408 302.4 
L 867.911308 297.6 
L 869.396009 303.744 
L 869.890909 303.936038 
L 870.385809 303.744 
L 870.88071 305.280038 
L 871.37561 309.312019 
L 872.86031 309.887981 
L 873.850111 302.4 
L 874.345011 302.4 
L 874.839911 300.863962 
L 876.324612 301.824019 
L 876.819512 302.4 
L 877.314412 302.016 
L 877.809313 294.912019 
L 878.304213 294.912019 
L 879.788914 293.184 
L 880.283814 286.463962 
L 881.273614 283.968019 
L 881.768514 283.775981 
L 883.253215 275.903981 
L 883.748115 273.984 
L 884.243016 274.175981 
L 885.232816 271.487981 
L 886.717517 273.984 
L 887.212417 278.591962 
L 887.707317 278.975981 
L 888.202217 280.703981 
L 888.697118 270.336038 
L 890.181818 264.768019 
L 890.676718 267.456 
L 891.171619 271.872 
L 891.666519 273.791962 
L 892.161419 277.247981 
L 893.64612 273.216 
L 894.14102 276.672 
L 894.63592 261.119962 
L 895.13082 261.119962 
L 897.110421 248.447981 
L 897.605322 248.063962 
L 898.595122 249.408038 
L 899.090022 253.440019 
L 900.574723 254.591962 
L 901.069623 255.359981 
L 902.059424 262.656 
L 902.554324 259.775981 
L 904.039024 247.872 
L 904.533925 242.687981 
L 905.028825 242.112019 
L 905.523725 235.2 
L 906.018625 239.040019 
L 907.503326 241.919962 
L 907.998226 244.991962 
L 908.493126 233.856 
L 908.988027 235.584 
L 909.482927 232.128 
L 911.462528 228.287981 
L 911.957428 229.631981 
L 912.947228 249.791962 
L 914.431929 255.936038 
L 914.926829 251.328 
L 915.421729 252.480038 
L 915.91663 260.352019 
L 916.41153 261.887981 
L 917.896231 268.416 
L 918.391131 278.208038 
L 918.886031 277.247981 
L 919.875831 257.663962 
L 921.360532 259.2 
L 922.350333 251.328 
L 922.845233 257.280038 
L 923.340133 247.103981 
L 925.319734 246.528 
L 925.814634 252.096019 
L 926.309534 255.744 
L 926.804435 251.903981 
L 928.289135 245.759981 
L 928.784035 244.8 
L 929.278936 240 
L 929.773836 241.919962 
L 930.268736 235.775981 
L 931.753437 246.144 
L 932.248337 235.775981 
L 933.238137 228.672 
L 933.733038 216.384 
L 935.217738 218.112019 
L 935.712639 219.840019 
L 936.207539 222.719962 
L 936.702439 219.263962 
L 937.197339 222.912019 
L 938.68204 224.640019 
L 939.17694 216.768019 
L 939.67184 213.312019 
L 940.166741 206.4 
L 940.661641 195.840019 
L 942.146341 195.456 
L 942.641242 195.647981 
L 943.136142 193.728 
L 943.631042 207.359981 
L 944.125942 213.696019 
L 945.610643 207.744 
L 946.105543 195.072 
L 946.600443 204.672 
L 947.095344 204.287981 
L 947.590244 199.103981 
L 949.569845 220.416 
L 950.064745 222.336038 
L 950.559645 222.912019 
L 951.054545 245.759981 
L 952.539246 244.224019 
L 953.034146 244.031981 
L 953.529047 235.2 
L 954.023947 255.359981 
L 956.003548 251.712019 
L 956.498448 246.528 
L 956.993348 244.8 
L 957.488248 244.416 
L 957.983149 252.863962 
L 959.467849 256.703981 
L 960.45765 247.296019 
L 960.95255 247.680038 
L 961.44745 248.640019 
L 963.427051 257.087981 
L 963.921951 254.591962 
L 964.416851 253.824019 
L 964.911752 255.359981 
L 966.396452 252.287981 
L 966.891353 251.903981 
L 967.386253 252.096019 
L 967.881153 251.328 
L 968.376053 246.528 
L 969.860754 237.119962 
L 970.355654 235.391962 
L 970.850554 236.928 
L 971.345455 236.736038 
L 971.840355 234.816 
L 973.819956 226.175981 
L 974.314856 223.296019 
L 974.809756 222.144 
L 975.304656 219.263962 
L 976.789357 220.8 
L 977.284257 218.112019 
L 977.779157 217.536038 
L 978.274058 216.191962 
L 978.768958 206.591962 
L 980.253659 195.456 
L 980.748559 196.416 
L 981.243459 201.024019 
L 981.738359 203.328 
L 982.233259 201.024019 
L 983.71796 205.056 
L 984.21286 201.791962 
L 984.707761 199.872 
L 985.202661 199.296019 
L 985.697561 188.736038 
L 987.182262 190.272 
L 987.677162 190.463962 
L 988.172062 198.528 
L 988.666962 200.063962 
L 989.161863 199.487981 
L 990.646563 197.184 
L 991.141463 193.728 
L 991.636364 197.759981 
L 992.131264 192 
L 994.110865 192.768019 
L 994.605765 197.375981 
L 995.100665 197.952019 
L 995.595565 202.752019 
L 996.090466 202.175981 
L 997.575166 194.112019 
L 998.070067 198.336038 
L 998.564967 196.991962 
L 999.059867 219.456 
L 999.554767 219.647981 
L 1001.039468 221.568019 
L 1001.534368 215.040019 
L 1002.029268 215.424019 
L 1002.524169 209.472 
L 1003.019069 209.856 
L 1004.503769 212.159981 
L 1004.99867 206.975981 
L 1005.49357 204.480038 
L 1005.98847 210.624019 
L 1006.48337 224.063962 
L 1007.968071 231.936038 
L 1008.462971 232.512019 
L 1008.957871 237.887981 
L 1009.452772 240 
L 1009.947672 240.959981 
L 1011.927273 239.040019 
L 1013.411973 229.824019 
L 1014.896674 229.056 
L 1015.391574 228.096019 
L 1015.886475 229.824019 
L 1016.381375 220.991962 
L 1016.876275 216.575981 
L 1018.360976 217.536038 
L 1018.855876 213.887981 
L 1019.350776 216.191962 
L 1019.845676 221.952019 
L 1020.340576 219.840019 
L 1022.320177 217.919962 
L 1022.815078 215.808038 
L 1023.309978 214.847981 
L 1023.804878 221.375981 
L 1025.289579 221.759981 
L 1025.784479 227.328 
L 1026.279379 227.328 
L 1026.774279 223.103981 
L 1027.26918 217.728 
L 1028.75388 215.616 
L 1029.24878 214.272 
L 1030.238581 202.559981 
L 1030.733481 195.263962 
L 1032.218182 200.063962 
L 1032.713082 204.096019 
L 1033.207982 211.2 
L 1033.702882 215.808038 
L 1034.197783 226.175981 
L 1035.682483 226.944 
L 1036.177384 224.447981 
L 1036.672284 227.903981 
L 1037.167184 235.584 
L 1037.662084 230.208038 
L 1039.146785 227.136038 
L 1039.641685 239.616 
L 1040.136585 239.040019 
L 1040.631486 237.312019 
L 1041.126386 244.416 
L 1042.611086 253.440019 
L 1043.105987 254.784 
L 1043.600887 269.184 
L 1044.095787 275.519962 
L 1044.590687 270.336038 
L 1046.075388 271.872 
L 1046.570288 257.856 
L 1047.065188 250.944 
L 1047.560089 251.136038 
L 1048.054989 244.991962 
L 1049.53969 244.224019 
L 1050.52949 226.559981 
L 1051.02439 219.072 
L 1051.51929 214.080038 
L 1053.003991 206.4 
L 1053.498891 202.944 
L 1054.488692 188.544 
L 1054.983592 188.159981 
L 1056.468293 188.544 
L 1056.963193 183.936038 
L 1057.458093 187.2 
L 1057.952993 187.2 
L 1058.447894 188.352019 
L 1059.932594 190.656 
L 1060.427494 185.280038 
L 1060.922395 187.968019 
L 1061.417295 187.008038 
L 1061.912195 180.480038 
L 1063.396896 177.791962 
L 1063.891796 178.944 
L 1064.386696 179.519962 
L 1065.376497 174.144 
L 1066.861197 183.744 
L 1067.356098 185.856 
L 1067.850998 178.752019 
L 1068.345898 176.831981 
L 1068.840798 163.968019 
L 1070.325499 158.016 
L 1070.820399 163.008038 
L 1071.315299 160.512019 
L 1071.8102 163.391962 
L 1072.3051 175.103981 
L 1073.7898 181.631981 
L 1074.284701 187.584 
L 1074.779601 187.2 
L 1075.274501 161.280038 
L 1075.769401 157.631981 
L 1077.254102 155.712019 
L 1077.749002 146.880038 
L 1078.243902 147.072 
L 1079.233703 149.759981 
L 1080.718404 149.759981 
L 1081.213304 154.559981 
L 1081.708204 152.831981 
L 1082.698004 158.591962 
L 1084.182705 172.416 
L 1084.677605 187.2 
L 1085.172506 193.152019 
L 1085.667406 184.128 
L 1086.162306 186.624019 
L 1087.647007 203.903981 
L 1088.141907 206.016 
L 1088.636807 231.359981 
L 1089.131707 238.080038 
L 1089.626608 233.856 
L 1091.606208 231.744 
L 1092.101109 209.280038 
L 1092.596009 196.031981 
L 1093.090909 191.231981 
L 1094.57561 195.647981 
L 1095.07051 199.872 
L 1095.56541 200.831981 
L 1096.06031 212.352019 
L 1096.555211 216.384 
L 1098.039911 210.624019 
L 1098.534812 195.840019 
L 1099.029712 188.159981 
L 1099.524612 184.512019 
L 1100.019512 169.919962 
L 1101.504213 178.944 
L 1101.999113 174.719962 
L 1102.494013 179.136038 
L 1102.988914 165.119962 
L 1103.483814 163.008038 
L 1105.463415 164.736038 
L 1105.958315 166.080038 
L 1106.453215 176.256 
L 1106.948115 174.719962 
L 1108.432816 177.6 
L 1108.927716 170.687981 
L 1109.422616 169.152019 
L 1109.917517 168.191962 
L 1110.412417 168.191962 
L 1112.392018 171.072 
L 1112.886918 176.256 
L 1113.381818 175.296019 
L 1113.876718 159.168019 
L 1115.361419 167.808038 
L 1116.35122 186.431981 
L 1116.84612 177.6 
L 1117.34102 176.831981 
L 1118.825721 166.656 
L 1119.320621 168 
L 1119.815521 164.928 
L 1120.310421 171.647981 
L 1120.805322 166.847981 
L 1122.290022 166.463962 
L 1123.279823 183.168019 
L 1123.774723 197.375981 
L 1124.269623 204.863962 
L 1125.754324 186.624019 
L 1126.744124 194.687981 
L 1127.239024 189.887981 
L 1129.218625 196.031981 
L 1129.713525 196.031981 
L 1130.208426 194.496019 
L 1130.703326 195.072 
L 1131.198226 191.808038 
L 1132.682927 183.744 
L 1133.672727 189.503981 
L 1134.167627 199.103981 
L 1134.662528 211.2 
L 1136.642129 206.591962 
L 1137.137029 207.359981 
L 1137.631929 206.4 
L 1138.126829 209.087981 
L 1139.61153 205.631981 
L 1140.10643 207.168019 
L 1140.60133 202.175981 
L 1141.096231 202.944 
L 1141.591131 202.752019 
L 1143.075831 195.072 
L 1143.570732 191.231981 
L 1144.065632 193.919962 
L 1144.560532 201.984 
L 1145.055432 189.503981 
L 1146.540133 187.584 
L 1147.035033 188.159981 
L 1147.529933 182.591962 
L 1148.024834 178.559981 
L 1148.519734 178.175981 
L 1150.004435 181.824019 
L 1150.499335 173.184 
L 1150.994235 174.719962 
L 1151.489135 185.087981 
L 1151.984035 187.968019 
L 1153.963636 194.880038 
L 1154.458537 186.047981 
L 1154.953437 190.656 
L 1155.448337 191.424019 
L 1156.933038 198.912019 
L 1157.427938 200.831981 
L 1157.922838 186.431981 
L 1158.417738 188.544 
L 1158.912639 177.791962 
L 1160.397339 184.128 
L 1160.892239 180.096019 
L 1161.38714 167.231981 
L 1161.88204 165.887981 
L 1162.37694 170.303981 
L 1163.861641 175.680038 
L 1164.356541 174.912019 
L 1164.851441 166.656 
L 1165.346341 166.847981 
L 1165.841242 171.456 
L 1167.325942 164.159981 
L 1167.820843 162.431981 
L 1168.315743 166.272 
L 1168.810643 167.231981 
L 1169.305543 172.031981 
L 1170.790244 183.359981 
L 1171.780044 183.744 
L 1172.274945 184.512019 
L 1174.749446 195.840019 
L 1175.244346 201.791962 
L 1175.739246 197.952019 
L 1176.234146 190.847981 
L 1177.718847 189.119962 
L 1178.213747 188.159981 
L 1178.708647 152.447981 
L 1179.203548 143.808038 
L 1179.698448 148.608038 
L 1181.183149 146.112019 
L 1181.678049 148.224019 
L 1182.667849 144.959981 
L 1183.162749 154.368019 
L 1184.64745 167.424019 
L 1186.132151 165.312019 
L 1186.627051 162.624019 
L 1188.111752 163.391962 
L 1189.101552 153.984 
L 1189.596452 154.368019 
L 1190.091353 158.591962 
L 1191.576053 148.416 
L 1192.070953 154.175981 
L 1192.565854 165.696019 
L 1193.060754 164.544 
L 1193.555654 155.712019 
L 1195.040355 151.487981 
L 1195.535255 151.872 
L 1196.030155 152.447981 
L 1197.019956 190.847981 
L 1198.504656 226.175981 
L 1198.999557 222.912019 
L 1199.494457 235.584 
L 1199.989357 213.503981 
L 1200.484257 211.391962 
L 1201.968958 214.656 
L 1202.463858 236.736038 
L 1202.958758 242.880038 
L 1203.453659 226.944 
L 1203.948559 244.8 
L 1205.92816 235.968019 
L 1206.42306 225.216 
L 1206.91796 236.544 
L 1207.41286 243.072 
L 1208.897561 241.728 
L 1209.392461 221.952019 
L 1209.887361 217.728 
L 1210.382262 212.352019 
L 1210.877162 239.424019 
L 1212.361863 231.936038 
L 1212.856763 240.768019 
L 1213.351663 240.191962 
L 1213.846563 247.680038 
L 1214.341463 225.408038 
L 1215.826164 238.272 
L 1216.321064 250.175981 
L 1216.815965 239.808038 
L 1217.310865 238.847981 
L 1217.805765 249.6 
L 1219.290466 232.512019 
L 1219.785366 231.359981 
L 1220.280266 224.063962 
L 1220.775166 226.368019 
L 1221.270067 223.680038 
L 1222.754767 229.247981 
L 1223.744568 237.696019 
L 1224.239468 232.512019 
L 1224.734368 234.431981 
L 1226.219069 242.687981 
L 1226.713969 235.008038 
L 1227.208869 230.591962 
L 1227.703769 220.224019 
L 1228.19867 212.544 
L 1229.68337 210.624019 
L 1230.178271 216.768019 
L 1230.673171 201.984 
L 1231.168071 202.175981 
L 1231.662971 206.591962 
L 1233.147672 209.472 
L 1233.642572 208.896019 
L 1234.137472 207.936038 
L 1234.632373 209.856 
L 1235.127273 182.591962 
L 1236.611973 189.887981 
L 1237.106874 196.224019 
L 1237.601774 192.191962 
L 1238.096674 205.056 
L 1238.591574 210.047981 
L 1240.076275 203.903981 
L 1240.571175 196.991962 
L 1241.066075 187.584 
L 1241.560976 182.016 
L 1242.055876 179.328 
L 1243.540576 183.744 
L 1244.035477 187.391962 
L 1244.530377 188.352019 
L 1245.520177 187.391962 
L 1247.004878 184.896019 
L 1247.499778 178.944 
L 1247.994678 178.559981 
L 1248.489579 187.775981 
L 1248.984479 179.136038 
L 1250.46918 180.096019 
L 1250.96408 186.816 
L 1251.95388 195.072 
L 1252.44878 210.816 
L 1253.933481 214.847981 
L 1254.428381 190.272 
L 1254.923282 177.791962 
L 1255.418182 176.063962 
L 1255.913082 195.263962 
L 1257.397783 206.784 
L 1257.892683 207.936038 
L 1258.387583 196.991962 
L 1258.882483 195.072 
L 1260.862084 199.680038 
L 1261.356984 194.687981 
L 1261.851885 196.608038 
L 1262.346785 203.712019 
L 1264.326386 229.056 
L 1264.821286 230.975981 
L 1265.316186 233.856 
L 1265.811086 251.136038 
L 1266.305987 250.368019 
L 1267.790687 261.887981 
L 1268.285588 251.328 
L 1268.780488 244.031981 
L 1269.770288 274.752019 
L 1271.749889 266.496019 
L 1272.244789 276.863962 
L 1272.73969 274.559981 
L 1273.23459 271.103981 
L 1275.214191 278.016 
L 1275.709091 264.191962 
L 1276.203991 267.840019 
L 1276.698891 262.463962 
L 1278.183592 263.616 
L 1278.678492 278.016 
L 1279.173392 276.672 
L 1279.668293 260.159981 
L 1280.163193 253.440019 
L 1281.647894 263.231981 
L 1282.142794 269.568019 
L 1282.637694 258.431981 
L 1283.132594 300.863962 
L 1283.627494 280.319962 
L 1285.607095 254.016 
L 1286.101996 250.368019 
L 1286.596896 261.312019 
L 1287.091796 269.184 
L 1288.576497 256.512019 
L 1289.071397 262.463962 
L 1289.566297 292.031981 
L 1290.556098 268.416 
L 1292.040798 277.247981 
L 1293.030599 253.824019 
L 1293.525499 249.024019 
L 1294.020399 240.768019 
L 1295.5051 246.144 
L 1296 256.703981 
L 1296 256.703981 
" style="fill:none;stroke:#0000ff;stroke-linecap:square;"/>
   </g>
   <g id="line2d_2">
    <path clip-path="url(#p43b8dde806)" d="M 180 599.423981 
L 180.4949 595.392 
L 180.9898 584.256 
L 181.484701 580.8 
L 181.979601 576.192 
L 183.464302 569.087981 
L 183.959202 570.431981 
L 184.454102 568.895981 
L 184.949002 561.023981 
L 185.443902 562.368019 
L 187.423503 569.472 
L 187.918404 556.416 
L 188.908204 560.256 
L 190.392905 563.136 
L 190.887805 566.784 
L 191.382705 568.895981 
L 191.877605 556.031981 
L 192.372506 554.112019 
L 193.857206 553.92 
L 194.352106 556.8 
L 195.341907 578.495981 
L 195.836807 585.023981 
L 197.321508 582.528 
L 197.816408 585.408 
L 198.311308 585.216 
L 198.806208 584.831981 
L 199.301109 590.784 
L 201.28071 586.176019 
L 201.77561 581.184 
L 202.27051 580.223981 
L 202.76541 574.848019 
L 204.250111 566.208 
L 204.745011 567.359981 
L 205.239911 563.904019 
L 205.734812 571.2 
L 206.229712 567.168019 
L 207.714412 563.712019 
L 208.209313 560.064 
L 208.704213 559.487981 
L 209.199113 560.640019 
L 209.694013 558.912019 
L 211.178714 552.192 
L 211.673614 561.216 
L 212.168514 556.608 
L 212.663415 555.456 
L 213.158315 541.248019 
L 214.643016 543.359981 
L 215.137916 536.640019 
L 215.632816 534.72 
L 216.127716 536.640019 
L 216.622616 537.216 
L 218.107317 535.295981 
L 218.602217 533.951981 
L 219.097118 530.88 
L 219.592018 530.304019 
L 220.086918 536.064 
L 221.571619 536.640019 
L 222.066519 536.256 
L 222.561419 539.712019 
L 223.056319 535.295981 
L 225.03592 529.92 
L 225.53082 525.504019 
L 226.025721 523.584 
L 226.520621 523.2 
L 227.015521 515.904019 
L 228.500222 511.295981 
L 228.995122 508.416 
L 229.984922 494.208 
L 230.479823 520.128 
L 231.964523 513.984 
L 232.459424 510.912019 
L 232.954324 505.728 
L 233.449224 511.872 
L 233.944124 513.792 
L 235.428825 517.631981 
L 235.923725 529.92 
L 236.418625 525.12 
L 236.913525 518.4 
L 237.408426 518.4 
L 238.893126 518.016 
L 239.388027 527.616 
L 239.882927 531.456 
L 240.377827 566.4 
L 240.872727 553.92 
L 242.357428 530.495981 
L 242.852328 532.8 
L 243.347228 520.704019 
L 243.842129 525.504019 
L 244.337029 549.504019 
L 245.821729 552.384 
L 246.31663 569.087981 
L 246.81153 571.776019 
L 247.30643 586.559981 
L 247.80133 606.528 
L 249.286031 580.992 
L 249.780931 593.087981 
L 250.275831 580.8 
L 250.770732 576.959981 
L 251.265632 574.08 
L 253.245233 585.408 
L 253.740133 587.136 
L 254.235033 583.295981 
L 254.729933 594.623981 
L 256.214634 600.959981 
L 256.709534 608.448019 
L 257.699335 592.32 
L 258.194235 587.712019 
L 259.678936 595.584 
L 260.173836 595.584 
L 260.668736 592.704019 
L 261.163636 592.128 
L 261.658537 590.016 
L 263.143237 579.456 
L 263.638137 581.376019 
L 264.133038 591.936 
L 264.627938 600 
L 265.122838 595.008 
L 266.607539 589.631981 
L 267.102439 600 
L 267.597339 603.840019 
L 268.092239 612.48 
L 268.58714 614.784 
L 270.566741 614.016 
L 271.061641 611.52 
L 271.556541 593.856 
L 272.051441 589.248019 
L 273.536142 580.416 
L 274.031042 570.816 
L 274.525942 572.351981 
L 275.020843 577.536 
L 275.515743 590.208 
L 277.000443 597.12 
L 277.495344 600.384 
L 277.990244 590.4 
L 278.485144 584.640019 
L 278.980044 584.064 
L 280.464745 578.88 
L 280.959645 567.551981 
L 281.949446 579.840019 
L 282.444346 578.112019 
L 284.423947 567.936 
L 284.918847 573.887981 
L 285.908647 592.895981 
L 287.393348 590.784 
L 287.888248 585.984 
L 288.383149 600.576019 
L 288.878049 607.68 
L 289.372949 605.376019 
L 290.85765 611.136 
L 291.35255 608.448019 
L 291.84745 604.992 
L 292.34235 615.359981 
L 292.837251 618.048019 
L 294.321951 617.087981 
L 294.816851 625.151981 
L 295.311752 630.912019 
L 295.806652 630.528 
L 296.301552 630.336 
L 297.786253 634.751981 
L 298.281153 639.551981 
L 299.765854 604.223981 
L 301.745455 605.376019 
L 302.240355 607.104019 
L 302.735255 601.728 
L 303.230155 601.536 
L 304.714856 589.248019 
L 305.209756 590.784 
L 305.704656 600.192 
L 306.199557 601.728 
L 306.694457 596.351981 
L 308.674058 594.240019 
L 309.663858 613.631981 
L 310.158758 609.6 
L 311.643459 612.672 
L 312.138359 618.240019 
L 312.633259 617.28 
L 313.12816 619.008 
L 313.62306 617.087981 
L 315.107761 617.664 
L 315.602661 617.472 
L 316.097561 604.223981 
L 316.592461 609.984 
L 317.087361 607.68 
L 318.572062 606.912019 
L 319.066962 606.528 
L 319.561863 599.040019 
L 320.056763 606.528 
L 320.551663 608.448019 
L 322.036364 599.808 
L 322.531264 600.768019 
L 323.026164 596.928 
L 323.521064 591.551981 
L 324.015965 589.056 
L 325.500665 582.336 
L 325.995565 587.52 
L 326.490466 571.392 
L 326.985366 574.272 
L 327.480266 573.12 
L 328.964967 579.456 
L 329.459867 577.151981 
L 329.954767 578.88 
L 330.449667 569.087981 
L 330.944568 548.544 
L 332.429268 543.936 
L 333.419069 555.072 
L 333.913969 553.151981 
L 334.408869 562.751981 
L 335.89357 557.759981 
L 336.38847 561.216 
L 336.88337 559.68 
L 337.378271 555.456 
L 337.873171 558.144 
L 339.357871 563.136 
L 339.852772 570.240019 
L 340.347672 571.968019 
L 341.337472 572.736 
L 342.822173 578.112019 
L 343.811973 573.504019 
L 344.306874 568.32 
L 344.801774 560.256 
L 346.286475 561.216 
L 346.781375 566.208 
L 347.276275 563.904019 
L 347.771175 546.623981 
L 348.266075 540.095981 
L 349.750776 531.264 
L 350.245676 536.064 
L 350.740576 539.136 
L 351.235477 538.559981 
L 351.730377 536.256 
L 353.215078 531.264 
L 353.709978 528.576019 
L 354.204878 521.664 
L 354.699778 518.4 
L 356.679379 516.287981 
L 357.174279 512.831981 
L 358.16408 517.056 
L 358.65898 516.48 
L 360.143681 515.136 
L 360.638581 520.895981 
L 361.628381 530.304019 
L 362.123282 539.52 
L 363.607982 537.408 
L 364.102882 533.184 
L 364.597783 527.808 
L 365.092683 519.359981 
L 365.587583 519.744 
L 367.567184 511.104019 
L 368.062084 528 
L 368.556984 528.768019 
L 369.051885 519.744 
L 370.536585 524.736 
L 371.031486 527.040019 
L 371.526386 521.28 
L 372.021286 525.504019 
L 372.516186 517.631981 
L 374.000887 520.704019 
L 374.495787 513.6 
L 374.990687 509.759981 
L 375.485588 510.912019 
L 375.980488 514.559981 
L 377.465188 505.151981 
L 377.960089 497.856 
L 378.454989 497.087981 
L 378.949889 501.887981 
L 379.444789 504.959981 
L 381.42439 484.608 
L 381.91929 485.759981 
L 382.414191 487.487981 
L 382.909091 491.52 
L 384.888692 502.272 
L 385.383592 511.68 
L 385.878492 509.759981 
L 386.373392 505.344 
L 387.858093 503.616 
L 388.352993 513.792 
L 388.847894 518.4 
L 389.342794 513.792 
L 389.837694 519.359981 
L 391.322395 516.48 
L 391.817295 513.023981 
L 392.312195 504.576019 
L 392.807095 511.104019 
L 393.301996 515.52 
L 394.786696 523.2 
L 395.281596 531.456 
L 395.776497 534.336 
L 396.271397 538.751981 
L 396.766297 520.895981 
L 398.250998 524.736 
L 398.745898 525.504019 
L 399.240798 532.223981 
L 399.735698 524.351981 
L 400.230599 519.551981 
L 401.715299 517.056 
L 402.2102 521.664 
L 402.7051 520.512019 
L 403.2 528.384 
L 403.6949 522.816 
L 405.179601 523.584 
L 405.674501 524.159981 
L 406.169401 523.392 
L 406.664302 526.464 
L 407.159202 531.840019 
L 408.643902 531.264 
L 409.138803 533.951981 
L 409.633703 534.336 
L 410.128603 540.48 
L 410.623503 536.448019 
L 412.108204 542.208 
L 412.603104 552 
L 413.098004 557.568019 
L 413.592905 555.840019 
L 415.572506 551.231981 
L 416.067406 552 
L 416.562306 546.431981 
L 417.057206 545.087981 
L 417.552106 543.168019 
L 419.036807 540.095981 
L 419.531707 539.712019 
L 420.026608 543.551981 
L 420.521508 550.464 
L 421.016408 551.616 
L 422.501109 551.616 
L 422.996009 547.776019 
L 423.490909 551.808 
L 423.985809 554.304019 
L 424.48071 553.728 
L 425.96541 556.8 
L 426.46031 553.728 
L 426.955211 544.704019 
L 427.450111 541.631981 
L 427.945011 548.928 
L 429.429712 554.304019 
L 429.924612 554.687981 
L 430.419512 556.223981 
L 430.914412 556.416 
L 431.409313 551.040019 
L 433.388914 545.856 
L 433.883814 558.336 
L 434.378714 559.295981 
L 434.873614 565.248019 
L 436.358315 569.664 
L 436.853215 574.08 
L 437.348115 575.808 
L 437.843016 572.159981 
L 438.337916 574.272 
L 439.822616 569.664 
L 440.317517 562.944 
L 440.812417 577.728 
L 441.307317 573.12 
L 441.802217 565.248019 
L 443.286918 565.248019 
L 443.781818 562.944 
L 444.276718 562.559981 
L 444.771619 573.12 
L 445.266519 573.12 
L 446.75122 571.968019 
L 447.74102 551.808 
L 448.23592 547.008 
L 448.73082 545.28 
L 450.710421 542.784 
L 451.205322 550.656 
L 451.700222 542.016 
L 452.195122 549.312019 
L 453.679823 556.031981 
L 454.174723 556.8 
L 454.669623 551.808 
L 455.164523 559.295981 
L 455.659424 562.559981 
L 457.144124 568.128 
L 457.639024 565.056 
L 458.133925 539.136 
L 459.123725 516.48 
L 460.608426 524.544 
L 461.103326 519.168019 
L 461.598226 529.536 
L 462.093126 531.456 
L 462.588027 538.176019 
L 464.072727 541.056 
L 465.062528 556.8 
L 466.052328 581.184 
L 467.537029 619.584 
L 468.031929 618.623981 
L 468.526829 622.08 
L 469.021729 620.928 
L 469.51663 614.784 
L 471.00133 608.831981 
L 471.496231 609.023981 
L 471.991131 606.144 
L 472.486031 630.912019 
L 472.980931 638.592 
L 474.465632 645.12 
L 474.960532 646.08 
L 475.455432 623.231981 
L 475.950333 608.448019 
L 476.445233 616.704019 
L 477.929933 595.968019 
L 478.424834 597.887981 
L 478.919734 592.895981 
L 479.414634 597.12 
L 479.909534 619.2 
L 481.889135 633.6 
L 482.878936 604.223981 
L 483.373836 610.944 
L 484.858537 618.623981 
L 485.353437 602.112019 
L 485.848337 592.895981 
L 486.343237 580.416 
L 486.838137 580.608 
L 488.322838 584.640019 
L 488.817738 577.536 
L 489.807539 607.487981 
L 490.302439 596.544 
L 491.78714 581.951981 
L 492.28204 573.312019 
L 492.77694 584.256 
L 493.27184 581.759981 
L 493.766741 580.031981 
L 495.251441 597.504019 
L 495.746341 612.672 
L 496.241242 595.008 
L 496.736142 590.208 
L 497.231042 586.944 
L 498.715743 573.887981 
L 499.210643 574.272 
L 499.705543 569.664 
L 500.200443 571.776019 
L 500.695344 569.472 
L 502.180044 579.264 
L 502.674945 580.031981 
L 503.169845 571.2 
L 503.664745 570.816 
L 504.159645 552.576019 
L 505.644346 545.856 
L 506.139246 556.8 
L 506.634146 552.959981 
L 507.129047 538.944 
L 507.623947 536.831981 
L 509.108647 541.440019 
L 509.603548 567.359981 
L 510.098448 553.728 
L 510.593348 550.656 
L 511.088248 553.92 
L 513.067849 539.136 
L 513.562749 552.192 
L 514.05765 549.12 
L 514.55255 537.6 
L 516.037251 546.816 
L 516.532151 547.776019 
L 517.027051 545.472 
L 517.521951 552.768019 
L 518.016851 552.384 
L 519.501552 562.176019 
L 519.996452 561.023981 
L 520.491353 575.231981 
L 521.481153 576.576019 
L 522.965854 562.559981 
L 523.460754 560.640019 
L 523.955654 551.423981 
L 524.945455 540.287981 
L 526.925055 536.831981 
L 527.419956 537.023981 
L 527.914856 541.248019 
L 528.409756 537.792 
L 529.894457 539.52 
L 530.389357 542.4 
L 530.884257 543.168019 
L 531.379157 537.216 
L 531.874058 534.528 
L 533.358758 543.744 
L 533.853659 535.104019 
L 534.348559 531.264 
L 534.843459 515.52 
L 535.338359 509.759981 
L 537.31796 507.648019 
L 537.81286 516.672 
L 538.307761 514.559981 
L 538.802661 513.6 
L 540.782262 504.384 
L 541.277162 509.568019 
L 541.772062 506.304019 
L 542.266962 505.92 
L 543.751663 500.351981 
L 544.246563 493.248019 
L 544.741463 497.087981 
L 545.236364 491.52 
L 545.731264 487.872 
L 547.710865 483.840019 
L 548.205765 489.216 
L 548.700665 489.023981 
L 549.195565 486.72 
L 550.680266 489.023981 
L 551.175166 493.631981 
L 551.670067 490.368019 
L 552.164967 500.544 
L 552.659867 500.928 
L 554.144568 507.840019 
L 554.639468 494.784 
L 555.134368 488.831981 
L 555.629268 486.144 
L 556.124169 477.12 
L 557.608869 476.928 
L 558.103769 475.968019 
L 558.59867 468.095981 
L 559.09357 471.168019 
L 559.58847 477.695981 
L 561.073171 475.392 
L 561.568071 482.495981 
L 562.062971 483.264 
L 562.557871 484.608 
L 563.052772 476.159981 
L 565.032373 474.816 
L 565.527273 479.808 
L 566.022173 479.616 
L 566.517073 481.728 
L 568.001774 484.8 
L 568.496674 473.472 
L 568.991574 471.936 
L 569.486475 468.095981 
L 569.981375 470.976019 
L 571.466075 483.456 
L 571.960976 489.408 
L 572.455876 488.256 
L 572.950776 480.959981 
L 573.445676 471.936 
L 574.930377 469.248019 
L 575.425277 460.992 
L 575.920177 440.831981 
L 576.415078 437.376019 
L 576.909978 430.272 
L 578.394678 427.2 
L 578.889579 429.12 
L 579.384479 427.776019 
L 579.879379 437.376019 
L 580.374279 433.344 
L 581.85898 420.095981 
L 582.84878 427.2 
L 583.343681 434.304019 
L 583.838581 432.959981 
L 585.323282 432.959981 
L 585.818182 433.728 
L 586.313082 435.072 
L 586.807982 434.88 
L 588.787583 440.448019 
L 589.282483 449.664 
L 589.777384 442.944 
L 590.272284 441.6 
L 590.767184 439.104019 
L 592.251885 438.72 
L 592.746785 432.768019 
L 593.241685 433.536 
L 593.736585 436.608 
L 594.231486 435.840019 
L 595.716186 437.759981 
L 596.211086 431.231981 
L 597.200887 424.704019 
L 597.695787 419.328 
L 599.180488 418.559981 
L 599.675388 416.447981 
L 600.170288 420.48 
L 600.665188 421.056 
L 601.160089 427.584 
L 602.644789 428.159981 
L 603.13969 429.12 
L 603.63459 433.536 
L 604.12949 421.823981 
L 604.62439 428.928 
L 606.109091 427.008 
L 606.603991 432.384 
L 607.098891 436.223981 
L 607.593792 443.904019 
L 608.088692 453.695981 
L 609.573392 452.736 
L 610.068293 441.216 
L 610.563193 447.359981 
L 611.058093 439.68 
L 611.552993 441.408 
L 613.532594 437.951981 
L 614.027494 443.52 
L 614.522395 446.4 
L 615.017295 465.408 
L 616.501996 481.344 
L 616.996896 483.264 
L 617.491796 470.784 
L 617.986696 464.064 
L 618.481596 468.095981 
L 619.966297 459.072 
L 620.461197 463.295981 
L 620.956098 447.744 
L 621.450998 444.672 
L 621.945898 437.376019 
L 623.430599 432.192 
L 623.925499 426.048019 
L 624.420399 431.423981 
L 624.915299 433.92 
L 625.4102 428.544 
L 626.8949 436.031981 
L 627.3898 436.416 
L 627.884701 435.072 
L 628.379601 438.912019 
L 628.874501 421.823981 
L 630.359202 416.640019 
L 630.854102 415.487981 
L 631.843902 414.912019 
L 632.338803 420.672 
L 633.823503 421.440019 
L 634.318404 421.440019 
L 634.813304 420.864 
L 635.308204 422.208 
L 635.803104 417.408038 
L 637.287805 407.040019 
L 637.782705 409.152019 
L 638.277605 405.696019 
L 638.772506 393.791962 
L 639.267406 388.416 
L 640.752106 398.975981 
L 641.247007 395.712019 
L 641.741907 394.175981 
L 642.236807 388.416 
L 642.731707 387.263962 
L 644.216408 387.263962 
L 644.711308 389.759981 
L 645.206208 392.831981 
L 645.701109 406.463962 
L 646.196009 393.216 
L 647.68071 398.591962 
L 648.17561 399.359981 
L 648.67051 402.240019 
L 649.16541 403.2 
L 649.66031 401.663962 
L 651.145011 400.128 
L 651.639911 399.359981 
L 652.134812 400.703981 
L 652.629712 397.631981 
L 653.124612 398.208038 
L 654.609313 400.319962 
L 655.104213 398.4 
L 655.599113 401.472 
L 656.588914 405.887981 
L 658.073614 400.512019 
L 658.568514 397.440019 
L 659.063415 391.872 
L 659.558315 395.903981 
L 660.053215 393.6 
L 662.032816 396.863962 
L 662.527716 398.208038 
L 663.022616 393.791962 
L 663.517517 381.503981 
L 665.002217 382.847981 
L 665.497118 384.575981 
L 665.992018 381.696019 
L 666.486918 379.775981 
L 666.981818 364.8 
L 668.466519 376.896019 
L 668.961419 378.240019 
L 669.456319 375.936038 
L 669.95122 381.119962 
L 671.93082 385.152019 
L 672.425721 377.663962 
L 672.920621 384.384 
L 673.415521 380.159981 
L 673.910421 379.008038 
L 675.395122 378.624019 
L 675.890022 381.696019 
L 676.384922 378.431981 
L 677.374723 364.224019 
L 678.859424 365.759981 
L 679.849224 373.247981 
L 680.344124 371.903981 
L 680.839024 387.840019 
L 682.323725 393.791962 
L 682.818625 392.063962 
L 683.313525 389.184 
L 683.808426 378.816 
L 684.303326 378.624019 
L 685.788027 385.728 
L 686.282927 396.287981 
L 686.777827 398.016 
L 687.272727 393.791962 
L 687.767627 398.208038 
L 690.242129 398.4 
L 690.737029 396.287981 
L 691.231929 392.256 
L 692.71663 398.4 
L 693.21153 394.752019 
L 693.70643 410.880038 
L 694.20133 414.336038 
L 694.696231 416.640019 
L 696.180931 417.984 
L 696.675831 424.512019 
L 697.170732 432.576019 
L 697.665632 437.568019 
L 698.160532 436.8 
L 699.645233 421.823981 
L 700.140133 421.440019 
L 700.635033 420.864 
L 701.624834 415.296019 
L 703.109534 417.024019 
L 703.604435 417.216 
L 704.099335 421.631981 
L 704.594235 411.072 
L 705.089135 416.256 
L 706.573836 417.984 
L 707.068736 431.423981 
L 707.563636 430.656 
L 708.058537 424.704019 
L 708.553437 424.128 
L 710.038137 421.056 
L 710.533038 419.52 
L 711.027938 422.208 
L 712.017738 431.231981 
L 713.502439 429.12 
L 713.997339 415.487981 
L 714.492239 414.528 
L 715.48204 419.52 
L 716.966741 413.184 
L 717.956541 416.063962 
L 718.451441 427.2 
L 718.946341 423.936 
L 720.431042 427.008 
L 721.420843 409.919962 
L 721.915743 409.152019 
L 722.410643 405.312019 
L 723.895344 403.2 
L 724.390244 405.312019 
L 724.885144 397.056 
L 725.380044 394.559981 
L 725.874945 394.752019 
L 727.359645 394.559981 
L 727.854545 397.056 
L 728.349446 403.775981 
L 728.844346 403.775981 
L 729.339246 407.231981 
L 731.318847 404.736038 
L 732.308647 398.4 
L 732.803548 398.975981 
L 734.288248 398.784 
L 734.783149 397.056 
L 735.278049 399.744 
L 735.772949 398.784 
L 736.267849 394.368019 
L 737.75255 401.472 
L 738.24745 397.631981 
L 738.74235 398.784 
L 739.237251 392.256 
L 739.732151 388.608038 
L 741.216851 384.191962 
L 741.711752 378.431981 
L 742.206652 383.231981 
L 742.701552 384.191962 
L 743.196452 384.575981 
L 745.176053 384.768019 
L 745.670953 383.040019 
L 746.165854 385.919962 
L 746.660754 388.031981 
L 748.145455 391.872 
L 748.640355 391.487981 
L 749.135255 386.303981 
L 749.630155 382.847981 
L 750.125055 386.687981 
L 751.609756 381.887981 
L 752.104656 387.263962 
L 752.599557 390.144 
L 753.589357 378.816 
L 755.074058 375.359981 
L 755.568958 374.975981 
L 756.063858 377.663962 
L 756.558758 381.696019 
L 757.053659 382.847981 
L 758.538359 383.040019 
L 759.033259 383.424019 
L 759.52816 381.312019 
L 760.02306 388.8 
L 760.51796 389.952019 
L 762.002661 389.568019 
L 762.497561 388.224019 
L 762.992461 390.719962 
L 763.487361 384.768019 
L 765.466962 382.272 
L 765.961863 380.352019 
L 766.456763 388.416 
L 766.951663 385.919962 
L 767.446563 394.944 
L 768.931264 393.791962 
L 769.426164 387.840019 
L 769.921064 384.768019 
L 770.415965 378.240019 
L 772.395565 393.024019 
L 772.890466 411.456 
L 773.385366 413.375981 
L 773.880266 417.792 
L 774.375166 414.144 
L 775.859867 413.759981 
L 776.354767 409.152019 
L 777.344568 395.136038 
L 777.839468 396.096019 
L 779.324169 395.519962 
L 779.819069 396.096019 
L 780.313969 403.968019 
L 780.808869 407.424019 
L 781.303769 404.544 
L 782.78847 404.352019 
L 783.28337 400.512019 
L 784.768071 393.408038 
L 786.252772 392.640019 
L 787.242572 384.384 
L 787.737472 375.552019 
L 788.232373 373.440019 
L 789.717073 368.447981 
L 790.211973 357.887981 
L 790.706874 361.728 
L 791.201774 360 
L 791.696674 361.152019 
L 793.676275 350.4 
L 794.171175 356.736038 
L 794.666075 354.431981 
L 795.160976 358.847981 
L 796.645676 361.728 
L 797.140576 356.159981 
L 797.635477 363.263962 
L 798.130377 363.840019 
L 798.625277 352.128 
L 800.109978 349.247981 
L 800.604878 355.584 
L 801.099778 356.159981 
L 802.089579 360.384 
L 803.574279 358.847981 
L 804.06918 357.503981 
L 804.56408 357.503981 
L 805.05898 362.880038 
L 805.55388 357.119962 
L 807.038581 357.312019 
L 808.028381 342.336038 
L 808.523282 342.719962 
L 809.018182 343.680038 
L 810.502882 335.231981 
L 810.997783 338.496019 
L 811.492683 340.8 
L 812.482483 331.584 
L 813.967184 323.903981 
L 814.462084 320.640019 
L 814.956984 325.056 
L 815.451885 324.096019 
L 815.946785 320.447981 
L 817.431486 315.647981 
L 817.926386 322.944 
L 818.421286 337.919962 
L 818.916186 325.247981 
L 819.411086 323.903981 
L 820.895787 318.144 
L 821.390687 317.375981 
L 821.885588 312.959981 
L 822.380488 318.528 
L 822.875388 318.912019 
L 824.360089 316.031981 
L 824.854989 309.119962 
L 825.349889 315.840019 
L 825.844789 310.080038 
L 826.33969 311.231981 
L 827.82439 310.272 
L 828.31929 312.575981 
L 828.814191 321.6 
L 829.309091 320.447981 
L 829.803991 320.831981 
L 831.288692 323.136038 
L 831.783592 322.752019 
L 832.278492 322.752019 
L 832.773392 329.663962 
L 833.268293 327.936038 
L 834.752993 328.896019 
L 835.247894 330.047981 
L 836.237694 325.440019 
L 836.732594 318.719962 
L 838.217295 323.136038 
L 838.712195 340.224019 
L 839.207095 340.224019 
L 839.701996 342.719962 
L 840.196896 342.912019 
L 842.176497 342.719962 
L 842.671397 344.063962 
L 843.166297 338.496019 
L 843.661197 335.040019 
L 845.145898 342.912019 
L 845.640798 331.008038 
L 846.135698 331.391962 
L 846.630599 332.352019 
L 847.125499 322.944 
L 848.6102 315.840019 
L 849.1051 315.456 
L 849.6 312 
L 850.0949 312.959981 
L 850.5898 311.424019 
L 852.074501 318.336038 
L 852.569401 325.247981 
L 853.559202 333.696019 
L 854.054102 334.847981 
L 855.538803 339.647981 
L 856.033703 331.391962 
L 856.528603 334.463962 
L 857.023503 336.384 
L 857.518404 335.040019 
L 859.003104 338.880038 
L 859.498004 346.752019 
L 859.992905 346.175981 
L 860.487805 336.191962 
L 860.982705 329.856 
L 862.467406 323.519962 
L 862.962306 326.016 
L 863.457206 324.863962 
L 864.447007 310.080038 
L 865.931707 306.624019 
L 866.426608 303.168019 
L 866.921508 306.624019 
L 867.416408 311.616 
L 867.911308 309.312019 
L 869.396009 309.696019 
L 869.890909 308.352019 
L 870.385809 307.584 
L 870.88071 314.687981 
L 871.37561 317.375981 
L 873.355211 313.919962 
L 873.850111 309.503981 
L 874.839911 316.031981 
L 876.324612 308.159981 
L 876.819512 309.696019 
L 877.314412 312.575981 
L 877.809313 301.631981 
L 878.304213 299.519962 
L 879.788914 298.944 
L 880.283814 296.831981 
L 880.778714 292.8 
L 881.273614 290.880038 
L 881.768514 291.840019 
L 883.253215 283.968019 
L 883.748115 279.359981 
L 884.243016 278.4 
L 886.717517 280.896019 
L 887.212417 296.640019 
L 887.707317 289.728 
L 888.202217 291.072 
L 888.697118 283.391962 
L 890.181818 271.103981 
L 890.676718 275.903981 
L 891.171619 283.008038 
L 891.666519 284.544 
L 892.161419 283.008038 
L 893.64612 280.512019 
L 894.14102 281.663962 
L 895.13082 277.056 
L 895.625721 263.424019 
L 897.110421 260.736038 
L 897.605322 254.208038 
L 898.595122 254.591962 
L 899.090022 258.240019 
L 900.574723 261.119962 
L 901.069623 259.391962 
L 902.059424 274.559981 
L 902.554324 268.224019 
L 904.533925 249.6 
L 905.028825 251.519962 
L 905.523725 245.375981 
L 906.018625 248.831981 
L 907.503326 250.368019 
L 907.998226 252.863962 
L 908.493126 243.263962 
L 908.988027 242.496019 
L 909.482927 238.272 
L 911.462528 238.272 
L 911.957428 251.519962 
L 912.452328 258.047981 
L 912.947228 261.312019 
L 914.431929 265.152019 
L 914.926829 262.080038 
L 915.421729 269.952019 
L 915.91663 268.991962 
L 916.41153 272.640019 
L 917.896231 288.384 
L 918.391131 288.575981 
L 918.886031 285.312019 
L 919.380931 280.896019 
L 919.875831 268.031981 
L 921.360532 266.496019 
L 921.855432 264.768019 
L 922.350333 260.352019 
L 922.845233 263.616 
L 923.340133 260.928 
L 925.319734 252.287981 
L 925.814634 266.112019 
L 926.309534 266.303981 
L 926.804435 259.391962 
L 928.289135 258.240019 
L 928.784035 253.247981 
L 929.278936 249.408038 
L 929.773836 249.216 
L 930.268736 244.608038 
L 931.753437 254.4 
L 932.248337 243.840019 
L 933.733038 229.631981 
L 935.217738 227.903981 
L 936.207539 230.591962 
L 936.702439 232.319962 
L 937.197339 235.391962 
L 938.68204 229.631981 
L 939.17694 225.408038 
L 939.67184 224.447981 
L 940.166741 221.952019 
L 940.661641 211.008038 
L 942.146341 204.480038 
L 942.641242 200.447981 
L 943.136142 209.087981 
L 943.631042 225.408038 
L 944.125942 221.759981 
L 945.610643 216 
L 946.105543 210.624019 
L 946.600443 212.736038 
L 947.095344 216.575981 
L 947.590244 215.424019 
L 949.569845 230.4 
L 950.064745 233.087981 
L 950.559645 249.6 
L 951.054545 258.240019 
L 952.539246 259.584 
L 953.034146 258.047981 
L 953.529047 265.919962 
L 954.023947 262.080038 
L 956.003548 261.312019 
L 956.498448 258.624019 
L 956.993348 253.440019 
L 957.488248 253.440019 
L 957.983149 261.119962 
L 959.467849 266.687981 
L 959.962749 259.008038 
L 960.45765 255.359981 
L 960.95255 258.624019 
L 961.44745 258.240019 
L 962.932151 265.536038 
L 963.427051 263.231981 
L 963.921951 263.424019 
L 964.416851 260.159981 
L 964.911752 262.847981 
L 966.891353 257.472 
L 967.881153 263.808038 
L 968.376053 254.975981 
L 969.860754 249.791962 
L 970.355654 247.103981 
L 970.850554 243.456 
L 971.345455 242.112019 
L 971.840355 239.616 
L 974.314856 233.856 
L 974.809756 229.440019 
L 975.304656 226.175981 
L 976.789357 229.056 
L 977.284257 225.6 
L 977.779157 224.831981 
L 978.274058 220.8 
L 978.768958 217.728 
L 980.253659 210.047981 
L 980.748559 202.368019 
L 981.243459 209.472 
L 981.738359 210.240019 
L 982.233259 207.936038 
L 983.71796 214.463962 
L 984.21286 213.119962 
L 985.202661 204.480038 
L 985.697561 194.880038 
L 987.182262 197.952019 
L 987.677162 201.408038 
L 988.172062 207.744 
L 988.666962 211.2 
L 989.161863 208.128 
L 990.646563 202.752019 
L 991.141463 200.063962 
L 991.636364 203.903981 
L 992.131264 197.568019 
L 994.110865 198.719962 
L 994.605765 204.480038 
L 995.100665 203.712019 
L 995.595565 208.703981 
L 996.090466 210.047981 
L 997.575166 206.208038 
L 998.070067 207.168019 
L 998.564967 218.687981 
L 999.059867 233.663962 
L 999.554767 229.631981 
L 1001.039468 226.559981 
L 1001.534368 221.375981 
L 1002.029268 221.375981 
L 1002.524169 216.384 
L 1003.019069 216 
L 1004.503769 219.647981 
L 1004.99867 217.344 
L 1005.49357 212.928 
L 1006.48337 239.231981 
L 1007.968071 240.191962 
L 1008.462971 244.416 
L 1008.957871 244.991962 
L 1009.452772 252.863962 
L 1009.947672 250.944 
L 1011.432373 246.912019 
L 1011.927273 247.680038 
L 1012.422173 241.728 
L 1012.917073 238.272 
L 1013.411973 243.647981 
L 1015.391574 234.624019 
L 1015.886475 235.968019 
L 1016.876275 225.984 
L 1018.855876 220.416 
L 1019.845676 226.944 
L 1020.340576 225.791962 
L 1022.320177 224.256 
L 1022.815078 225.408038 
L 1023.309978 224.640019 
L 1023.804878 227.712019 
L 1025.289579 228.096019 
L 1025.784479 235.584 
L 1026.279379 232.896019 
L 1026.774279 230.975981 
L 1027.26918 226.175981 
L 1028.75388 222.912019 
L 1029.743681 217.728 
L 1030.238581 209.663962 
L 1030.733481 203.712019 
L 1032.218182 207.359981 
L 1032.713082 214.463962 
L 1033.207982 219.263962 
L 1033.702882 228.863962 
L 1034.197783 235.2 
L 1035.682483 236.352019 
L 1036.177384 232.896019 
L 1036.672284 240.768019 
L 1037.167184 245.375981 
L 1037.662084 235.2 
L 1039.146785 235.391962 
L 1039.641685 252.480038 
L 1040.136585 254.784 
L 1040.631486 253.440019 
L 1041.126386 262.847981 
L 1042.611086 267.263962 
L 1043.105987 267.263962 
L 1043.600887 296.831981 
L 1044.095787 300.480038 
L 1044.590687 279.744 
L 1046.075388 279.744 
L 1046.570288 270.912019 
L 1047.065188 266.496019 
L 1047.560089 259.775981 
L 1048.054989 258.240019 
L 1049.53969 249.024019 
L 1050.03459 244.031981 
L 1050.52949 237.119962 
L 1051.02439 233.663962 
L 1051.51929 218.687981 
L 1053.003991 218.112019 
L 1053.993792 203.712019 
L 1054.488692 200.447981 
L 1054.983592 194.880038 
L 1056.468293 195.263962 
L 1056.963193 188.928 
L 1057.458093 193.152019 
L 1057.952993 190.847981 
L 1058.447894 193.919962 
L 1059.932594 194.880038 
L 1060.427494 192.768019 
L 1060.922395 195.072 
L 1061.417295 195.647981 
L 1061.912195 189.696019 
L 1063.396896 187.584 
L 1063.891796 188.352019 
L 1064.386696 187.968019 
L 1065.376497 184.512019 
L 1066.861197 196.224019 
L 1067.356098 194.303981 
L 1067.850998 188.159981 
L 1068.345898 184.128 
L 1068.840798 173.184 
L 1070.325499 173.759981 
L 1070.820399 176.063962 
L 1071.315299 175.296019 
L 1071.8102 176.063962 
L 1072.3051 190.080038 
L 1073.7898 199.680038 
L 1074.284701 206.016 
L 1074.779601 201.408038 
L 1075.274501 179.712019 
L 1075.769401 170.496019 
L 1077.254102 165.696019 
L 1077.749002 153.408038 
L 1078.243902 156.096019 
L 1079.233703 153.984 
L 1080.718404 161.280038 
L 1081.213304 159.168019 
L 1081.708204 169.152019 
L 1082.698004 179.519962 
L 1084.182705 193.152019 
L 1084.677605 208.703981 
L 1085.172506 203.712019 
L 1085.667406 191.424019 
L 1086.162306 209.856 
L 1087.647007 217.152019 
L 1088.141907 230.016 
L 1088.636807 249.216 
L 1089.131707 250.559981 
L 1089.626608 249.6 
L 1091.606208 249.791962 
L 1092.101109 238.080038 
L 1093.090909 200.447981 
L 1095.07051 210.047981 
L 1095.56541 223.872 
L 1096.06031 225.6 
L 1096.555211 228.863962 
L 1098.039911 231.744 
L 1099.029712 203.712019 
L 1099.524612 194.496019 
L 1100.019512 182.591962 
L 1101.504213 187.008038 
L 1101.999113 182.4 
L 1102.494013 186.816 
L 1102.988914 181.056 
L 1103.483814 170.496019 
L 1105.463415 174.336038 
L 1105.958315 178.368019 
L 1106.948115 190.463962 
L 1108.432816 183.168019 
L 1108.927716 177.6 
L 1109.422616 175.487981 
L 1109.917517 175.103981 
L 1110.412417 175.680038 
L 1111.897118 178.559981 
L 1112.392018 177.984 
L 1112.886918 182.208038 
L 1113.381818 183.359981 
L 1113.876718 176.831981 
L 1115.361419 174.719962 
L 1115.856319 192.768019 
L 1116.35122 195.456 
L 1116.84612 189.503981 
L 1117.34102 188.159981 
L 1118.825721 180.096019 
L 1119.320621 178.368019 
L 1119.815521 177.6 
L 1120.310421 182.975981 
L 1120.805322 178.944 
L 1122.290022 173.759981 
L 1122.784922 183.359981 
L 1123.774723 211.584 
L 1124.269623 211.968019 
L 1125.754324 205.056 
L 1126.249224 199.872 
L 1126.744124 204.096019 
L 1127.239024 199.103981 
L 1129.218625 209.087981 
L 1129.713525 202.752019 
L 1130.208426 200.447981 
L 1130.703326 204.096019 
L 1131.198226 200.447981 
L 1132.682927 193.728 
L 1133.672727 205.631981 
L 1134.167627 215.616 
L 1134.662528 223.296019 
L 1136.147228 214.080038 
L 1136.642129 216.768019 
L 1137.137029 220.608038 
L 1137.631929 215.616 
L 1138.126829 216.191962 
L 1139.61153 215.231981 
L 1140.10643 217.919962 
L 1140.60133 212.352019 
L 1141.096231 214.272 
L 1141.591131 211.008038 
L 1143.075831 206.975981 
L 1143.570732 201.791962 
L 1144.065632 209.663962 
L 1144.560532 210.047981 
L 1145.055432 202.944 
L 1146.540133 192.768019 
L 1147.035033 201.984 
L 1147.529933 192.575981 
L 1148.024834 185.856 
L 1148.519734 192.384 
L 1150.004435 188.736038 
L 1150.499335 181.824019 
L 1150.994235 187.2 
L 1151.489135 190.463962 
L 1151.984035 196.031981 
L 1153.963636 201.984 
L 1154.458537 197.568019 
L 1154.953437 197.568019 
L 1155.448337 205.247981 
L 1156.933038 210.816 
L 1157.427938 212.159981 
L 1157.922838 202.559981 
L 1158.417738 198.528 
L 1158.912639 190.463962 
L 1160.892239 195.072 
L 1161.38714 182.016 
L 1161.88204 174.144 
L 1162.37694 177.6 
L 1163.861641 184.703981 
L 1164.356541 182.016 
L 1164.851441 176.447981 
L 1165.346341 179.328 
L 1165.841242 180.863962 
L 1167.820843 168.768019 
L 1168.315743 173.759981 
L 1168.810643 176.640019 
L 1169.305543 178.559981 
L 1170.790244 198.912019 
L 1171.285144 200.447981 
L 1171.780044 192.191962 
L 1172.274945 197.375981 
L 1174.254545 205.440019 
L 1174.749446 207.936038 
L 1175.244346 213.119962 
L 1176.234146 201.408038 
L 1177.718847 195.456 
L 1178.213747 196.224019 
L 1178.708647 189.119962 
L 1179.203548 153.216 
L 1179.698448 157.824019 
L 1181.183149 153.024019 
L 1181.678049 156.287981 
L 1182.172949 155.903981 
L 1182.667849 156.863962 
L 1183.162749 163.2 
L 1184.64745 173.759981 
L 1185.14235 176.447981 
L 1186.627051 169.536038 
L 1188.111752 172.031981 
L 1188.606652 168.575981 
L 1189.101552 163.008038 
L 1189.596452 165.696019 
L 1190.091353 171.072 
L 1191.576053 159.552019 
L 1192.070953 163.2 
L 1192.565854 182.208038 
L 1193.060754 172.031981 
L 1193.555654 168 
L 1195.040355 163.968019 
L 1195.535255 157.440019 
L 1196.030155 163.008038 
L 1197.019956 211.008038 
L 1198.504656 286.847981 
L 1198.999557 269.375981 
L 1199.494457 261.312019 
L 1199.989357 230.975981 
L 1200.484257 220.608038 
L 1201.968958 221.759981 
L 1202.463858 264 
L 1202.958758 255.744 
L 1203.453659 242.880038 
L 1203.948559 259.968019 
L 1205.92816 248.640019 
L 1206.42306 248.831981 
L 1207.41286 253.631981 
L 1208.897561 249.791962 
L 1209.392461 242.880038 
L 1209.887361 230.4 
L 1210.382262 235.968019 
L 1210.877162 249.791962 
L 1212.361863 242.687981 
L 1212.856763 250.559981 
L 1213.351663 247.872 
L 1213.846563 260.159981 
L 1214.341463 239.040019 
L 1215.826164 258.240019 
L 1216.321064 260.544 
L 1216.815965 249.408038 
L 1217.310865 253.824019 
L 1217.805765 277.824019 
L 1219.290466 243.456 
L 1220.280266 234.240019 
L 1220.775166 237.312019 
L 1221.270067 238.080038 
L 1222.754767 236.736038 
L 1223.249667 238.463962 
L 1223.744568 256.703981 
L 1224.239468 250.944 
L 1224.734368 250.944 
L 1226.219069 251.903981 
L 1226.713969 249.6 
L 1227.703769 237.887981 
L 1228.19867 228.672 
L 1229.68337 221.184 
L 1230.178271 227.519962 
L 1230.673171 223.872 
L 1231.168071 210.047981 
L 1231.662971 224.256 
L 1233.147672 220.991962 
L 1233.642572 221.184 
L 1234.137472 216.191962 
L 1234.632373 218.687981 
L 1235.127273 196.8 
L 1236.611973 205.824019 
L 1237.106874 204.863962 
L 1237.601774 202.559981 
L 1238.591574 220.991962 
L 1240.076275 220.608038 
L 1240.571175 209.663962 
L 1241.066075 207.552019 
L 1241.560976 192.191962 
L 1242.055876 188.352019 
L 1243.540576 193.152019 
L 1244.035477 198.912019 
L 1244.530377 194.112019 
L 1245.520177 195.456 
L 1247.004878 192.191962 
L 1247.499778 189.312019 
L 1247.994678 193.152019 
L 1248.489579 205.440019 
L 1248.984479 199.296019 
L 1250.46918 191.616 
L 1250.96408 199.487981 
L 1251.45898 211.775981 
L 1251.95388 210.431981 
L 1252.44878 226.752019 
L 1253.933481 228.672 
L 1254.428381 207.936038 
L 1255.418182 190.463962 
L 1255.913082 218.880038 
L 1257.397783 222.528 
L 1257.892683 222.336038 
L 1258.387583 208.896019 
L 1258.882483 199.680038 
L 1260.862084 211.391962 
L 1261.356984 203.712019 
L 1261.851885 206.975981 
L 1262.346785 213.119962 
L 1264.326386 242.687981 
L 1264.821286 241.152019 
L 1265.316186 248.447981 
L 1265.811086 266.112019 
L 1266.305987 271.296019 
L 1267.790687 273.984 
L 1268.285588 269.952019 
L 1268.780488 284.159981 
L 1269.275388 281.087981 
L 1269.770288 302.975981 
L 1271.749889 288 
L 1272.244789 297.408038 
L 1272.73969 292.991962 
L 1273.23459 282.624019 
L 1274.71929 297.984 
L 1275.214191 296.831981 
L 1275.709091 286.463962 
L 1276.698891 279.359981 
L 1278.183592 272.640019 
L 1278.678492 291.072 
L 1279.173392 302.784 
L 1279.668293 279.936038 
L 1280.163193 265.152019 
L 1281.647894 283.775981 
L 1282.142794 292.416 
L 1282.637694 282.816 
L 1283.132594 320.256 
L 1283.627494 302.4 
L 1285.607095 277.824019 
L 1286.101996 262.656 
L 1286.596896 277.247981 
L 1287.091796 282.047981 
L 1288.576497 274.368019 
L 1289.071397 286.656 
L 1289.566297 312.384 
L 1290.061197 293.375981 
L 1290.556098 281.472 
L 1292.040798 292.608038 
L 1292.535698 289.152019 
L 1293.030599 267.072 
L 1294.020399 252.287981 
L 1295.5051 254.591962 
L 1296 268.991962 
L 1296 268.991962 
" style="fill:none;stroke:#ff0000;stroke-linecap:square;"/>
   </g>
   <g id="patch_3">
    <path d="M 180 648 
L 180 72 
" style="fill:none;stroke:#000000;stroke-linecap:square;stroke-linejoin:miter;"/>
   </g>
   <g id="patch_4">
    <path d="M 1296 648 
L 1296 72 
" style="fill:none;stroke:#000000;stroke-linecap:square;stroke-linejoin:miter;"/>
   </g>
   <g id="patch_5">
    <path d="M 180 72 
L 1296 72 
" style="fill:none;stroke:#000000;stroke-linecap:square;stroke-linejoin:miter;"/>
   </g>
   <g id="patch_6">
    <path d="M 180 648 
L 1296 648 
" style="fill:none;stroke:#000000;stroke-linecap:square;stroke-linejoin:miter;"/>
   </g>
   <g id="matplotlib.axis_1">
    <g id="xtick_1">
     <g id="line2d_3">
      <defs>
       <path d="M 0 0 
L 0 -4 
" id="ma1f9523845" style="stroke:#000000;stroke-width:0.5;"/>
      </defs>
      <g>
       <use style="stroke:#000000;stroke-width:0.5;" x="359.153880266" xlink:href="#ma1f9523845" y="648.0"/>
      </g>
     </g>
     <g id="line2d_4">
      <defs>
       <path d="M 0 0 
L 0 4 
" id="mf3e5f6a5a9" style="stroke:#000000;stroke-width:0.5;"/>
      </defs>
      <g>
       <use style="stroke:#000000;stroke-width:0.5;" x="359.153880266" xlink:href="#mf3e5f6a5a9" y="72.0"/>
      </g>
     </g>
     <g id="text_1">
      <!-- 2011 -->
      <defs>
       <path d="M 31.78125 66.40625 
Q 24.171875 66.40625 20.328125 58.90625 
Q 16.5 51.421875 16.5 36.375 
Q 16.5 21.390625 20.328125 13.890625 
Q 24.171875 6.390625 31.78125 6.390625 
Q 39.453125 6.390625 43.28125 13.890625 
Q 47.125 21.390625 47.125 36.375 
Q 47.125 51.421875 43.28125 58.90625 
Q 39.453125 66.40625 31.78125 66.40625 
M 31.78125 74.21875 
Q 44.046875 74.21875 50.515625 64.515625 
Q 56.984375 54.828125 56.984375 36.375 
Q 56.984375 17.96875 50.515625 8.265625 
Q 44.046875 -1.421875 31.78125 -1.421875 
Q 19.53125 -1.421875 13.0625 8.265625 
Q 6.59375 17.96875 6.59375 36.375 
Q 6.59375 54.828125 13.0625 64.515625 
Q 19.53125 74.21875 31.78125 74.21875 
" id="BitstreamVeraSans-Roman-30"/>
       <path d="M 12.40625 8.296875 
L 28.515625 8.296875 
L 28.515625 63.921875 
L 10.984375 60.40625 
L 10.984375 69.390625 
L 28.421875 72.90625 
L 38.28125 72.90625 
L 38.28125 8.296875 
L 54.390625 8.296875 
L 54.390625 0 
L 12.40625 0 
z
" id="BitstreamVeraSans-Roman-31"/>
       <path d="M 19.1875 8.296875 
L 53.609375 8.296875 
L 53.609375 0 
L 7.328125 0 
L 7.328125 8.296875 
Q 12.9375 14.109375 22.625 23.890625 
Q 32.328125 33.6875 34.8125 36.53125 
Q 39.546875 41.84375 41.421875 45.53125 
Q 43.3125 49.21875 43.3125 52.78125 
Q 43.3125 58.59375 39.234375 62.25 
Q 35.15625 65.921875 28.609375 65.921875 
Q 23.96875 65.921875 18.8125 64.3125 
Q 13.671875 62.703125 7.8125 59.421875 
L 7.8125 69.390625 
Q 13.765625 71.78125 18.9375 73 
Q 24.125 74.21875 28.421875 74.21875 
Q 39.75 74.21875 46.484375 68.546875 
Q 53.21875 62.890625 53.21875 53.421875 
Q 53.21875 48.921875 51.53125 44.890625 
Q 49.859375 40.875 45.40625 35.40625 
Q 44.1875 33.984375 37.640625 27.21875 
Q 31.109375 20.453125 19.1875 8.296875 
" id="BitstreamVeraSans-Roman-32"/>
      </defs>
      <g transform="translate(350.697767047 680.042529117)rotate(-45.0)scale(0.12 -0.12)">
       <use xlink:href="#BitstreamVeraSans-Roman-32"/>
       <use x="63.623046875" xlink:href="#BitstreamVeraSans-Roman-30"/>
       <use x="127.24609375" xlink:href="#BitstreamVeraSans-Roman-31"/>
       <use x="190.869140625" xlink:href="#BitstreamVeraSans-Roman-31"/>
      </g>
     </g>
    </g>
    <g id="xtick_2">
     <g id="line2d_5">
      <g>
       <use style="stroke:#000000;stroke-width:0.5;" x="539.792461197" xlink:href="#ma1f9523845" y="648.0"/>
      </g>
     </g>
     <g id="line2d_6">
      <g>
       <use style="stroke:#000000;stroke-width:0.5;" x="539.792461197" xlink:href="#mf3e5f6a5a9" y="72.0"/>
      </g>
     </g>
     <g id="text_2">
      <!-- 2012 -->
      <g transform="translate(531.336347978 680.042529117)rotate(-45.0)scale(0.12 -0.12)">
       <use xlink:href="#BitstreamVeraSans-Roman-32"/>
       <use x="63.623046875" xlink:href="#BitstreamVeraSans-Roman-30"/>
       <use x="127.24609375" xlink:href="#BitstreamVeraSans-Roman-31"/>
       <use x="190.869140625" xlink:href="#BitstreamVeraSans-Roman-32"/>
      </g>
     </g>
    </g>
    <g id="xtick_3">
     <g id="line2d_7">
      <g>
       <use style="stroke:#000000;stroke-width:0.5;" x="720.92594235" xlink:href="#ma1f9523845" y="648.0"/>
      </g>
     </g>
     <g id="line2d_8">
      <g>
       <use style="stroke:#000000;stroke-width:0.5;" x="720.92594235" xlink:href="#mf3e5f6a5a9" y="72.0"/>
      </g>
     </g>
     <g id="text_3">
      <!-- 2013 -->
      <defs>
       <path d="M 40.578125 39.3125 
Q 47.65625 37.796875 51.625 33 
Q 55.609375 28.21875 55.609375 21.1875 
Q 55.609375 10.40625 48.1875 4.484375 
Q 40.765625 -1.421875 27.09375 -1.421875 
Q 22.515625 -1.421875 17.65625 -0.515625 
Q 12.796875 0.390625 7.625 2.203125 
L 7.625 11.71875 
Q 11.71875 9.328125 16.59375 8.109375 
Q 21.484375 6.890625 26.8125 6.890625 
Q 36.078125 6.890625 40.9375 10.546875 
Q 45.796875 14.203125 45.796875 21.1875 
Q 45.796875 27.640625 41.28125 31.265625 
Q 36.765625 34.90625 28.71875 34.90625 
L 20.21875 34.90625 
L 20.21875 43.015625 
L 29.109375 43.015625 
Q 36.375 43.015625 40.234375 45.921875 
Q 44.09375 48.828125 44.09375 54.296875 
Q 44.09375 59.90625 40.109375 62.90625 
Q 36.140625 65.921875 28.71875 65.921875 
Q 24.65625 65.921875 20.015625 65.03125 
Q 15.375 64.15625 9.8125 62.3125 
L 9.8125 71.09375 
Q 15.4375 72.65625 20.34375 73.4375 
Q 25.25 74.21875 29.59375 74.21875 
Q 40.828125 74.21875 47.359375 69.109375 
Q 53.90625 64.015625 53.90625 55.328125 
Q 53.90625 49.265625 50.4375 45.09375 
Q 46.96875 40.921875 40.578125 39.3125 
" id="BitstreamVeraSans-Roman-33"/>
      </defs>
      <g transform="translate(712.469829131 680.042529117)rotate(-45.0)scale(0.12 -0.12)">
       <use xlink:href="#BitstreamVeraSans-Roman-32"/>
       <use x="63.623046875" xlink:href="#BitstreamVeraSans-Roman-30"/>
       <use x="127.24609375" xlink:href="#BitstreamVeraSans-Roman-31"/>
       <use x="190.869140625" xlink:href="#BitstreamVeraSans-Roman-33"/>
      </g>
     </g>
    </g>
    <g id="xtick_4">
     <g id="line2d_9">
      <g>
       <use style="stroke:#000000;stroke-width:0.5;" x="901.564523282" xlink:href="#ma1f9523845" y="648.0"/>
      </g>
     </g>
     <g id="line2d_10">
      <g>
       <use style="stroke:#000000;stroke-width:0.5;" x="901.564523282" xlink:href="#mf3e5f6a5a9" y="72.0"/>
      </g>
     </g>
     <g id="text_4">
      <!-- 2014 -->
      <defs>
       <path d="M 37.796875 64.3125 
L 12.890625 25.390625 
L 37.796875 25.390625 
z
M 35.203125 72.90625 
L 47.609375 72.90625 
L 47.609375 25.390625 
L 58.015625 25.390625 
L 58.015625 17.1875 
L 47.609375 17.1875 
L 47.609375 0 
L 37.796875 0 
L 37.796875 17.1875 
L 4.890625 17.1875 
L 4.890625 26.703125 
z
" id="BitstreamVeraSans-Roman-34"/>
      </defs>
      <g transform="translate(893.108410062 680.042529117)rotate(-45.0)scale(0.12 -0.12)">
       <use xlink:href="#BitstreamVeraSans-Roman-32"/>
       <use x="63.623046875" xlink:href="#BitstreamVeraSans-Roman-30"/>
       <use x="127.24609375" xlink:href="#BitstreamVeraSans-Roman-31"/>
       <use x="190.869140625" xlink:href="#BitstreamVeraSans-Roman-34"/>
      </g>
     </g>
    </g>
    <g id="xtick_5">
     <g id="line2d_11">
      <g>
       <use style="stroke:#000000;stroke-width:0.5;" x="1082.20310421" xlink:href="#ma1f9523845" y="648.0"/>
      </g>
     </g>
     <g id="line2d_12">
      <g>
       <use style="stroke:#000000;stroke-width:0.5;" x="1082.20310421" xlink:href="#mf3e5f6a5a9" y="72.0"/>
      </g>
     </g>
     <g id="text_5">
      <!-- 2015 -->
      <defs>
       <path d="M 10.796875 72.90625 
L 49.515625 72.90625 
L 49.515625 64.59375 
L 19.828125 64.59375 
L 19.828125 46.734375 
Q 21.96875 47.46875 24.109375 47.828125 
Q 26.265625 48.1875 28.421875 48.1875 
Q 40.625 48.1875 47.75 41.5 
Q 54.890625 34.8125 54.890625 23.390625 
Q 54.890625 11.625 47.5625 5.09375 
Q 40.234375 -1.421875 26.90625 -1.421875 
Q 22.3125 -1.421875 17.546875 -0.640625 
Q 12.796875 0.140625 7.71875 1.703125 
L 7.71875 11.625 
Q 12.109375 9.234375 16.796875 8.0625 
Q 21.484375 6.890625 26.703125 6.890625 
Q 35.15625 6.890625 40.078125 11.328125 
Q 45.015625 15.765625 45.015625 23.390625 
Q 45.015625 31 40.078125 35.4375 
Q 35.15625 39.890625 26.703125 39.890625 
Q 22.75 39.890625 18.8125 39.015625 
Q 14.890625 38.140625 10.796875 36.28125 
z
" id="BitstreamVeraSans-Roman-35"/>
      </defs>
      <g transform="translate(1073.74699099 680.042529117)rotate(-45.0)scale(0.12 -0.12)">
       <use xlink:href="#BitstreamVeraSans-Roman-32"/>
       <use x="63.623046875" xlink:href="#BitstreamVeraSans-Roman-30"/>
       <use x="127.24609375" xlink:href="#BitstreamVeraSans-Roman-31"/>
       <use x="190.869140625" xlink:href="#BitstreamVeraSans-Roman-35"/>
      </g>
     </g>
    </g>
    <g id="xtick_6">
     <g id="line2d_13">
      <g>
       <use style="stroke:#000000;stroke-width:0.5;" x="1262.84168514" xlink:href="#ma1f9523845" y="648.0"/>
      </g>
     </g>
     <g id="line2d_14">
      <g>
       <use style="stroke:#000000;stroke-width:0.5;" x="1262.84168514" xlink:href="#mf3e5f6a5a9" y="72.0"/>
      </g>
     </g>
     <g id="text_6">
      <!-- 2016 -->
      <defs>
       <path d="M 33.015625 40.375 
Q 26.375 40.375 22.484375 35.828125 
Q 18.609375 31.296875 18.609375 23.390625 
Q 18.609375 15.53125 22.484375 10.953125 
Q 26.375 6.390625 33.015625 6.390625 
Q 39.65625 6.390625 43.53125 10.953125 
Q 47.40625 15.53125 47.40625 23.390625 
Q 47.40625 31.296875 43.53125 35.828125 
Q 39.65625 40.375 33.015625 40.375 
M 52.59375 71.296875 
L 52.59375 62.3125 
Q 48.875 64.0625 45.09375 64.984375 
Q 41.3125 65.921875 37.59375 65.921875 
Q 27.828125 65.921875 22.671875 59.328125 
Q 17.53125 52.734375 16.796875 39.40625 
Q 19.671875 43.65625 24.015625 45.921875 
Q 28.375 48.1875 33.59375 48.1875 
Q 44.578125 48.1875 50.953125 41.515625 
Q 57.328125 34.859375 57.328125 23.390625 
Q 57.328125 12.15625 50.6875 5.359375 
Q 44.046875 -1.421875 33.015625 -1.421875 
Q 20.359375 -1.421875 13.671875 8.265625 
Q 6.984375 17.96875 6.984375 36.375 
Q 6.984375 53.65625 15.1875 63.9375 
Q 23.390625 74.21875 37.203125 74.21875 
Q 40.921875 74.21875 44.703125 73.484375 
Q 48.484375 72.75 52.59375 71.296875 
" id="BitstreamVeraSans-Roman-36"/>
      </defs>
      <g transform="translate(1254.38557192 680.042529117)rotate(-45.0)scale(0.12 -0.12)">
       <use xlink:href="#BitstreamVeraSans-Roman-32"/>
       <use x="63.623046875" xlink:href="#BitstreamVeraSans-Roman-30"/>
       <use x="127.24609375" xlink:href="#BitstreamVeraSans-Roman-31"/>
       <use x="190.869140625" xlink:href="#BitstreamVeraSans-Roman-36"/>
      </g>
     </g>
    </g>
   </g>
   <g id="matplotlib.axis_2">
    <g id="ytick_1">
     <g id="line2d_15">
      <defs>
       <path d="M 0 0 
L 4 0 
" id="mad26f656b4" style="stroke:#000000;stroke-width:0.5;"/>
      </defs>
      <g>
       <use style="stroke:#000000;stroke-width:0.5;" x="180.0" xlink:href="#mad26f656b4" y="648.0"/>
      </g>
     </g>
     <g id="line2d_16">
      <defs>
       <path d="M 0 0 
L -4 0 
" id="m62250d9b53" style="stroke:#000000;stroke-width:0.5;"/>
      </defs>
      <g>
       <use style="stroke:#000000;stroke-width:0.5;" x="1296.0" xlink:href="#m62250d9b53" y="648.0"/>
      </g>
     </g>
     <g id="text_7">
      <!-- 20 -->
      <g transform="translate(160.73 651.31125)scale(0.12 -0.12)">
       <use xlink:href="#BitstreamVeraSans-Roman-32"/>
       <use x="63.623046875" xlink:href="#BitstreamVeraSans-Roman-30"/>
      </g>
     </g>
    </g>
    <g id="ytick_2">
     <g id="line2d_17">
      <g>
       <use style="stroke:#000000;stroke-width:0.5;" x="180.0" xlink:href="#mad26f656b4" y="552.0"/>
      </g>
     </g>
     <g id="line2d_18">
      <g>
       <use style="stroke:#000000;stroke-width:0.5;" x="1296.0" xlink:href="#m62250d9b53" y="552.0"/>
      </g>
     </g>
     <g id="text_8">
      <!-- 25 -->
      <g transform="translate(160.73 555.31125)scale(0.12 -0.12)">
       <use xlink:href="#BitstreamVeraSans-Roman-32"/>
       <use x="63.623046875" xlink:href="#BitstreamVeraSans-Roman-35"/>
      </g>
     </g>
    </g>
    <g id="ytick_3">
     <g id="line2d_19">
      <g>
       <use style="stroke:#000000;stroke-width:0.5;" x="180.0" xlink:href="#mad26f656b4" y="456.0"/>
      </g>
     </g>
     <g id="line2d_20">
      <g>
       <use style="stroke:#000000;stroke-width:0.5;" x="1296.0" xlink:href="#m62250d9b53" y="456.0"/>
      </g>
     </g>
     <g id="text_9">
      <!-- 30 -->
      <g transform="translate(160.73 459.31125)scale(0.12 -0.12)">
       <use xlink:href="#BitstreamVeraSans-Roman-33"/>
       <use x="63.623046875" xlink:href="#BitstreamVeraSans-Roman-30"/>
      </g>
     </g>
    </g>
    <g id="ytick_4">
     <g id="line2d_21">
      <g>
       <use style="stroke:#000000;stroke-width:0.5;" x="180.0" xlink:href="#mad26f656b4" y="360.0"/>
      </g>
     </g>
     <g id="line2d_22">
      <g>
       <use style="stroke:#000000;stroke-width:0.5;" x="1296.0" xlink:href="#m62250d9b53" y="360.0"/>
      </g>
     </g>
     <g id="text_10">
      <!-- 35 -->
      <g transform="translate(160.73 363.31125)scale(0.12 -0.12)">
       <use xlink:href="#BitstreamVeraSans-Roman-33"/>
       <use x="63.623046875" xlink:href="#BitstreamVeraSans-Roman-35"/>
      </g>
     </g>
    </g>
    <g id="ytick_5">
     <g id="line2d_23">
      <g>
       <use style="stroke:#000000;stroke-width:0.5;" x="180.0" xlink:href="#mad26f656b4" y="264.0"/>
      </g>
     </g>
     <g id="line2d_24">
      <g>
       <use style="stroke:#000000;stroke-width:0.5;" x="1296.0" xlink:href="#m62250d9b53" y="264.0"/>
      </g>
     </g>
     <g id="text_11">
      <!-- 40 -->
      <g transform="translate(160.73 267.31125)scale(0.12 -0.12)">
       <use xlink:href="#BitstreamVeraSans-Roman-34"/>
       <use x="63.623046875" xlink:href="#BitstreamVeraSans-Roman-30"/>
      </g>
     </g>
    </g>
    <g id="ytick_6">
     <g id="line2d_25">
      <g>
       <use style="stroke:#000000;stroke-width:0.5;" x="180.0" xlink:href="#mad26f656b4" y="168.0"/>
      </g>
     </g>
     <g id="line2d_26">
      <g>
       <use style="stroke:#000000;stroke-width:0.5;" x="1296.0" xlink:href="#m62250d9b53" y="168.0"/>
      </g>
     </g>
     <g id="text_12">
      <!-- 45 -->
      <g transform="translate(160.73 171.31125)scale(0.12 -0.12)">
       <use xlink:href="#BitstreamVeraSans-Roman-34"/>
       <use x="63.623046875" xlink:href="#BitstreamVeraSans-Roman-35"/>
      </g>
     </g>
    </g>
    <g id="ytick_7">
     <g id="line2d_27">
      <g>
       <use style="stroke:#000000;stroke-width:0.5;" x="180.0" xlink:href="#mad26f656b4" y="72.0"/>
      </g>
     </g>
     <g id="line2d_28">
      <g>
       <use style="stroke:#000000;stroke-width:0.5;" x="1296.0" xlink:href="#m62250d9b53" y="72.0"/>
      </g>
     </g>
     <g id="text_13">
      <!-- 50 -->
      <g transform="translate(160.73 75.31125)scale(0.12 -0.12)">
       <use xlink:href="#BitstreamVeraSans-Roman-35"/>
       <use x="63.623046875" xlink:href="#BitstreamVeraSans-Roman-30"/>
      </g>
     </g>
    </g>
   </g>
   <g id="text_14">
    <!-- USB -->
    <defs>
     <path d="M 53.515625 70.515625 
L 53.515625 60.890625 
Q 47.90625 63.578125 42.921875 64.890625 
Q 37.9375 66.21875 33.296875 66.21875 
Q 25.25 66.21875 20.875 63.09375 
Q 16.5 59.96875 16.5 54.203125 
Q 16.5 49.359375 19.40625 46.890625 
Q 22.3125 44.4375 30.421875 42.921875 
L 36.375 41.703125 
Q 47.40625 39.59375 52.65625 34.296875 
Q 57.90625 29 57.90625 20.125 
Q 57.90625 9.515625 50.796875 4.046875 
Q 43.703125 -1.421875 29.984375 -1.421875 
Q 24.8125 -1.421875 18.96875 -0.25 
Q 13.140625 0.921875 6.890625 3.21875 
L 6.890625 13.375 
Q 12.890625 10.015625 18.65625 8.296875 
Q 24.421875 6.59375 29.984375 6.59375 
Q 38.421875 6.59375 43.015625 9.90625 
Q 47.609375 13.234375 47.609375 19.390625 
Q 47.609375 24.75 44.3125 27.78125 
Q 41.015625 30.8125 33.5 32.328125 
L 27.484375 33.5 
Q 16.453125 35.6875 11.515625 40.375 
Q 6.59375 45.0625 6.59375 53.421875 
Q 6.59375 63.09375 13.40625 68.65625 
Q 20.21875 74.21875 32.171875 74.21875 
Q 37.3125 74.21875 42.625 73.28125 
Q 47.953125 72.359375 53.515625 70.515625 
" id="BitstreamVeraSans-Roman-53"/>
     <path d="M 8.6875 72.90625 
L 18.609375 72.90625 
L 18.609375 28.609375 
Q 18.609375 16.890625 22.84375 11.734375 
Q 27.09375 6.59375 36.625 6.59375 
Q 46.09375 6.59375 50.34375 11.734375 
Q 54.59375 16.890625 54.59375 28.609375 
L 54.59375 72.90625 
L 64.5 72.90625 
L 64.5 27.390625 
Q 64.5 13.140625 57.4375 5.859375 
Q 50.390625 -1.421875 36.625 -1.421875 
Q 22.796875 -1.421875 15.734375 5.859375 
Q 8.6875 13.140625 8.6875 27.390625 
z
" id="BitstreamVeraSans-Roman-55"/>
     <path d="M 19.671875 34.8125 
L 19.671875 8.109375 
L 35.5 8.109375 
Q 43.453125 8.109375 47.28125 11.40625 
Q 51.125 14.703125 51.125 21.484375 
Q 51.125 28.328125 47.28125 31.5625 
Q 43.453125 34.8125 35.5 34.8125 
z
M 19.671875 64.796875 
L 19.671875 42.828125 
L 34.28125 42.828125 
Q 41.5 42.828125 45.03125 45.53125 
Q 48.578125 48.25 48.578125 53.8125 
Q 48.578125 59.328125 45.03125 62.0625 
Q 41.5 64.796875 34.28125 64.796875 
z
M 9.8125 72.90625 
L 35.015625 72.90625 
Q 46.296875 72.90625 52.390625 68.21875 
Q 58.5 63.53125 58.5 54.890625 
Q 58.5 48.1875 55.375 44.234375 
Q 52.25 40.28125 46.1875 39.3125 
Q 53.46875 37.75 57.5 32.78125 
Q 61.53125 27.828125 61.53125 20.40625 
Q 61.53125 10.640625 54.890625 5.3125 
Q 48.25 0 35.984375 0 
L 9.8125 0 
z
" id="BitstreamVeraSans-Roman-42"/>
    </defs>
    <g transform="translate(723.21975 67.0)scale(0.144 -0.144)">
     <use xlink:href="#BitstreamVeraSans-Roman-55"/>
     <use x="73.193359375" xlink:href="#BitstreamVeraSans-Roman-53"/>
     <use x="136.669921875" xlink:href="#BitstreamVeraSans-Roman-42"/>
    </g>
   </g>
   <g id="legend_1">
    <g id="patch_7">
     <path d="M 1203.8625 125.793 
L 1288.8 125.793 
L 1288.8 79.2 
L 1203.8625 79.2 
z
" style="fill:#ffffff;stroke:#000000;stroke-linejoin:miter;"/>
    </g>
    <g id="line2d_29">
     <path d="M 1213.9425 90.86175 
L 1234.1025 90.86175 
" style="fill:none;stroke:#0000ff;stroke-linecap:square;"/>
    </g>
    <g id="line2d_30"/>
    <g id="text_15">
     <!-- High -->
     <defs>
      <path d="M 45.40625 27.984375 
Q 45.40625 37.75 41.375 43.109375 
Q 37.359375 48.484375 30.078125 48.484375 
Q 22.859375 48.484375 18.828125 43.109375 
Q 14.796875 37.75 14.796875 27.984375 
Q 14.796875 18.265625 18.828125 12.890625 
Q 22.859375 7.515625 30.078125 7.515625 
Q 37.359375 7.515625 41.375 12.890625 
Q 45.40625 18.265625 45.40625 27.984375 
M 54.390625 6.78125 
Q 54.390625 -7.171875 48.1875 -13.984375 
Q 42 -20.796875 29.203125 -20.796875 
Q 24.46875 -20.796875 20.265625 -20.09375 
Q 16.0625 -19.390625 12.109375 -17.921875 
L 12.109375 -9.1875 
Q 16.0625 -11.328125 19.921875 -12.34375 
Q 23.78125 -13.375 27.78125 -13.375 
Q 36.625 -13.375 41.015625 -8.765625 
Q 45.40625 -4.15625 45.40625 5.171875 
L 45.40625 9.625 
Q 42.625 4.78125 38.28125 2.390625 
Q 33.9375 0 27.875 0 
Q 17.828125 0 11.671875 7.65625 
Q 5.515625 15.328125 5.515625 27.984375 
Q 5.515625 40.671875 11.671875 48.328125 
Q 17.828125 56 27.875 56 
Q 33.9375 56 38.28125 53.609375 
Q 42.625 51.21875 45.40625 46.390625 
L 45.40625 54.6875 
L 54.390625 54.6875 
z
" id="BitstreamVeraSans-Roman-67"/>
      <path d="M 54.890625 33.015625 
L 54.890625 0 
L 45.90625 0 
L 45.90625 32.71875 
Q 45.90625 40.484375 42.875 44.328125 
Q 39.84375 48.1875 33.796875 48.1875 
Q 26.515625 48.1875 22.3125 43.546875 
Q 18.109375 38.921875 18.109375 30.90625 
L 18.109375 0 
L 9.078125 0 
L 9.078125 75.984375 
L 18.109375 75.984375 
L 18.109375 46.1875 
Q 21.34375 51.125 25.703125 53.5625 
Q 30.078125 56 35.796875 56 
Q 45.21875 56 50.046875 50.171875 
Q 54.890625 44.34375 54.890625 33.015625 
" id="BitstreamVeraSans-Roman-68"/>
      <path d="M 9.8125 72.90625 
L 19.671875 72.90625 
L 19.671875 43.015625 
L 55.515625 43.015625 
L 55.515625 72.90625 
L 65.375 72.90625 
L 65.375 0 
L 55.515625 0 
L 55.515625 34.71875 
L 19.671875 34.71875 
L 19.671875 0 
L 9.8125 0 
z
" id="BitstreamVeraSans-Roman-48"/>
      <path d="M 9.421875 54.6875 
L 18.40625 54.6875 
L 18.40625 0 
L 9.421875 0 
z
M 9.421875 75.984375 
L 18.40625 75.984375 
L 18.40625 64.59375 
L 9.421875 64.59375 
z
" id="BitstreamVeraSans-Roman-69"/>
     </defs>
     <g transform="translate(1249.9425 95.90175)scale(0.144 -0.144)">
      <use xlink:href="#BitstreamVeraSans-Roman-48"/>
      <use x="75.1953125" xlink:href="#BitstreamVeraSans-Roman-69"/>
      <use x="102.978515625" xlink:href="#BitstreamVeraSans-Roman-67"/>
      <use x="166.455078125" xlink:href="#BitstreamVeraSans-Roman-68"/>
     </g>
    </g>
    <g id="line2d_31">
     <path d="M 1213.9425 111.99825 
L 1234.1025 111.99825 
" style="fill:none;stroke:#ff0000;stroke-linecap:square;"/>
    </g>
    <g id="line2d_32"/>
    <g id="text_16">
     <!-- Low -->
     <defs>
      <path d="M 4.203125 54.6875 
L 13.1875 54.6875 
L 24.421875 12.015625 
L 35.59375 54.6875 
L 46.1875 54.6875 
L 57.421875 12.015625 
L 68.609375 54.6875 
L 77.59375 54.6875 
L 63.28125 0 
L 52.6875 0 
L 40.921875 44.828125 
L 29.109375 0 
L 18.5 0 
z
" id="BitstreamVeraSans-Roman-77"/>
      <path d="M 30.609375 48.390625 
Q 23.390625 48.390625 19.1875 42.75 
Q 14.984375 37.109375 14.984375 27.296875 
Q 14.984375 17.484375 19.15625 11.84375 
Q 23.34375 6.203125 30.609375 6.203125 
Q 37.796875 6.203125 41.984375 11.859375 
Q 46.1875 17.53125 46.1875 27.296875 
Q 46.1875 37.015625 41.984375 42.703125 
Q 37.796875 48.390625 30.609375 48.390625 
M 30.609375 56 
Q 42.328125 56 49.015625 48.375 
Q 55.71875 40.765625 55.71875 27.296875 
Q 55.71875 13.875 49.015625 6.21875 
Q 42.328125 -1.421875 30.609375 -1.421875 
Q 18.84375 -1.421875 12.171875 6.21875 
Q 5.515625 13.875 5.515625 27.296875 
Q 5.515625 40.765625 12.171875 48.375 
Q 18.84375 56 30.609375 56 
" id="BitstreamVeraSans-Roman-6f"/>
      <path d="M 9.8125 72.90625 
L 19.671875 72.90625 
L 19.671875 8.296875 
L 55.171875 8.296875 
L 55.171875 0 
L 9.8125 0 
z
" id="BitstreamVeraSans-Roman-4c"/>
     </defs>
     <g transform="translate(1249.9425 117.03825)scale(0.144 -0.144)">
      <use xlink:href="#BitstreamVeraSans-Roman-4c"/>
      <use x="55.697265625" xlink:href="#BitstreamVeraSans-Roman-6f"/>
      <use x="116.87890625" xlink:href="#BitstreamVeraSans-Roman-77"/>
     </g>
    </g>
   </g>
  </g>
 </g>
 <defs>
  <clipPath id="p43b8dde806">
   <rect height="576.0" width="1116.0" x="180.0" y="72.0"/>
  </clipPath>
 </defs>
</svg>
