<?xml version="1.0" encoding="utf-8" standalone="no"?>
<!DOCTYPE svg PUBLIC "-//W3C//DTD SVG 1.1//EN"
  "http://www.w3.org/Graphics/SVG/1.1/DTD/svg11.dtd">
<!-- Created with matplotlib (http://matplotlib.org/) -->
<svg height="720pt" version="1.1" viewBox="0 0 1440 720" width="1440pt" xmlns="http://www.w3.org/2000/svg" xmlns:xlink="http://www.w3.org/1999/xlink">
 <defs>
  <style type="text/css">
*{stroke-linecap:butt;stroke-linejoin:round;stroke-miterlimit:100000;}
  </style>
 </defs>
 <g id="figure_1">
  <g id="patch_1">
   <path d="M 0 720 
L 1440 720 
L 1440 0 
L 0 0 
z
" style="fill:#ffffff;"/>
  </g>
  <g id="axes_1">
   <g id="patch_2">
    <path d="M 180 648 
L 1296 648 
L 1296 72 
L 180 72 
z
" style="fill:#ffffff;"/>
   </g>
   <g id="line2d_1">
    <path clip-path="url(#p001192b49f)" d="M 180 598.656 
L 180.4949 595.008 
L 180.9898 582.144 
L 181.484701 578.112019 
L 181.979601 571.776019 
L 183.464302 561.6 
L 183.959202 567.744 
L 184.454102 565.631981 
L 184.949002 559.68 
L 185.443902 547.776019 
L 187.423503 561.792 
L 187.918404 555.840019 
L 188.413304 547.776019 
L 188.908204 550.848019 
L 190.392905 551.808 
L 190.887805 563.712019 
L 191.382705 567.936 
L 191.877605 547.584 
L 192.372506 548.159981 
L 193.857206 549.12 
L 194.352106 548.928 
L 195.341907 565.631981 
L 195.836807 574.464 
L 197.321508 572.736 
L 197.816408 578.304019 
L 198.311308 581.376019 
L 198.806208 577.536 
L 199.301109 585.6 
L 201.28071 580.416 
L 201.77561 574.272 
L 202.27051 578.304019 
L 202.76541 574.464 
L 204.250111 561.6 
L 204.745011 562.944 
L 205.239911 562.944 
L 205.734812 568.32 
L 206.229712 567.168019 
L 207.714412 559.295981 
L 208.209313 554.88 
L 208.704213 557.951981 
L 209.199113 558.336 
L 209.694013 554.687981 
L 211.178714 549.12 
L 211.673614 555.840019 
L 212.168514 555.840019 
L 212.663415 554.495981 
L 213.158315 538.751981 
L 214.643016 540.672 
L 215.137916 533.568019 
L 216.127716 531.072 
L 216.622616 530.112019 
L 218.107317 534.912019 
L 218.602217 528.384 
L 219.097118 530.88 
L 219.592018 526.272 
L 220.086918 528 
L 221.571619 532.223981 
L 222.066519 533.184 
L 222.561419 538.368019 
L 223.056319 532.031981 
L 225.53082 525.504019 
L 226.025721 510.912019 
L 226.520621 522.048019 
L 227.015521 510.72 
L 228.500222 509.568019 
L 228.995122 505.344 
L 229.490022 499.968019 
L 229.984922 489.792 
L 230.479823 490.944 
L 231.964523 511.487981 
L 232.954324 502.272 
L 233.449224 501.312019 
L 233.944124 506.304019 
L 235.428825 509.184 
L 235.923725 520.128 
L 236.418625 521.664 
L 236.913525 516.095981 
L 237.408426 506.112019 
L 238.893126 514.368019 
L 239.388027 516.095981 
L 239.882927 529.536 
L 240.377827 527.808 
L 240.872727 544.32 
L 242.357428 525.12 
L 242.852328 531.072 
L 243.347228 516.287981 
L 243.842129 518.4 
L 244.337029 530.304019 
L 245.821729 541.440019 
L 246.31663 540.864 
L 246.81153 566.976019 
L 247.30643 577.344 
L 247.80133 605.184 
L 249.286031 568.32 
L 249.780931 593.087981 
L 250.275831 567.168019 
L 250.770732 574.272 
L 251.265632 562.751981 
L 253.245233 576.384 
L 253.740133 580.608 
L 254.235033 570.816 
L 254.729933 590.016 
L 256.214634 590.4 
L 256.709534 602.88 
L 257.204435 591.551981 
L 257.699335 591.551981 
L 258.194235 583.68 
L 259.678936 582.336 
L 260.173836 590.4 
L 260.668736 590.016 
L 261.163636 588.095981 
L 261.658537 587.328 
L 263.143237 575.231981 
L 263.638137 576 
L 264.133038 580.031981 
L 264.627938 591.744 
L 265.122838 588.864 
L 266.607539 584.640019 
L 267.597339 596.159981 
L 268.092239 604.608 
L 268.58714 601.151981 
L 270.566741 603.648019 
L 271.061641 608.256 
L 271.556541 587.904019 
L 272.051441 585.984 
L 274.031042 570.623981 
L 274.525942 564.864 
L 275.020843 566.4 
L 275.515743 567.359981 
L 277.495344 597.887981 
L 277.990244 576.384 
L 278.485144 582.72 
L 278.980044 579.264 
L 280.464745 576.192 
L 280.959645 564.672 
L 281.454545 567.168019 
L 281.949446 568.704019 
L 282.444346 575.040019 
L 284.423947 564.672 
L 284.918847 564.48 
L 285.413747 576 
L 285.908647 583.104019 
L 287.888248 583.295981 
L 288.383149 589.631981 
L 288.878049 606.336 
L 289.372949 601.344 
L 290.85765 607.68 
L 291.35255 603.840019 
L 291.84745 604.416 
L 292.34235 603.840019 
L 292.837251 616.704019 
L 294.321951 612.48 
L 294.816851 622.272 
L 295.311752 624.576019 
L 295.806652 623.423981 
L 296.301552 627.072 
L 297.786253 618.623981 
L 298.281153 637.248019 
L 298.776053 626.88 
L 299.270953 611.136 
L 299.765854 604.223981 
L 301.745455 601.536 
L 302.240355 604.608 
L 302.735255 596.544 
L 303.230155 597.504019 
L 305.209756 585.6 
L 305.704656 592.512019 
L 306.199557 597.695981 
L 306.694457 594.816 
L 308.179157 593.28 
L 308.674058 584.831981 
L 309.663858 605.568019 
L 310.158758 608.831981 
L 311.643459 600.959981 
L 312.138359 612.095981 
L 312.633259 615.551981 
L 313.12816 612.287981 
L 313.62306 614.016 
L 315.107761 616.704019 
L 315.602661 611.52 
L 316.097561 603.264 
L 316.592461 599.616 
L 317.087361 602.495981 
L 318.572062 602.88 
L 319.066962 606.528 
L 319.561863 589.631981 
L 320.056763 594.816 
L 320.551663 595.968019 
L 322.036364 599.808 
L 322.531264 591.551981 
L 323.026164 591.168019 
L 323.521064 590.976019 
L 324.015965 579.456 
L 325.500665 575.423981 
L 325.995565 587.328 
L 326.490466 570.623981 
L 326.985366 562.176019 
L 327.480266 569.856 
L 328.964967 567.359981 
L 329.459867 568.128 
L 329.954767 573.312019 
L 330.449667 567.168019 
L 330.944568 547.392 
L 332.429268 532.416 
L 333.419069 546.240019 
L 333.913969 546.816 
L 334.408869 551.231981 
L 335.89357 556.8 
L 336.88337 557.568019 
L 337.378271 553.151981 
L 337.873171 553.344 
L 339.357871 558.528 
L 339.852772 563.904019 
L 340.347672 567.168019 
L 341.337472 571.2 
L 342.822173 576.384 
L 343.317073 571.392 
L 344.306874 566.784 
L 344.801774 558.72 
L 346.286475 559.872 
L 346.781375 554.304019 
L 347.276275 562.559981 
L 347.771175 544.704019 
L 348.266075 535.295981 
L 349.750776 523.968019 
L 350.245676 528.768019 
L 350.740576 534.72 
L 351.235477 536.640019 
L 351.730377 531.648019 
L 353.215078 529.536 
L 353.709978 527.040019 
L 354.699778 514.368019 
L 356.679379 516.287981 
L 357.174279 511.295981 
L 357.66918 512.448019 
L 358.16408 513.023981 
L 358.65898 514.176019 
L 360.143681 509.759981 
L 361.133481 521.28 
L 361.628381 515.904019 
L 362.123282 527.423981 
L 363.607982 533.376019 
L 364.102882 524.159981 
L 364.597783 527.423981 
L 365.092683 515.52 
L 365.587583 519.551981 
L 367.567184 503.616 
L 368.062084 509.568019 
L 368.556984 527.808 
L 369.051885 511.487981 
L 370.536585 524.736 
L 371.031486 518.4 
L 371.526386 517.440019 
L 372.021286 521.472 
L 372.516186 514.368019 
L 374.000887 517.248019 
L 374.990687 507.072 
L 375.485588 507.264 
L 375.980488 506.112019 
L 377.465188 504.576019 
L 377.960089 494.208 
L 378.454989 492.672 
L 378.949889 495.936 
L 379.444789 503.040019 
L 380.92949 486.72 
L 381.91929 480.192 
L 382.414191 482.495981 
L 382.909091 487.295981 
L 384.888692 496.128 
L 385.878492 505.536 
L 386.373392 500.736 
L 387.858093 501.887981 
L 388.352993 498.431981 
L 388.847894 509.951981 
L 389.342794 512.064 
L 389.837694 505.151981 
L 391.817295 511.68 
L 392.312195 501.504019 
L 392.807095 504.959981 
L 393.301996 511.68 
L 394.786696 514.368019 
L 395.281596 530.304019 
L 395.776497 519.744 
L 396.271397 522.816 
L 396.766297 518.4 
L 398.250998 512.448019 
L 398.745898 520.704019 
L 399.240798 525.312019 
L 399.735698 519.168019 
L 400.230599 518.4 
L 401.715299 513.792 
L 402.2102 518.784 
L 402.7051 517.631981 
L 403.2 522.623981 
L 403.6949 518.784 
L 405.179601 518.4 
L 405.674501 523.2 
L 406.169401 520.32 
L 406.664302 514.176019 
L 407.159202 522.431981 
L 409.138803 533.951981 
L 409.633703 522.048019 
L 410.128603 535.487981 
L 410.623503 533.568019 
L 412.108204 538.944 
L 412.603104 536.256 
L 413.098004 541.631981 
L 413.592905 552.384 
L 415.572506 548.928 
L 416.067406 549.12 
L 416.562306 539.52 
L 417.057206 543.359981 
L 417.552106 542.976019 
L 419.036807 534.528 
L 419.531707 538.176019 
L 420.026608 536.831981 
L 420.521508 543.168019 
L 421.016408 543.168019 
L 422.501109 547.392 
L 422.996009 547.2 
L 423.490909 541.631981 
L 423.985809 548.544 
L 424.48071 545.856 
L 425.96541 555.264 
L 426.46031 552.192 
L 426.955211 541.248019 
L 427.450111 535.872 
L 427.945011 537.023981 
L 429.429712 553.151981 
L 429.924612 552.959981 
L 430.419512 554.88 
L 430.914412 554.495981 
L 431.409313 550.656 
L 433.388914 538.559981 
L 433.883814 542.784 
L 434.378714 556.416 
L 434.873614 564.672 
L 436.358315 562.751981 
L 436.853215 567.744 
L 437.348115 575.808 
L 437.843016 569.472 
L 438.337916 566.4 
L 439.822616 562.559981 
L 440.317517 560.064 
L 441.307317 570.816 
L 441.802217 561.408 
L 443.286918 563.712019 
L 443.781818 557.951981 
L 444.276718 559.872 
L 444.771619 568.895981 
L 445.266519 565.823981 
L 446.75122 571.2 
L 447.24612 558.72 
L 448.23592 543.168019 
L 448.73082 543.168019 
L 450.710421 532.608 
L 451.205322 540.672 
L 451.700222 541.823981 
L 452.195122 547.392 
L 453.679823 551.616 
L 454.174723 556.8 
L 454.669623 550.848019 
L 455.164523 548.928 
L 455.659424 555.456 
L 457.144124 560.064 
L 457.639024 561.023981 
L 458.133925 535.487981 
L 458.628825 525.887981 
L 459.123725 513.6 
L 460.608426 521.472 
L 461.103326 518.208 
L 461.598226 521.472 
L 462.588027 535.68 
L 464.072727 526.272 
L 465.062528 547.968019 
L 466.052328 562.176019 
L 467.537029 590.016 
L 468.031929 608.640019 
L 468.526829 593.472 
L 469.021729 615.936 
L 469.51663 588.48 
L 471.00133 606.528 
L 471.496231 601.92 
L 471.991131 603.456 
L 472.980931 632.256 
L 474.465632 625.92 
L 474.960532 638.4 
L 475.455432 619.2 
L 475.950333 590.784 
L 476.445233 610.176019 
L 478.424834 590.592 
L 478.919734 588.672 
L 479.414634 589.056 
L 479.909534 607.295981 
L 481.889135 631.295981 
L 482.878936 600.768019 
L 483.373836 601.151981 
L 484.858537 616.512019 
L 485.848337 587.712019 
L 486.343237 580.031981 
L 486.838137 565.631981 
L 488.322838 579.264 
L 488.817738 572.351981 
L 489.312639 569.087981 
L 489.807539 606.144 
L 490.302439 595.392 
L 491.78714 580.608 
L 492.28204 556.608 
L 492.77694 570.048019 
L 493.27184 573.12 
L 493.766741 574.272 
L 495.251441 583.295981 
L 495.746341 604.608 
L 496.241242 586.944 
L 496.736142 584.256 
L 497.231042 569.28 
L 498.715743 573.695981 
L 499.210643 568.704019 
L 499.705543 568.128 
L 500.695344 558.912019 
L 502.180044 569.664 
L 502.674945 575.040019 
L 503.169845 559.68 
L 503.664745 566.592 
L 504.159645 548.351981 
L 505.644346 542.592 
L 506.139246 547.008 
L 506.634146 546.816 
L 507.129047 529.728 
L 507.623947 533.184 
L 509.108647 540.48 
L 509.603548 562.368019 
L 510.098448 548.159981 
L 510.593348 538.559981 
L 511.088248 547.008 
L 512.572949 540.48 
L 513.067849 532.416 
L 513.562749 540.672 
L 514.05765 542.016 
L 514.55255 533.184 
L 516.037251 538.176019 
L 516.532151 545.664 
L 517.027051 544.895981 
L 517.521951 545.664 
L 518.016851 547.008 
L 519.501552 552.192 
L 520.491353 564.864 
L 521.481153 576 
L 522.965854 555.456 
L 523.460754 557.184 
L 523.955654 543.551981 
L 524.450554 539.328 
L 524.945455 533.759981 
L 526.430155 532.223981 
L 526.925055 533.951981 
L 527.419956 533.759981 
L 527.914856 526.272 
L 528.409756 534.72 
L 529.894457 532.992 
L 530.389357 530.495981 
L 530.884257 541.823981 
L 531.379157 530.112019 
L 531.874058 531.456 
L 533.358758 531.072 
L 533.853659 534.528 
L 534.348559 522.623981 
L 534.843459 515.136 
L 535.338359 504 
L 537.31796 504.192 
L 537.81286 508.223981 
L 538.307761 514.176019 
L 538.802661 507.072 
L 540.782262 501.887981 
L 541.277162 504 
L 541.772062 505.151981 
L 542.266962 493.248019 
L 543.751663 500.351981 
L 544.246563 484.416 
L 544.741463 493.823981 
L 545.236364 485.376019 
L 545.731264 486.912019 
L 547.710865 474.816 
L 548.205765 472.704019 
L 548.700665 472.704019 
L 549.195565 483.456 
L 550.680266 481.728 
L 551.175166 488.640019 
L 551.670067 490.368019 
L 552.164967 480.768019 
L 552.659867 497.664 
L 554.144568 505.151981 
L 554.639468 491.712019 
L 556.124169 475.2 
L 557.608869 473.856 
L 558.103769 475.968019 
L 558.59867 466.944 
L 559.09357 463.295981 
L 559.58847 473.472 
L 561.073171 471.551981 
L 561.568071 471.744 
L 562.062971 472.895981 
L 562.557871 481.92 
L 563.052772 473.664 
L 565.032373 470.592 
L 566.022173 478.848019 
L 566.517073 474.816 
L 568.001774 483.456 
L 568.496674 468.864 
L 568.991574 470.4 
L 569.486475 466.944 
L 569.981375 460.031981 
L 571.466075 473.087981 
L 571.960976 482.495981 
L 572.455876 487.68 
L 573.445676 470.208 
L 575.425277 459.840019 
L 575.920177 436.031981 
L 576.415078 426.623981 
L 576.909978 421.823981 
L 578.394678 424.128 
L 578.889579 426.240019 
L 579.384479 421.823981 
L 579.879379 428.544 
L 580.374279 430.656 
L 581.85898 417.6 
L 582.35388 419.136 
L 582.84878 426.240019 
L 583.343681 427.776019 
L 583.838581 427.776019 
L 585.323282 426.240019 
L 585.818182 427.968019 
L 586.313082 428.928 
L 586.807982 432.576019 
L 588.787583 438.144 
L 589.282483 438.528 
L 589.777384 441.216 
L 590.272284 438.336 
L 590.767184 432 
L 592.251885 432.576019 
L 592.746785 430.08 
L 593.241685 432.959981 
L 593.736585 428.736 
L 594.231486 430.272 
L 595.716186 433.728 
L 596.211086 431.231981 
L 596.705987 421.631981 
L 597.200887 423.744 
L 597.695787 416.831981 
L 599.180488 409.919962 
L 599.675388 416.447981 
L 600.665188 412.8 
L 601.160089 420.864 
L 602.644789 428.159981 
L 603.13969 426.048019 
L 603.63459 432.384 
L 604.12949 420.48 
L 604.62439 425.28 
L 606.109091 418.944 
L 606.603991 427.008 
L 607.098891 427.584 
L 608.088692 442.751981 
L 609.573392 447.744 
L 610.068293 438.912019 
L 610.563193 438.72 
L 611.058093 431.616 
L 611.552993 435.072 
L 613.532594 434.495981 
L 614.027494 439.104019 
L 614.522395 441.408 
L 615.017295 446.016 
L 616.501996 464.256 
L 616.996896 483.264 
L 617.491796 466.559981 
L 617.986696 456.576019 
L 618.481596 465.984 
L 619.966297 447.168019 
L 620.461197 458.88 
L 620.956098 446.4 
L 621.450998 442.944 
L 621.945898 428.351981 
L 623.430599 431.040019 
L 623.925499 424.128 
L 624.420399 426.048019 
L 624.915299 418.944 
L 625.4102 427.2 
L 626.8949 429.312019 
L 627.3898 432.384 
L 627.884701 430.464 
L 628.379601 430.848019 
L 628.874501 417.216 
L 630.359202 408.575981 
L 630.854102 412.991962 
L 631.843902 409.344 
L 632.338803 418.944 
L 633.823503 419.136 
L 634.318404 412.991962 
L 634.813304 420.672 
L 635.803104 415.680038 
L 637.782705 400.896019 
L 638.277605 405.696019 
L 638.772506 391.296019 
L 639.267406 386.496019 
L 640.752106 397.631981 
L 641.247007 388.608038 
L 641.741907 386.880038 
L 642.236807 383.231981 
L 642.731707 380.544 
L 644.216408 382.656 
L 644.711308 386.880038 
L 645.206208 386.303981 
L 645.701109 398.208038 
L 646.196009 389.952019 
L 647.68071 389.375981 
L 648.17561 395.712019 
L 648.67051 399.359981 
L 649.16541 399.552019 
L 649.66031 398.016 
L 651.145011 398.208038 
L 651.639911 393.6 
L 652.134812 398.4 
L 652.629712 394.175981 
L 653.124612 392.256 
L 654.609313 397.631981 
L 655.104213 393.408038 
L 655.599113 396.287981 
L 656.588914 405.696019 
L 658.073614 397.247981 
L 658.568514 396.863962 
L 659.063415 391.487981 
L 659.558315 393.408038 
L 660.053215 391.296019 
L 662.032816 392.063962 
L 662.527716 394.944 
L 663.022616 393.6 
L 663.517517 379.2 
L 665.002217 378.624019 
L 665.497118 382.656 
L 665.992018 377.087981 
L 666.486918 379.775981 
L 666.981818 361.728 
L 668.466519 361.536038 
L 668.961419 377.280038 
L 669.456319 374.784 
L 669.95122 377.663962 
L 670.44612 373.247981 
L 671.93082 383.231981 
L 672.425721 374.016 
L 672.920621 380.159981 
L 673.415521 377.856 
L 675.395122 370.559981 
L 675.890022 374.591962 
L 676.384922 375.359981 
L 676.879823 369.984 
L 677.374723 353.472 
L 678.859424 363.072 
L 679.354324 362.687981 
L 679.849224 372.672 
L 680.344124 361.728 
L 680.839024 377.856 
L 682.323725 380.736038 
L 682.818625 381.119962 
L 683.313525 382.272 
L 683.808426 366.528 
L 684.303326 371.328 
L 685.788027 377.280038 
L 686.282927 385.919962 
L 686.777827 390.528 
L 687.272727 391.103981 
L 687.767627 390.336038 
L 690.242129 393.024019 
L 690.737029 393.024019 
L 691.231929 379.775981 
L 692.71663 393.024019 
L 693.21153 394.368019 
L 693.70643 392.831981 
L 694.20133 408.959981 
L 694.696231 415.103981 
L 696.180931 414.336038 
L 696.675831 420.672 
L 697.170732 422.016 
L 697.665632 432.768019 
L 698.160532 431.616 
L 699.645233 421.631981 
L 700.140133 417.216 
L 700.635033 410.880038 
L 701.624834 412.991962 
L 703.109534 412.224019 
L 703.604435 411.647981 
L 704.099335 418.559981 
L 704.594235 407.424019 
L 705.089135 410.880038 
L 706.573836 410.880038 
L 707.068736 415.487981 
L 707.563636 425.472 
L 708.553437 420.287981 
L 710.038137 418.559981 
L 710.533038 418.176019 
L 711.027938 416.063962 
L 711.522838 419.904019 
L 712.017738 426.431981 
L 713.502439 427.776019 
L 713.997339 413.568019 
L 714.492239 410.112019 
L 715.48204 414.719962 
L 716.966741 408.575981 
L 717.956541 410.303981 
L 718.946341 422.784 
L 720.431042 426.816 
L 721.915743 400.703981 
L 722.410643 401.280038 
L 723.895344 396.480038 
L 724.390244 402.240019 
L 724.885144 397.056 
L 725.380044 387.647981 
L 725.874945 387.263962 
L 727.359645 388.224019 
L 727.854545 390.912019 
L 728.349446 403.391962 
L 728.844346 391.487981 
L 729.339246 400.512019 
L 731.318847 401.663962 
L 731.813747 399.936038 
L 732.803548 393.6 
L 734.288248 393.6 
L 734.783149 395.519962 
L 735.278049 399.359981 
L 735.772949 398.591962 
L 736.267849 391.296019 
L 738.24745 396.287981 
L 738.74235 398.784 
L 739.237251 386.880038 
L 739.732151 387.456 
L 741.216851 382.463962 
L 742.206652 372.480038 
L 742.701552 384.191962 
L 743.196452 377.663962 
L 745.176053 382.656 
L 745.670953 379.391962 
L 746.165854 382.656 
L 748.145455 379.775981 
L 748.640355 388.224019 
L 749.135255 383.808038 
L 749.630155 378.047981 
L 750.125055 384 
L 751.609756 379.391962 
L 752.104656 370.752019 
L 752.599557 381.503981 
L 753.094457 383.424019 
L 753.589357 374.4 
L 755.074058 374.4 
L 755.568958 372.096019 
L 756.063858 373.247981 
L 756.558758 373.247981 
L 757.053659 382.463962 
L 758.538359 381.696019 
L 759.033259 375.744 
L 759.52816 376.896019 
L 760.02306 383.424019 
L 760.51796 387.072 
L 762.002661 383.616 
L 762.497561 385.536038 
L 762.992461 389.184 
L 763.487361 384.768019 
L 765.466962 380.544 
L 765.961863 378.624019 
L 766.456763 378.047981 
L 766.951663 384 
L 767.446563 388.224019 
L 768.931264 391.487981 
L 769.426164 384.384 
L 769.921064 384.575981 
L 770.415965 374.975981 
L 770.910865 380.352019 
L 772.395565 379.584 
L 773.385366 410.112019 
L 773.880266 409.152019 
L 774.375166 409.728 
L 775.859867 407.424019 
L 776.354767 405.503981 
L 776.849667 400.703981 
L 777.344568 393.408038 
L 777.839468 392.256 
L 779.324169 394.752019 
L 779.819069 393.216 
L 780.313969 394.175981 
L 780.808869 399.744 
L 781.303769 401.856 
L 782.78847 402.431981 
L 783.28337 397.440019 
L 783.778271 397.440019 
L 784.273171 391.680038 
L 784.768071 391.296019 
L 786.252772 391.103981 
L 786.747672 388.224019 
L 787.242572 381.887981 
L 787.737472 372.672 
L 788.232373 372.480038 
L 789.717073 367.680038 
L 790.211973 357.119962 
L 790.706874 361.728 
L 791.201774 359.616 
L 791.696674 359.231981 
L 793.676275 343.872 
L 794.171175 354.240019 
L 794.666075 351.936038 
L 795.160976 351.744 
L 796.645676 358.463962 
L 797.140576 354.047981 
L 797.635477 357.119962 
L 798.130377 363.072 
L 798.625277 349.440019 
L 800.109978 340.991962 
L 800.604878 352.896019 
L 801.099778 351.359981 
L 801.594678 353.280038 
L 802.089579 351.936038 
L 803.574279 355.584 
L 804.06918 355.775981 
L 804.56408 352.319962 
L 805.05898 360.768019 
L 805.55388 352.703981 
L 807.038581 355.968019 
L 807.533481 347.136038 
L 808.028381 340.608038 
L 808.523282 338.880038 
L 809.018182 338.112019 
L 810.502882 333.887981 
L 810.997783 335.424019 
L 811.492683 337.919962 
L 812.482483 330.816 
L 813.967184 323.903981 
L 814.462084 317.375981 
L 814.956984 317.568019 
L 815.451885 316.608038 
L 815.946785 316.608038 
L 817.431486 307.775981 
L 817.926386 312 
L 818.421286 324.672 
L 818.916186 323.903981 
L 819.411086 320.640019 
L 820.895787 317.184 
L 821.390687 314.880038 
L 821.885588 309.696019 
L 822.380488 315.840019 
L 822.875388 315.840019 
L 824.360089 311.616 
L 824.854989 307.775981 
L 825.349889 306.240019 
L 825.844789 308.928 
L 826.33969 310.463962 
L 828.31929 307.775981 
L 828.814191 313.152019 
L 829.309091 314.112019 
L 831.288692 320.447981 
L 831.783592 318.528 
L 832.278492 318.719962 
L 833.268293 327.552019 
L 834.752993 324.096019 
L 835.247894 328.703981 
L 836.237694 324.672 
L 836.732594 310.463962 
L 838.217295 313.536038 
L 838.712195 329.280038 
L 839.207095 338.687981 
L 839.701996 340.8 
L 840.196896 337.536038 
L 842.176497 331.968019 
L 842.671397 340.8 
L 843.166297 337.919962 
L 843.661197 325.824019 
L 845.145898 331.584 
L 845.640798 331.008038 
L 846.135698 326.016 
L 846.630599 326.208038 
L 847.125499 322.944 
L 848.6102 310.080038 
L 849.1051 309.696019 
L 849.6 310.656 
L 850.0949 301.631981 
L 850.5898 307.2 
L 852.074501 307.2 
L 852.569401 313.919962 
L 853.064302 324.096019 
L 853.559202 328.128 
L 854.054102 334.272 
L 855.538803 336.191962 
L 856.033703 327.552019 
L 857.023503 334.463962 
L 857.518404 335.040019 
L 859.003104 334.080038 
L 859.992905 344.256 
L 860.982705 326.4 
L 862.467406 322.752019 
L 862.962306 318.528 
L 863.457206 319.872 
L 863.952106 318.144 
L 864.447007 305.280038 
L 865.931707 303.744 
L 866.426608 300.863962 
L 866.921508 301.824019 
L 867.416408 304.319962 
L 867.911308 304.703981 
L 869.396009 306.431981 
L 869.890909 304.512019 
L 870.385809 305.856 
L 870.88071 305.663962 
L 871.37561 314.496019 
L 872.86031 313.728 
L 873.355211 312 
L 874.345011 302.4 
L 874.839911 313.152019 
L 876.324612 301.824019 
L 877.314412 309.312019 
L 877.809313 299.136038 
L 878.304213 297.791962 
L 879.788914 296.831981 
L 880.283814 295.103981 
L 880.778714 287.231981 
L 881.273614 286.272 
L 881.768514 287.040019 
L 883.253215 283.968019 
L 883.748115 277.440019 
L 884.243016 277.056 
L 885.232816 275.328 
L 886.717517 277.631981 
L 887.212417 280.512019 
L 887.707317 284.352019 
L 888.202217 284.352019 
L 888.697118 283.391962 
L 890.181818 268.991962 
L 890.676718 271.103981 
L 891.171619 271.872 
L 891.666519 282.624019 
L 892.161419 278.4 
L 893.64612 276.480038 
L 894.63592 277.247981 
L 895.13082 276.480038 
L 895.625721 261.696019 
L 897.110421 259.391962 
L 897.605322 253.440019 
L 898.595122 250.175981 
L 899.090022 256.512019 
L 900.574723 258.047981 
L 901.069623 256.319962 
L 902.059424 266.496019 
L 902.554324 266.496019 
L 904.039024 252.863962 
L 904.533925 246.719962 
L 905.028825 250.175981 
L 905.523725 239.040019 
L 906.018625 239.424019 
L 907.503326 247.103981 
L 907.998226 247.103981 
L 908.493126 241.152019 
L 909.482927 232.896019 
L 911.462528 231.744 
L 911.957428 237.312019 
L 912.452328 239.808038 
L 912.947228 254.784 
L 914.431929 261.887981 
L 914.926829 261.312019 
L 915.421729 258.624019 
L 915.91663 262.080038 
L 916.41153 271.487981 
L 917.896231 269.759981 
L 918.391131 283.391962 
L 918.886031 282.047981 
L 919.380931 278.784 
L 919.875831 265.344 
L 921.360532 263.424019 
L 921.855432 262.080038 
L 922.350333 258.047981 
L 922.845233 261.312019 
L 923.340133 258.431981 
L 925.319734 248.256 
L 925.814634 252.096019 
L 926.309534 264.959981 
L 926.804435 259.008038 
L 928.289135 258.240019 
L 928.784035 249.6 
L 929.278936 246.912019 
L 929.773836 245.952019 
L 930.268736 241.919962 
L 931.753437 247.103981 
L 932.248337 243.840019 
L 932.743237 235.584 
L 933.733038 227.712019 
L 935.217738 225.024019 
L 935.712639 222.912019 
L 936.207539 230.591962 
L 936.702439 220.416 
L 937.197339 233.280038 
L 938.68204 228.287981 
L 939.17694 225.216 
L 939.67184 218.112019 
L 940.166741 221.952019 
L 940.661641 200.256 
L 942.146341 200.447981 
L 942.641242 198.528 
L 943.136142 194.687981 
L 943.631042 209.663962 
L 944.125942 218.880038 
L 945.610643 216 
L 946.105543 195.072 
L 946.600443 207.168019 
L 947.095344 212.544 
L 947.590244 202.752019 
L 949.074945 219.456 
L 949.569845 226.368019 
L 950.064745 225.984 
L 950.559645 223.487981 
L 951.054545 254.591962 
L 952.539246 245.375981 
L 953.034146 250.175981 
L 953.529047 238.463962 
L 954.023947 256.703981 
L 956.003548 258.431981 
L 956.498448 257.663962 
L 956.993348 253.440019 
L 957.488248 244.416 
L 957.983149 253.440019 
L 959.467849 257.087981 
L 959.962749 257.663962 
L 960.95255 249.408038 
L 961.44745 254.784 
L 962.932151 259.968019 
L 963.427051 258.047981 
L 963.921951 257.280038 
L 964.416851 255.552019 
L 964.911752 261.119962 
L 966.396452 255.744 
L 966.891353 255.359981 
L 967.386253 255.936038 
L 967.881153 259.2 
L 968.376053 252.672 
L 969.860754 248.640019 
L 970.355654 239.040019 
L 970.850554 239.231981 
L 971.345455 239.616 
L 971.840355 237.503981 
L 973.819956 233.087981 
L 974.314856 230.975981 
L 974.809756 222.336038 
L 975.304656 225.984 
L 976.789357 221.375981 
L 977.284257 224.256 
L 977.779157 223.487981 
L 978.274058 216.575981 
L 978.768958 216.191962 
L 980.253659 208.703981 
L 980.748559 198.144 
L 981.243459 206.975981 
L 981.738359 207.744 
L 982.233259 206.208038 
L 983.71796 207.168019 
L 984.21286 212.159981 
L 984.707761 204.480038 
L 985.202661 200.447981 
L 985.697561 194.112019 
L 987.182262 195.456 
L 987.677162 193.728 
L 988.172062 203.136038 
L 988.666962 206.4 
L 989.161863 206.975981 
L 990.646563 199.487981 
L 991.141463 197.759981 
L 991.636364 203.136038 
L 992.131264 193.536038 
L 994.110865 196.224019 
L 994.605765 201.984 
L 995.100665 199.487981 
L 995.595565 204.863962 
L 996.090466 206.784 
L 997.575166 196.608038 
L 998.070067 206.975981 
L 998.564967 198.336038 
L 999.059867 221.375981 
L 999.554767 229.056 
L 1001.039468 225.408038 
L 1001.534368 219.840019 
L 1002.029268 220.608038 
L 1002.524169 215.231981 
L 1003.019069 215.231981 
L 1004.503769 212.159981 
L 1004.99867 213.887981 
L 1005.49357 209.663962 
L 1005.98847 213.312019 
L 1006.48337 228.480038 
L 1007.968071 235.584 
L 1008.462971 236.736038 
L 1008.957871 244.416 
L 1009.452772 241.728 
L 1009.947672 249.024019 
L 1011.432373 240.768019 
L 1011.927273 246.719962 
L 1012.422173 238.272 
L 1012.917073 238.080038 
L 1013.411973 231.359981 
L 1014.896674 235.008038 
L 1015.391574 232.128 
L 1015.886475 231.936038 
L 1016.381375 229.824019 
L 1016.876275 224.640019 
L 1018.360976 221.952019 
L 1019.350776 217.919962 
L 1019.845676 226.175981 
L 1020.340576 221.184 
L 1022.320177 219.072 
L 1022.815078 216.384 
L 1023.309978 224.063962 
L 1023.804878 223.296019 
L 1025.289579 221.952019 
L 1026.279379 232.703981 
L 1026.774279 230.4 
L 1027.26918 225.216 
L 1028.75388 222.719962 
L 1029.743681 216.384 
L 1030.238581 209.663962 
L 1030.733481 201.024019 
L 1032.218182 201.984 
L 1033.207982 212.736038 
L 1033.702882 216 
L 1034.197783 228.863962 
L 1035.682483 235.775981 
L 1036.177384 231.359981 
L 1036.672284 228.287981 
L 1037.167184 240.959981 
L 1037.662084 232.896019 
L 1039.146785 227.328 
L 1039.641685 243.647981 
L 1040.136585 252.672 
L 1040.631486 237.312019 
L 1041.126386 251.903981 
L 1042.611086 261.887981 
L 1043.105987 264 
L 1043.600887 272.063962 
L 1044.095787 299.519962 
L 1044.590687 270.912019 
L 1046.075388 279.359981 
L 1047.065188 259.775981 
L 1047.560089 256.128 
L 1048.054989 257.663962 
L 1049.53969 249.024019 
L 1050.03459 243.263962 
L 1050.52949 236.159981 
L 1051.02439 231.936038 
L 1051.51929 215.231981 
L 1053.003991 218.112019 
L 1053.498891 211.391962 
L 1053.993792 198.719962 
L 1054.488692 197.568019 
L 1054.983592 190.080038 
L 1056.468293 191.616 
L 1056.963193 188.159981 
L 1057.458093 189.887981 
L 1057.952993 188.928 
L 1058.447894 191.231981 
L 1059.932594 192.959981 
L 1060.427494 192.384 
L 1060.922395 189.119962 
L 1061.417295 194.687981 
L 1061.912195 183.552019 
L 1063.396896 184.703981 
L 1063.891796 178.944 
L 1064.386696 185.087981 
L 1065.376497 177.6 
L 1066.861197 184.319962 
L 1067.356098 194.303981 
L 1067.850998 187.008038 
L 1068.345898 184.128 
L 1068.840798 173.184 
L 1070.325499 172.031981 
L 1070.820399 169.344 
L 1071.315299 164.352019 
L 1071.8102 170.303981 
L 1072.3051 181.631981 
L 1073.7898 185.472 
L 1074.284701 201.6 
L 1074.779601 197.952019 
L 1075.769401 162.624019 
L 1077.254102 163.008038 
L 1077.749002 151.487981 
L 1078.243902 147.647981 
L 1079.233703 149.759981 
L 1080.718404 159.936038 
L 1081.708204 154.559981 
L 1082.698004 159.744 
L 1084.182705 176.640019 
L 1084.677605 189.119962 
L 1085.172506 194.880038 
L 1085.667406 187.775981 
L 1086.162306 189.503981 
L 1087.647007 206.784 
L 1088.141907 210.240019 
L 1088.636807 235.008038 
L 1089.131707 240.384 
L 1089.626608 249.6 
L 1091.606208 232.128 
L 1092.101109 233.472 
L 1093.090909 198.528 
L 1094.57561 203.519962 
L 1095.07051 207.552019 
L 1095.56541 203.328 
L 1096.06031 223.296019 
L 1096.555211 226.175981 
L 1098.039911 221.759981 
L 1098.534812 216.575981 
L 1099.524612 192 
L 1100.019512 181.247981 
L 1101.504213 185.472 
L 1101.999113 176.256 
L 1102.494013 180.863962 
L 1102.988914 174.912019 
L 1103.483814 165.696019 
L 1105.463415 170.112019 
L 1105.958315 169.344 
L 1106.948115 185.663962 
L 1108.927716 176.831981 
L 1109.422616 172.224019 
L 1109.917517 171.840019 
L 1110.412417 170.687981 
L 1111.897118 175.487981 
L 1112.392018 175.103981 
L 1112.886918 177.408038 
L 1113.381818 178.752019 
L 1113.876718 174.912019 
L 1115.361419 174.144 
L 1115.856319 177.984 
L 1116.35122 190.080038 
L 1117.34102 178.368019 
L 1118.825721 177.408038 
L 1119.320621 173.952019 
L 1119.815521 173.952019 
L 1120.310421 171.647981 
L 1120.805322 175.487981 
L 1122.290022 169.728 
L 1122.784922 176.063962 
L 1123.279823 184.703981 
L 1123.774723 201.791962 
L 1124.269623 205.247981 
L 1125.754324 204.863962 
L 1126.249224 197.375981 
L 1126.744124 196.031981 
L 1127.239024 197.375981 
L 1129.218625 206.208038 
L 1129.713525 199.296019 
L 1130.208426 199.296019 
L 1130.703326 201.024019 
L 1131.198226 196.8 
L 1132.682927 190.847981 
L 1133.177827 191.040019 
L 1133.672727 204.287981 
L 1134.167627 199.103981 
L 1134.662528 213.119962 
L 1136.147228 211.775981 
L 1136.642129 208.319962 
L 1137.137029 212.544 
L 1137.631929 212.736038 
L 1138.126829 212.736038 
L 1139.61153 209.472 
L 1140.10643 214.847981 
L 1140.60133 212.159981 
L 1141.096231 207.552019 
L 1141.591131 206.4 
L 1143.075831 205.056 
L 1144.065632 193.919962 
L 1144.560532 204.672 
L 1145.055432 199.680038 
L 1146.540133 191.616 
L 1147.035033 196.8 
L 1147.529933 190.080038 
L 1148.024834 180.287981 
L 1148.519734 179.519962 
L 1150.004435 187.775981 
L 1150.499335 179.328 
L 1150.994235 175.680038 
L 1151.489135 187.008038 
L 1151.984035 189.887981 
L 1153.963636 196.031981 
L 1154.458537 195.263962 
L 1154.953437 192 
L 1155.448337 191.808038 
L 1156.933038 201.6 
L 1157.427938 208.896019 
L 1158.417738 191.231981 
L 1158.912639 189.696019 
L 1160.397339 189.503981 
L 1160.892239 191.616 
L 1161.88204 170.880038 
L 1162.37694 172.8 
L 1163.861641 181.056 
L 1164.356541 181.824019 
L 1164.851441 172.608038 
L 1165.346341 173.568019 
L 1165.841242 175.872 
L 1167.325942 168.768019 
L 1167.820843 164.544 
L 1168.315743 171.072 
L 1168.810643 171.840019 
L 1169.305543 177.024019 
L 1170.790244 188.928 
L 1171.285144 190.272 
L 1171.780044 188.736038 
L 1172.274945 185.472 
L 1174.254545 203.519962 
L 1174.749446 197.184 
L 1175.244346 201.791962 
L 1175.739246 200.831981 
L 1176.234146 191.808038 
L 1177.718847 192.191962 
L 1178.213747 192.768019 
L 1178.708647 187.968019 
L 1179.203548 151.103981 
L 1179.698448 156.096019 
L 1181.183149 149.568019 
L 1181.678049 151.103981 
L 1182.172949 154.944 
L 1182.667849 150.528 
L 1183.162749 157.247981 
L 1184.64745 168.384 
L 1185.14235 167.424019 
L 1185.637251 173.184 
L 1186.132151 171.840019 
L 1186.627051 165.696019 
L 1188.111752 165.503981 
L 1188.606652 167.040019 
L 1189.101552 157.824019 
L 1189.596452 157.631981 
L 1190.091353 163.775981 
L 1191.576053 159.168019 
L 1192.070953 158.4 
L 1192.565854 165.696019 
L 1193.060754 168.575981 
L 1193.555654 166.656 
L 1195.040355 162.240019 
L 1195.535255 155.136038 
L 1196.030155 157.631981 
L 1196.525055 170.303981 
L 1197.019956 194.112019 
L 1198.504656 257.856 
L 1198.999557 224.831981 
L 1199.494457 251.328 
L 1199.989357 227.712019 
L 1200.484257 217.344 
L 1201.968958 219.840019 
L 1202.463858 238.272 
L 1202.958758 245.568019 
L 1203.453659 241.536038 
L 1203.948559 247.487981 
L 1205.92816 237.119962 
L 1206.42306 227.328 
L 1206.91796 250.752019 
L 1207.41286 245.952019 
L 1208.897561 246.528 
L 1209.392461 242.112019 
L 1209.887361 226.368019 
L 1210.382262 217.728 
L 1210.877162 242.880038 
L 1212.361863 235.775981 
L 1212.856763 249.024019 
L 1213.351663 243.647981 
L 1213.846563 252.672 
L 1214.341463 235.775981 
L 1215.826164 241.919962 
L 1216.321064 254.016 
L 1216.815965 242.112019 
L 1217.310865 244.416 
L 1217.805765 264.384 
L 1219.785366 236.159981 
L 1220.280266 229.631981 
L 1220.775166 234.047981 
L 1221.270067 225.024019 
L 1222.754767 231.936038 
L 1223.744568 238.463962 
L 1224.239468 240.575981 
L 1224.734368 241.152019 
L 1226.219069 251.712019 
L 1226.713969 247.872 
L 1227.208869 235.391962 
L 1227.703769 237.887981 
L 1228.19867 222.719962 
L 1229.68337 215.231981 
L 1230.178271 220.608038 
L 1230.673171 221.759981 
L 1231.168071 206.784 
L 1231.662971 206.784 
L 1233.147672 220.991962 
L 1233.642572 214.080038 
L 1234.137472 211.584 
L 1234.632373 213.696019 
L 1235.127273 192.575981 
L 1236.611973 192.191962 
L 1237.106874 202.752019 
L 1237.601774 194.496019 
L 1238.591574 216.191962 
L 1240.076275 218.496019 
L 1240.571175 202.944 
L 1241.066075 204.287981 
L 1241.560976 188.928 
L 1242.055876 179.712019 
L 1243.540576 186.047981 
L 1244.035477 195.456 
L 1244.530377 189.119962 
L 1245.520177 189.696019 
L 1247.004878 188.544 
L 1247.994678 180.287981 
L 1248.489579 187.775981 
L 1248.984479 197.568019 
L 1250.46918 184.512019 
L 1250.96408 190.463962 
L 1251.45898 201.791962 
L 1251.95388 205.247981 
L 1252.44878 215.808038 
L 1253.933481 219.840019 
L 1254.428381 206.591962 
L 1254.923282 188.544 
L 1255.418182 177.216 
L 1255.913082 196.031981 
L 1257.397783 212.928 
L 1257.892683 208.128 
L 1258.387583 204.672 
L 1258.882483 199.103981 
L 1260.862084 201.791962 
L 1261.356984 203.519962 
L 1261.851885 199.296019 
L 1262.346785 210.431981 
L 1264.821286 235.775981 
L 1265.316186 244.031981 
L 1265.811086 258.047981 
L 1266.305987 251.712019 
L 1267.790687 263.808038 
L 1268.285588 256.319962 
L 1268.780488 246.336038 
L 1269.770288 302.208038 
L 1271.749889 274.175981 
L 1272.244789 296.640019 
L 1272.73969 284.352019 
L 1273.23459 277.440019 
L 1274.71929 277.631981 
L 1275.214191 293.952019 
L 1275.709091 280.896019 
L 1276.203991 273.408038 
L 1276.698891 277.247981 
L 1278.183592 266.112019 
L 1278.678492 278.016 
L 1279.173392 284.544 
L 1279.668293 277.824019 
L 1280.163193 260.159981 
L 1281.647894 270.336038 
L 1282.142794 286.272 
L 1282.637694 265.152019 
L 1283.132594 302.4 
L 1283.627494 297.791962 
L 1285.607095 270.719962 
L 1286.101996 252.287981 
L 1286.596896 262.272 
L 1287.091796 277.824019 
L 1288.576497 274.368019 
L 1289.071397 264.959981 
L 1289.566297 297.216 
L 1290.061197 290.496019 
L 1290.556098 273.791962 
L 1292.040798 278.4 
L 1292.535698 289.152019 
L 1293.030599 264.191962 
L 1294.020399 246.528 
L 1295.5051 251.519962 
L 1296 259.775981 
L 1296 259.775981 
" style="fill:none;stroke:#0000ff;stroke-linecap:square;"/>
   </g>
   <g id="line2d_2">
    <path clip-path="url(#p001192b49f)" d="M 180 592.704019 
L 180.4949 581.568019 
L 180.9898 576.768019 
L 181.484701 567.936 
L 183.464302 565.056 
L 183.959202 565.248019 
L 184.454102 557.568019 
L 184.949002 545.664 
L 185.443902 559.295981 
L 187.423503 561.792 
L 187.918404 551.808 
L 188.413304 549.312019 
L 188.908204 558.336 
L 190.392905 555.648019 
L 190.887805 565.248019 
L 191.382705 549.695981 
L 191.877605 552.192 
L 192.372506 550.464 
L 193.857206 548.544 
L 194.352106 554.495981 
L 194.847007 562.368019 
L 195.341907 577.92 
L 195.836807 571.776019 
L 197.321508 580.992 
L 197.816408 580.992 
L 198.311308 578.687981 
L 198.806208 580.992 
L 199.301109 585.408 
L 201.28071 573.887981 
L 201.77561 576.384 
L 202.27051 572.928 
L 202.76541 568.512019 
L 204.250111 560.640019 
L 204.745011 566.016 
L 205.239911 556.223981 
L 205.734812 565.440019 
L 206.229712 559.487981 
L 207.714412 561.408 
L 208.209313 556.992 
L 208.704213 558.72 
L 209.199113 556.992 
L 209.694013 548.159981 
L 211.178714 552.192 
L 211.673614 558.336 
L 212.168514 552.768019 
L 212.663415 542.976019 
L 213.158315 539.136 
L 214.643016 534.72 
L 215.137916 530.495981 
L 215.632816 528.768019 
L 216.127716 532.992 
L 216.622616 530.112019 
L 218.602217 528 
L 219.097118 529.151981 
L 219.592018 529.536 
L 220.086918 531.840019 
L 221.571619 533.568019 
L 222.066519 535.487981 
L 222.561419 535.104019 
L 223.056319 528.192 
L 225.03592 523.776019 
L 225.53082 512.064 
L 226.025721 519.359981 
L 226.520621 511.104019 
L 227.015521 510.528 
L 228.500222 503.808 
L 228.995122 503.423981 
L 229.490022 489.6 
L 229.984922 489.408 
L 230.479823 504.959981 
L 231.964523 501.887981 
L 232.459424 490.368019 
L 232.954324 495.551981 
L 233.449224 506.495981 
L 233.944124 507.840019 
L 235.428825 516.095981 
L 235.923725 528.384 
L 236.418625 521.856 
L 236.913525 508.031981 
L 237.408426 518.016 
L 238.893126 509.376019 
L 239.388027 523.2 
L 239.882927 524.736 
L 240.377827 542.784 
L 240.872727 549.12 
L 242.357428 522.431981 
L 242.852328 519.744 
L 243.347228 515.904019 
L 243.842129 525.504019 
L 244.337029 542.208 
L 245.821729 540.287981 
L 246.31663 564.287981 
L 246.81153 568.32 
L 247.30643 586.368019 
L 247.80133 571.584 
L 249.286031 579.072 
L 249.780931 573.312019 
L 250.275831 578.304019 
L 250.770732 562.944 
L 251.265632 571.968019 
L 253.245233 584.831981 
L 253.740133 571.392 
L 254.235033 579.456 
L 254.729933 593.28 
L 256.214634 600.768019 
L 256.709534 595.392 
L 257.204435 598.656 
L 257.699335 577.344 
L 258.194235 584.448019 
L 259.678936 593.856 
L 260.173836 586.559981 
L 260.668736 588.095981 
L 261.163636 589.248019 
L 261.658537 579.456 
L 263.143237 577.536 
L 263.638137 579.840019 
L 264.133038 587.904019 
L 264.627938 597.887981 
L 265.122838 583.487981 
L 266.607539 588.287981 
L 267.102439 597.695981 
L 267.597339 602.88 
L 268.092239 603.264 
L 268.58714 611.904019 
L 270.566741 608.831981 
L 271.061641 591.744 
L 271.556541 585.792 
L 272.051441 572.928 
L 273.536142 575.616 
L 274.031042 562.944 
L 274.525942 568.512019 
L 275.020843 563.52 
L 275.515743 589.631981 
L 277.000443 590.592 
L 277.495344 587.52 
L 277.990244 589.056 
L 278.485144 577.728 
L 278.980044 576.959981 
L 280.464745 568.895981 
L 280.959645 565.248019 
L 281.454545 571.776019 
L 281.949446 572.351981 
L 282.444346 573.12 
L 283.929047 561.408 
L 285.413747 577.344 
L 285.908647 586.176019 
L 287.393348 578.112019 
L 287.888248 581.951981 
L 288.383149 600.384 
L 288.878049 601.151981 
L 289.372949 605.376019 
L 290.85765 607.104019 
L 291.35255 603.648019 
L 291.84745 601.92 
L 292.34235 614.976019 
L 292.837251 614.592 
L 294.321951 616.704019 
L 294.816851 622.848019 
L 295.311752 624.576019 
L 295.806652 629.376019 
L 296.301552 616.128 
L 297.786253 634.368019 
L 298.281153 632.640019 
L 298.776053 613.248019 
L 299.270953 607.295981 
L 299.765854 596.736 
L 301.745455 605.184 
L 302.240355 603.456 
L 302.735255 597.12 
L 303.230155 597.504019 
L 304.714856 583.295981 
L 305.209756 585.408 
L 305.704656 596.736 
L 306.199557 596.159981 
L 306.694457 594.048019 
L 308.179157 585.023981 
L 309.168958 599.616 
L 309.663858 613.056 
L 310.158758 601.728 
L 311.643459 612.287981 
L 312.138359 612.864 
L 312.633259 615.936 
L 313.12816 616.895981 
L 313.62306 615.168019 
L 315.107761 616.895981 
L 315.602661 603.072 
L 316.097561 601.728 
L 317.087361 603.648019 
L 318.572062 604.8 
L 319.066962 592.704019 
L 319.561863 593.087981 
L 320.056763 598.656 
L 320.551663 599.231981 
L 322.036364 587.328 
L 322.531264 594.048019 
L 323.026164 593.664 
L 323.521064 583.487981 
L 324.015965 579.072 
L 325.500665 581.376019 
L 326.490466 564.672 
L 326.985366 567.744 
L 327.480266 567.359981 
L 328.964967 572.544 
L 329.459867 575.040019 
L 329.954767 570.240019 
L 330.944568 530.88 
L 332.429268 538.559981 
L 332.924169 547.968019 
L 333.419069 542.208 
L 333.913969 548.544 
L 334.408869 559.295981 
L 335.89357 553.151981 
L 336.38847 557.376019 
L 336.88337 557.184 
L 337.378271 551.808 
L 337.873171 554.495981 
L 339.357871 558.72 
L 339.852772 569.664 
L 340.347672 567.936 
L 341.337472 571.776019 
L 342.822173 569.28 
L 343.317073 575.423981 
L 343.811973 567.168019 
L 344.306874 556.608 
L 344.801774 556.608 
L 346.286475 558.72 
L 346.781375 564.095981 
L 347.771175 535.872 
L 348.266075 524.159981 
L 349.750776 529.344 
L 350.245676 533.951981 
L 350.740576 536.640019 
L 351.235477 530.88 
L 351.730377 528.959981 
L 353.215078 530.112019 
L 354.204878 514.559981 
L 354.699778 513.216 
L 356.679379 511.295981 
L 357.174279 510.144 
L 357.66918 513.023981 
L 358.16408 514.751981 
L 358.65898 514.176019 
L 360.143681 514.751981 
L 360.638581 518.208 
L 361.133481 517.056 
L 361.628381 527.231981 
L 362.123282 531.072 
L 363.607982 528 
L 364.102882 531.840019 
L 364.597783 519.551981 
L 365.092683 518.4 
L 365.587583 506.495981 
L 367.567184 507.648019 
L 368.062084 522.816 
L 368.556984 519.359981 
L 369.051885 514.368019 
L 370.536585 516.672 
L 371.031486 518.208 
L 371.526386 521.28 
L 372.021286 514.368019 
L 372.516186 517.440019 
L 374.000887 513.6 
L 374.495787 500.928 
L 374.990687 506.112019 
L 375.485588 504.576019 
L 375.980488 505.536 
L 377.465188 495.359981 
L 377.960089 490.176019 
L 378.949889 497.087981 
L 379.444789 487.295981 
L 380.92949 481.344 
L 381.42439 481.92 
L 381.91929 480.959981 
L 382.414191 487.487981 
L 382.909091 483.648019 
L 385.383592 503.616 
L 385.878492 504 
L 386.373392 503.616 
L 387.858093 499.584 
L 388.352993 511.295981 
L 388.847894 516.48 
L 389.342794 503.231981 
L 389.837694 512.831981 
L 391.322395 515.52 
L 391.817295 499.2 
L 392.312195 498.240019 
L 392.807095 510.144 
L 393.301996 510.528 
L 394.786696 516.095981 
L 395.281596 519.168019 
L 395.776497 529.92 
L 396.271397 526.08 
L 396.766297 520.32 
L 398.250998 521.28 
L 398.745898 523.968019 
L 399.240798 524.159981 
L 400.230599 515.136 
L 401.715299 516.095981 
L 402.2102 520.32 
L 402.7051 519.744 
L 403.2 524.544 
L 403.6949 519.744 
L 405.179601 521.28 
L 405.674501 523.008 
L 406.169401 515.52 
L 406.664302 524.544 
L 407.159202 529.344 
L 408.643902 531.072 
L 409.138803 525.887981 
L 409.633703 532.992 
L 410.128603 535.872 
L 410.623503 534.144 
L 412.108204 541.248019 
L 412.603104 547.2 
L 413.098004 555.072 
L 413.592905 549.12 
L 415.572506 551.040019 
L 416.067406 551.231981 
L 416.562306 541.440019 
L 417.057206 542.784 
L 417.552106 536.256 
L 419.036807 538.944 
L 419.531707 536.448019 
L 420.026608 541.631981 
L 420.521508 548.159981 
L 421.016408 548.351981 
L 422.501109 547.2 
L 422.996009 538.944 
L 423.490909 548.351981 
L 423.985809 545.664 
L 424.48071 551.616 
L 425.96541 551.040019 
L 426.46031 540.672 
L 426.955211 537.792 
L 427.450111 536.448019 
L 427.945011 548.159981 
L 429.429712 553.344 
L 429.924612 552.768019 
L 430.419512 553.728 
L 430.914412 552.959981 
L 431.409313 543.936 
L 433.388914 540.48 
L 433.883814 557.759981 
L 434.378714 557.184 
L 434.873614 560.640019 
L 436.358315 569.087981 
L 436.853215 574.08 
L 437.348115 571.776019 
L 437.843016 563.328 
L 438.337916 564.864 
L 439.822616 565.248019 
L 440.317517 561.6 
L 440.812417 571.392 
L 441.307317 567.168019 
L 441.802217 561.792 
L 443.286918 561.6 
L 443.781818 557.376019 
L 444.276718 562.559981 
L 444.771619 565.631981 
L 445.266519 572.736 
L 446.75122 560.256 
L 447.24612 554.495981 
L 447.74102 545.664 
L 448.23592 542.208 
L 448.73082 531.648019 
L 450.710421 540.672 
L 451.205322 546.240019 
L 451.700222 540.095981 
L 452.195122 545.28 
L 453.679823 554.495981 
L 454.174723 552.768019 
L 454.669623 549.695981 
L 455.164523 557.951981 
L 455.659424 556.992 
L 457.144124 562.944 
L 457.639024 551.423981 
L 458.628825 513.408 
L 459.123725 515.328 
L 460.608426 514.176019 
L 461.103326 518.592 
L 461.598226 528.576019 
L 462.093126 530.88 
L 462.588027 531.648019 
L 464.072727 533.184 
L 464.567627 549.12 
L 465.062528 547.584 
L 465.557428 568.32 
L 466.052328 576.576019 
L 467.537029 617.472 
L 468.031929 583.295981 
L 468.526829 620.544 
L 469.021729 601.151981 
L 469.51663 611.328 
L 471.00133 595.584 
L 471.496231 606.144 
L 471.991131 601.344 
L 472.486031 627.456 
L 472.980931 637.248019 
L 474.465632 642.048019 
L 474.960532 619.008 
L 475.455432 604.992 
L 475.950333 602.88 
L 476.445233 601.536 
L 477.929933 587.136 
L 478.424834 589.823981 
L 478.919734 586.368019 
L 479.414634 596.928 
L 479.909534 617.087981 
L 481.889135 623.616 
L 482.384035 596.351981 
L 482.878936 593.087981 
L 483.373836 609.6 
L 484.858537 602.88 
L 486.343237 570.240019 
L 486.838137 569.087981 
L 488.322838 573.312019 
L 488.817738 569.472 
L 489.312639 593.087981 
L 489.807539 592.128 
L 490.302439 586.368019 
L 491.78714 564.287981 
L 492.28204 569.856 
L 492.77694 583.68 
L 493.27184 567.168019 
L 493.766741 580.031981 
L 495.251441 597.12 
L 495.746341 587.328 
L 496.241242 581.759981 
L 496.736142 571.2 
L 497.231042 584.064 
L 498.715743 562.559981 
L 499.210643 573.504019 
L 499.705543 556.8 
L 500.200443 564.864 
L 500.695344 557.759981 
L 502.180044 578.687981 
L 502.674945 561.984 
L 503.169845 568.704019 
L 503.664745 553.536 
L 504.159645 544.512019 
L 505.644346 541.056 
L 506.139246 555.072 
L 507.129047 528.576019 
L 507.623947 532.223981 
L 509.108647 540.672 
L 509.603548 561.023981 
L 510.098448 546.048019 
L 510.593348 540.48 
L 511.088248 541.823981 
L 512.572949 534.912019 
L 513.067849 527.616 
L 513.562749 549.887981 
L 514.05765 539.712019 
L 514.55255 533.951981 
L 516.037251 542.784 
L 516.532151 542.016 
L 517.027051 543.551981 
L 517.521951 549.887981 
L 518.016851 544.704019 
L 519.501552 559.295981 
L 519.996452 558.336 
L 520.491353 575.231981 
L 521.481153 570.623981 
L 522.965854 557.376019 
L 523.460754 559.487981 
L 523.955654 534.336 
L 524.450554 538.559981 
L 524.945455 538.176019 
L 526.430155 533.951981 
L 526.925055 528.768019 
L 527.419956 524.928 
L 527.914856 539.52 
L 528.409756 527.231981 
L 529.894457 532.031981 
L 530.389357 537.792 
L 530.884257 537.023981 
L 531.379157 536.640019 
L 531.874058 532.8 
L 533.358758 541.248019 
L 533.853659 523.2 
L 534.348559 517.248019 
L 534.843459 507.072 
L 535.338359 504.192 
L 537.31796 507.648019 
L 537.81286 515.904019 
L 538.307761 507.840019 
L 538.802661 512.640019 
L 540.782262 502.464 
L 541.277162 502.656 
L 541.772062 494.784 
L 542.266962 499.2 
L 543.751663 489.792 
L 544.246563 489.408 
L 544.741463 486.528 
L 545.731264 474.623981 
L 547.710865 479.616 
L 548.205765 473.664 
L 548.700665 483.648019 
L 549.195565 480.192 
L 550.680266 484.992 
L 551.175166 485.759981 
L 551.670067 482.88 
L 552.164967 498.431981 
L 552.659867 497.087981 
L 554.144568 494.208 
L 554.639468 490.176019 
L 555.134368 483.648019 
L 555.629268 483.456 
L 556.124169 471.359981 
L 557.608869 472.128 
L 558.103769 466.559981 
L 558.59867 463.104019 
L 559.58847 475.008 
L 561.073171 471.744 
L 561.568071 475.2 
L 562.062971 482.304019 
L 562.557871 473.664 
L 563.052772 468.48 
L 565.032373 472.895981 
L 565.527273 478.848019 
L 566.022173 475.392 
L 566.517073 480.384 
L 568.001774 469.440019 
L 568.496674 471.936 
L 568.991574 467.52 
L 569.486475 461.568019 
L 569.981375 470.016 
L 571.466075 477.12 
L 571.960976 487.295981 
L 572.455876 482.112019 
L 573.445676 461.376019 
L 574.930377 462.144 
L 575.425277 436.608 
L 575.920177 427.584 
L 576.415078 423.744 
L 576.909978 424.32 
L 578.394678 420.48 
L 579.879379 429.695981 
L 580.374279 423.359981 
L 581.85898 415.487981 
L 582.35388 423.551981 
L 582.84878 421.056 
L 583.343681 426.240019 
L 583.838581 423.744 
L 585.323282 423.168019 
L 585.818182 425.472 
L 586.313082 430.848019 
L 586.807982 430.08 
L 588.787583 436.608 
L 589.282483 449.472 
L 590.272284 430.272 
L 590.767184 438.72 
L 592.251885 433.728 
L 592.746785 426.240019 
L 593.241685 431.040019 
L 593.736585 432.576019 
L 594.231486 431.231981 
L 595.716186 432.768019 
L 596.211086 424.895981 
L 596.705987 423.744 
L 597.695787 409.344 
L 599.180488 414.336038 
L 599.675388 412.031981 
L 600.170288 416.831981 
L 600.665188 418.751981 
L 601.160089 423.936 
L 602.644789 420.672 
L 603.13969 425.856 
L 603.63459 427.776019 
L 604.12949 419.328 
L 604.62439 413.568019 
L 606.603991 431.040019 
L 607.098891 435.648019 
L 608.088692 450.816 
L 609.573392 442.176019 
L 610.068293 436.8 
L 610.563193 435.072 
L 611.058093 434.304019 
L 611.552993 438.144 
L 613.532594 432.768019 
L 614.027494 441.6 
L 614.522395 434.687981 
L 615.017295 463.68 
L 616.501996 479.231981 
L 617.491796 461.759981 
L 617.986696 464.064 
L 618.481596 454.08 
L 619.966297 458.495981 
L 620.461197 443.904019 
L 620.956098 445.248019 
L 621.450998 436.608 
L 621.945898 425.664 
L 623.430599 426.816 
L 623.925499 422.208 
L 624.420399 422.976019 
L 624.915299 432.384 
L 625.4102 422.976019 
L 626.8949 433.728 
L 627.884701 428.544 
L 628.379601 428.351981 
L 628.874501 414.528 
L 630.359202 409.152019 
L 630.854102 406.463962 
L 631.843902 412.031981 
L 632.338803 417.408038 
L 633.823503 417.024019 
L 634.318404 419.52 
L 634.813304 412.224019 
L 635.308204 417.408038 
L 635.803104 404.159981 
L 637.287805 402.624019 
L 637.782705 399.359981 
L 638.277605 389.184 
L 638.772506 383.040019 
L 639.267406 386.880038 
L 640.752106 390.336038 
L 641.247007 389.375981 
L 641.741907 392.831981 
L 642.731707 380.736038 
L 644.216408 384 
L 644.711308 388.8 
L 645.206208 392.256 
L 645.701109 400.319962 
L 646.196009 388.991962 
L 647.68071 398.208038 
L 648.17561 396.672 
L 648.67051 398.016 
L 649.16541 397.824019 
L 649.66031 395.328 
L 651.145011 394.944 
L 651.639911 398.016 
L 652.134812 395.136038 
L 652.629712 394.368019 
L 653.124612 396.287981 
L 654.609313 393.984 
L 655.104213 397.824019 
L 656.094013 403.008038 
L 656.588914 397.824019 
L 658.073614 394.752019 
L 658.568514 392.447981 
L 659.063415 388.8 
L 659.558315 392.831981 
L 660.053215 390.528 
L 662.032816 396.096019 
L 662.527716 396.863962 
L 663.022616 380.544 
L 663.517517 379.584 
L 665.002217 382.463962 
L 665.497118 378.431981 
L 665.992018 380.352019 
L 666.486918 362.496019 
L 666.981818 361.344 
L 668.466519 375.552019 
L 668.961419 375.552019 
L 669.456319 372.672 
L 669.95122 378.431981 
L 670.44612 382.080038 
L 671.93082 375.744 
L 672.425721 376.896019 
L 672.920621 380.159981 
L 673.415521 376.128 
L 673.910421 373.440019 
L 675.395122 377.472 
L 675.890022 377.663962 
L 676.384922 371.903981 
L 676.879823 356.352019 
L 677.374723 361.536038 
L 678.859424 363.647981 
L 679.354324 366.144 
L 679.849224 367.680038 
L 680.344124 371.712019 
L 680.839024 384.575981 
L 682.323725 386.303981 
L 682.818625 386.687981 
L 683.313525 375.359981 
L 683.808426 371.519962 
L 684.303326 374.784 
L 685.788027 375.936038 
L 686.282927 391.487981 
L 686.777827 395.903981 
L 687.272727 389.184 
L 687.767627 395.519962 
L 690.242129 394.368019 
L 690.737029 385.728 
L 691.231929 390.144 
L 692.71663 395.712019 
L 693.21153 387.072 
L 693.70643 410.112019 
L 694.20133 414.336038 
L 694.696231 415.680038 
L 696.180931 416.447981 
L 697.170732 430.464 
L 697.665632 432.768019 
L 698.160532 426.240019 
L 700.140133 412.8 
L 700.635033 416.640019 
L 701.624834 406.463962 
L 703.109534 410.303981 
L 703.604435 415.680038 
L 704.099335 410.112019 
L 704.594235 409.919962 
L 705.089135 412.608038 
L 706.573836 416.640019 
L 707.068736 428.544 
L 707.563636 422.208 
L 708.058537 421.248019 
L 708.553437 417.216 
L 710.038137 419.52 
L 710.533038 418.176019 
L 711.027938 420.095981 
L 711.522838 425.856 
L 712.017738 429.12 
L 713.502439 415.872 
L 713.997339 406.656 
L 714.492239 413.759981 
L 714.98714 409.152019 
L 715.48204 408.384 
L 716.966741 411.647981 
L 717.956541 412.608038 
L 718.451441 417.216 
L 718.946341 423.744 
L 720.431042 418.751981 
L 721.420843 398.975981 
L 721.915743 407.808038 
L 722.410643 394.175981 
L 723.895344 399.936038 
L 724.390244 398.975981 
L 724.885144 393.216 
L 725.380044 386.112019 
L 725.874945 388.8 
L 727.359645 389.375981 
L 727.854545 393.024019 
L 728.349446 395.519962 
L 728.844346 403.008038 
L 729.339246 400.896019 
L 731.318847 398.4 
L 731.813747 396.672 
L 732.308647 396.287981 
L 732.803548 395.136038 
L 734.288248 395.136038 
L 734.783149 392.063962 
L 735.278049 395.712019 
L 735.772949 396.480038 
L 736.267849 390.719962 
L 737.75255 399.168019 
L 738.24745 395.903981 
L 738.74235 386.687981 
L 739.237251 388.031981 
L 739.732151 385.919962 
L 741.216851 377.472 
L 741.711752 373.247981 
L 742.206652 380.544 
L 742.701552 379.391962 
L 743.196452 380.928 
L 745.176053 377.663962 
L 745.670953 382.080038 
L 746.165854 383.616 
L 746.660754 381.503981 
L 748.145455 391.872 
L 748.640355 383.231981 
L 749.135255 378.624019 
L 749.630155 379.584 
L 750.125055 379.008038 
L 751.609756 373.824019 
L 752.104656 382.847981 
L 752.599557 384.191962 
L 753.094457 376.319962 
L 753.589357 374.784 
L 755.074058 371.328 
L 755.568958 372.672 
L 756.063858 374.975981 
L 756.558758 378.047981 
L 757.053659 374.975981 
L 758.538359 376.703981 
L 759.033259 380.159981 
L 759.52816 380.544 
L 760.02306 387.840019 
L 760.51796 387.456 
L 762.002661 385.536038 
L 762.497561 385.344 
L 762.992461 383.808038 
L 763.487361 380.544 
L 765.466962 379.391962 
L 765.961863 377.280038 
L 766.456763 385.536038 
L 766.951663 382.656 
L 767.446563 391.487981 
L 768.931264 385.152019 
L 769.426164 385.152019 
L 769.921064 375.552019 
L 770.415965 375.359981 
L 770.910865 377.663962 
L 772.395565 392.447981 
L 772.890466 403.775981 
L 773.385366 410.303981 
L 773.880266 412.416 
L 774.375166 407.808038 
L 775.859867 408.575981 
L 776.849667 395.519962 
L 777.344568 392.447981 
L 777.839468 395.903981 
L 779.324169 392.831981 
L 779.819069 393.024019 
L 780.313969 402.047981 
L 780.808869 406.463962 
L 781.303769 402.816 
L 782.78847 400.512019 
L 783.28337 395.519962 
L 783.778271 392.063962 
L 784.273171 392.447981 
L 784.768071 388.991962 
L 786.252772 388.8 
L 787.242572 372.672 
L 787.737472 373.247981 
L 788.232373 366.336038 
L 790.211973 354.431981 
L 790.706874 352.896019 
L 791.201774 355.775981 
L 791.696674 352.128 
L 793.676275 349.631981 
L 794.171175 353.663962 
L 794.666075 349.824019 
L 795.160976 358.847981 
L 796.645676 354.816 
L 797.140576 355.008038 
L 797.635477 359.808038 
L 798.130377 352.703981 
L 798.625277 343.296019 
L 800.109978 348.672 
L 800.604878 352.128 
L 801.099778 352.319962 
L 801.594678 351.168019 
L 802.089579 359.808038 
L 803.574279 355.584 
L 804.06918 353.280038 
L 805.05898 358.847981 
L 805.55388 349.056 
L 807.038581 352.512019 
L 807.533481 341.952019 
L 808.028381 342.144 
L 808.523282 338.112019 
L 809.018182 337.919962 
L 810.502882 334.847981 
L 810.997783 335.040019 
L 811.492683 334.080038 
L 812.482483 326.208038 
L 813.967184 320.640019 
L 814.462084 316.031981 
L 814.956984 320.256 
L 815.451885 318.719962 
L 815.946785 308.928 
L 817.431486 312 
L 817.926386 316.416 
L 818.421286 326.591962 
L 818.916186 320.256 
L 819.411086 316.608038 
L 820.895787 314.880038 
L 821.390687 311.231981 
L 821.885588 311.231981 
L 822.380488 312.768019 
L 822.875388 311.231981 
L 824.360089 312.191962 
L 824.854989 308.159981 
L 825.349889 315.456 
L 825.844789 308.928 
L 826.33969 306.816 
L 827.82439 307.391962 
L 828.31929 309.887981 
L 828.814191 317.568019 
L 829.309091 314.880038 
L 829.803991 318.336038 
L 831.288692 318.528 
L 831.783592 319.487981 
L 832.278492 322.175981 
L 832.773392 326.016 
L 833.268293 323.136038 
L 834.752993 328.128 
L 835.247894 324.287981 
L 835.742794 325.631981 
L 836.237694 313.919962 
L 836.732594 315.456 
L 838.217295 323.136038 
L 838.712195 338.687981 
L 839.701996 338.687981 
L 840.196896 338.303981 
L 842.176497 339.647981 
L 842.671397 338.303981 
L 843.166297 327.359981 
L 843.661197 331.775981 
L 845.145898 334.656 
L 845.640798 327.168019 
L 846.135698 327.744 
L 846.630599 324.096019 
L 847.125499 318.912019 
L 848.6102 311.808038 
L 849.1051 311.616 
L 849.6 305.472 
L 850.0949 307.968019 
L 850.5898 305.280038 
L 852.074501 314.687981 
L 852.569401 323.519962 
L 853.064302 326.208038 
L 853.559202 330.431981 
L 854.054102 331.2 
L 855.538803 329.663962 
L 856.033703 327.168019 
L 856.528603 333.312019 
L 857.023503 334.080038 
L 857.518404 328.896019 
L 859.003104 338.303981 
L 859.498004 346.559981 
L 859.992905 341.568019 
L 860.487805 322.752019 
L 860.982705 320.640019 
L 862.467406 318.144 
L 862.962306 323.903981 
L 864.447007 303.936038 
L 865.931707 301.247981 
L 866.426608 301.056 
L 866.921508 302.784 
L 867.416408 306.240019 
L 867.911308 305.663962 
L 869.396009 307.008038 
L 869.890909 305.663962 
L 870.385809 307.008038 
L 870.88071 314.687981 
L 871.37561 314.496019 
L 872.86031 311.231981 
L 873.355211 308.736038 
L 873.850111 303.936038 
L 874.345011 312.575981 
L 874.839911 300.863962 
L 876.324612 303.552019 
L 876.819512 307.2 
L 877.809313 297.024019 
L 878.304213 296.447981 
L 879.788914 296.063962 
L 880.283814 289.728 
L 880.778714 288.191962 
L 881.273614 285.887981 
L 883.253215 279.168019 
L 883.748115 278.016 
L 884.243016 276.480038 
L 885.232816 278.975981 
L 886.717517 279.168019 
L 887.212417 292.416 
L 887.707317 283.2 
L 888.202217 290.687981 
L 888.697118 270.528 
L 890.181818 268.991962 
L 891.171619 282.431981 
L 891.666519 279.359981 
L 892.161419 282.047981 
L 893.64612 275.903981 
L 894.14102 280.896019 
L 894.63592 261.696019 
L 895.13082 263.231981 
L 895.625721 263.040019 
L 897.110421 254.591962 
L 897.605322 252.480038 
L 898.595122 254.016 
L 899.090022 256.896019 
L 900.574723 258.816 
L 901.069623 256.319962 
L 902.059424 266.112019 
L 904.039024 252.672 
L 904.533925 246.144 
L 905.028825 243.072 
L 905.523725 238.272 
L 906.018625 244.416 
L 907.503326 249.024019 
L 907.998226 246.912019 
L 908.493126 235.2 
L 908.988027 235.968019 
L 909.482927 236.159981 
L 911.462528 233.663962 
L 911.957428 236.352019 
L 912.947228 261.312019 
L 914.431929 263.231981 
L 914.926829 253.631981 
L 915.421729 268.608038 
L 915.91663 261.696019 
L 916.41153 269.184 
L 917.896231 287.424019 
L 918.391131 281.087981 
L 918.886031 281.087981 
L 919.380931 267.647981 
L 919.875831 264 
L 921.360532 262.463962 
L 921.855432 258.431981 
L 922.350333 257.280038 
L 922.845233 258.816 
L 923.340133 248.831981 
L 925.319734 249.791962 
L 925.814634 264.959981 
L 926.309534 257.856 
L 926.804435 257.472 
L 928.784035 245.759981 
L 929.278936 245.375981 
L 929.773836 242.112019 
L 930.268736 242.112019 
L 931.753437 251.519962 
L 932.248337 236.736038 
L 932.743237 236.352019 
L 933.238137 232.319962 
L 933.733038 222.336038 
L 935.217738 218.880038 
L 935.712639 226.368019 
L 936.207539 223.872 
L 936.702439 231.359981 
L 937.197339 234.431981 
L 938.68204 226.368019 
L 939.17694 218.496019 
L 939.67184 219.072 
L 940.166741 208.319962 
L 940.661641 206.016 
L 942.641242 198.336038 
L 943.136142 207.936038 
L 943.631042 220.608038 
L 944.125942 219.840019 
L 945.610643 209.087981 
L 946.105543 206.591962 
L 946.600443 205.440019 
L 947.095344 206.016 
L 947.590244 215.040019 
L 949.569845 229.631981 
L 950.064745 225.408038 
L 950.559645 249.024019 
L 951.054545 254.208038 
L 952.539246 252.287981 
L 953.034146 244.608038 
L 953.529047 254.975981 
L 954.023947 259.2 
L 956.003548 256.703981 
L 956.993348 245.952019 
L 957.488248 251.519962 
L 957.983149 259.775981 
L 959.467849 260.928 
L 959.962749 253.056 
L 960.45765 249.024019 
L 960.95255 256.896019 
L 962.932151 255.359981 
L 963.427051 261.119962 
L 963.921951 255.168019 
L 964.416851 257.663962 
L 964.911752 257.856 
L 966.396452 255.359981 
L 966.891353 253.824019 
L 967.386253 257.087981 
L 967.881153 253.056 
L 968.376053 246.912019 
L 969.860754 237.887981 
L 970.355654 242.687981 
L 970.850554 240.768019 
L 971.345455 237.696019 
L 971.840355 236.159981 
L 973.819956 230.591962 
L 974.314856 225.024019 
L 974.809756 225.024019 
L 975.304656 221.952019 
L 976.789357 222.144 
L 977.284257 220.991962 
L 978.274058 216.191962 
L 978.768958 208.703981 
L 980.253659 196.416 
L 980.748559 200.063962 
L 981.243459 206.784 
L 981.738359 206.208038 
L 982.233259 205.247981 
L 983.71796 211.2 
L 984.21286 203.903981 
L 984.707761 200.063962 
L 985.202661 201.024019 
L 985.697561 192.191962 
L 987.182262 190.656 
L 987.677162 200.640019 
L 988.172062 199.487981 
L 988.666962 205.247981 
L 989.161863 199.487981 
L 990.646563 200.256 
L 991.141463 199.872 
L 991.636364 201.6 
L 992.131264 195.072 
L 994.110865 197.184 
L 994.605765 202.752019 
L 995.100665 199.103981 
L 995.595565 204.480038 
L 996.090466 202.944 
L 997.575166 205.440019 
L 998.070067 200.640019 
L 999.059867 233.087981 
L 999.554767 222.336038 
L 1001.039468 223.296019 
L 1001.534368 220.8 
L 1002.029268 216.768019 
L 1002.524169 211.584 
L 1003.019069 211.2 
L 1004.503769 214.656 
L 1004.99867 213.312019 
L 1005.49357 207.936038 
L 1006.48337 238.463962 
L 1007.968071 232.512019 
L 1008.462971 241.536038 
L 1008.957871 243.263962 
L 1009.452772 250.944 
L 1009.947672 241.344 
L 1011.432373 245.568019 
L 1012.917073 233.280038 
L 1013.411973 239.616 
L 1015.391574 228.672 
L 1015.886475 231.168019 
L 1016.381375 221.952019 
L 1016.876275 225.024019 
L 1018.360976 220.8 
L 1018.855876 217.728 
L 1019.350776 221.759981 
L 1019.845676 224.447981 
L 1020.340576 220.224019 
L 1022.320177 220.416 
L 1022.815078 223.296019 
L 1023.309978 220.991962 
L 1023.804878 223.103981 
L 1025.289579 225.024019 
L 1025.784479 233.280038 
L 1026.774279 223.680038 
L 1027.26918 221.759981 
L 1028.75388 218.496019 
L 1029.24878 218.496019 
L 1030.238581 205.824019 
L 1030.733481 201.984 
L 1032.218182 206.016 
L 1032.713082 214.272 
L 1033.207982 214.656 
L 1033.702882 228.096019 
L 1034.197783 228.096019 
L 1035.682483 230.784 
L 1036.177384 228.863962 
L 1036.672284 239.808038 
L 1037.167184 239.231981 
L 1037.662084 231.936038 
L 1039.146785 234.431981 
L 1039.641685 252.480038 
L 1040.136585 239.040019 
L 1040.631486 252.863962 
L 1041.126386 262.656 
L 1042.611086 266.687981 
L 1043.105987 264.575981 
L 1043.600887 284.352019 
L 1044.095787 281.280038 
L 1044.590687 275.519962 
L 1046.075388 275.903981 
L 1046.570288 258.816 
L 1047.065188 266.112019 
L 1048.054989 246.528 
L 1049.53969 245.568019 
L 1050.03459 234.431981 
L 1051.02439 222.912019 
L 1051.51929 214.080038 
L 1053.003991 207.936038 
L 1053.498891 203.328 
L 1054.488692 188.736038 
L 1054.983592 190.847981 
L 1056.468293 188.544 
L 1056.963193 186.624019 
L 1057.458093 188.352019 
L 1057.952993 188.544 
L 1058.447894 192.384 
L 1059.932594 191.040019 
L 1060.427494 187.584 
L 1060.922395 189.312019 
L 1061.417295 188.928 
L 1061.912195 187.775981 
L 1063.396896 180.096019 
L 1063.891796 187.008038 
L 1064.386696 179.903981 
L 1065.376497 183.359981 
L 1066.861197 194.496019 
L 1067.356098 185.856 
L 1068.345898 177.024019 
L 1068.840798 165.503981 
L 1070.325499 160.896019 
L 1070.820399 163.968019 
L 1071.315299 174.912019 
L 1071.8102 173.759981 
L 1072.3051 189.312019 
L 1073.7898 197.759981 
L 1074.284701 204.480038 
L 1074.779601 188.736038 
L 1075.274501 161.472 
L 1075.769401 164.159981 
L 1077.254102 155.712019 
L 1077.749002 150.528 
L 1078.243902 153.6 
L 1079.233703 153.791962 
L 1080.718404 155.328 
L 1081.213304 157.247981 
L 1081.708204 168.959981 
L 1082.698004 171.263962 
L 1084.182705 192 
L 1084.677605 203.136038 
L 1085.667406 189.696019 
L 1086.162306 207.168019 
L 1087.647007 214.847981 
L 1088.141907 223.680038 
L 1088.636807 238.272 
L 1089.131707 245.952019 
L 1089.626608 234.816 
L 1091.606208 240.768019 
L 1092.101109 221.759981 
L 1092.596009 198.144 
L 1093.090909 200.256 
L 1094.57561 196.224019 
L 1095.07051 206.784 
L 1095.56541 223.680038 
L 1096.06031 214.656 
L 1096.555211 227.328 
L 1098.039911 211.584 
L 1098.534812 201.024019 
L 1099.029712 195.263962 
L 1100.019512 179.328 
L 1101.504213 183.936038 
L 1101.999113 177.216 
L 1102.494013 182.016 
L 1102.988914 165.696019 
L 1103.483814 166.656 
L 1105.463415 166.656 
L 1105.958315 177.024019 
L 1106.453215 181.056 
L 1106.948115 175.296019 
L 1108.432816 177.984 
L 1108.927716 173.375981 
L 1109.422616 171.072 
L 1109.917517 169.344 
L 1110.412417 175.487981 
L 1111.897118 170.303981 
L 1112.392018 172.8 
L 1112.886918 179.328 
L 1113.381818 176.063962 
L 1113.876718 174.336038 
L 1115.361419 170.112019 
L 1115.856319 192.768019 
L 1116.35122 192 
L 1116.84612 178.175981 
L 1117.34102 181.631981 
L 1118.825721 168.575981 
L 1119.320621 168.959981 
L 1119.815521 170.880038 
L 1120.310421 178.752019 
L 1120.805322 170.687981 
L 1122.290022 173.568019 
L 1122.784922 183.359981 
L 1123.279823 198.336038 
L 1123.774723 201.6 
L 1124.269623 209.087981 
L 1125.754324 191.231981 
L 1126.249224 193.536038 
L 1126.744124 196.991962 
L 1127.239024 192.768019 
L 1129.218625 200.256 
L 1129.713525 199.680038 
L 1130.208426 198.144 
L 1130.703326 195.456 
L 1131.198226 192 
L 1132.682927 185.472 
L 1133.177827 196.224019 
L 1133.672727 198.144 
L 1134.662528 217.152019 
L 1136.147228 211.008038 
L 1136.642129 216 
L 1137.137029 209.663962 
L 1137.631929 209.856 
L 1138.126829 211.391962 
L 1139.61153 214.847981 
L 1140.10643 208.896019 
L 1140.60133 206.784 
L 1141.096231 208.896019 
L 1141.591131 208.128 
L 1143.075831 196.031981 
L 1143.570732 201.6 
L 1144.065632 204.480038 
L 1144.560532 204.480038 
L 1145.055432 189.887981 
L 1146.540133 192 
L 1147.035033 189.119962 
L 1148.024834 179.903981 
L 1148.519734 188.544 
L 1150.004435 183.359981 
L 1150.499335 173.952019 
L 1150.994235 185.472 
L 1151.489135 189.887981 
L 1151.984035 195.456 
L 1153.963636 199.296019 
L 1154.458537 189.887981 
L 1154.953437 192.959981 
L 1155.448337 204.287981 
L 1156.933038 206.975981 
L 1157.427938 203.903981 
L 1157.922838 187.775981 
L 1158.417738 196.991962 
L 1158.912639 187.391962 
L 1160.397339 193.728 
L 1160.892239 185.856 
L 1161.38714 171.647981 
L 1161.88204 170.880038 
L 1162.37694 172.224019 
L 1163.861641 179.519962 
L 1164.356541 175.872 
L 1164.851441 174.912019 
L 1165.346341 172.224019 
L 1165.841242 174.912019 
L 1167.820843 166.080038 
L 1168.315743 172.991962 
L 1168.810643 176.447981 
L 1169.305543 177.408038 
L 1170.790244 198.528 
L 1171.285144 198.719962 
L 1171.780044 184.319962 
L 1172.274945 194.496019 
L 1174.254545 194.880038 
L 1174.749446 197.375981 
L 1175.244346 212.736038 
L 1175.739246 207.168019 
L 1176.234146 197.952019 
L 1177.718847 190.463962 
L 1178.213747 189.503981 
L 1178.708647 157.824019 
L 1179.203548 151.487981 
L 1179.698448 151.680038 
L 1181.183149 151.872 
L 1181.678049 153.791962 
L 1182.172949 149.759981 
L 1182.667849 155.328 
L 1183.162749 162.624019 
L 1184.64745 171.840019 
L 1185.14235 173.184 
L 1185.637251 167.808038 
L 1186.132151 166.847981 
L 1186.627051 163.968019 
L 1188.111752 166.463962 
L 1188.606652 163.775981 
L 1189.101552 159.744 
L 1189.596452 163.968019 
L 1190.091353 165.887981 
L 1191.576053 148.416 
L 1192.565854 170.112019 
L 1193.060754 166.656 
L 1193.555654 156.480038 
L 1195.040355 155.519962 
L 1195.535255 153.6 
L 1196.030155 161.087981 
L 1197.019956 210.624019 
L 1198.504656 249.6 
L 1198.999557 268.608038 
L 1199.494457 236.928 
L 1199.989357 214.463962 
L 1200.484257 214.272 
L 1201.968958 218.880038 
L 1202.463858 258.816 
L 1202.958758 244.416 
L 1203.453659 236.352019 
L 1203.948559 253.440019 
L 1205.92816 236.544 
L 1206.42306 247.103981 
L 1206.91796 242.880038 
L 1207.41286 243.647981 
L 1208.897561 246.336038 
L 1209.392461 225.6 
L 1209.887361 218.687981 
L 1210.382262 232.128 
L 1210.877162 241.536038 
L 1212.361863 234.816 
L 1212.856763 242.880038 
L 1213.351663 243.647981 
L 1213.846563 249.408038 
L 1214.341463 231.936038 
L 1215.826164 255.936038 
L 1216.321064 251.519962 
L 1216.815965 244.608038 
L 1217.310865 242.303981 
L 1217.805765 249.6 
L 1219.290466 234.047981 
L 1219.785366 235.391962 
L 1220.280266 229.631981 
L 1220.775166 227.519962 
L 1221.270067 233.663962 
L 1222.754767 232.703981 
L 1223.249667 236.544 
L 1223.744568 254.4 
L 1224.239468 244.608038 
L 1224.734368 249.216 
L 1226.219069 249.984 
L 1226.713969 240 
L 1227.208869 242.880038 
L 1228.19867 213.696019 
L 1229.68337 215.616 
L 1230.178271 223.680038 
L 1230.673171 205.247981 
L 1231.168071 206.4 
L 1231.662971 222.144 
L 1233.642572 212.159981 
L 1234.137472 213.696019 
L 1234.632373 213.503981 
L 1235.127273 192.575981 
L 1236.611973 199.872 
L 1237.106874 199.487981 
L 1237.601774 200.063962 
L 1238.096674 211.775981 
L 1238.591574 218.303981 
L 1240.076275 204.287981 
L 1240.571175 206.016 
L 1241.066075 189.312019 
L 1241.560976 184.319962 
L 1242.055876 186.431981 
L 1243.540576 191.424019 
L 1244.035477 189.887981 
L 1244.530377 191.616 
L 1245.520177 189.119962 
L 1247.004878 189.312019 
L 1247.499778 181.247981 
L 1248.489579 202.559981 
L 1248.984479 180.672 
L 1250.46918 185.087981 
L 1251.45898 206.208038 
L 1251.95388 202.944 
L 1252.44878 221.375981 
L 1253.933481 217.344 
L 1254.428381 193.536038 
L 1254.923282 180.287981 
L 1255.418182 190.463962 
L 1255.913082 218.687981 
L 1257.397783 214.272 
L 1257.892683 212.159981 
L 1258.387583 197.184 
L 1258.882483 198.336038 
L 1260.862084 205.440019 
L 1261.356984 196.416 
L 1261.851885 206.208038 
L 1262.346785 212.736038 
L 1264.326386 235.584 
L 1264.821286 231.744 
L 1265.316186 243.840019 
L 1265.811086 258.816 
L 1266.305987 269.759981 
L 1267.790687 266.687981 
L 1268.285588 252.096019 
L 1268.780488 283.008038 
L 1269.275388 265.344 
L 1269.770288 282.240019 
L 1271.749889 280.703981 
L 1272.244789 285.696019 
L 1272.73969 292.416 
L 1273.23459 276.096019 
L 1274.71929 296.831981 
L 1275.214191 282.816 
L 1275.709091 279.744 
L 1276.203991 278.975981 
L 1276.698891 262.847981 
L 1278.183592 267.840019 
L 1278.678492 288 
L 1279.173392 277.824019 
L 1279.668293 261.887981 
L 1280.163193 262.272 
L 1281.647894 273.024019 
L 1282.142794 275.519962 
L 1282.637694 282.431981 
L 1283.132594 312.959981 
L 1283.627494 281.280038 
L 1285.607095 260.352019 
L 1286.101996 261.696019 
L 1286.596896 273.791962 
L 1287.091796 274.368019 
L 1288.576497 259.584 
L 1289.071397 285.696019 
L 1289.566297 293.952019 
L 1290.061197 280.512019 
L 1290.556098 277.631981 
L 1292.040798 292.416 
L 1292.535698 265.919962 
L 1293.030599 253.824019 
L 1294.020399 244.224019 
L 1295.5051 249.216 
L 1296 266.880038 
L 1296 266.880038 
" style="fill:none;stroke:#ff0000;stroke-linecap:square;"/>
   </g>
   <g id="patch_3">
    <path d="M 180 648 
L 180 72 
" style="fill:none;stroke:#000000;stroke-linecap:square;stroke-linejoin:miter;"/>
   </g>
   <g id="patch_4">
    <path d="M 1296 648 
L 1296 72 
" style="fill:none;stroke:#000000;stroke-linecap:square;stroke-linejoin:miter;"/>
   </g>
   <g id="patch_5">
    <path d="M 180 72 
L 1296 72 
" style="fill:none;stroke:#000000;stroke-linecap:square;stroke-linejoin:miter;"/>
   </g>
   <g id="patch_6">
    <path d="M 180 648 
L 1296 648 
" style="fill:none;stroke:#000000;stroke-linecap:square;stroke-linejoin:miter;"/>
   </g>
   <g id="matplotlib.axis_1">
    <g id="xtick_1">
     <g id="line2d_3">
      <defs>
       <path d="M 0 0 
L 0 -4 
" id="ma57ee38d68" style="stroke:#000000;stroke-width:0.5;"/>
      </defs>
      <g>
       <use style="stroke:#000000;stroke-width:0.5;" x="359.153880266" xlink:href="#ma57ee38d68" y="648.0"/>
      </g>
     </g>
     <g id="line2d_4">
      <defs>
       <path d="M 0 0 
L 0 4 
" id="mf22ec0e9df" style="stroke:#000000;stroke-width:0.5;"/>
      </defs>
      <g>
       <use style="stroke:#000000;stroke-width:0.5;" x="359.153880266" xlink:href="#mf22ec0e9df" y="72.0"/>
      </g>
     </g>
     <g id="text_1">
      <!-- 2011 -->
      <defs>
       <path d="M 31.78125 66.40625 
Q 24.171875 66.40625 20.328125 58.90625 
Q 16.5 51.421875 16.5 36.375 
Q 16.5 21.390625 20.328125 13.890625 
Q 24.171875 6.390625 31.78125 6.390625 
Q 39.453125 6.390625 43.28125 13.890625 
Q 47.125 21.390625 47.125 36.375 
Q 47.125 51.421875 43.28125 58.90625 
Q 39.453125 66.40625 31.78125 66.40625 
M 31.78125 74.21875 
Q 44.046875 74.21875 50.515625 64.515625 
Q 56.984375 54.828125 56.984375 36.375 
Q 56.984375 17.96875 50.515625 8.265625 
Q 44.046875 -1.421875 31.78125 -1.421875 
Q 19.53125 -1.421875 13.0625 8.265625 
Q 6.59375 17.96875 6.59375 36.375 
Q 6.59375 54.828125 13.0625 64.515625 
Q 19.53125 74.21875 31.78125 74.21875 
" id="BitstreamVeraSans-Roman-30"/>
       <path d="M 12.40625 8.296875 
L 28.515625 8.296875 
L 28.515625 63.921875 
L 10.984375 60.40625 
L 10.984375 69.390625 
L 28.421875 72.90625 
L 38.28125 72.90625 
L 38.28125 8.296875 
L 54.390625 8.296875 
L 54.390625 0 
L 12.40625 0 
z
" id="BitstreamVeraSans-Roman-31"/>
       <path d="M 19.1875 8.296875 
L 53.609375 8.296875 
L 53.609375 0 
L 7.328125 0 
L 7.328125 8.296875 
Q 12.9375 14.109375 22.625 23.890625 
Q 32.328125 33.6875 34.8125 36.53125 
Q 39.546875 41.84375 41.421875 45.53125 
Q 43.3125 49.21875 43.3125 52.78125 
Q 43.3125 58.59375 39.234375 62.25 
Q 35.15625 65.921875 28.609375 65.921875 
Q 23.96875 65.921875 18.8125 64.3125 
Q 13.671875 62.703125 7.8125 59.421875 
L 7.8125 69.390625 
Q 13.765625 71.78125 18.9375 73 
Q 24.125 74.21875 28.421875 74.21875 
Q 39.75 74.21875 46.484375 68.546875 
Q 53.21875 62.890625 53.21875 53.421875 
Q 53.21875 48.921875 51.53125 44.890625 
Q 49.859375 40.875 45.40625 35.40625 
Q 44.1875 33.984375 37.640625 27.21875 
Q 31.109375 20.453125 19.1875 8.296875 
" id="BitstreamVeraSans-Roman-32"/>
      </defs>
      <g transform="translate(350.697767047 680.042529117)rotate(-45.0)scale(0.12 -0.12)">
       <use xlink:href="#BitstreamVeraSans-Roman-32"/>
       <use x="63.623046875" xlink:href="#BitstreamVeraSans-Roman-30"/>
       <use x="127.24609375" xlink:href="#BitstreamVeraSans-Roman-31"/>
       <use x="190.869140625" xlink:href="#BitstreamVeraSans-Roman-31"/>
      </g>
     </g>
    </g>
    <g id="xtick_2">
     <g id="line2d_5">
      <g>
       <use style="stroke:#000000;stroke-width:0.5;" x="539.792461197" xlink:href="#ma57ee38d68" y="648.0"/>
      </g>
     </g>
     <g id="line2d_6">
      <g>
       <use style="stroke:#000000;stroke-width:0.5;" x="539.792461197" xlink:href="#mf22ec0e9df" y="72.0"/>
      </g>
     </g>
     <g id="text_2">
      <!-- 2012 -->
      <g transform="translate(531.336347978 680.042529117)rotate(-45.0)scale(0.12 -0.12)">
       <use xlink:href="#BitstreamVeraSans-Roman-32"/>
       <use x="63.623046875" xlink:href="#BitstreamVeraSans-Roman-30"/>
       <use x="127.24609375" xlink:href="#BitstreamVeraSans-Roman-31"/>
       <use x="190.869140625" xlink:href="#BitstreamVeraSans-Roman-32"/>
      </g>
     </g>
    </g>
    <g id="xtick_3">
     <g id="line2d_7">
      <g>
       <use style="stroke:#000000;stroke-width:0.5;" x="720.92594235" xlink:href="#ma57ee38d68" y="648.0"/>
      </g>
     </g>
     <g id="line2d_8">
      <g>
       <use style="stroke:#000000;stroke-width:0.5;" x="720.92594235" xlink:href="#mf22ec0e9df" y="72.0"/>
      </g>
     </g>
     <g id="text_3">
      <!-- 2013 -->
      <defs>
       <path d="M 40.578125 39.3125 
Q 47.65625 37.796875 51.625 33 
Q 55.609375 28.21875 55.609375 21.1875 
Q 55.609375 10.40625 48.1875 4.484375 
Q 40.765625 -1.421875 27.09375 -1.421875 
Q 22.515625 -1.421875 17.65625 -0.515625 
Q 12.796875 0.390625 7.625 2.203125 
L 7.625 11.71875 
Q 11.71875 9.328125 16.59375 8.109375 
Q 21.484375 6.890625 26.8125 6.890625 
Q 36.078125 6.890625 40.9375 10.546875 
Q 45.796875 14.203125 45.796875 21.1875 
Q 45.796875 27.640625 41.28125 31.265625 
Q 36.765625 34.90625 28.71875 34.90625 
L 20.21875 34.90625 
L 20.21875 43.015625 
L 29.109375 43.015625 
Q 36.375 43.015625 40.234375 45.921875 
Q 44.09375 48.828125 44.09375 54.296875 
Q 44.09375 59.90625 40.109375 62.90625 
Q 36.140625 65.921875 28.71875 65.921875 
Q 24.65625 65.921875 20.015625 65.03125 
Q 15.375 64.15625 9.8125 62.3125 
L 9.8125 71.09375 
Q 15.4375 72.65625 20.34375 73.4375 
Q 25.25 74.21875 29.59375 74.21875 
Q 40.828125 74.21875 47.359375 69.109375 
Q 53.90625 64.015625 53.90625 55.328125 
Q 53.90625 49.265625 50.4375 45.09375 
Q 46.96875 40.921875 40.578125 39.3125 
" id="BitstreamVeraSans-Roman-33"/>
      </defs>
      <g transform="translate(712.469829131 680.042529117)rotate(-45.0)scale(0.12 -0.12)">
       <use xlink:href="#BitstreamVeraSans-Roman-32"/>
       <use x="63.623046875" xlink:href="#BitstreamVeraSans-Roman-30"/>
       <use x="127.24609375" xlink:href="#BitstreamVeraSans-Roman-31"/>
       <use x="190.869140625" xlink:href="#BitstreamVeraSans-Roman-33"/>
      </g>
     </g>
    </g>
    <g id="xtick_4">
     <g id="line2d_9">
      <g>
       <use style="stroke:#000000;stroke-width:0.5;" x="901.564523282" xlink:href="#ma57ee38d68" y="648.0"/>
      </g>
     </g>
     <g id="line2d_10">
      <g>
       <use style="stroke:#000000;stroke-width:0.5;" x="901.564523282" xlink:href="#mf22ec0e9df" y="72.0"/>
      </g>
     </g>
     <g id="text_4">
      <!-- 2014 -->
      <defs>
       <path d="M 37.796875 64.3125 
L 12.890625 25.390625 
L 37.796875 25.390625 
z
M 35.203125 72.90625 
L 47.609375 72.90625 
L 47.609375 25.390625 
L 58.015625 25.390625 
L 58.015625 17.1875 
L 47.609375 17.1875 
L 47.609375 0 
L 37.796875 0 
L 37.796875 17.1875 
L 4.890625 17.1875 
L 4.890625 26.703125 
z
" id="BitstreamVeraSans-Roman-34"/>
      </defs>
      <g transform="translate(893.108410062 680.042529117)rotate(-45.0)scale(0.12 -0.12)">
       <use xlink:href="#BitstreamVeraSans-Roman-32"/>
       <use x="63.623046875" xlink:href="#BitstreamVeraSans-Roman-30"/>
       <use x="127.24609375" xlink:href="#BitstreamVeraSans-Roman-31"/>
       <use x="190.869140625" xlink:href="#BitstreamVeraSans-Roman-34"/>
      </g>
     </g>
    </g>
    <g id="xtick_5">
     <g id="line2d_11">
      <g>
       <use style="stroke:#000000;stroke-width:0.5;" x="1082.20310421" xlink:href="#ma57ee38d68" y="648.0"/>
      </g>
     </g>
     <g id="line2d_12">
      <g>
       <use style="stroke:#000000;stroke-width:0.5;" x="1082.20310421" xlink:href="#mf22ec0e9df" y="72.0"/>
      </g>
     </g>
     <g id="text_5">
      <!-- 2015 -->
      <defs>
       <path d="M 10.796875 72.90625 
L 49.515625 72.90625 
L 49.515625 64.59375 
L 19.828125 64.59375 
L 19.828125 46.734375 
Q 21.96875 47.46875 24.109375 47.828125 
Q 26.265625 48.1875 28.421875 48.1875 
Q 40.625 48.1875 47.75 41.5 
Q 54.890625 34.8125 54.890625 23.390625 
Q 54.890625 11.625 47.5625 5.09375 
Q 40.234375 -1.421875 26.90625 -1.421875 
Q 22.3125 -1.421875 17.546875 -0.640625 
Q 12.796875 0.140625 7.71875 1.703125 
L 7.71875 11.625 
Q 12.109375 9.234375 16.796875 8.0625 
Q 21.484375 6.890625 26.703125 6.890625 
Q 35.15625 6.890625 40.078125 11.328125 
Q 45.015625 15.765625 45.015625 23.390625 
Q 45.015625 31 40.078125 35.4375 
Q 35.15625 39.890625 26.703125 39.890625 
Q 22.75 39.890625 18.8125 39.015625 
Q 14.890625 38.140625 10.796875 36.28125 
z
" id="BitstreamVeraSans-Roman-35"/>
      </defs>
      <g transform="translate(1073.74699099 680.042529117)rotate(-45.0)scale(0.12 -0.12)">
       <use xlink:href="#BitstreamVeraSans-Roman-32"/>
       <use x="63.623046875" xlink:href="#BitstreamVeraSans-Roman-30"/>
       <use x="127.24609375" xlink:href="#BitstreamVeraSans-Roman-31"/>
       <use x="190.869140625" xlink:href="#BitstreamVeraSans-Roman-35"/>
      </g>
     </g>
    </g>
    <g id="xtick_6">
     <g id="line2d_13">
      <g>
       <use style="stroke:#000000;stroke-width:0.5;" x="1262.84168514" xlink:href="#ma57ee38d68" y="648.0"/>
      </g>
     </g>
     <g id="line2d_14">
      <g>
       <use style="stroke:#000000;stroke-width:0.5;" x="1262.84168514" xlink:href="#mf22ec0e9df" y="72.0"/>
      </g>
     </g>
     <g id="text_6">
      <!-- 2016 -->
      <defs>
       <path d="M 33.015625 40.375 
Q 26.375 40.375 22.484375 35.828125 
Q 18.609375 31.296875 18.609375 23.390625 
Q 18.609375 15.53125 22.484375 10.953125 
Q 26.375 6.390625 33.015625 6.390625 
Q 39.65625 6.390625 43.53125 10.953125 
Q 47.40625 15.53125 47.40625 23.390625 
Q 47.40625 31.296875 43.53125 35.828125 
Q 39.65625 40.375 33.015625 40.375 
M 52.59375 71.296875 
L 52.59375 62.3125 
Q 48.875 64.0625 45.09375 64.984375 
Q 41.3125 65.921875 37.59375 65.921875 
Q 27.828125 65.921875 22.671875 59.328125 
Q 17.53125 52.734375 16.796875 39.40625 
Q 19.671875 43.65625 24.015625 45.921875 
Q 28.375 48.1875 33.59375 48.1875 
Q 44.578125 48.1875 50.953125 41.515625 
Q 57.328125 34.859375 57.328125 23.390625 
Q 57.328125 12.15625 50.6875 5.359375 
Q 44.046875 -1.421875 33.015625 -1.421875 
Q 20.359375 -1.421875 13.671875 8.265625 
Q 6.984375 17.96875 6.984375 36.375 
Q 6.984375 53.65625 15.1875 63.9375 
Q 23.390625 74.21875 37.203125 74.21875 
Q 40.921875 74.21875 44.703125 73.484375 
Q 48.484375 72.75 52.59375 71.296875 
" id="BitstreamVeraSans-Roman-36"/>
      </defs>
      <g transform="translate(1254.38557192 680.042529117)rotate(-45.0)scale(0.12 -0.12)">
       <use xlink:href="#BitstreamVeraSans-Roman-32"/>
       <use x="63.623046875" xlink:href="#BitstreamVeraSans-Roman-30"/>
       <use x="127.24609375" xlink:href="#BitstreamVeraSans-Roman-31"/>
       <use x="190.869140625" xlink:href="#BitstreamVeraSans-Roman-36"/>
      </g>
     </g>
    </g>
   </g>
   <g id="matplotlib.axis_2">
    <g id="ytick_1">
     <g id="line2d_15">
      <defs>
       <path d="M 0 0 
L 4 0 
" id="m02fdca0f90" style="stroke:#000000;stroke-width:0.5;"/>
      </defs>
      <g>
       <use style="stroke:#000000;stroke-width:0.5;" x="180.0" xlink:href="#m02fdca0f90" y="648.0"/>
      </g>
     </g>
     <g id="line2d_16">
      <defs>
       <path d="M 0 0 
L -4 0 
" id="md2e429a51c" style="stroke:#000000;stroke-width:0.5;"/>
      </defs>
      <g>
       <use style="stroke:#000000;stroke-width:0.5;" x="1296.0" xlink:href="#md2e429a51c" y="648.0"/>
      </g>
     </g>
     <g id="text_7">
      <!-- 20 -->
      <g transform="translate(160.73 651.31125)scale(0.12 -0.12)">
       <use xlink:href="#BitstreamVeraSans-Roman-32"/>
       <use x="63.623046875" xlink:href="#BitstreamVeraSans-Roman-30"/>
      </g>
     </g>
    </g>
    <g id="ytick_2">
     <g id="line2d_17">
      <g>
       <use style="stroke:#000000;stroke-width:0.5;" x="180.0" xlink:href="#m02fdca0f90" y="552.0"/>
      </g>
     </g>
     <g id="line2d_18">
      <g>
       <use style="stroke:#000000;stroke-width:0.5;" x="1296.0" xlink:href="#md2e429a51c" y="552.0"/>
      </g>
     </g>
     <g id="text_8">
      <!-- 25 -->
      <g transform="translate(160.73 555.31125)scale(0.12 -0.12)">
       <use xlink:href="#BitstreamVeraSans-Roman-32"/>
       <use x="63.623046875" xlink:href="#BitstreamVeraSans-Roman-35"/>
      </g>
     </g>
    </g>
    <g id="ytick_3">
     <g id="line2d_19">
      <g>
       <use style="stroke:#000000;stroke-width:0.5;" x="180.0" xlink:href="#m02fdca0f90" y="456.0"/>
      </g>
     </g>
     <g id="line2d_20">
      <g>
       <use style="stroke:#000000;stroke-width:0.5;" x="1296.0" xlink:href="#md2e429a51c" y="456.0"/>
      </g>
     </g>
     <g id="text_9">
      <!-- 30 -->
      <g transform="translate(160.73 459.31125)scale(0.12 -0.12)">
       <use xlink:href="#BitstreamVeraSans-Roman-33"/>
       <use x="63.623046875" xlink:href="#BitstreamVeraSans-Roman-30"/>
      </g>
     </g>
    </g>
    <g id="ytick_4">
     <g id="line2d_21">
      <g>
       <use style="stroke:#000000;stroke-width:0.5;" x="180.0" xlink:href="#m02fdca0f90" y="360.0"/>
      </g>
     </g>
     <g id="line2d_22">
      <g>
       <use style="stroke:#000000;stroke-width:0.5;" x="1296.0" xlink:href="#md2e429a51c" y="360.0"/>
      </g>
     </g>
     <g id="text_10">
      <!-- 35 -->
      <g transform="translate(160.73 363.31125)scale(0.12 -0.12)">
       <use xlink:href="#BitstreamVeraSans-Roman-33"/>
       <use x="63.623046875" xlink:href="#BitstreamVeraSans-Roman-35"/>
      </g>
     </g>
    </g>
    <g id="ytick_5">
     <g id="line2d_23">
      <g>
       <use style="stroke:#000000;stroke-width:0.5;" x="180.0" xlink:href="#m02fdca0f90" y="264.0"/>
      </g>
     </g>
     <g id="line2d_24">
      <g>
       <use style="stroke:#000000;stroke-width:0.5;" x="1296.0" xlink:href="#md2e429a51c" y="264.0"/>
      </g>
     </g>
     <g id="text_11">
      <!-- 40 -->
      <g transform="translate(160.73 267.31125)scale(0.12 -0.12)">
       <use xlink:href="#BitstreamVeraSans-Roman-34"/>
       <use x="63.623046875" xlink:href="#BitstreamVeraSans-Roman-30"/>
      </g>
     </g>
    </g>
    <g id="ytick_6">
     <g id="line2d_25">
      <g>
       <use style="stroke:#000000;stroke-width:0.5;" x="180.0" xlink:href="#m02fdca0f90" y="168.0"/>
      </g>
     </g>
     <g id="line2d_26">
      <g>
       <use style="stroke:#000000;stroke-width:0.5;" x="1296.0" xlink:href="#md2e429a51c" y="168.0"/>
      </g>
     </g>
     <g id="text_12">
      <!-- 45 -->
      <g transform="translate(160.73 171.31125)scale(0.12 -0.12)">
       <use xlink:href="#BitstreamVeraSans-Roman-34"/>
       <use x="63.623046875" xlink:href="#BitstreamVeraSans-Roman-35"/>
      </g>
     </g>
    </g>
    <g id="ytick_7">
     <g id="line2d_27">
      <g>
       <use style="stroke:#000000;stroke-width:0.5;" x="180.0" xlink:href="#m02fdca0f90" y="72.0"/>
      </g>
     </g>
     <g id="line2d_28">
      <g>
       <use style="stroke:#000000;stroke-width:0.5;" x="1296.0" xlink:href="#md2e429a51c" y="72.0"/>
      </g>
     </g>
     <g id="text_13">
      <!-- 50 -->
      <g transform="translate(160.73 75.31125)scale(0.12 -0.12)">
       <use xlink:href="#BitstreamVeraSans-Roman-35"/>
       <use x="63.623046875" xlink:href="#BitstreamVeraSans-Roman-30"/>
      </g>
     </g>
    </g>
   </g>
   <g id="text_14">
    <!-- USB -->
    <defs>
     <path d="M 53.515625 70.515625 
L 53.515625 60.890625 
Q 47.90625 63.578125 42.921875 64.890625 
Q 37.9375 66.21875 33.296875 66.21875 
Q 25.25 66.21875 20.875 63.09375 
Q 16.5 59.96875 16.5 54.203125 
Q 16.5 49.359375 19.40625 46.890625 
Q 22.3125 44.4375 30.421875 42.921875 
L 36.375 41.703125 
Q 47.40625 39.59375 52.65625 34.296875 
Q 57.90625 29 57.90625 20.125 
Q 57.90625 9.515625 50.796875 4.046875 
Q 43.703125 -1.421875 29.984375 -1.421875 
Q 24.8125 -1.421875 18.96875 -0.25 
Q 13.140625 0.921875 6.890625 3.21875 
L 6.890625 13.375 
Q 12.890625 10.015625 18.65625 8.296875 
Q 24.421875 6.59375 29.984375 6.59375 
Q 38.421875 6.59375 43.015625 9.90625 
Q 47.609375 13.234375 47.609375 19.390625 
Q 47.609375 24.75 44.3125 27.78125 
Q 41.015625 30.8125 33.5 32.328125 
L 27.484375 33.5 
Q 16.453125 35.6875 11.515625 40.375 
Q 6.59375 45.0625 6.59375 53.421875 
Q 6.59375 63.09375 13.40625 68.65625 
Q 20.21875 74.21875 32.171875 74.21875 
Q 37.3125 74.21875 42.625 73.28125 
Q 47.953125 72.359375 53.515625 70.515625 
" id="BitstreamVeraSans-Roman-53"/>
     <path d="M 8.6875 72.90625 
L 18.609375 72.90625 
L 18.609375 28.609375 
Q 18.609375 16.890625 22.84375 11.734375 
Q 27.09375 6.59375 36.625 6.59375 
Q 46.09375 6.59375 50.34375 11.734375 
Q 54.59375 16.890625 54.59375 28.609375 
L 54.59375 72.90625 
L 64.5 72.90625 
L 64.5 27.390625 
Q 64.5 13.140625 57.4375 5.859375 
Q 50.390625 -1.421875 36.625 -1.421875 
Q 22.796875 -1.421875 15.734375 5.859375 
Q 8.6875 13.140625 8.6875 27.390625 
z
" id="BitstreamVeraSans-Roman-55"/>
     <path d="M 19.671875 34.8125 
L 19.671875 8.109375 
L 35.5 8.109375 
Q 43.453125 8.109375 47.28125 11.40625 
Q 51.125 14.703125 51.125 21.484375 
Q 51.125 28.328125 47.28125 31.5625 
Q 43.453125 34.8125 35.5 34.8125 
z
M 19.671875 64.796875 
L 19.671875 42.828125 
L 34.28125 42.828125 
Q 41.5 42.828125 45.03125 45.53125 
Q 48.578125 48.25 48.578125 53.8125 
Q 48.578125 59.328125 45.03125 62.0625 
Q 41.5 64.796875 34.28125 64.796875 
z
M 9.8125 72.90625 
L 35.015625 72.90625 
Q 46.296875 72.90625 52.390625 68.21875 
Q 58.5 63.53125 58.5 54.890625 
Q 58.5 48.1875 55.375 44.234375 
Q 52.25 40.28125 46.1875 39.3125 
Q 53.46875 37.75 57.5 32.78125 
Q 61.53125 27.828125 61.53125 20.40625 
Q 61.53125 10.640625 54.890625 5.3125 
Q 48.25 0 35.984375 0 
L 9.8125 0 
z
" id="BitstreamVeraSans-Roman-42"/>
    </defs>
    <g transform="translate(723.21975 67.0)scale(0.144 -0.144)">
     <use xlink:href="#BitstreamVeraSans-Roman-55"/>
     <use x="73.193359375" xlink:href="#BitstreamVeraSans-Roman-53"/>
     <use x="136.669921875" xlink:href="#BitstreamVeraSans-Roman-42"/>
    </g>
   </g>
   <g id="legend_1">
    <g id="patch_7">
     <path d="M 1197.73125 125.793 
L 1288.8 125.793 
L 1288.8 79.2 
L 1197.73125 79.2 
z
" style="fill:#ffffff;stroke:#000000;stroke-linejoin:miter;"/>
    </g>
    <g id="line2d_29">
     <path d="M 1207.81125 90.86175 
L 1227.97125 90.86175 
" style="fill:none;stroke:#0000ff;stroke-linecap:square;"/>
    </g>
    <g id="line2d_30"/>
    <g id="text_15">
     <!-- Open -->
     <defs>
      <path d="M 18.109375 8.203125 
L 18.109375 -20.796875 
L 9.078125 -20.796875 
L 9.078125 54.6875 
L 18.109375 54.6875 
L 18.109375 46.390625 
Q 20.953125 51.265625 25.265625 53.625 
Q 29.59375 56 35.59375 56 
Q 45.5625 56 51.78125 48.09375 
Q 58.015625 40.1875 58.015625 27.296875 
Q 58.015625 14.40625 51.78125 6.484375 
Q 45.5625 -1.421875 35.59375 -1.421875 
Q 29.59375 -1.421875 25.265625 0.953125 
Q 20.953125 3.328125 18.109375 8.203125 
M 48.6875 27.296875 
Q 48.6875 37.203125 44.609375 42.84375 
Q 40.53125 48.484375 33.40625 48.484375 
Q 26.265625 48.484375 22.1875 42.84375 
Q 18.109375 37.203125 18.109375 27.296875 
Q 18.109375 17.390625 22.1875 11.75 
Q 26.265625 6.109375 33.40625 6.109375 
Q 40.53125 6.109375 44.609375 11.75 
Q 48.6875 17.390625 48.6875 27.296875 
" id="BitstreamVeraSans-Roman-70"/>
      <path d="M 39.40625 66.21875 
Q 28.65625 66.21875 22.328125 58.203125 
Q 16.015625 50.203125 16.015625 36.375 
Q 16.015625 22.609375 22.328125 14.59375 
Q 28.65625 6.59375 39.40625 6.59375 
Q 50.140625 6.59375 56.421875 14.59375 
Q 62.703125 22.609375 62.703125 36.375 
Q 62.703125 50.203125 56.421875 58.203125 
Q 50.140625 66.21875 39.40625 66.21875 
M 39.40625 74.21875 
Q 54.734375 74.21875 63.90625 63.9375 
Q 73.09375 53.65625 73.09375 36.375 
Q 73.09375 19.140625 63.90625 8.859375 
Q 54.734375 -1.421875 39.40625 -1.421875 
Q 24.03125 -1.421875 14.8125 8.828125 
Q 5.609375 19.09375 5.609375 36.375 
Q 5.609375 53.65625 14.8125 63.9375 
Q 24.03125 74.21875 39.40625 74.21875 
" id="BitstreamVeraSans-Roman-4f"/>
      <path d="M 56.203125 29.59375 
L 56.203125 25.203125 
L 14.890625 25.203125 
Q 15.484375 15.921875 20.484375 11.0625 
Q 25.484375 6.203125 34.421875 6.203125 
Q 39.59375 6.203125 44.453125 7.46875 
Q 49.3125 8.734375 54.109375 11.28125 
L 54.109375 2.78125 
Q 49.265625 0.734375 44.1875 -0.34375 
Q 39.109375 -1.421875 33.890625 -1.421875 
Q 20.796875 -1.421875 13.15625 6.1875 
Q 5.515625 13.8125 5.515625 26.8125 
Q 5.515625 40.234375 12.765625 48.109375 
Q 20.015625 56 32.328125 56 
Q 43.359375 56 49.78125 48.890625 
Q 56.203125 41.796875 56.203125 29.59375 
M 47.21875 32.234375 
Q 47.125 39.59375 43.09375 43.984375 
Q 39.0625 48.390625 32.421875 48.390625 
Q 24.90625 48.390625 20.390625 44.140625 
Q 15.875 39.890625 15.1875 32.171875 
z
" id="BitstreamVeraSans-Roman-65"/>
      <path d="M 54.890625 33.015625 
L 54.890625 0 
L 45.90625 0 
L 45.90625 32.71875 
Q 45.90625 40.484375 42.875 44.328125 
Q 39.84375 48.1875 33.796875 48.1875 
Q 26.515625 48.1875 22.3125 43.546875 
Q 18.109375 38.921875 18.109375 30.90625 
L 18.109375 0 
L 9.078125 0 
L 9.078125 54.6875 
L 18.109375 54.6875 
L 18.109375 46.1875 
Q 21.34375 51.125 25.703125 53.5625 
Q 30.078125 56 35.796875 56 
Q 45.21875 56 50.046875 50.171875 
Q 54.890625 44.34375 54.890625 33.015625 
" id="BitstreamVeraSans-Roman-6e"/>
     </defs>
     <g transform="translate(1243.81125 95.90175)scale(0.144 -0.144)">
      <use xlink:href="#BitstreamVeraSans-Roman-4f"/>
      <use x="78.7109375" xlink:href="#BitstreamVeraSans-Roman-70"/>
      <use x="142.1875" xlink:href="#BitstreamVeraSans-Roman-65"/>
      <use x="203.7109375" xlink:href="#BitstreamVeraSans-Roman-6e"/>
     </g>
    </g>
    <g id="line2d_31">
     <path d="M 1207.81125 111.99825 
L 1227.97125 111.99825 
" style="fill:none;stroke:#ff0000;stroke-linecap:square;"/>
    </g>
    <g id="line2d_32"/>
    <g id="text_16">
     <!-- Close -->
     <defs>
      <path d="M 64.40625 67.28125 
L 64.40625 56.890625 
Q 59.421875 61.53125 53.78125 63.8125 
Q 48.140625 66.109375 41.796875 66.109375 
Q 29.296875 66.109375 22.65625 58.46875 
Q 16.015625 50.828125 16.015625 36.375 
Q 16.015625 21.96875 22.65625 14.328125 
Q 29.296875 6.6875 41.796875 6.6875 
Q 48.140625 6.6875 53.78125 8.984375 
Q 59.421875 11.28125 64.40625 15.921875 
L 64.40625 5.609375 
Q 59.234375 2.09375 53.4375 0.328125 
Q 47.65625 -1.421875 41.21875 -1.421875 
Q 24.65625 -1.421875 15.125 8.703125 
Q 5.609375 18.84375 5.609375 36.375 
Q 5.609375 53.953125 15.125 64.078125 
Q 24.65625 74.21875 41.21875 74.21875 
Q 47.75 74.21875 53.53125 72.484375 
Q 59.328125 70.75 64.40625 67.28125 
" id="BitstreamVeraSans-Roman-43"/>
      <path d="M 30.609375 48.390625 
Q 23.390625 48.390625 19.1875 42.75 
Q 14.984375 37.109375 14.984375 27.296875 
Q 14.984375 17.484375 19.15625 11.84375 
Q 23.34375 6.203125 30.609375 6.203125 
Q 37.796875 6.203125 41.984375 11.859375 
Q 46.1875 17.53125 46.1875 27.296875 
Q 46.1875 37.015625 41.984375 42.703125 
Q 37.796875 48.390625 30.609375 48.390625 
M 30.609375 56 
Q 42.328125 56 49.015625 48.375 
Q 55.71875 40.765625 55.71875 27.296875 
Q 55.71875 13.875 49.015625 6.21875 
Q 42.328125 -1.421875 30.609375 -1.421875 
Q 18.84375 -1.421875 12.171875 6.21875 
Q 5.515625 13.875 5.515625 27.296875 
Q 5.515625 40.765625 12.171875 48.375 
Q 18.84375 56 30.609375 56 
" id="BitstreamVeraSans-Roman-6f"/>
      <path d="M 44.28125 53.078125 
L 44.28125 44.578125 
Q 40.484375 46.53125 36.375 47.5 
Q 32.28125 48.484375 27.875 48.484375 
Q 21.1875 48.484375 17.84375 46.4375 
Q 14.5 44.390625 14.5 40.28125 
Q 14.5 37.15625 16.890625 35.375 
Q 19.28125 33.59375 26.515625 31.984375 
L 29.59375 31.296875 
Q 39.15625 29.25 43.1875 25.515625 
Q 47.21875 21.78125 47.21875 15.09375 
Q 47.21875 7.46875 41.1875 3.015625 
Q 35.15625 -1.421875 24.609375 -1.421875 
Q 20.21875 -1.421875 15.453125 -0.5625 
Q 10.6875 0.296875 5.421875 2 
L 5.421875 11.28125 
Q 10.40625 8.6875 15.234375 7.390625 
Q 20.0625 6.109375 24.8125 6.109375 
Q 31.15625 6.109375 34.5625 8.28125 
Q 37.984375 10.453125 37.984375 14.40625 
Q 37.984375 18.0625 35.515625 20.015625 
Q 33.0625 21.96875 24.703125 23.78125 
L 21.578125 24.515625 
Q 13.234375 26.265625 9.515625 29.90625 
Q 5.8125 33.546875 5.8125 39.890625 
Q 5.8125 47.609375 11.28125 51.796875 
Q 16.75 56 26.8125 56 
Q 31.78125 56 36.171875 55.265625 
Q 40.578125 54.546875 44.28125 53.078125 
" id="BitstreamVeraSans-Roman-73"/>
      <path d="M 9.421875 75.984375 
L 18.40625 75.984375 
L 18.40625 0 
L 9.421875 0 
z
" id="BitstreamVeraSans-Roman-6c"/>
     </defs>
     <g transform="translate(1243.81125 117.03825)scale(0.144 -0.144)">
      <use xlink:href="#BitstreamVeraSans-Roman-43"/>
      <use x="69.82421875" xlink:href="#BitstreamVeraSans-Roman-6c"/>
      <use x="97.607421875" xlink:href="#BitstreamVeraSans-Roman-6f"/>
      <use x="158.7890625" xlink:href="#BitstreamVeraSans-Roman-73"/>
      <use x="210.888671875" xlink:href="#BitstreamVeraSans-Roman-65"/>
     </g>
    </g>
   </g>
  </g>
 </g>
 <defs>
  <clipPath id="p001192b49f">
   <rect height="576.0" width="1116.0" x="180.0" y="72.0"/>
  </clipPath>
 </defs>
</svg>
