<?xml version="1.0" encoding="utf-8" standalone="no"?>
<!DOCTYPE svg PUBLIC "-//W3C//DTD SVG 1.1//EN"
  "http://www.w3.org/Graphics/SVG/1.1/DTD/svg11.dtd">
<!-- Created with matplotlib (http://matplotlib.org/) -->
<svg height="720pt" version="1.1" viewBox="0 0 1440 720" width="1440pt" xmlns="http://www.w3.org/2000/svg" xmlns:xlink="http://www.w3.org/1999/xlink">
 <defs>
  <style type="text/css">
*{stroke-linecap:butt;stroke-linejoin:round;stroke-miterlimit:100000;}
  </style>
 </defs>
 <g id="figure_1">
  <g id="patch_1">
   <path d="M 0 720 
L 1440 720 
L 1440 0 
L 0 0 
z
" style="fill:#ffffff;"/>
  </g>
  <g id="axes_1">
   <g id="patch_2">
    <path d="M 180 648 
L 1296 648 
L 1296 72 
L 180 72 
z
" style="fill:#ffffff;"/>
   </g>
   <g id="line2d_1">
    <path clip-path="url(#pa3f04090f9)" d="M 180 359.177159 
L 181.172269 352.347429 
L 184.689076 397.028571 
L 185.861345 371.026286 
L 187.033613 392.667437 
L 188.205882 381.888 
L 189.378151 357.942857 
L 192.894958 372.342857 
L 194.067227 389.705151 
L 195.239496 389.622841 
L 196.411765 390.857143 
L 197.584034 386.249135 
L 201.10084 392.255984 
L 202.273109 408.054857 
L 203.445378 397.27542 
L 205.789916 389.622841 
L 209.306723 386.413706 
L 210.478992 395.465151 
L 211.651261 390.692571 
L 213.995798 353.828571 
L 217.512605 355.145143 
L 219.857143 299.108555 
L 221.029412 300.754277 
L 222.201681 267.839992 
L 225.718487 254.180563 
L 226.890756 261.503992 
L 228.063025 261.257143 
L 229.235294 277.055984 
L 230.407563 248.832016 
L 233.92437 237.805731 
L 235.096639 184.402319 
L 237.441176 130.587453 
L 238.613445 153.462874 
L 242.130252 234.349714 
L 243.302521 217.151992 
L 245.647059 195.428571 
L 246.819328 162.514286 
L 250.336134 196.827412 
L 251.508403 173.458302 
L 252.680672 247.186294 
L 253.852941 240.356563 
L 255.02521 257.142857 
L 258.542017 236.736 
L 259.714286 245.78742 
L 260.886555 243.894849 
L 263.231092 206.948588 
L 267.920168 209.170269 
L 269.092437 210.980563 
L 270.264706 224.639992 
L 271.436975 218.715445 
L 274.953782 222.006857 
L 276.12605 257.63658 
L 277.298319 239.698294 
L 278.470588 203.821714 
L 279.642857 208.67658 
L 283.159664 187.858302 
L 284.331933 185.142857 
L 285.504202 177.654824 
L 286.676471 313.837706 
L 287.848739 308.736 
L 291.365546 281.828571 
L 292.537815 292.525706 
L 293.710084 277.302865 
L 296.054622 261.092571 
L 300.743697 254.015992 
L 301.915966 249.161135 
L 303.088235 270.966857 
L 304.260504 260.434302 
L 307.777311 269.238865 
L 308.94958 270.390865 
L 310.121849 277.714286 
L 311.294118 266.688 
L 312.466387 270.061714 
L 315.983193 286.848008 
L 317.155462 283.885714 
L 318.327731 281.581723 
L 319.5 278.454857 
L 320.672269 276.233143 
L 324.189076 285.202286 
L 325.361345 284.626286 
L 326.533613 283.885714 
L 327.705882 278.537126 
L 328.878151 290.879984 
L 332.394958 301.741698 
L 333.567227 302.153151 
L 334.739496 312.274294 
L 335.911765 310.628571 
L 337.084034 316.882269 
L 340.60084 313.179437 
L 342.945378 334.820563 
L 344.117647 359.259429 
L 345.289916 346.422841 
L 348.806723 339.017151 
L 349.978992 345.929151 
L 351.151261 340.251412 
L 352.323529 356.050286 
L 353.495798 366.582849 
L 357.012605 377.526865 
L 358.184874 373.001159 
L 359.357143 382.793143 
L 360.529412 377.691445 
L 361.701681 394.642277 
L 365.218487 389.622841 
L 366.390756 390.610294 
L 367.563025 356.544016 
L 368.735294 362.797714 
L 373.42437 360.329151 
L 374.596639 349.878857 
L 375.768908 352.758849 
L 376.941176 345.929151 
L 378.113445 365.842277 
L 381.630252 386.660588 
L 382.802521 396.781723 
L 383.97479 420.397714 
L 385.147059 409.289159 
L 386.319328 407.725706 
L 389.836134 413.321143 
L 391.008403 437.266277 
L 392.180672 467.218294 
L 393.352941 471.250286 
L 394.52521 465.078857 
L 398.042017 458.084555 
L 399.214286 451.830857 
L 400.386555 455.862874 
L 401.558824 458.578286 
L 402.731092 459.154277 
L 406.247899 466.560008 
L 407.420168 466.971429 
L 408.592437 468.205714 
L 409.764706 472.484571 
L 410.936975 471.003429 
L 415.62605 475.693706 
L 416.798319 471.085714 
L 417.970588 445.001159 
L 419.142857 452.736 
L 422.659664 459.648008 
L 423.831933 469.193143 
L 425.004202 462.939412 
L 426.176471 453.229731 
L 427.348739 449.362294 
L 430.865546 456.767984 
L 432.037815 444.507429 
L 433.210084 441.709714 
L 434.382353 441.791992 
L 435.554622 427.062874 
L 439.071429 428.297135 
L 440.243697 417.353151 
L 441.415966 416.283429 
L 442.588235 411.593143 
L 443.760504 410.852571 
L 447.277311 408.795429 
L 448.44958 405.750865 
L 449.621849 415.625126 
L 450.794118 400.731437 
L 451.966387 395.382849 
L 455.483193 394.477706 
L 456.655462 384.191992 
L 457.827731 377.855984 
L 459 385.179437 
L 463.689076 392.255984 
L 464.861345 401.472008 
L 466.033613 419.081143 
L 467.205882 430.025126 
L 468.378151 416.365698 
L 471.894958 412.909714 
L 473.067227 412.745143 
L 474.239496 415.049135 
L 475.411765 427.474294 
L 476.584034 427.391992 
L 480.10084 423.936 
L 481.273109 415.049135 
L 482.445378 420.479984 
L 483.617647 411.757723 
L 484.789916 415.954277 
L 488.306723 415.131437 
L 489.478992 416.694849 
L 490.651261 343.460588 
L 491.823529 363.126865 
L 492.995798 359.917731 
L 497.684874 374.4 
L 498.857143 373.248008 
L 500.029412 373.41258 
L 501.201681 376.292571 
L 504.718487 372.507429 
L 505.890756 365.101706 
L 507.063025 367.241151 
L 508.235294 364.937126 
L 509.407563 356.132563 
L 512.92437 359.506277 
L 514.096639 358.025126 
L 515.268908 360.576 
L 516.441176 357.613706 
L 517.613445 359.670849 
L 521.130252 349.961135 
L 522.302521 350.948588 
L 523.47479 333.339412 
L 524.647059 335.478857 
L 525.819328 319.762294 
L 530.508403 318.692571 
L 531.680672 303.798841 
L 532.852941 321.408008 
L 534.02521 318.116571 
L 537.542017 304.045723 
L 538.714286 300.507429 
L 539.886555 301.494849 
L 541.058824 297.874294 
L 542.231092 297.874294 
L 545.747899 305.691445 
L 546.920168 329.554277 
L 548.092437 310.87542 
L 549.264706 310.87542 
L 550.436975 312.438865 
L 553.953782 299.273135 
L 555.12605 306.843437 
L 556.298319 297.874294 
L 557.470588 296.557723 
L 558.642857 302.646849 
L 562.159664 309.888 
L 563.331933 302.4 
L 564.504202 309.970269 
L 565.676471 310.381723 
L 566.848739 296.228571 
L 570.365546 286.43658 
L 571.537815 293.184008 
L 572.710084 289.069723 
L 573.882353 275.327992 
L 575.054622 281.252571 
L 578.571429 314.413706 
L 579.743697 326.591992 
L 580.915966 342.637706 
L 582.088235 332.516571 
L 583.260504 321.161135 
L 586.777311 326.509714 
L 587.94958 304.374874 
L 589.121849 309.558849 
L 590.294118 317.78742 
L 591.466387 317.540571 
L 594.983193 318.692571 
L 596.155462 382.628571 
L 597.327731 369.462874 
L 598.5 388.306277 
L 599.672269 379.008008 
L 603.189076 396.617151 
L 604.361345 400.896008 
L 605.533613 387.23658 
L 606.705882 399.579437 
L 607.878151 395.053698 
L 611.394958 398.345143 
L 612.567227 406.820563 
L 613.739496 401.63658 
L 614.911765 371.931437 
L 616.084034 400.978286 
L 619.60084 389.129151 
L 620.773109 395.465151 
L 621.945378 398.262874 
L 623.117647 405.339412 
L 624.289916 399.085714 
L 627.806723 401.225126 
L 628.978992 400.155437 
L 630.151261 402.541698 
L 632.495798 392.173714 
L 636.012605 390.527992 
L 637.184874 406.079984 
L 638.357143 409.371429 
L 639.529412 411.017151 
L 640.701681 409.618277 
L 644.218487 416.941698 
L 645.390756 442.532563 
L 646.563025 426.569143 
L 647.735294 430.354277 
L 648.907563 431.506277 
L 652.42437 416.530277 
L 653.596639 429.942857 
L 654.768908 437.677706 
L 657.113445 428.297135 
L 660.630252 421.714286 
L 661.802521 412.827412 
L 662.97479 420.315445 
L 665.319328 419.574874 
L 668.836134 422.619437 
L 670.008403 433.892571 
L 671.180672 434.962294 
L 673.52521 432.164571 
L 678.214286 431.835429 
L 679.386555 408.548588 
L 680.558824 422.372588 
L 681.731092 407.561135 
L 685.247899 398.838865 
L 686.420168 403.282269 
L 687.592437 410.27658 
L 688.764706 403.61142 
L 689.936975 424.347429 
L 694.62605 420.973714 
L 695.798319 420.479984 
L 696.970588 417.764571 
L 698.142857 405.421714 
L 701.659664 406.655984 
L 702.831933 404.76342 
L 705.176471 422.619437 
L 706.348739 428.708555 
L 709.865546 420.068563 
L 711.037815 417.6 
L 713.382353 384.356563 
L 714.554622 350.784008 
L 718.071429 345.764571 
L 719.243697 340.662874 
L 720.415966 349.549714 
L 721.588235 335.478857 
L 722.760504 335.890286 
L 727.44958 333.668563 
L 728.621849 335.314286 
L 729.794118 336.630857 
L 730.966387 329.060588 
L 734.483193 326.921143 
L 735.655462 332.598841 
L 736.827731 328.731437 
L 738 328.649135 
L 739.172269 325.522294 
L 742.689076 333.174874 
L 743.861345 334.244563 
L 745.033613 339.346302 
L 746.205882 338.688 
L 747.378151 341.403445 
L 750.894958 341.732563 
L 752.067227 341.650286 
L 753.239496 354.569143 
L 754.411765 347.081143 
L 755.584034 344.03658 
L 759.10084 344.365698 
L 760.273109 346.340571 
L 761.445378 345.6 
L 762.617647 343.872008 
L 763.789916 332.351992 
L 767.306723 333.339412 
L 768.478992 329.801159 
L 769.651261 306.514286 
L 770.823529 321.737126 
L 771.995798 315.977159 
L 775.512605 315.154277 
L 776.684874 321.984008 
L 777.857143 310.628571 
L 779.029412 313.590865 
L 783.718487 318.610294 
L 784.890756 310.546302 
L 786.063025 291.538286 
L 787.235294 301.165698 
L 788.407563 300.013706 
L 791.92437 302.482269 
L 793.096639 304.457143 
L 794.268908 307.913126 
L 795.441176 308.160008 
L 796.613445 304.786294 
L 800.130252 310.052571 
L 801.302521 305.033143 
L 802.47479 306.678857 
L 803.647059 303.469723 
L 804.819328 303.634302 
L 808.336134 311.945143 
L 809.508403 301.083429 
L 810.680672 399.414865 
L 811.852941 407.067437 
L 813.02521 407.808008 
L 816.542017 411.67542 
L 817.714286 417.6 
L 818.886555 420.150865 
L 820.058824 423.853698 
L 821.231092 417.435429 
L 824.747899 421.055984 
L 825.920168 423.442277 
L 827.092437 420.397714 
L 828.264706 418.176 
L 829.436975 422.866277 
L 832.953782 425.005731 
L 834.12605 424.67658 
L 835.298319 421.796555 
L 836.470588 427.391992 
L 837.642857 428.297135 
L 842.331933 428.544016 
L 843.504202 429.942857 
L 844.676471 430.025126 
L 845.848739 425.417151 
L 849.365546 428.379437 
L 850.537815 430.354277 
L 851.710084 429.860588 
L 852.882353 424.429731 
L 854.054622 427.556563 
L 857.571429 426.569143 
L 858.743697 429.942857 
L 859.915966 433.974874 
L 861.088235 434.715445 
L 862.260504 426.651412 
L 865.777311 440.310841 
L 866.94958 448.621714 
L 868.121849 442.367984 
L 869.294118 445.330277 
L 870.466387 442.532563 
L 873.983193 434.468563 
L 875.155462 435.867437 
L 876.327731 438.994269 
L 877.5 439.32342 
L 878.672269 442.532563 
L 882.189076 446.646849 
L 883.361345 446.4 
L 884.533613 433.645723 
L 885.705882 438.994269 
L 890.394958 440.886874 
L 891.567227 439.405731 
L 892.739496 438.912 
L 893.911765 440.886874 
L 895.084034 444.918857 
L 898.60084 442.367984 
L 899.773109 435.867437 
L 900.945378 428.626286 
L 902.117647 434.962294 
L 903.289916 430.272008 
L 906.806723 436.114286 
L 907.978992 435.538286 
L 909.151261 432.164571 
L 910.323529 434.057143 
L 911.495798 430.683429 
L 916.184874 444.754277 
L 917.357143 462.116571 
L 918.529412 474.377143 
L 919.701681 472.073151 
L 923.218487 476.434286 
L 924.390756 490.751992 
L 925.563025 488.283429 
L 926.735294 496.594286 
L 927.907563 501.531437 
L 931.42437 499.145143 
L 932.596639 491.574857 
L 933.768908 490.751992 
L 934.941176 486.72 
L 936.113445 495.771429 
L 939.630252 490.093706 
L 940.802521 492.397714 
L 943.147059 506.88 
L 944.319328 519.222857 
L 947.836134 536.009135 
L 949.008403 513.956563 
L 950.180672 526.217151 
L 951.352941 520.950849 
L 952.52521 514.77942 
L 956.042017 502.848008 
L 957.214286 506.221714 
L 958.386555 504.246865 
L 959.558824 499.638849 
L 960.731092 500.297135 
L 965.420168 498.651429 
L 966.592437 506.715429 
L 967.764706 507.538286 
L 968.936975 502.930294 
L 972.453782 506.386294 
L 973.62605 507.785135 
L 974.798319 506.962294 
L 975.970588 503.670849 
L 977.142857 507.785135 
L 980.659664 500.050286 
L 981.831933 507.702865 
L 983.004202 508.361151 
L 984.176471 512.146286 
L 985.348739 509.430857 
L 988.865546 524.90058 
L 990.037815 522.678857 
L 991.210084 516.836563 
L 992.382353 512.475437 
L 993.554622 528.685714 
L 997.071429 508.196571 
L 998.243697 498.569143 
L 999.415966 497.005714 
L 1001.760504 476.022857 
L 1005.277311 480.960008 
L 1006.44958 487.131437 
L 1007.621849 487.872008 
L 1008.794118 487.872008 
L 1009.966387 482.770286 
L 1013.483193 473.965714 
L 1014.655462 475.693706 
L 1015.827731 487.542857 
L 1017 489.682286 
L 1018.172269 483.675437 
L 1021.689076 478.24458 
L 1022.861345 475.035429 
L 1024.033613 498.816008 
L 1025.205882 478.656 
L 1026.378151 490.587437 
L 1029.894958 495.442277 
L 1031.067227 490.916571 
L 1032.239496 488.694849 
L 1033.411765 487.789723 
L 1034.584034 495.113143 
L 1038.10084 499.309714 
L 1039.273109 509.677723 
L 1040.445378 507.456 
L 1041.617647 515.684571 
L 1046.306723 521.856 
L 1047.478992 520.127992 
L 1048.651261 523.172571 
L 1049.823529 516.836563 
L 1050.995798 513.709714 
L 1054.512605 515.437706 
L 1055.684874 523.172571 
L 1056.857143 519.469706 
L 1059.201681 516.507429 
L 1062.718487 518.153135 
L 1063.890756 521.362294 
L 1065.063025 522.02058 
L 1066.235294 520.621714 
L 1067.407563 517.906294 
L 1070.92437 524.653714 
L 1072.096639 532.470849 
L 1073.268908 524.736 
L 1074.441176 529.837706 
L 1075.613445 517.083429 
L 1079.130252 527.204571 
L 1080.302521 528.521143 
L 1081.47479 533.129151 
L 1082.647059 528.93258 
L 1083.819328 538.148571 
L 1087.336134 540.864 
L 1088.508403 547.117714 
L 1089.680672 543.661714 
L 1090.852941 543.497135 
L 1095.542017 541.851429 
L 1096.714286 544.073151 
L 1097.886555 545.554277 
L 1099.058824 547.858286 
L 1103.747899 543.990865 
L 1104.920168 542.756563 
L 1106.092437 552.383992 
L 1107.264706 557.485714 
L 1108.436975 561.517714 
L 1111.953782 564.726849 
L 1113.12605 566.783992 
L 1114.298319 568.182849 
L 1115.470588 577.645723 
L 1116.642857 580.278857 
L 1121.331933 580.690286 
L 1122.504202 597.312 
L 1123.676471 586.77942 
L 1124.848739 579.785135 
L 1128.365546 592.045723 
L 1129.537815 588.589723 
L 1130.710084 590.317714 
L 1131.882353 588.672008 
L 1133.054622 593.362294 
L 1136.571429 583.07658 
L 1137.743697 588.589723 
L 1138.915966 595.913143 
L 1140.088235 595.337143 
L 1141.260504 593.609135 
L 1144.777311 602.660571 
L 1145.94958 609.984 
L 1147.121849 610.56 
L 1148.294118 614.509714 
L 1149.466387 610.642286 
L 1155.327731 594.761151 
L 1156.5 581.348571 
L 1157.672269 580.854857 
L 1161.189076 577.069706 
L 1162.361345 577.563437 
L 1163.533613 582.171429 
L 1164.705882 582.747429 
L 1165.878151 584.475437 
L 1169.394958 582.50058 
L 1170.567227 578.304008 
L 1171.739496 583.405714 
L 1172.911765 577.810277 
L 1174.084034 570.239992 
L 1177.60084 573.037706 
L 1178.773109 573.12 
L 1179.945378 577.151992 
L 1182.289916 592.292571 
L 1185.806723 591.963437 
L 1186.978992 590.4 
L 1188.151261 595.913143 
L 1189.323529 593.28 
L 1190.495798 589.741714 
L 1195.184874 592.457143 
L 1196.357143 591.551992 
L 1197.529412 599.122286 
L 1202.218487 598.793143 
L 1203.390756 601.179429 
L 1204.563025 597.312 
L 1205.735294 595.337143 
L 1206.907563 595.254857 
L 1210.42437 598.628571 
L 1211.596639 585.545143 
L 1212.768908 589.412563 
L 1213.941176 591.387437 
L 1215.113445 589.412563 
L 1218.630252 592.539429 
L 1219.802521 594.514286 
L 1220.97479 593.033143 
L 1222.147059 587.273151 
L 1223.319328 586.121143 
L 1226.836134 584.557723 
L 1228.008403 587.35542 
L 1229.180672 590.893706 
L 1230.352941 586.450286 
L 1231.52521 587.684571 
L 1235.042017 588.754277 
L 1236.214286 588.672008 
L 1237.386555 605.622857 
L 1238.558824 608.091429 
L 1239.731092 609.325714 
L 1243.247899 609.078857 
L 1244.420168 613.275429 
L 1245.592437 615.497143 
L 1246.764706 607.433143 
L 1247.936975 614.098286 
L 1251.453782 612.781714 
L 1252.62605 613.686857 
L 1253.798319 610.066286 
L 1254.970588 609.901714 
L 1256.142857 614.592 
L 1259.659664 614.345143 
L 1260.831933 613.357714 
L 1262.004202 612.205714 
L 1263.176471 613.851429 
L 1264.348739 613.44 
L 1267.865546 611.794286 
L 1269.037815 613.275429 
L 1270.210084 614.509714 
L 1271.382353 611.382857 
L 1272.554622 613.028571 
L 1277.243697 605.869714 
L 1278.415966 605.046857 
L 1279.588235 606.528 
L 1280.760504 605.952 
L 1284.277311 605.046857 
L 1285.44958 603.894857 
L 1286.621849 606.281143 
L 1287.794118 608.173714 
L 1288.966387 611.382857 
L 1292.483193 609.901714 
L 1293.655462 608.338286 
L 1294.827731 601.014857 
L 1296 599.451429 
L 1296 599.451429 
" style="fill:none;stroke:#0000ff;stroke-linecap:square;"/>
   </g>
   <g id="line2d_2">
    <path clip-path="url(#pa3f04090f9)" d="M 180 360.822841 
L 181.172269 387.565698 
L 184.689076 377.279984 
L 185.861345 385.508555 
L 187.033613 379.748588 
L 188.205882 362.550865 
L 189.378151 368.393143 
L 192.894958 391.762294 
L 194.067227 386.742857 
L 195.239496 392.502865 
L 196.411765 384.191992 
L 197.584034 392.914286 
L 201.10084 408.877706 
L 202.273109 399.661714 
L 203.445378 393.737126 
L 205.789916 388.224 
L 209.306723 394.72458 
L 210.478992 389.869723 
L 211.651261 370.779437 
L 212.823529 354.898294 
L 213.995798 360.41142 
L 217.512605 325.933723 
L 218.684874 302.482269 
L 219.857143 299.602286 
L 221.029412 274.998841 
L 222.201681 244.8 
L 225.718487 264.466277 
L 226.890756 265.782849 
L 228.063025 273.517731 
L 229.235294 257.225126 
L 230.407563 236.489159 
L 233.92437 199.213706 
L 235.096639 154.614865 
L 237.441176 127.049159 
L 238.613445 205.714286 
L 242.130252 232.374874 
L 243.302521 206.537126 
L 245.647059 174.857143 
L 246.819328 162.514286 
L 250.336134 184.813706 
L 251.508403 224.557723 
L 253.852941 260.845723 
L 255.02521 261.257143 
L 258.542017 254.509714 
L 259.714286 251.30058 
L 260.886555 223.652571 
L 262.058824 231.881143 
L 263.231092 218.468563 
L 267.920168 215.753151 
L 269.092437 216.493723 
L 270.264706 213.531437 
L 271.436975 222.253698 
L 274.953782 253.769143 
L 276.12605 232.950865 
L 277.298319 241.097135 
L 278.470588 208.018277 
L 279.642857 199.542857 
L 283.159664 193.371429 
L 284.331933 184.566857 
L 285.504202 187.446849 
L 286.676471 318.610294 
L 287.848739 283.062874 
L 291.365546 294.829731 
L 292.537815 285.942857 
L 293.710084 262.491445 
L 294.882353 265.618277 
L 296.054622 257.63658 
L 300.743697 251.547429 
L 301.915966 273.6 
L 303.088235 264.301706 
L 304.260504 270.144016 
L 307.777311 271.296008 
L 308.94958 278.043437 
L 310.121849 270.555437 
L 311.294118 271.378286 
L 312.466387 278.454857 
L 315.983193 288.329151 
L 317.155462 283.638865 
L 318.327731 282.815992 
L 319.5 279.113126 
L 320.672269 289.810294 
L 324.189076 286.930277 
L 325.361345 285.778286 
L 326.533613 281.828571 
L 327.705882 289.481143 
L 328.878151 303.058302 
L 332.394958 301.98858 
L 333.567227 309.558849 
L 334.739496 308.653698 
L 335.911765 317.869723 
L 337.084034 311.286874 
L 340.60084 328.978286 
L 341.773109 336.301706 
L 342.945378 364.690286 
L 344.117647 349.138286 
L 345.289916 341.074294 
L 348.806723 346.258302 
L 349.978992 343.707429 
L 351.151261 353.993143 
L 352.323529 367.817151 
L 353.495798 375.305151 
L 357.012605 380.982849 
L 358.184874 386.496008 
L 359.357143 380.653698 
L 360.529412 390.116571 
L 361.701681 400.731437 
L 365.218487 393.984008 
L 366.390756 355.721143 
L 367.563025 364.772588 
L 368.735294 359.917731 
L 373.42437 350.701706 
L 374.596639 351.606857 
L 375.768908 352.182849 
L 376.941176 361.481143 
L 378.113445 387.894849 
L 381.630252 395.136 
L 382.802521 379.584008 
L 383.97479 409.618277 
L 385.147059 408.630857 
L 386.319328 409.206857 
L 389.836134 411.428571 
L 391.008403 468.205714 
L 392.180672 477.997714 
L 393.352941 467.30058 
L 394.52521 466.560008 
L 398.042017 451.008008 
L 400.386555 459.977159 
L 401.558824 460.635429 
L 402.731092 464.832016 
L 406.247899 466.395429 
L 407.420168 468.864 
L 408.592437 469.028571 
L 409.764706 470.921143 
L 410.936975 479.314286 
L 415.62605 479.232 
L 416.798319 452.406857 
L 417.970588 450.514286 
L 419.142857 463.350865 
L 422.659664 469.028571 
L 423.831933 462.198841 
L 425.004202 459.565698 
L 426.176471 451.419437 
L 427.348739 456.027412 
L 430.865546 446.646849 
L 432.037815 439.241151 
L 433.210084 437.842277 
L 434.382353 427.556563 
L 435.554622 426.651412 
L 439.071429 417.435429 
L 440.243697 417.435429 
L 441.415966 411.510841 
L 442.588235 410.194269 
L 443.760504 407.396555 
L 447.277311 405.092571 
L 448.44958 413.650286 
L 449.621849 405.586294 
L 450.794118 389.293723 
L 451.966387 393.490286 
L 455.483193 393.161135 
L 456.655462 384.274294 
L 457.827731 386.578286 
L 459 390.198841 
L 463.689076 399.250286 
L 464.861345 422.454857 
L 466.033613 417.106277 
L 467.205882 418.916571 
L 468.378151 414.884555 
L 471.894958 415.049135 
L 474.239496 422.290286 
L 475.411765 426.898294 
L 476.584034 425.417151 
L 480.10084 417.18858 
L 481.273109 420.479984 
L 482.445378 419.657143 
L 483.617647 411.757723 
L 484.789916 416.283429 
L 488.306723 418.176 
L 489.478992 412.745143 
L 490.651261 349.302865 
L 492.995798 367.158849 
L 496.512605 372.589706 
L 497.684874 369.627412 
L 498.857143 372.672008 
L 500.029412 376.457143 
L 501.201681 375.38742 
L 504.718487 374.235429 
L 505.890756 369.791992 
L 507.063025 366.994269 
L 508.235294 357.284555 
L 509.407563 361.974874 
L 512.92437 359.01258 
L 515.268908 359.506277 
L 516.441176 359.094849 
L 517.613445 351.936 
L 521.130252 350.948588 
L 522.302521 333.915445 
L 523.47479 334.820563 
L 524.647059 323.547429 
L 530.508403 310.464 
L 531.680672 324.370269 
L 532.852941 316.882269 
L 534.02521 313.097135 
L 537.542017 302.4 
L 538.714286 313.837706 
L 539.886555 294.912 
L 541.058824 297.133723 
L 542.231092 301.494849 
L 545.747899 323.958849 
L 546.920168 312.027412 
L 548.092437 313.097135 
L 549.264706 311.615992 
L 550.436975 294.171429 
L 553.953782 302.893723 
L 555.12605 301.001159 
L 556.298319 294.50058 
L 557.470588 306.925706 
L 558.642857 303.305151 
L 562.159664 304.539412 
L 563.331933 305.855984 
L 564.504202 318.36342 
L 565.676471 303.634302 
L 566.848739 286.43658 
L 570.365546 290.139412 
L 571.537815 289.810294 
L 572.710084 274.258302 
L 573.882353 275.327992 
L 575.054622 315.565698 
L 578.571429 331.282269 
L 579.743697 330.541698 
L 580.915966 318.939412 
L 582.088235 333.421714 
L 583.260504 328.978286 
L 586.777311 313.097135 
L 587.94958 313.673135 
L 589.121849 326.427412 
L 590.294118 321.572588 
L 591.466387 319.268563 
L 594.983193 330.706277 
L 596.155462 370.038865 
L 597.327731 384.027412 
L 598.5 386.331437 
L 599.672269 389.046849 
L 603.189076 399.414865 
L 604.361345 393.737126 
L 605.533613 398.098294 
L 606.705882 394.230857 
L 607.878151 398.591992 
L 611.394958 404.516571 
L 612.567227 404.516571 
L 613.739496 380.242277 
L 614.911765 400.813706 
L 616.084034 385.920016 
L 619.60084 397.27542 
L 620.773109 396.12342 
L 621.945378 403.529151 
L 623.117647 402.706277 
L 624.289916 400.896008 
L 627.806723 399.579437 
L 628.978992 403.117731 
L 630.151261 391.844563 
L 632.495798 386.825126 
L 636.012605 409.042277 
L 637.184874 410.112 
L 638.357143 408.877706 
L 639.529412 411.09942 
L 640.701681 413.567984 
L 644.218487 431.670849 
L 645.390756 425.417151 
L 646.563025 431.177159 
L 647.735294 428.297135 
L 648.907563 425.005731 
L 652.42437 427.062874 
L 653.596639 441.215992 
L 654.768908 437.595429 
L 655.941176 428.050286 
L 657.113445 425.170269 
L 660.630252 414.061714 
L 661.802521 421.138286 
L 662.97479 420.809135 
L 665.319328 420.891445 
L 668.836134 430.601159 
L 670.008403 435.209135 
L 671.180672 435.126865 
L 673.52521 429.449135 
L 677.042017 430.930277 
L 678.214286 411.346302 
L 679.386555 423.52458 
L 680.558824 408.630857 
L 681.731092 399.744016 
L 685.247899 406.326865 
L 686.420168 404.022841 
L 687.592437 402.377159 
L 688.764706 426.404571 
L 689.936975 423.277706 
L 694.62605 421.138286 
L 695.798319 418.998841 
L 696.970588 408.795429 
L 698.142857 405.915445 
L 701.659664 400.320016 
L 702.831933 410.029731 
L 704.004202 424.594269 
L 705.176471 428.461714 
L 706.348739 421.467437 
L 709.865546 422.043437 
L 711.037815 402.870849 
L 712.210084 395.218277 
L 713.382353 390.774874 
L 714.554622 335.232016 
L 718.071429 340.909714 
L 719.243697 349.632016 
L 720.415966 339.428571 
L 721.588235 335.725706 
L 722.760504 331.2 
L 727.44958 335.067437 
L 728.621849 336.795429 
L 729.794118 329.554277 
L 730.966387 326.180563 
L 734.483193 331.446849 
L 735.655462 329.63658 
L 736.827731 330.78858 
L 738 323.712 
L 739.172269 334.655984 
L 742.689076 334.079984 
L 743.861345 337.70058 
L 745.033613 338.852571 
L 746.205882 340.662874 
L 747.378151 345.6 
L 750.894958 338.688 
L 752.067227 353.088 
L 753.239496 349.549714 
L 754.411765 342.966857 
L 755.584034 346.340571 
L 759.10084 348.233143 
L 760.273109 344.118857 
L 761.445378 341.897135 
L 762.617647 335.890286 
L 763.789916 331.693723 
L 767.306723 331.529151 
L 768.478992 306.761135 
L 769.651261 322.971429 
L 770.823529 319.515445 
L 771.995798 318.774874 
L 775.512605 319.762294 
L 776.684874 318.198841 
L 777.857143 314.989706 
L 779.029412 315.401159 
L 783.718487 311.945143 
L 784.890756 295.241151 
L 786.063025 299.931437 
L 787.235294 301.001159 
L 788.407563 302.893723 
L 791.92437 305.526865 
L 793.096639 308.982849 
L 794.268908 308.160008 
L 795.441176 302.153151 
L 796.613445 313.426286 
L 800.130252 307.337126 
L 801.302521 307.995429 
L 802.47479 304.621714 
L 803.647059 307.254857 
L 804.819328 312.109714 
L 808.336134 305.197714 
L 809.508403 382.464 
L 810.680672 413.567984 
L 811.852941 409.70058 
L 813.02521 418.916571 
L 816.542017 418.58742 
L 817.714286 422.372588 
L 818.886555 423.689159 
L 820.058824 419.986294 
L 821.231092 420.973714 
L 824.747899 423.277706 
L 825.920168 421.878857 
L 827.092437 419.903992 
L 828.264706 423.113126 
L 829.436975 425.005731 
L 832.953782 423.52458 
L 834.12605 421.714286 
L 835.298319 427.638865 
L 836.470588 428.461714 
L 837.642857 429.120016 
L 842.331933 429.860588 
L 843.504202 430.683429 
L 844.676471 427.227412 
L 845.848739 428.544016 
L 849.365546 428.873135 
L 850.537815 430.765698 
L 851.710084 425.828571 
L 852.882353 428.214865 
L 854.054622 425.828571 
L 857.571429 430.272008 
L 858.743697 435.044563 
L 859.915966 435.291445 
L 861.088235 435.373714 
L 862.260504 434.879984 
L 865.777311 445.001159 
L 866.94958 443.766857 
L 868.121849 444.83658 
L 869.294118 445.083429 
L 870.466387 435.209135 
L 873.983193 437.760008 
L 876.327731 440.886874 
L 877.5 440.886874 
L 878.672269 440.146302 
L 882.189076 448.786294 
L 883.361345 432.246849 
L 884.533613 438.994269 
L 885.705882 436.361135 
L 890.394958 438.747429 
L 891.567227 438.006857 
L 892.739496 444.260588 
L 893.911765 447.551992 
L 895.084034 443.026286 
L 898.60084 435.867437 
L 899.773109 428.132563 
L 900.945378 436.854857 
L 902.117647 433.234302 
L 903.289916 436.772588 
L 906.806723 435.620563 
L 907.978992 428.873135 
L 909.151261 433.316571 
L 910.323529 432.493723 
L 911.495798 438.829731 
L 915.012605 444.754277 
L 916.184874 429.613706 
L 917.357143 473.225143 
L 918.529412 471.33258 
L 919.701681 475.117714 
L 923.218487 489.435429 
L 924.390756 488.859429 
L 926.735294 503.670849 
L 927.907563 507.785135 
L 931.42437 487.542857 
L 932.596639 486.55542 
L 933.768908 488.448008 
L 934.941176 495.442277 
L 936.113445 491.163437 
L 939.630252 491.163437 
L 941.97479 503.094849 
L 943.147059 516.342857 
L 944.319328 517.412563 
L 947.836134 523.172571 
L 949.008403 529.673151 
L 950.180672 524.324563 
L 951.352941 512.557723 
L 952.52521 509.513143 
L 956.042017 501.613706 
L 957.214286 507.86742 
L 958.386555 501.366857 
L 959.558824 497.417151 
L 960.731092 498.651429 
L 965.420168 506.633143 
L 966.592437 506.633143 
L 967.764706 502.272008 
L 968.936975 504.905151 
L 972.453782 508.937143 
L 973.62605 506.715429 
L 974.798319 501.942857 
L 975.970588 504.740571 
L 977.142857 500.214865 
L 980.659664 504.987437 
L 981.831933 509.513143 
L 983.004202 509.842277 
L 984.176471 511.405714 
L 985.348739 522.185135 
L 988.865546 522.432 
L 990.037815 519.716571 
L 991.210084 508.607992 
L 992.382353 527.204571 
L 993.554622 513.792008 
L 997.071429 498.651429 
L 998.243697 503.012563 
L 999.415966 484.827429 
L 1001.760504 476.434286 
L 1005.277311 493.714286 
L 1008.794118 485.814865 
L 1009.966387 473.965714 
L 1013.483193 475.940571 
L 1014.655462 475.940571 
L 1015.827731 489.18858 
L 1017 490.422857 
L 1018.172269 481.124563 
L 1021.689076 476.105151 
L 1022.861345 472.402286 
L 1024.033613 476.269706 
L 1025.205882 491.163437 
L 1026.378151 496.10058 
L 1029.894958 490.01142 
L 1031.067227 490.587437 
L 1032.239496 488.694849 
L 1033.411765 494.454857 
L 1034.584034 497.581706 
L 1038.10084 507.373714 
L 1039.273109 507.702865 
L 1040.445378 512.228571 
L 1041.617647 515.273151 
L 1042.789916 523.090286 
L 1046.306723 521.197714 
L 1047.478992 522.678857 
L 1048.651261 517.165714 
L 1049.823529 513.709714 
L 1050.995798 514.121143 
L 1054.512605 522.925706 
L 1055.684874 520.292571 
L 1056.857143 515.849151 
L 1059.201681 518.4 
L 1062.718487 521.28 
L 1063.890756 520.210277 
L 1065.063025 521.28 
L 1066.235294 517.165714 
L 1067.407563 524.406857 
L 1070.92437 529.014865 
L 1072.096639 524.653714 
L 1073.268908 530.249151 
L 1074.441176 517.083429 
L 1075.613445 525.888 
L 1079.130252 525.229714 
L 1080.302521 533.21142 
L 1081.47479 530.331437 
L 1082.647059 538.477723 
L 1083.819328 541.110857 
L 1087.336134 548.105151 
L 1088.508403 544.649151 
L 1089.680672 543.744 
L 1090.852941 541.275437 
L 1095.542017 544.895992 
L 1096.714286 545.389723 
L 1097.886555 547.364571 
L 1099.058824 539.87658 
L 1103.747899 544.649151 
L 1104.920168 549.915429 
L 1106.092437 554.27658 
L 1107.264706 563.574857 
L 1108.436975 565.878857 
L 1111.953782 568.594286 
L 1113.12605 568.841135 
L 1114.298319 576.576 
L 1115.470588 573.942857 
L 1116.642857 582.665135 
L 1121.331933 592.950849 
L 1122.504202 587.273151 
L 1123.676471 583.570286 
L 1124.848739 583.488 
L 1128.365546 590.235429 
L 1129.537815 590.317714 
L 1130.710084 592.210277 
L 1131.882353 594.596571 
L 1133.054622 592.045723 
L 1136.571429 582.912 
L 1137.743697 597.970286 
L 1138.915966 594.02058 
L 1140.088235 591.140571 
L 1141.260504 600.932571 
L 1144.777311 607.68 
L 1145.94958 611.794286 
L 1147.121849 607.021714 
L 1148.294118 612.534857 
L 1149.466387 599.616 
L 1154.155462 595.666277 
L 1155.327731 586.614865 
L 1156.5 578.633143 
L 1157.672269 579.62058 
L 1162.361345 579.702865 
L 1163.533613 582.171429 
L 1164.705882 585.545143 
L 1165.878151 582.665135 
L 1169.394958 581.183992 
L 1170.567227 583.405714 
L 1171.739496 577.727992 
L 1172.911765 571.392008 
L 1174.084034 570.980563 
L 1177.60084 572.544 
L 1178.773109 579.456 
L 1179.945378 584.969143 
L 1181.117647 593.609135 
L 1182.289916 591.963437 
L 1185.806723 589.412563 
L 1186.978992 597.065135 
L 1188.151261 592.868563 
L 1189.323529 591.634286 
L 1190.495798 591.634286 
L 1194.012605 591.305151 
L 1195.184874 591.551992 
L 1196.357143 598.546286 
L 1197.529412 599.369143 
L 1202.218487 601.92 
L 1204.563025 595.666277 
L 1205.735294 594.102865 
L 1206.907563 598.793143 
L 1210.42437 589.659429 
L 1211.596639 589.98858 
L 1212.768908 588.260571 
L 1213.941176 590.564571 
L 1215.113445 593.28 
L 1218.630252 594.432 
L 1219.802521 593.938286 
L 1220.97479 587.35542 
L 1222.147059 586.038849 
L 1223.319328 585.627429 
L 1226.836134 587.849151 
L 1228.008403 591.058286 
L 1229.180672 587.108571 
L 1230.352941 586.203429 
L 1231.52521 588.507429 
L 1235.042017 589.659429 
L 1236.214286 584.228571 
L 1237.386555 608.009143 
L 1238.558824 609.819429 
L 1239.731092 609.984 
L 1243.247899 611.794286 
L 1244.420168 615.003429 
L 1245.592437 608.173714 
L 1246.764706 614.098286 
L 1247.936975 611.794286 
L 1251.453782 613.44 
L 1252.62605 609.901714 
L 1253.798319 610.230857 
L 1254.970588 614.427429 
L 1256.142857 614.262857 
L 1260.831933 612.288 
L 1262.004202 613.933714 
L 1263.176471 613.851429 
L 1264.348739 611.547429 
L 1267.865546 611.712 
L 1269.037815 614.838857 
L 1270.210084 611.712 
L 1271.382353 612.617143 
L 1272.554622 606.034286 
L 1277.243697 605.046857 
L 1278.415966 606.692571 
L 1279.588235 605.211429 
L 1280.760504 605.211429 
L 1284.277311 604.635429 
L 1285.44958 606.857143 
L 1286.621849 607.268571 
L 1287.794118 610.148571 
L 1288.966387 614.921143 
L 1292.483193 610.56 
L 1293.655462 603.894857 
L 1294.827731 598.957714 
L 1296 599.698286 
L 1296 599.698286 
" style="fill:none;stroke:#ff0000;stroke-linecap:square;"/>
   </g>
   <g id="patch_3">
    <path d="M 180 648 
L 1296 648 
" style="fill:none;stroke:#000000;stroke-linecap:square;stroke-linejoin:miter;"/>
   </g>
   <g id="patch_4">
    <path d="M 180 648 
L 180 72 
" style="fill:none;stroke:#000000;stroke-linecap:square;stroke-linejoin:miter;"/>
   </g>
   <g id="patch_5">
    <path d="M 180 72 
L 1296 72 
" style="fill:none;stroke:#000000;stroke-linecap:square;stroke-linejoin:miter;"/>
   </g>
   <g id="patch_6">
    <path d="M 1296 648 
L 1296 72 
" style="fill:none;stroke:#000000;stroke-linecap:square;stroke-linejoin:miter;"/>
   </g>
   <g id="matplotlib.axis_1">
    <g id="xtick_1">
     <g id="line2d_3">
      <defs>
       <path d="M 0 0 
L 0 -4 
" id="m9cebf55828" style="stroke:#000000;stroke-width:0.5;"/>
      </defs>
      <g>
       <use style="stroke:#000000;stroke-width:0.5;" x="208.134453782" xlink:href="#m9cebf55828" y="648.0"/>
      </g>
     </g>
     <g id="line2d_4">
      <defs>
       <path d="M 0 0 
L 0 4 
" id="m56cbf35641" style="stroke:#000000;stroke-width:0.5;"/>
      </defs>
      <g>
       <use style="stroke:#000000;stroke-width:0.5;" x="208.134453782" xlink:href="#m56cbf35641" y="72.0"/>
      </g>
     </g>
     <g id="text_1">
      <!-- Dec 2013 -->
      <defs>
       <path d="M 56.203125 29.59375 
L 56.203125 25.203125 
L 14.890625 25.203125 
Q 15.484375 15.921875 20.484375 11.0625 
Q 25.484375 6.203125 34.421875 6.203125 
Q 39.59375 6.203125 44.453125 7.46875 
Q 49.3125 8.734375 54.109375 11.28125 
L 54.109375 2.78125 
Q 49.265625 0.734375 44.1875 -0.34375 
Q 39.109375 -1.421875 33.890625 -1.421875 
Q 20.796875 -1.421875 13.15625 6.1875 
Q 5.515625 13.8125 5.515625 26.8125 
Q 5.515625 40.234375 12.765625 48.109375 
Q 20.015625 56 32.328125 56 
Q 43.359375 56 49.78125 48.890625 
Q 56.203125 41.796875 56.203125 29.59375 
M 47.21875 32.234375 
Q 47.125 39.59375 43.09375 43.984375 
Q 39.0625 48.390625 32.421875 48.390625 
Q 24.90625 48.390625 20.390625 44.140625 
Q 15.875 39.890625 15.1875 32.171875 
z
" id="BitstreamVeraSans-Roman-65"/>
       <path d="M 40.578125 39.3125 
Q 47.65625 37.796875 51.625 33 
Q 55.609375 28.21875 55.609375 21.1875 
Q 55.609375 10.40625 48.1875 4.484375 
Q 40.765625 -1.421875 27.09375 -1.421875 
Q 22.515625 -1.421875 17.65625 -0.515625 
Q 12.796875 0.390625 7.625 2.203125 
L 7.625 11.71875 
Q 11.71875 9.328125 16.59375 8.109375 
Q 21.484375 6.890625 26.8125 6.890625 
Q 36.078125 6.890625 40.9375 10.546875 
Q 45.796875 14.203125 45.796875 21.1875 
Q 45.796875 27.640625 41.28125 31.265625 
Q 36.765625 34.90625 28.71875 34.90625 
L 20.21875 34.90625 
L 20.21875 43.015625 
L 29.109375 43.015625 
Q 36.375 43.015625 40.234375 45.921875 
Q 44.09375 48.828125 44.09375 54.296875 
Q 44.09375 59.90625 40.109375 62.90625 
Q 36.140625 65.921875 28.71875 65.921875 
Q 24.65625 65.921875 20.015625 65.03125 
Q 15.375 64.15625 9.8125 62.3125 
L 9.8125 71.09375 
Q 15.4375 72.65625 20.34375 73.4375 
Q 25.25 74.21875 29.59375 74.21875 
Q 40.828125 74.21875 47.359375 69.109375 
Q 53.90625 64.015625 53.90625 55.328125 
Q 53.90625 49.265625 50.4375 45.09375 
Q 46.96875 40.921875 40.578125 39.3125 
" id="BitstreamVeraSans-Roman-33"/>
       <path d="M 31.78125 66.40625 
Q 24.171875 66.40625 20.328125 58.90625 
Q 16.5 51.421875 16.5 36.375 
Q 16.5 21.390625 20.328125 13.890625 
Q 24.171875 6.390625 31.78125 6.390625 
Q 39.453125 6.390625 43.28125 13.890625 
Q 47.125 21.390625 47.125 36.375 
Q 47.125 51.421875 43.28125 58.90625 
Q 39.453125 66.40625 31.78125 66.40625 
M 31.78125 74.21875 
Q 44.046875 74.21875 50.515625 64.515625 
Q 56.984375 54.828125 56.984375 36.375 
Q 56.984375 17.96875 50.515625 8.265625 
Q 44.046875 -1.421875 31.78125 -1.421875 
Q 19.53125 -1.421875 13.0625 8.265625 
Q 6.59375 17.96875 6.59375 36.375 
Q 6.59375 54.828125 13.0625 64.515625 
Q 19.53125 74.21875 31.78125 74.21875 
" id="BitstreamVeraSans-Roman-30"/>
       <path d="M 19.671875 64.796875 
L 19.671875 8.109375 
L 31.59375 8.109375 
Q 46.6875 8.109375 53.6875 14.9375 
Q 60.6875 21.78125 60.6875 36.53125 
Q 60.6875 51.171875 53.6875 57.984375 
Q 46.6875 64.796875 31.59375 64.796875 
z
M 9.8125 72.90625 
L 30.078125 72.90625 
Q 51.265625 72.90625 61.171875 64.09375 
Q 71.09375 55.28125 71.09375 36.53125 
Q 71.09375 17.671875 61.125 8.828125 
Q 51.171875 0 30.078125 0 
L 9.8125 0 
z
" id="BitstreamVeraSans-Roman-44"/>
       <path d="M 12.40625 8.296875 
L 28.515625 8.296875 
L 28.515625 63.921875 
L 10.984375 60.40625 
L 10.984375 69.390625 
L 28.421875 72.90625 
L 38.28125 72.90625 
L 38.28125 8.296875 
L 54.390625 8.296875 
L 54.390625 0 
L 12.40625 0 
z
" id="BitstreamVeraSans-Roman-31"/>
       <path id="BitstreamVeraSans-Roman-20"/>
       <path d="M 19.1875 8.296875 
L 53.609375 8.296875 
L 53.609375 0 
L 7.328125 0 
L 7.328125 8.296875 
Q 12.9375 14.109375 22.625 23.890625 
Q 32.328125 33.6875 34.8125 36.53125 
Q 39.546875 41.84375 41.421875 45.53125 
Q 43.3125 49.21875 43.3125 52.78125 
Q 43.3125 58.59375 39.234375 62.25 
Q 35.15625 65.921875 28.609375 65.921875 
Q 23.96875 65.921875 18.8125 64.3125 
Q 13.671875 62.703125 7.8125 59.421875 
L 7.8125 69.390625 
Q 13.765625 71.78125 18.9375 73 
Q 24.125 74.21875 28.421875 74.21875 
Q 39.75 74.21875 46.484375 68.546875 
Q 53.21875 62.890625 53.21875 53.421875 
Q 53.21875 48.921875 51.53125 44.890625 
Q 49.859375 40.875 45.40625 35.40625 
Q 44.1875 33.984375 37.640625 27.21875 
Q 31.109375 20.453125 19.1875 8.296875 
" id="BitstreamVeraSans-Roman-32"/>
       <path d="M 48.78125 52.59375 
L 48.78125 44.1875 
Q 44.96875 46.296875 41.140625 47.34375 
Q 37.3125 48.390625 33.40625 48.390625 
Q 24.65625 48.390625 19.8125 42.84375 
Q 14.984375 37.3125 14.984375 27.296875 
Q 14.984375 17.28125 19.8125 11.734375 
Q 24.65625 6.203125 33.40625 6.203125 
Q 37.3125 6.203125 41.140625 7.25 
Q 44.96875 8.296875 48.78125 10.40625 
L 48.78125 2.09375 
Q 45.015625 0.34375 40.984375 -0.53125 
Q 36.96875 -1.421875 32.421875 -1.421875 
Q 20.0625 -1.421875 12.78125 6.34375 
Q 5.515625 14.109375 5.515625 27.296875 
Q 5.515625 40.671875 12.859375 48.328125 
Q 20.21875 56 33.015625 56 
Q 37.15625 56 41.109375 55.140625 
Q 45.0625 54.296875 48.78125 52.59375 
" id="BitstreamVeraSans-Roman-63"/>
      </defs>
      <g transform="translate(190.119803676 699.159602888)rotate(-45.0)scale(0.12 -0.12)">
       <use xlink:href="#BitstreamVeraSans-Roman-44"/>
       <use x="77.001953125" xlink:href="#BitstreamVeraSans-Roman-65"/>
       <use x="138.525390625" xlink:href="#BitstreamVeraSans-Roman-63"/>
       <use x="193.505859375" xlink:href="#BitstreamVeraSans-Roman-20"/>
       <use x="225.29296875" xlink:href="#BitstreamVeraSans-Roman-32"/>
       <use x="288.916015625" xlink:href="#BitstreamVeraSans-Roman-30"/>
       <use x="352.5390625" xlink:href="#BitstreamVeraSans-Roman-31"/>
       <use x="416.162109375" xlink:href="#BitstreamVeraSans-Roman-33"/>
      </g>
     </g>
    </g>
    <g id="xtick_2">
     <g id="line2d_5">
      <g>
       <use style="stroke:#000000;stroke-width:0.5;" x="313.638655462" xlink:href="#m9cebf55828" y="648.0"/>
      </g>
     </g>
     <g id="line2d_6">
      <g>
       <use style="stroke:#000000;stroke-width:0.5;" x="313.638655462" xlink:href="#m56cbf35641" y="72.0"/>
      </g>
     </g>
     <g id="text_2">
      <!-- Mar 2014 -->
      <defs>
       <path d="M 37.796875 64.3125 
L 12.890625 25.390625 
L 37.796875 25.390625 
z
M 35.203125 72.90625 
L 47.609375 72.90625 
L 47.609375 25.390625 
L 58.015625 25.390625 
L 58.015625 17.1875 
L 47.609375 17.1875 
L 47.609375 0 
L 37.796875 0 
L 37.796875 17.1875 
L 4.890625 17.1875 
L 4.890625 26.703125 
z
" id="BitstreamVeraSans-Roman-34"/>
       <path d="M 41.109375 46.296875 
Q 39.59375 47.171875 37.8125 47.578125 
Q 36.03125 48 33.890625 48 
Q 26.265625 48 22.1875 43.046875 
Q 18.109375 38.09375 18.109375 28.8125 
L 18.109375 0 
L 9.078125 0 
L 9.078125 54.6875 
L 18.109375 54.6875 
L 18.109375 46.1875 
Q 20.953125 51.171875 25.484375 53.578125 
Q 30.03125 56 36.53125 56 
Q 37.453125 56 38.578125 55.875 
Q 39.703125 55.765625 41.0625 55.515625 
z
" id="BitstreamVeraSans-Roman-72"/>
       <path d="M 9.8125 72.90625 
L 24.515625 72.90625 
L 43.109375 23.296875 
L 61.8125 72.90625 
L 76.515625 72.90625 
L 76.515625 0 
L 66.890625 0 
L 66.890625 64.015625 
L 48.09375 14.015625 
L 38.1875 14.015625 
L 19.390625 64.015625 
L 19.390625 0 
L 9.8125 0 
z
" id="BitstreamVeraSans-Roman-4d"/>
       <path d="M 34.28125 27.484375 
Q 23.390625 27.484375 19.1875 25 
Q 14.984375 22.515625 14.984375 16.5 
Q 14.984375 11.71875 18.140625 8.90625 
Q 21.296875 6.109375 26.703125 6.109375 
Q 34.1875 6.109375 38.703125 11.40625 
Q 43.21875 16.703125 43.21875 25.484375 
L 43.21875 27.484375 
z
M 52.203125 31.203125 
L 52.203125 0 
L 43.21875 0 
L 43.21875 8.296875 
Q 40.140625 3.328125 35.546875 0.953125 
Q 30.953125 -1.421875 24.3125 -1.421875 
Q 15.921875 -1.421875 10.953125 3.296875 
Q 6 8.015625 6 15.921875 
Q 6 25.140625 12.171875 29.828125 
Q 18.359375 34.515625 30.609375 34.515625 
L 43.21875 34.515625 
L 43.21875 35.40625 
Q 43.21875 41.609375 39.140625 45 
Q 35.0625 48.390625 27.6875 48.390625 
Q 23 48.390625 18.546875 47.265625 
Q 14.109375 46.140625 10.015625 43.890625 
L 10.015625 52.203125 
Q 14.9375 54.109375 19.578125 55.046875 
Q 24.21875 56 28.609375 56 
Q 40.484375 56 46.34375 49.84375 
Q 52.203125 43.703125 52.203125 31.203125 
" id="BitstreamVeraSans-Roman-61"/>
      </defs>
      <g transform="translate(295.829508265 698.748597071)rotate(-45.0)scale(0.12 -0.12)">
       <use xlink:href="#BitstreamVeraSans-Roman-4d"/>
       <use x="86.279296875" xlink:href="#BitstreamVeraSans-Roman-61"/>
       <use x="147.55859375" xlink:href="#BitstreamVeraSans-Roman-72"/>
       <use x="188.671875" xlink:href="#BitstreamVeraSans-Roman-20"/>
       <use x="220.458984375" xlink:href="#BitstreamVeraSans-Roman-32"/>
       <use x="284.08203125" xlink:href="#BitstreamVeraSans-Roman-30"/>
       <use x="347.705078125" xlink:href="#BitstreamVeraSans-Roman-31"/>
       <use x="411.328125" xlink:href="#BitstreamVeraSans-Roman-34"/>
      </g>
     </g>
    </g>
    <g id="xtick_3">
     <g id="line2d_7">
      <g>
       <use style="stroke:#000000;stroke-width:0.5;" x="421.487394958" xlink:href="#m9cebf55828" y="648.0"/>
      </g>
     </g>
     <g id="line2d_8">
      <g>
       <use style="stroke:#000000;stroke-width:0.5;" x="421.487394958" xlink:href="#m56cbf35641" y="72.0"/>
      </g>
     </g>
     <g id="text_3">
      <!-- Jun 2014 -->
      <defs>
       <path d="M 9.8125 72.90625 
L 19.671875 72.90625 
L 19.671875 5.078125 
Q 19.671875 -8.109375 14.671875 -14.0625 
Q 9.671875 -20.015625 -1.421875 -20.015625 
L -5.171875 -20.015625 
L -5.171875 -11.71875 
L -2.09375 -11.71875 
Q 4.4375 -11.71875 7.125 -8.046875 
Q 9.8125 -4.390625 9.8125 5.078125 
z
" id="BitstreamVeraSans-Roman-4a"/>
       <path d="M 54.890625 33.015625 
L 54.890625 0 
L 45.90625 0 
L 45.90625 32.71875 
Q 45.90625 40.484375 42.875 44.328125 
Q 39.84375 48.1875 33.796875 48.1875 
Q 26.515625 48.1875 22.3125 43.546875 
Q 18.109375 38.921875 18.109375 30.90625 
L 18.109375 0 
L 9.078125 0 
L 9.078125 54.6875 
L 18.109375 54.6875 
L 18.109375 46.1875 
Q 21.34375 51.125 25.703125 53.5625 
Q 30.078125 56 35.796875 56 
Q 45.21875 56 50.046875 50.171875 
Q 54.890625 44.34375 54.890625 33.015625 
" id="BitstreamVeraSans-Roman-6e"/>
       <path d="M 8.5 21.578125 
L 8.5 54.6875 
L 17.484375 54.6875 
L 17.484375 21.921875 
Q 17.484375 14.15625 20.5 10.265625 
Q 23.53125 6.390625 29.59375 6.390625 
Q 36.859375 6.390625 41.078125 11.03125 
Q 45.3125 15.671875 45.3125 23.6875 
L 45.3125 54.6875 
L 54.296875 54.6875 
L 54.296875 0 
L 45.3125 0 
L 45.3125 8.40625 
Q 42.046875 3.421875 37.71875 1 
Q 33.40625 -1.421875 27.6875 -1.421875 
Q 18.265625 -1.421875 13.375 4.4375 
Q 8.5 10.296875 8.5 21.578125 
" id="BitstreamVeraSans-Roman-75"/>
      </defs>
      <g transform="translate(405.053791421 695.997509751)rotate(-45.0)scale(0.12 -0.12)">
       <use xlink:href="#BitstreamVeraSans-Roman-4a"/>
       <use x="29.4921875" xlink:href="#BitstreamVeraSans-Roman-75"/>
       <use x="92.87109375" xlink:href="#BitstreamVeraSans-Roman-6e"/>
       <use x="156.25" xlink:href="#BitstreamVeraSans-Roman-20"/>
       <use x="188.037109375" xlink:href="#BitstreamVeraSans-Roman-32"/>
       <use x="251.66015625" xlink:href="#BitstreamVeraSans-Roman-30"/>
       <use x="315.283203125" xlink:href="#BitstreamVeraSans-Roman-31"/>
       <use x="378.90625" xlink:href="#BitstreamVeraSans-Roman-34"/>
      </g>
     </g>
    </g>
    <g id="xtick_4">
     <g id="line2d_9">
      <g>
       <use style="stroke:#000000;stroke-width:0.5;" x="529.336134454" xlink:href="#m9cebf55828" y="648.0"/>
      </g>
     </g>
     <g id="line2d_10">
      <g>
       <use style="stroke:#000000;stroke-width:0.5;" x="529.336134454" xlink:href="#m56cbf35641" y="72.0"/>
      </g>
     </g>
     <g id="text_4">
      <!-- Sep 2014 -->
      <defs>
       <path d="M 18.109375 8.203125 
L 18.109375 -20.796875 
L 9.078125 -20.796875 
L 9.078125 54.6875 
L 18.109375 54.6875 
L 18.109375 46.390625 
Q 20.953125 51.265625 25.265625 53.625 
Q 29.59375 56 35.59375 56 
Q 45.5625 56 51.78125 48.09375 
Q 58.015625 40.1875 58.015625 27.296875 
Q 58.015625 14.40625 51.78125 6.484375 
Q 45.5625 -1.421875 35.59375 -1.421875 
Q 29.59375 -1.421875 25.265625 0.953125 
Q 20.953125 3.328125 18.109375 8.203125 
M 48.6875 27.296875 
Q 48.6875 37.203125 44.609375 42.84375 
Q 40.53125 48.484375 33.40625 48.484375 
Q 26.265625 48.484375 22.1875 42.84375 
Q 18.109375 37.203125 18.109375 27.296875 
Q 18.109375 17.390625 22.1875 11.75 
Q 26.265625 6.109375 33.40625 6.109375 
Q 40.53125 6.109375 44.609375 11.75 
Q 48.6875 17.390625 48.6875 27.296875 
" id="BitstreamVeraSans-Roman-70"/>
       <path d="M 53.515625 70.515625 
L 53.515625 60.890625 
Q 47.90625 63.578125 42.921875 64.890625 
Q 37.9375 66.21875 33.296875 66.21875 
Q 25.25 66.21875 20.875 63.09375 
Q 16.5 59.96875 16.5 54.203125 
Q 16.5 49.359375 19.40625 46.890625 
Q 22.3125 44.4375 30.421875 42.921875 
L 36.375 41.703125 
Q 47.40625 39.59375 52.65625 34.296875 
Q 57.90625 29 57.90625 20.125 
Q 57.90625 9.515625 50.796875 4.046875 
Q 43.703125 -1.421875 29.984375 -1.421875 
Q 24.8125 -1.421875 18.96875 -0.25 
Q 13.140625 0.921875 6.890625 3.21875 
L 6.890625 13.375 
Q 12.890625 10.015625 18.65625 8.296875 
Q 24.421875 6.59375 29.984375 6.59375 
Q 38.421875 6.59375 43.015625 9.90625 
Q 47.609375 13.234375 47.609375 19.390625 
Q 47.609375 24.75 44.3125 27.78125 
Q 41.015625 30.8125 33.5 32.328125 
L 27.484375 33.5 
Q 16.453125 35.6875 11.515625 40.375 
Q 6.59375 45.0625 6.59375 53.421875 
Q 6.59375 63.09375 13.40625 68.65625 
Q 20.21875 74.21875 32.171875 74.21875 
Q 37.3125 74.21875 42.625 73.28125 
Q 47.953125 72.359375 53.515625 70.515625 
" id="BitstreamVeraSans-Roman-53"/>
      </defs>
      <g transform="translate(511.534279296 698.734012994)rotate(-45.0)scale(0.12 -0.12)">
       <use xlink:href="#BitstreamVeraSans-Roman-53"/>
       <use x="63.4765625" xlink:href="#BitstreamVeraSans-Roman-65"/>
       <use x="125.0" xlink:href="#BitstreamVeraSans-Roman-70"/>
       <use x="188.4765625" xlink:href="#BitstreamVeraSans-Roman-20"/>
       <use x="220.263671875" xlink:href="#BitstreamVeraSans-Roman-32"/>
       <use x="283.88671875" xlink:href="#BitstreamVeraSans-Roman-30"/>
       <use x="347.509765625" xlink:href="#BitstreamVeraSans-Roman-31"/>
       <use x="411.1328125" xlink:href="#BitstreamVeraSans-Roman-34"/>
      </g>
     </g>
    </g>
    <g id="xtick_5">
     <g id="line2d_11">
      <g>
       <use style="stroke:#000000;stroke-width:0.5;" x="636.012605042" xlink:href="#m9cebf55828" y="648.0"/>
      </g>
     </g>
     <g id="line2d_12">
      <g>
       <use style="stroke:#000000;stroke-width:0.5;" x="636.012605042" xlink:href="#m56cbf35641" y="72.0"/>
      </g>
     </g>
     <g id="text_5">
      <!-- Dec 2014 -->
      <g transform="translate(617.997954937 699.159602888)rotate(-45.0)scale(0.12 -0.12)">
       <use xlink:href="#BitstreamVeraSans-Roman-44"/>
       <use x="77.001953125" xlink:href="#BitstreamVeraSans-Roman-65"/>
       <use x="138.525390625" xlink:href="#BitstreamVeraSans-Roman-63"/>
       <use x="193.505859375" xlink:href="#BitstreamVeraSans-Roman-20"/>
       <use x="225.29296875" xlink:href="#BitstreamVeraSans-Roman-32"/>
       <use x="288.916015625" xlink:href="#BitstreamVeraSans-Roman-30"/>
       <use x="352.5390625" xlink:href="#BitstreamVeraSans-Roman-31"/>
       <use x="416.162109375" xlink:href="#BitstreamVeraSans-Roman-34"/>
      </g>
     </g>
    </g>
    <g id="xtick_6">
     <g id="line2d_13">
      <g>
       <use style="stroke:#000000;stroke-width:0.5;" x="741.516806723" xlink:href="#m9cebf55828" y="648.0"/>
      </g>
     </g>
     <g id="line2d_14">
      <g>
       <use style="stroke:#000000;stroke-width:0.5;" x="741.516806723" xlink:href="#m56cbf35641" y="72.0"/>
      </g>
     </g>
     <g id="text_6">
      <!-- Mar 2015 -->
      <defs>
       <path d="M 10.796875 72.90625 
L 49.515625 72.90625 
L 49.515625 64.59375 
L 19.828125 64.59375 
L 19.828125 46.734375 
Q 21.96875 47.46875 24.109375 47.828125 
Q 26.265625 48.1875 28.421875 48.1875 
Q 40.625 48.1875 47.75 41.5 
Q 54.890625 34.8125 54.890625 23.390625 
Q 54.890625 11.625 47.5625 5.09375 
Q 40.234375 -1.421875 26.90625 -1.421875 
Q 22.3125 -1.421875 17.546875 -0.640625 
Q 12.796875 0.140625 7.71875 1.703125 
L 7.71875 11.625 
Q 12.109375 9.234375 16.796875 8.0625 
Q 21.484375 6.890625 26.703125 6.890625 
Q 35.15625 6.890625 40.078125 11.328125 
Q 45.015625 15.765625 45.015625 23.390625 
Q 45.015625 31 40.078125 35.4375 
Q 35.15625 39.890625 26.703125 39.890625 
Q 22.75 39.890625 18.8125 39.015625 
Q 14.890625 38.140625 10.796875 36.28125 
z
" id="BitstreamVeraSans-Roman-35"/>
      </defs>
      <g transform="translate(723.707659526 698.748597071)rotate(-45.0)scale(0.12 -0.12)">
       <use xlink:href="#BitstreamVeraSans-Roman-4d"/>
       <use x="86.279296875" xlink:href="#BitstreamVeraSans-Roman-61"/>
       <use x="147.55859375" xlink:href="#BitstreamVeraSans-Roman-72"/>
       <use x="188.671875" xlink:href="#BitstreamVeraSans-Roman-20"/>
       <use x="220.458984375" xlink:href="#BitstreamVeraSans-Roman-32"/>
       <use x="284.08203125" xlink:href="#BitstreamVeraSans-Roman-30"/>
       <use x="347.705078125" xlink:href="#BitstreamVeraSans-Roman-31"/>
       <use x="411.328125" xlink:href="#BitstreamVeraSans-Roman-35"/>
      </g>
     </g>
    </g>
    <g id="xtick_7">
     <g id="line2d_15">
      <g>
       <use style="stroke:#000000;stroke-width:0.5;" x="849.365546218" xlink:href="#m9cebf55828" y="648.0"/>
      </g>
     </g>
     <g id="line2d_16">
      <g>
       <use style="stroke:#000000;stroke-width:0.5;" x="849.365546218" xlink:href="#m56cbf35641" y="72.0"/>
      </g>
     </g>
     <g id="text_7">
      <!-- Jun 2015 -->
      <g transform="translate(832.931942682 695.997509751)rotate(-45.0)scale(0.12 -0.12)">
       <use xlink:href="#BitstreamVeraSans-Roman-4a"/>
       <use x="29.4921875" xlink:href="#BitstreamVeraSans-Roman-75"/>
       <use x="92.87109375" xlink:href="#BitstreamVeraSans-Roman-6e"/>
       <use x="156.25" xlink:href="#BitstreamVeraSans-Roman-20"/>
       <use x="188.037109375" xlink:href="#BitstreamVeraSans-Roman-32"/>
       <use x="251.66015625" xlink:href="#BitstreamVeraSans-Roman-30"/>
       <use x="315.283203125" xlink:href="#BitstreamVeraSans-Roman-31"/>
       <use x="378.90625" xlink:href="#BitstreamVeraSans-Roman-35"/>
      </g>
     </g>
    </g>
    <g id="xtick_8">
     <g id="line2d_17">
      <g>
       <use style="stroke:#000000;stroke-width:0.5;" x="957.214285714" xlink:href="#m9cebf55828" y="648.0"/>
      </g>
     </g>
     <g id="line2d_18">
      <g>
       <use style="stroke:#000000;stroke-width:0.5;" x="957.214285714" xlink:href="#m56cbf35641" y="72.0"/>
      </g>
     </g>
     <g id="text_8">
      <!-- Sep 2015 -->
      <g transform="translate(939.412430556 698.734012994)rotate(-45.0)scale(0.12 -0.12)">
       <use xlink:href="#BitstreamVeraSans-Roman-53"/>
       <use x="63.4765625" xlink:href="#BitstreamVeraSans-Roman-65"/>
       <use x="125.0" xlink:href="#BitstreamVeraSans-Roman-70"/>
       <use x="188.4765625" xlink:href="#BitstreamVeraSans-Roman-20"/>
       <use x="220.263671875" xlink:href="#BitstreamVeraSans-Roman-32"/>
       <use x="283.88671875" xlink:href="#BitstreamVeraSans-Roman-30"/>
       <use x="347.509765625" xlink:href="#BitstreamVeraSans-Roman-31"/>
       <use x="411.1328125" xlink:href="#BitstreamVeraSans-Roman-35"/>
      </g>
     </g>
    </g>
    <g id="xtick_9">
     <g id="line2d_19">
      <g>
       <use style="stroke:#000000;stroke-width:0.5;" x="1063.8907563" xlink:href="#m9cebf55828" y="648.0"/>
      </g>
     </g>
     <g id="line2d_20">
      <g>
       <use style="stroke:#000000;stroke-width:0.5;" x="1063.8907563" xlink:href="#m56cbf35641" y="72.0"/>
      </g>
     </g>
     <g id="text_9">
      <!-- Dec 2015 -->
      <g transform="translate(1045.8761062 699.159602888)rotate(-45.0)scale(0.12 -0.12)">
       <use xlink:href="#BitstreamVeraSans-Roman-44"/>
       <use x="77.001953125" xlink:href="#BitstreamVeraSans-Roman-65"/>
       <use x="138.525390625" xlink:href="#BitstreamVeraSans-Roman-63"/>
       <use x="193.505859375" xlink:href="#BitstreamVeraSans-Roman-20"/>
       <use x="225.29296875" xlink:href="#BitstreamVeraSans-Roman-32"/>
       <use x="288.916015625" xlink:href="#BitstreamVeraSans-Roman-30"/>
       <use x="352.5390625" xlink:href="#BitstreamVeraSans-Roman-31"/>
       <use x="416.162109375" xlink:href="#BitstreamVeraSans-Roman-35"/>
      </g>
     </g>
    </g>
    <g id="xtick_10">
     <g id="line2d_21">
      <g>
       <use style="stroke:#000000;stroke-width:0.5;" x="1170.56722689" xlink:href="#m9cebf55828" y="648.0"/>
      </g>
     </g>
     <g id="line2d_22">
      <g>
       <use style="stroke:#000000;stroke-width:0.5;" x="1170.56722689" xlink:href="#m56cbf35641" y="72.0"/>
      </g>
     </g>
     <g id="text_10">
      <!-- Mar 2016 -->
      <defs>
       <path d="M 33.015625 40.375 
Q 26.375 40.375 22.484375 35.828125 
Q 18.609375 31.296875 18.609375 23.390625 
Q 18.609375 15.53125 22.484375 10.953125 
Q 26.375 6.390625 33.015625 6.390625 
Q 39.65625 6.390625 43.53125 10.953125 
Q 47.40625 15.53125 47.40625 23.390625 
Q 47.40625 31.296875 43.53125 35.828125 
Q 39.65625 40.375 33.015625 40.375 
M 52.59375 71.296875 
L 52.59375 62.3125 
Q 48.875 64.0625 45.09375 64.984375 
Q 41.3125 65.921875 37.59375 65.921875 
Q 27.828125 65.921875 22.671875 59.328125 
Q 17.53125 52.734375 16.796875 39.40625 
Q 19.671875 43.65625 24.015625 45.921875 
Q 28.375 48.1875 33.59375 48.1875 
Q 44.578125 48.1875 50.953125 41.515625 
Q 57.328125 34.859375 57.328125 23.390625 
Q 57.328125 12.15625 50.6875 5.359375 
Q 44.046875 -1.421875 33.015625 -1.421875 
Q 20.359375 -1.421875 13.671875 8.265625 
Q 6.984375 17.96875 6.984375 36.375 
Q 6.984375 53.65625 15.1875 63.9375 
Q 23.390625 74.21875 37.203125 74.21875 
Q 40.921875 74.21875 44.703125 73.484375 
Q 48.484375 72.75 52.59375 71.296875 
" id="BitstreamVeraSans-Roman-36"/>
      </defs>
      <g transform="translate(1152.75807969 698.748597071)rotate(-45.0)scale(0.12 -0.12)">
       <use xlink:href="#BitstreamVeraSans-Roman-4d"/>
       <use x="86.279296875" xlink:href="#BitstreamVeraSans-Roman-61"/>
       <use x="147.55859375" xlink:href="#BitstreamVeraSans-Roman-72"/>
       <use x="188.671875" xlink:href="#BitstreamVeraSans-Roman-20"/>
       <use x="220.458984375" xlink:href="#BitstreamVeraSans-Roman-32"/>
       <use x="284.08203125" xlink:href="#BitstreamVeraSans-Roman-30"/>
       <use x="347.705078125" xlink:href="#BitstreamVeraSans-Roman-31"/>
       <use x="411.328125" xlink:href="#BitstreamVeraSans-Roman-36"/>
      </g>
     </g>
    </g>
    <g id="xtick_11">
     <g id="line2d_23">
      <g>
       <use style="stroke:#000000;stroke-width:0.5;" x="1278.41596639" xlink:href="#m9cebf55828" y="648.0"/>
      </g>
     </g>
     <g id="line2d_24">
      <g>
       <use style="stroke:#000000;stroke-width:0.5;" x="1278.41596639" xlink:href="#m56cbf35641" y="72.0"/>
      </g>
     </g>
     <g id="text_11">
      <!-- Jun 2016 -->
      <g transform="translate(1261.98236285 695.997509751)rotate(-45.0)scale(0.12 -0.12)">
       <use xlink:href="#BitstreamVeraSans-Roman-4a"/>
       <use x="29.4921875" xlink:href="#BitstreamVeraSans-Roman-75"/>
       <use x="92.87109375" xlink:href="#BitstreamVeraSans-Roman-6e"/>
       <use x="156.25" xlink:href="#BitstreamVeraSans-Roman-20"/>
       <use x="188.037109375" xlink:href="#BitstreamVeraSans-Roman-32"/>
       <use x="251.66015625" xlink:href="#BitstreamVeraSans-Roman-30"/>
       <use x="315.283203125" xlink:href="#BitstreamVeraSans-Roman-31"/>
       <use x="378.90625" xlink:href="#BitstreamVeraSans-Roman-36"/>
      </g>
     </g>
    </g>
   </g>
   <g id="matplotlib.axis_2">
    <g id="ytick_1">
     <g id="line2d_25">
      <defs>
       <path d="M 0 0 
L 4 0 
" id="m50e2aaec7e" style="stroke:#000000;stroke-width:0.5;"/>
      </defs>
      <g>
       <use style="stroke:#000000;stroke-width:0.5;" x="180.0" xlink:href="#m50e2aaec7e" y="648.0"/>
      </g>
     </g>
     <g id="line2d_26">
      <defs>
       <path d="M 0 0 
L -4 0 
" id="m6580876b4c" style="stroke:#000000;stroke-width:0.5;"/>
      </defs>
      <g>
       <use style="stroke:#000000;stroke-width:0.5;" x="1296.0" xlink:href="#m6580876b4c" y="648.0"/>
      </g>
     </g>
     <g id="text_12">
      <!-- 10 -->
      <g transform="translate(160.73 651.31125)scale(0.12 -0.12)">
       <use xlink:href="#BitstreamVeraSans-Roman-31"/>
       <use x="63.623046875" xlink:href="#BitstreamVeraSans-Roman-30"/>
      </g>
     </g>
    </g>
    <g id="ytick_2">
     <g id="line2d_27">
      <g>
       <use style="stroke:#000000;stroke-width:0.5;" x="180.0" xlink:href="#m50e2aaec7e" y="565.714285714"/>
      </g>
     </g>
     <g id="line2d_28">
      <g>
       <use style="stroke:#000000;stroke-width:0.5;" x="1296.0" xlink:href="#m6580876b4c" y="565.714285714"/>
      </g>
     </g>
     <g id="text_13">
      <!-- 20 -->
      <g transform="translate(160.73 569.025535714)scale(0.12 -0.12)">
       <use xlink:href="#BitstreamVeraSans-Roman-32"/>
       <use x="63.623046875" xlink:href="#BitstreamVeraSans-Roman-30"/>
      </g>
     </g>
    </g>
    <g id="ytick_3">
     <g id="line2d_29">
      <g>
       <use style="stroke:#000000;stroke-width:0.5;" x="180.0" xlink:href="#m50e2aaec7e" y="483.428571429"/>
      </g>
     </g>
     <g id="line2d_30">
      <g>
       <use style="stroke:#000000;stroke-width:0.5;" x="1296.0" xlink:href="#m6580876b4c" y="483.428571429"/>
      </g>
     </g>
     <g id="text_14">
      <!-- 30 -->
      <g transform="translate(160.73 486.739821429)scale(0.12 -0.12)">
       <use xlink:href="#BitstreamVeraSans-Roman-33"/>
       <use x="63.623046875" xlink:href="#BitstreamVeraSans-Roman-30"/>
      </g>
     </g>
    </g>
    <g id="ytick_4">
     <g id="line2d_31">
      <g>
       <use style="stroke:#000000;stroke-width:0.5;" x="180.0" xlink:href="#m50e2aaec7e" y="401.142857143"/>
      </g>
     </g>
     <g id="line2d_32">
      <g>
       <use style="stroke:#000000;stroke-width:0.5;" x="1296.0" xlink:href="#m6580876b4c" y="401.142857143"/>
      </g>
     </g>
     <g id="text_15">
      <!-- 40 -->
      <g transform="translate(160.73 404.454107143)scale(0.12 -0.12)">
       <use xlink:href="#BitstreamVeraSans-Roman-34"/>
       <use x="63.623046875" xlink:href="#BitstreamVeraSans-Roman-30"/>
      </g>
     </g>
    </g>
    <g id="ytick_5">
     <g id="line2d_33">
      <g>
       <use style="stroke:#000000;stroke-width:0.5;" x="180.0" xlink:href="#m50e2aaec7e" y="318.857142857"/>
      </g>
     </g>
     <g id="line2d_34">
      <g>
       <use style="stroke:#000000;stroke-width:0.5;" x="1296.0" xlink:href="#m6580876b4c" y="318.857142857"/>
      </g>
     </g>
     <g id="text_16">
      <!-- 50 -->
      <g transform="translate(160.73 322.168392857)scale(0.12 -0.12)">
       <use xlink:href="#BitstreamVeraSans-Roman-35"/>
       <use x="63.623046875" xlink:href="#BitstreamVeraSans-Roman-30"/>
      </g>
     </g>
    </g>
    <g id="ytick_6">
     <g id="line2d_35">
      <g>
       <use style="stroke:#000000;stroke-width:0.5;" x="180.0" xlink:href="#m50e2aaec7e" y="236.571428571"/>
      </g>
     </g>
     <g id="line2d_36">
      <g>
       <use style="stroke:#000000;stroke-width:0.5;" x="1296.0" xlink:href="#m6580876b4c" y="236.571428571"/>
      </g>
     </g>
     <g id="text_17">
      <!-- 60 -->
      <g transform="translate(160.73 239.882678571)scale(0.12 -0.12)">
       <use xlink:href="#BitstreamVeraSans-Roman-36"/>
       <use x="63.623046875" xlink:href="#BitstreamVeraSans-Roman-30"/>
      </g>
     </g>
    </g>
    <g id="ytick_7">
     <g id="line2d_37">
      <g>
       <use style="stroke:#000000;stroke-width:0.5;" x="180.0" xlink:href="#m50e2aaec7e" y="154.285714286"/>
      </g>
     </g>
     <g id="line2d_38">
      <g>
       <use style="stroke:#000000;stroke-width:0.5;" x="1296.0" xlink:href="#m6580876b4c" y="154.285714286"/>
      </g>
     </g>
     <g id="text_18">
      <!-- 70 -->
      <defs>
       <path d="M 8.203125 72.90625 
L 55.078125 72.90625 
L 55.078125 68.703125 
L 28.609375 0 
L 18.3125 0 
L 43.21875 64.59375 
L 8.203125 64.59375 
z
" id="BitstreamVeraSans-Roman-37"/>
      </defs>
      <g transform="translate(160.73 157.596964286)scale(0.12 -0.12)">
       <use xlink:href="#BitstreamVeraSans-Roman-37"/>
       <use x="63.623046875" xlink:href="#BitstreamVeraSans-Roman-30"/>
      </g>
     </g>
    </g>
    <g id="ytick_8">
     <g id="line2d_39">
      <g>
       <use style="stroke:#000000;stroke-width:0.5;" x="180.0" xlink:href="#m50e2aaec7e" y="72.0"/>
      </g>
     </g>
     <g id="line2d_40">
      <g>
       <use style="stroke:#000000;stroke-width:0.5;" x="1296.0" xlink:href="#m6580876b4c" y="72.0"/>
      </g>
     </g>
     <g id="text_19">
      <!-- 80 -->
      <defs>
       <path d="M 31.78125 34.625 
Q 24.75 34.625 20.71875 30.859375 
Q 16.703125 27.09375 16.703125 20.515625 
Q 16.703125 13.921875 20.71875 10.15625 
Q 24.75 6.390625 31.78125 6.390625 
Q 38.8125 6.390625 42.859375 10.171875 
Q 46.921875 13.96875 46.921875 20.515625 
Q 46.921875 27.09375 42.890625 30.859375 
Q 38.875 34.625 31.78125 34.625 
M 21.921875 38.8125 
Q 15.578125 40.375 12.03125 44.71875 
Q 8.5 49.078125 8.5 55.328125 
Q 8.5 64.0625 14.71875 69.140625 
Q 20.953125 74.21875 31.78125 74.21875 
Q 42.671875 74.21875 48.875 69.140625 
Q 55.078125 64.0625 55.078125 55.328125 
Q 55.078125 49.078125 51.53125 44.71875 
Q 48 40.375 41.703125 38.8125 
Q 48.828125 37.15625 52.796875 32.3125 
Q 56.78125 27.484375 56.78125 20.515625 
Q 56.78125 9.90625 50.3125 4.234375 
Q 43.84375 -1.421875 31.78125 -1.421875 
Q 19.734375 -1.421875 13.25 4.234375 
Q 6.78125 9.90625 6.78125 20.515625 
Q 6.78125 27.484375 10.78125 32.3125 
Q 14.796875 37.15625 21.921875 38.8125 
M 18.3125 54.390625 
Q 18.3125 48.734375 21.84375 45.5625 
Q 25.390625 42.390625 31.78125 42.390625 
Q 38.140625 42.390625 41.71875 45.5625 
Q 45.3125 48.734375 45.3125 54.390625 
Q 45.3125 60.0625 41.71875 63.234375 
Q 38.140625 66.40625 31.78125 66.40625 
Q 25.390625 66.40625 21.84375 63.234375 
Q 18.3125 60.0625 18.3125 54.390625 
" id="BitstreamVeraSans-Roman-38"/>
      </defs>
      <g transform="translate(160.73 75.31125)scale(0.12 -0.12)">
       <use xlink:href="#BitstreamVeraSans-Roman-38"/>
       <use x="63.623046875" xlink:href="#BitstreamVeraSans-Roman-30"/>
      </g>
     </g>
    </g>
   </g>
   <g id="text_20">
    <!-- TWTR -->
    <defs>
     <path d="M 3.328125 72.90625 
L 13.28125 72.90625 
L 28.609375 11.28125 
L 43.890625 72.90625 
L 54.984375 72.90625 
L 70.3125 11.28125 
L 85.59375 72.90625 
L 95.609375 72.90625 
L 77.296875 0 
L 64.890625 0 
L 49.515625 63.28125 
L 33.984375 0 
L 21.578125 0 
z
" id="BitstreamVeraSans-Roman-57"/>
     <path d="M 44.390625 34.1875 
Q 47.5625 33.109375 50.5625 29.59375 
Q 53.5625 26.078125 56.59375 19.921875 
L 66.609375 0 
L 56 0 
L 46.6875 18.703125 
Q 43.0625 26.03125 39.671875 28.421875 
Q 36.28125 30.8125 30.421875 30.8125 
L 19.671875 30.8125 
L 19.671875 0 
L 9.8125 0 
L 9.8125 72.90625 
L 32.078125 72.90625 
Q 44.578125 72.90625 50.734375 67.671875 
Q 56.890625 62.453125 56.890625 51.90625 
Q 56.890625 45.015625 53.6875 40.46875 
Q 50.484375 35.9375 44.390625 34.1875 
M 19.671875 64.796875 
L 19.671875 38.921875 
L 32.078125 38.921875 
Q 39.203125 38.921875 42.84375 42.21875 
Q 46.484375 45.515625 46.484375 51.90625 
Q 46.484375 58.296875 42.84375 61.546875 
Q 39.203125 64.796875 32.078125 64.796875 
z
" id="BitstreamVeraSans-Roman-52"/>
     <path d="M -0.296875 72.90625 
L 61.375 72.90625 
L 61.375 64.59375 
L 35.5 64.59375 
L 35.5 0 
L 25.59375 0 
L 25.59375 64.59375 
L -0.296875 64.59375 
z
" id="BitstreamVeraSans-Roman-54"/>
    </defs>
    <g transform="translate(717.082875 67.0)scale(0.144 -0.144)">
     <use xlink:href="#BitstreamVeraSans-Roman-54"/>
     <use x="61.083984375" xlink:href="#BitstreamVeraSans-Roman-57"/>
     <use x="159.9609375" xlink:href="#BitstreamVeraSans-Roman-54"/>
     <use x="221.044921875" xlink:href="#BitstreamVeraSans-Roman-52"/>
    </g>
   </g>
   <g id="legend_1">
    <g id="patch_7">
     <path d="M 1197.73125 125.793 
L 1288.8 125.793 
L 1288.8 79.2 
L 1197.73125 79.2 
z
" style="fill:#ffffff;stroke:#000000;stroke-linejoin:miter;"/>
    </g>
    <g id="line2d_41">
     <path d="M 1207.81125 90.86175 
L 1227.97125 90.86175 
" style="fill:none;stroke:#0000ff;stroke-linecap:square;"/>
    </g>
    <g id="line2d_42"/>
    <g id="text_21">
     <!-- Open -->
     <defs>
      <path d="M 39.40625 66.21875 
Q 28.65625 66.21875 22.328125 58.203125 
Q 16.015625 50.203125 16.015625 36.375 
Q 16.015625 22.609375 22.328125 14.59375 
Q 28.65625 6.59375 39.40625 6.59375 
Q 50.140625 6.59375 56.421875 14.59375 
Q 62.703125 22.609375 62.703125 36.375 
Q 62.703125 50.203125 56.421875 58.203125 
Q 50.140625 66.21875 39.40625 66.21875 
M 39.40625 74.21875 
Q 54.734375 74.21875 63.90625 63.9375 
Q 73.09375 53.65625 73.09375 36.375 
Q 73.09375 19.140625 63.90625 8.859375 
Q 54.734375 -1.421875 39.40625 -1.421875 
Q 24.03125 -1.421875 14.8125 8.828125 
Q 5.609375 19.09375 5.609375 36.375 
Q 5.609375 53.65625 14.8125 63.9375 
Q 24.03125 74.21875 39.40625 74.21875 
" id="BitstreamVeraSans-Roman-4f"/>
     </defs>
     <g transform="translate(1243.81125 95.90175)scale(0.144 -0.144)">
      <use xlink:href="#BitstreamVeraSans-Roman-4f"/>
      <use x="78.7109375" xlink:href="#BitstreamVeraSans-Roman-70"/>
      <use x="142.1875" xlink:href="#BitstreamVeraSans-Roman-65"/>
      <use x="203.7109375" xlink:href="#BitstreamVeraSans-Roman-6e"/>
     </g>
    </g>
    <g id="line2d_43">
     <path d="M 1207.81125 111.99825 
L 1227.97125 111.99825 
" style="fill:none;stroke:#ff0000;stroke-linecap:square;"/>
    </g>
    <g id="line2d_44"/>
    <g id="text_22">
     <!-- Close -->
     <defs>
      <path d="M 30.609375 48.390625 
Q 23.390625 48.390625 19.1875 42.75 
Q 14.984375 37.109375 14.984375 27.296875 
Q 14.984375 17.484375 19.15625 11.84375 
Q 23.34375 6.203125 30.609375 6.203125 
Q 37.796875 6.203125 41.984375 11.859375 
Q 46.1875 17.53125 46.1875 27.296875 
Q 46.1875 37.015625 41.984375 42.703125 
Q 37.796875 48.390625 30.609375 48.390625 
M 30.609375 56 
Q 42.328125 56 49.015625 48.375 
Q 55.71875 40.765625 55.71875 27.296875 
Q 55.71875 13.875 49.015625 6.21875 
Q 42.328125 -1.421875 30.609375 -1.421875 
Q 18.84375 -1.421875 12.171875 6.21875 
Q 5.515625 13.875 5.515625 27.296875 
Q 5.515625 40.765625 12.171875 48.375 
Q 18.84375 56 30.609375 56 
" id="BitstreamVeraSans-Roman-6f"/>
      <path d="M 64.40625 67.28125 
L 64.40625 56.890625 
Q 59.421875 61.53125 53.78125 63.8125 
Q 48.140625 66.109375 41.796875 66.109375 
Q 29.296875 66.109375 22.65625 58.46875 
Q 16.015625 50.828125 16.015625 36.375 
Q 16.015625 21.96875 22.65625 14.328125 
Q 29.296875 6.6875 41.796875 6.6875 
Q 48.140625 6.6875 53.78125 8.984375 
Q 59.421875 11.28125 64.40625 15.921875 
L 64.40625 5.609375 
Q 59.234375 2.09375 53.4375 0.328125 
Q 47.65625 -1.421875 41.21875 -1.421875 
Q 24.65625 -1.421875 15.125 8.703125 
Q 5.609375 18.84375 5.609375 36.375 
Q 5.609375 53.953125 15.125 64.078125 
Q 24.65625 74.21875 41.21875 74.21875 
Q 47.75 74.21875 53.53125 72.484375 
Q 59.328125 70.75 64.40625 67.28125 
" id="BitstreamVeraSans-Roman-43"/>
      <path d="M 9.421875 75.984375 
L 18.40625 75.984375 
L 18.40625 0 
L 9.421875 0 
z
" id="BitstreamVeraSans-Roman-6c"/>
      <path d="M 44.28125 53.078125 
L 44.28125 44.578125 
Q 40.484375 46.53125 36.375 47.5 
Q 32.28125 48.484375 27.875 48.484375 
Q 21.1875 48.484375 17.84375 46.4375 
Q 14.5 44.390625 14.5 40.28125 
Q 14.5 37.15625 16.890625 35.375 
Q 19.28125 33.59375 26.515625 31.984375 
L 29.59375 31.296875 
Q 39.15625 29.25 43.1875 25.515625 
Q 47.21875 21.78125 47.21875 15.09375 
Q 47.21875 7.46875 41.1875 3.015625 
Q 35.15625 -1.421875 24.609375 -1.421875 
Q 20.21875 -1.421875 15.453125 -0.5625 
Q 10.6875 0.296875 5.421875 2 
L 5.421875 11.28125 
Q 10.40625 8.6875 15.234375 7.390625 
Q 20.0625 6.109375 24.8125 6.109375 
Q 31.15625 6.109375 34.5625 8.28125 
Q 37.984375 10.453125 37.984375 14.40625 
Q 37.984375 18.0625 35.515625 20.015625 
Q 33.0625 21.96875 24.703125 23.78125 
L 21.578125 24.515625 
Q 13.234375 26.265625 9.515625 29.90625 
Q 5.8125 33.546875 5.8125 39.890625 
Q 5.8125 47.609375 11.28125 51.796875 
Q 16.75 56 26.8125 56 
Q 31.78125 56 36.171875 55.265625 
Q 40.578125 54.546875 44.28125 53.078125 
" id="BitstreamVeraSans-Roman-73"/>
     </defs>
     <g transform="translate(1243.81125 117.03825)scale(0.144 -0.144)">
      <use xlink:href="#BitstreamVeraSans-Roman-43"/>
      <use x="69.82421875" xlink:href="#BitstreamVeraSans-Roman-6c"/>
      <use x="97.607421875" xlink:href="#BitstreamVeraSans-Roman-6f"/>
      <use x="158.7890625" xlink:href="#BitstreamVeraSans-Roman-73"/>
      <use x="210.888671875" xlink:href="#BitstreamVeraSans-Roman-65"/>
     </g>
    </g>
   </g>
  </g>
 </g>
 <defs>
  <clipPath id="pa3f04090f9">
   <rect height="576.0" width="1116.0" x="180.0" y="72.0"/>
  </clipPath>
 </defs>
</svg>
